<?xml version="1.0" encoding="UTF-8" standalone="no"?>
<!-- Created with Inkscape (http://www.inkscape.org/) -->

<svg
   version="1.1"
   id="svg1"
   width="226.772"
   height="226.772"
   viewBox="0 0 226.772 226.772"
   sodipodi:docname="black2022_surfaces.svg"
   inkscape:version="1.4.3 (0d15f75, 2025-12-25)"
   xmlns:inkscape="http://www.inkscape.org/namespaces/inkscape"
   xmlns:sodipodi="http://sodipodi.sourceforge.net/DTD/sodipodi-0.dtd"
   xmlns="http://www.w3.org/2000/svg"
   xmlns:svg="http://www.w3.org/2000/svg">
  <defs
     id="defs1" />
  <sodipodi:namedview
     id="namedview1"
     pagecolor="#ffffff"
     bordercolor="#000000"
     borderopacity="0.25"
     inkscape:showpageshadow="2"
     inkscape:pageopacity="0.0"
     inkscape:pagecheckerboard="0"
     inkscape:deskcolor="#d1d1d1"
     inkscape:zoom="5.1461378"
     inkscape:cx="113.386"
     inkscape:cy="113.386"
     inkscape:window-width="2560"
     inkscape:window-height="1369"
     inkscape:window-x="-8"
     inkscape:window-y="-8"
     inkscape:window-maximized="1"
     inkscape:current-layer="g1">
    <inkscape:page
       x="0"
       y="0"
       inkscape:label="1"
       id="page1"
       width="226.772"
       height="226.772"
       margin="0"
       bleed="0" />
  </sodipodi:namedview>
  <g
     id="g1"
     inkscape:groupmode="layer"
     inkscape:label="1">
    <path
       id="path1"
       d="M 0,0 H 170.876"
       style="fill:none;stroke:#000000;stroke-width:0.398;stroke-linecap:butt;stroke-linejoin:miter;stroke-miterlimit:10;stroke-dasharray:none;stroke-opacity:1"
       transform="matrix(1.3333333,0,0,-1.3333333,-0.53066667,-0.26533333)" />
    <path
       id="path2"
       d="M 0,0 V 170.079"
       style="fill:none;stroke:#000000;stroke-width:0.398;stroke-linecap:butt;stroke-linejoin:miter;stroke-miterlimit:10;stroke-dasharray:none;stroke-opacity:1"
       transform="matrix(1.3333333,0,0,-1.3333333,-0.26533333,226.772)" />
    <g
       id="g105">
      <path
         d="m 101.234,503.215 c 70.739,-19.852 202.969,-26.873 265.808,10.806 62.838,37.68 56.285,120.061 26.27,134.22 C 363.297,662.4 309.82,608.338 249.731,604.125 189.642,599.913 122.942,645.55 82.2182,651.243 41.4943,656.936 26.7468,622.685 23.9969,589.218 21.247,555.75 30.4946,523.067 101.234,503.215 Z"
         style="fill:#40e0d0;fill-opacity:0.3;fill-rule:evenodd;stroke:#000000;stroke-width:1.2;stroke-linecap:butt;stroke-linejoin:round;stroke-miterlimit:10;stroke-dasharray:none;stroke-opacity:1"
         transform="matrix(0.55641333,0,0,-0.55641333,-10.967877,430.23505)"
         id="path3" />
      <path
         d="m 71.8716,584.36 3.1604,-9.363 -14.6646,-0.682 -7.6898,2.731 -5.2463,7.314 -1.7284,9.507 2.9606,13.133 7.8993,13.365 9.8354,9.185 12.6237,4.814 15.7969,-0.379 23.0772,-8.236 16.031,-8.615 39.921,-30.15 12.468,-8.045 14.249,-6.143 3.872,-0.127 14.017,-6.082 -2.788,-2.342 -10.997,-4.246 -8.982,0.697 -11.153,5.385 -8.44,5.575 -2.788,-0.951 -1.316,-5.574 -0.93,-10.896 0.078,-3.484 -6.118,-0.697 -3.873,0.444 0.155,2.471 0.077,13.872 -2.709,11.592 -3.49,8.706 -6.841,8.723 -10.464,5.514 -8.049,2.222 -11.268,-2.386 -10.764,-7.16 -8.9547,-6.83 -6.841,1.564 -4.428,3.62 6.8426,3.127 8.0471,7.571 2.516,7.572 -2.314,6.336 -9.0545,3.456 -13.0795,-1.235 -8.3503,-3.867 -8.6515,-6.995 -5.5347,-10.78 0.2014,-11.028 3.7225,-3.621 h 5.6345 z"
         style="fill:#ffffff;fill-opacity:1;fill-rule:evenodd;stroke:none"
         transform="matrix(0.55641333,0,0,-0.55641333,-10.967877,430.23505)"
         id="path4" />
      <path
         d="m 159.877,541.186 -2.294,-1.576 -7.158,-1.202 -10.371,2.516 -10.736,1.876 -6.699,-1.013 -8.476,-5.993 -1.907,-11.751 4.768,-7.606 16.1,-8.927 22.614,-5.891 23.852,-0.76 24.737,4.008 19.474,5.132 16.469,2.673 18.037,0.214 25.526,0.384 13.85,1.284 7.155,2.929 6.535,6.735 -1.7,15.503 -7.45,11.225 -10.194,2.887 -9.149,2.245 -4.838,-3.955 6.928,-3.529 6.274,-3.741 5.751,-7.484 -2.352,-7.484 -7.451,-5.452 -7.581,-2.245 -6.535,0.32 -7.842,3.742 -6.142,7.377 -4.053,9.194 -1.176,4.812 1.045,5.772 4.836,2.138 5.883,0.322 3.266,-0.855 7.059,6.093 -7.974,2.246 -9.54,4.168 -4.904,14.2 -3.638,5.75 -6.534,1.674 -9.041,-1.357 -8.972,-3.495 -4.309,-4.45 6.147,-1.271 4.626,2.282 7.453,1.387 4.096,-1.242 3.604,-4.363 0.67,-8.551 -3.992,-8.262 -6.604,-8.783 -4.874,-8.234 2.72,-6.962 9.324,-5.171 12.503,-7.049 0.283,-2.427 -2.084,-1.473 -23.737,-4.612 -44.443,-3.943 -32.903,0.926 -8.156,2.34 -6.362,3.886 -1.896,3.807 2.477,5.218 26.293,12.836 z"
         style="fill:#ffffff;fill-opacity:1;fill-rule:evenodd;stroke:none"
         transform="matrix(0.55641333,0,0,-0.55641333,-10.967877,430.23505)"
         id="path5" />
      <path
         d="m 87.5316,592.348 8.5194,4.309 6.736,6.777 2.557,8.425 -1.859,2.47 -9.4474,1.141 -13.5531,-5.132 -8.3632,-12.415 -0.9294,-7.728 4.879,-17.166 10.76,-14.26 17.1081,-14.238 11.625,-6.778 4.291,3.122 8.882,2.242 10.67,-2.291 6.85,0.557 10.851,0.439 10.312,-1.511 1.669,-0.586 -2.682,-3.169 -6.856,-2.34 -4.531,0.097 -13.65,-5.949 -0.715,-1.706 5.185,-1.902 16.274,-4.095 14.903,-1.463 11.623,1.999 6.915,6.192 2.861,9.362 -4.351,18.773 -10.073,11.603 -5.902,3.219 -3.695,1.073 -1.85,-2.292 -0.715,-11.751 8.107,-0.877 -0.834,-2.098 -7.75,-3.559 -7.868,-0.829 -7.452,2.243 -4.648,3.658 6.497,1.316 3.338,0.146 -1.192,16.334 -7.749,0.487 -9.978,2.29 -9.727,8.97 -8.397,9.384 -5.093,5.931 -7.892,-4.28 -2.936,-2.889 1.514,-1.089 0.641,-1.013 -3.577,-3.153 -6.195,-1.539 -8.9483,1.764 z"
         style="fill:#ffffff;fill-opacity:1;fill-rule:evenodd;stroke:none"
         transform="matrix(0.55641333,0,0,-0.55641333,-10.967877,430.23505)"
         id="path6" />
      <path
         d="m 245.485,564.98 c -9.836,-0.508 -15.373,-0.032 -19.923,0.681 -4.549,0.713 -8.112,1.663 -11.79,3.088 -3.679,1.425 -7.473,3.325 -10.765,5.606 -3.291,2.28 -6.079,4.941 -8.119,7.496 -2.039,2.555 -3.329,5.004 -4.077,7.19 -0.749,2.185 -0.956,4.107 -0.491,5.553 0.464,1.446 1.6,2.417 2.787,2.977 1.188,0.559 2.427,0.707 4.415,0.623 1.987,-0.084 4.723,-0.401 8.583,-1.14 3.859,-0.739 8.841,-1.901 12.7,-2.777 3.859,-0.877 6.595,-1.468 9.551,-1.932 2.956,-0.465 6.131,-0.803 9.591,-0.845 3.459,-0.042 7.202,0.211 10.725,0.592 3.524,0.38 6.828,0.887 10.326,1.52 3.498,0.634 7.189,1.394 9.977,1.827 2.788,0.433 4.673,0.538 6.183,0.432 1.51,-0.105 2.645,-0.422 3.433,-1.087 0.787,-0.665 1.225,-1.679 1.045,-3.315 -0.181,-1.637 -0.981,-3.896 -2.84,-6.599 -1.858,-2.703 -4.775,-5.849 -7.576,-8.478 -2.801,-2.628 -5.486,-4.74 -7.306,-5.869 -1.82,-1.13 -2.775,-1.278 -3.472,-1.13 -0.697,0.148 -1.135,0.591 -1.445,1.299 -0.31,0.707 -0.491,1.678 -0.93,3.293 -0.439,1.615 -1.136,3.874 -1.368,5.078 -0.232,1.204 0,1.352 0.491,1.51 0.49,0.159 1.239,0.328 3.652,1.468 2.414,1.14 6.492,3.251 7.719,4.201 1.226,0.951 -0.4,0.74 -1.639,0.571 -1.239,-0.169 -2.091,-0.296 -4.117,-0.486 -2.027,-0.19 -5.227,-0.444 -7.486,-0.243 -2.258,0.201 -3.575,0.856 -4.891,1.405 -1.317,0.549 -2.633,0.992 -3.898,1.287 -1.265,0.296 -2.479,0.444 -3.628,0.444 -1.148,0 -2.233,-0.148 -4.014,-0.57 -1.781,-0.423 -4.259,-1.119 -6.183,-1.7 -1.923,-0.58 -3.291,-1.045 -4.504,-1.288 -1.213,-0.243 -2.272,-0.264 -3.601,-0.211 -1.33,0.053 -2.93,0.179 -4.995,0.327 -2.065,0.148 -4.595,0.317 -6.621,0.517 -2.026,0.201 -3.55,0.433 -4.286,0.359 -0.735,-0.074 -0.684,-0.454 -0.09,-0.876 0.594,-0.422 1.73,-0.887 4.802,-2.101 3.072,-1.214 8.08,-3.177 12.959,-4.328 4.879,-1.151 9.628,-1.489 13.152,-1.531 3.523,-0.043 5.821,0.211 7.112,0.147 1.29,-0.063 1.574,-0.443 1.781,-0.897 0.206,-0.454 0.335,-0.982 0.535,-2.481 0.2,-1.499 0.472,-3.969 -1.31,-9.544"
         style="fill:#ffffff;fill-opacity:1;fill-rule:evenodd;stroke:none"
         transform="matrix(0.55641333,0,0,-0.55641333,-10.967877,430.23505)"
         id="path7" />
      <path
         d="m 292.3,543.556 c -6.568,-1.039 -9.906,-0.693 -12.34,-0.274 -2.434,0.419 -3.965,0.91 -4.936,1.426 -0.972,0.515 -1.383,1.054 -1.348,1.732 0.035,0.679 0.518,1.498 2.665,3.596 2.147,2.099 5.958,5.477 9.841,8.385 3.883,2.908 7.837,5.346 10.887,6.76 3.05,1.414 5.196,1.804 7.053,1.942 1.858,0.138 3.428,0.025 5.296,-0.52 1.868,-0.545 4.034,-1.52 5.514,-2.837 1.481,-1.316 2.275,-2.973 2.305,-4.469 0.03,-1.495 -0.705,-2.828 -2.394,-4.518 -1.689,-1.691 -4.332,-3.739 -6.1,-4.974 -1.769,-1.235 -2.663,-1.658 -3.011,-2.023 -0.348,-0.366 -0.15,-0.675 0.188,-1.17 0.338,-0.496 0.816,-1.178 1.551,-2.527 0.735,-1.349 1.729,-3.365 2.434,-4.34 0.705,-0.975 1.122,-0.91 1.728,-0.813 0.606,0.098 1.401,0.228 6.01,2.533 4.608,2.305 13.031,6.786 19.289,10.4 6.258,3.613 10.352,6.36 13.899,9.09 3.547,2.731 6.547,5.445 8.157,7.078 1.609,1.634 1.827,2.186 1.639,2.577 -0.189,0.39 -0.785,0.618 -2.355,1.203 -1.569,0.585 -4.113,1.528 -5.762,2.129 -1.649,0.601 -2.404,0.861 -2.931,0.853 -0.526,-0.008 -0.824,-0.284 -1.46,-0.723 -0.636,-0.439 -1.61,-1.04 -3.667,-1.869 -2.056,-0.829 -5.196,-1.886 -7.689,-2.43 -2.494,-0.545 -4.342,-0.577 -6.508,-0.106 -2.166,0.471 -4.649,1.447 -6.323,2.175 -1.673,0.728 -2.537,1.208 -3.834,2.919 -1.296,1.711 -3.025,4.653 -3.971,6.404 -0.947,1.75 -1.11,2.309 -1.192,4.056 -0.082,1.747 -0.082,4.682 0.266,7.1 0.349,2.418 1.046,4.318 1.988,5.934 0.942,1.615 2.129,2.945 3.136,3.895 1.007,0.951 1.833,1.521 2.956,1.985 1.123,0.465 2.542,0.823 4.207,1.055 1.665,0.233 3.576,0.338 6.144,0.18 2.569,-0.159 5.795,-0.581 8.208,-1.045 2.414,-0.465 4.015,-0.971 5.55,-1.594 1.536,-0.623 3.007,-1.363 4.479,-2.503 1.471,-1.14 2.943,-2.681 4.208,-4.486 1.265,-1.806 2.323,-3.875 2.685,-5.828 0.361,-1.954 0.026,-3.791 -0.246,-4.878 -0.271,-1.088 -0.478,-1.425 -0.361,-1.657 0.116,-0.233 0.555,-0.359 1.652,-0.655 1.098,-0.295 2.853,-0.76 4.453,-1.087 1.6,-0.328 3.046,-0.518 3.872,-0.497 0.826,0.021 1.033,0.254 1.278,0.76 0.245,0.507 0.529,1.289 0.818,2.147 0.289,0.857 0.582,1.792 0.748,3.088 0.167,1.296 0.206,2.954 -0.002,4.75 -0.209,1.795 -0.666,3.73 -1.401,5.518 -0.735,1.787 -1.749,3.429 -3.11,5.095 -1.361,1.666 -3.07,3.356 -4.878,4.819 -1.808,1.462 -3.716,2.698 -6.06,3.974 -2.345,1.276 -5.127,2.593 -7.919,3.535 -2.791,0.943 -5.593,1.512 -8.852,1.788 -3.258,0.276 -6.974,0.26 -10.59,-0.187 -3.616,-0.447 -7.133,-1.325 -10.362,-2.447 -3.229,-1.121 -6.17,-2.486 -8.385,-3.941 -2.216,-1.454 -3.706,-2.998 -4.65,-4.486 -0.944,-1.487 -1.341,-2.917 -1.239,-5.444 0.102,-2.527 0.704,-6.151 0.569,-9.074 -0.135,-2.923 -1.007,-5.145 -2.332,-7.34 -1.324,-2.194 -3.101,-4.362 -6.723,-7.599 -3.622,-3.237 -9.089,-7.543 -13.851,-11.356 -4.762,-3.813 -8.82,-7.132 -11.805,-9.902 -2.985,-2.771 -4.896,-4.993 -6.12,-6.995 -1.224,-2.003 -1.76,-3.786 -1.962,-4.938 -0.201,-1.152 -0.067,-1.674 0.234,-2.51 0.302,-0.837 0.772,-1.989 1.862,-3.114 1.09,-1.124 2.8,-2.222 4.98,-3.031 2.18,-0.809 4.829,-1.33 7.546,-1.591 2.717,-0.26 5.5,-0.26 8.166,-0.096 2.666,0.165 5.215,0.494 7.21,0.713 1.995,0.22 3.437,0.329 4.292,0.521 0.855,0.193 1.124,0.467 1.224,1.057 0.101,0.59 0.034,1.495 -0.15,2.496 -0.185,1.001 -0.487,2.098 -1.216,3.388 -0.73,1.289 -1.887,2.771 -2.892,3.017"
         style="fill:#ffffff;fill-opacity:1;fill-rule:evenodd;stroke:none"
         transform="matrix(0.55641333,0,0,-0.55641333,-10.967877,430.23505)"
         id="path8" />
      <path
         d="m 333.454,605.337 c 8.889,-0.962 9.15,-1.176 9.412,-1.835 0.262,-0.66 0.523,-1.764 1.024,-3.938 0.501,-2.174 1.241,-5.417 2.112,-7.573 0.872,-2.156 1.874,-3.226 3.398,-4.348 1.525,-1.123 3.573,-2.298 6.732,-3.457 3.159,-1.158 7.428,-2.298 11.001,-2.869 3.572,-0.57 6.447,-0.57 9.105,-0.267 2.657,0.303 5.097,0.908 6.731,1.532 1.634,0.624 2.462,1.265 3.551,2.281 1.09,1.016 2.441,2.406 3.443,4.081 1.002,1.675 1.655,3.634 2.004,5.755 0.348,2.12 0.392,4.401 0.239,6.718 -0.152,2.316 -0.501,4.668 -1.285,6.967 -0.784,2.298 -2.004,4.543 -3.79,6.254 -1.787,1.711 -4.139,2.887 -7.56,3.742 -3.42,0.856 -7.907,1.39 -12.199,1.176 -4.291,-0.214 -8.386,-1.176 -11.523,-2.085 -3.137,-0.908 -5.315,-1.763 -8.321,-1.799 -3.007,-0.036 -6.841,0.748 -8.693,1.247 -1.852,0.499 -1.721,0.713 -1.46,1.051 0.262,0.339 0.654,0.802 2.68,2.405 2.027,1.604 5.686,4.349 9.76,6.416 4.074,2.067 8.561,3.456 11.154,4.24 2.592,0.784 3.289,0.963 5.467,1.212 2.178,0.249 5.838,0.57 9.607,0.374 3.768,-0.196 7.646,-0.909 10.739,-1.853 3.094,-0.944 5.402,-2.12 7.537,-3.849 2.135,-1.728 4.096,-4.009 5.425,-6.237 1.329,-2.227 2.026,-4.4 2.679,-6.931 0.653,-2.53 1.263,-5.417 1.416,-8.321 0.152,-2.905 -0.153,-5.827 -0.806,-8.874 -0.653,-3.047 -1.655,-6.218 -2.854,-8.962 -1.198,-2.744 -2.592,-5.061 -4.248,-7.181 -1.655,-2.121 -3.572,-4.045 -5.424,-5.47 -1.851,-1.426 -3.638,-2.352 -5.925,-3.154 -2.287,-0.802 -5.076,-1.48 -7.864,-1.818 -2.788,-0.339 -5.576,-0.339 -8.8,0.035 -3.224,0.375 -6.884,1.123 -10.304,2.121 -3.42,0.998 -6.601,2.245 -9.019,3.421 -2.418,1.176 -4.074,2.281 -5.751,3.582 -1.677,1.301 -3.377,2.798 -4.815,4.882 -1.438,2.085 -2.614,4.757 -3.485,7.163 -0.872,2.405 -1.438,4.544 -1.656,7.216 -0.217,2.673 -0.086,5.88 0.436,6.95"
         style="fill:#ffffff;fill-opacity:1;fill-rule:evenodd;stroke:none"
         transform="matrix(0.55641333,0,0,-0.55641333,-10.967877,430.23505)"
         id="path9" />
      <path
         d="m 72.4306,598.488 c -4.2955,-14.054 4.2954,-35.135 30.0674,-52.703 25.773,-17.568 68.727,-31.622 85.909,-24.595 17.181,7.027 8.591,35.136 -4.296,45.676 -12.886,10.541 -30.068,3.514 -42.954,10.541 -12.886,7.027 -21.477,28.108 -34.363,35.135 -12.8864,7.027 -30.068,0 -34.3634,-14.054 z"
         style="fill:none;stroke:#000000;stroke-width:1.2;stroke-linecap:butt;stroke-linejoin:round;stroke-miterlimit:10;stroke-dasharray:none;stroke-opacity:1"
         transform="matrix(0.55641333,0,0,-0.55641333,-10.967877,430.23505)"
         id="path10" />
      <path
         d="m 261.429,545.785 c -4.296,-10.541 12.886,-17.568 38.658,-10.541 25.773,7.027 60.136,28.109 68.727,45.676 8.591,17.568 -8.591,31.622 -25.772,35.135 -17.182,3.514 -34.364,-3.513 -38.659,-10.54 -4.296,-7.027 4.295,-14.054 -4.296,-24.595 -8.59,-10.54 -34.363,-24.594 -38.658,-35.135 z"
         style="fill:none;stroke:#000000;stroke-width:1.2;stroke-linecap:butt;stroke-linejoin:round;stroke-miterlimit:10;stroke-dasharray:none;stroke-opacity:1"
         transform="matrix(0.55641333,0,0,-0.55641333,-10.967877,430.23505)"
         id="path11" />
      <path
         d="m 218.475,566.866 c 12.886,-3.513 30.068,-3.513 42.954,3.514 12.886,7.027 21.477,21.081 17.181,24.594 -4.295,3.514 -21.477,-3.513 -38.658,-3.513 -17.182,0 -34.364,7.027 -42.954,7.027 -8.591,0 -8.591,-7.027 -4.296,-14.054 4.296,-7.027 12.886,-14.054 25.773,-17.568 z"
         style="fill:none;stroke:#000000;stroke-width:1.2;stroke-linecap:butt;stroke-linejoin:round;stroke-miterlimit:10;stroke-dasharray:none;stroke-opacity:1"
         transform="matrix(0.55641333,0,0,-0.55641333,-10.967877,430.23505)"
         id="path12" />
      <path
         d="m 85.3168,594.974 c 6.4431,-10.54 25.7722,-10.54 25.7722,0"
         style="fill:none;stroke:#000000;stroke-width:1.2;stroke-linecap:butt;stroke-linejoin:round;stroke-miterlimit:10;stroke-dasharray:none;stroke-opacity:1"
         transform="matrix(0.55641333,0,0,-0.55641333,-10.967877,430.23505)"
         id="path13" />
      <path
         d="m 87.7136,592.023 c 4.0463,2.951 16.9324,2.951 22.8864,0.249"
         style="fill:none;stroke:#000000;stroke-width:1.2;stroke-linecap:butt;stroke-linejoin:round;stroke-miterlimit:10;stroke-dasharray:none;stroke-opacity:1"
         transform="matrix(0.55641333,0,0,-0.55641333,-10.967877,430.23505)"
         id="path14" />
      <path
         d="m 149.748,558.082 c 6.443,-10.54 25.772,-10.54 32.216,0"
         style="fill:none;stroke:#000000;stroke-width:1.2;stroke-linecap:butt;stroke-linejoin:round;stroke-miterlimit:10;stroke-dasharray:none;stroke-opacity:1"
         transform="matrix(0.55641333,0,0,-0.55641333,-10.967877,430.23505)"
         id="path15" />
      <path
         d="m 151.397,555.896 c 4.794,2.186 24.123,2.186 29.091,0.193"
         style="fill:none;stroke:#000000;stroke-width:1.2;stroke-linecap:butt;stroke-linejoin:round;stroke-miterlimit:10;stroke-dasharray:none;stroke-opacity:1"
         transform="matrix(0.55641333,0,0,-0.55641333,-10.967877,430.23505)"
         id="path16" />
      <path
         d="m 201.293,589.704 c 19.329,-15.811 51.545,-15.811 70.874,0"
         style="fill:none;stroke:#000000;stroke-width:1.2;stroke-linecap:butt;stroke-linejoin:round;stroke-miterlimit:10;stroke-dasharray:none;stroke-opacity:1"
         transform="matrix(0.55641333,0,0,-0.55641333,-10.967877,430.23505)"
         id="path17" />
      <path
         d="m 268.264,586.836 c -21.869,-2.402 -54.085,-2.402 -64.081,0.686"
         style="fill:none;stroke:#000000;stroke-width:1.2;stroke-linecap:butt;stroke-linejoin:round;stroke-miterlimit:10;stroke-dasharray:none;stroke-opacity:1"
         transform="matrix(0.55641333,0,0,-0.55641333,-10.967877,430.23505)"
         id="path18" />
      <path
         d="m 278.61,552.812 c -6.443,-5.27 -6.443,-7.905 -2.147,-9.223 4.295,-1.318 12.886,-1.318 21.477,1.318 8.591,2.635 17.181,7.905 19.329,12.297 2.148,4.392 -2.148,7.905 -7.517,9.662 -5.369,1.757 -11.812,1.757 -31.142,-14.054"
         style="fill:none;stroke:#000000;stroke-width:1.2;stroke-linecap:butt;stroke-linejoin:round;stroke-miterlimit:10;stroke-dasharray:none;stroke-opacity:1"
         transform="matrix(0.55641333,0,0,-0.55641333,-10.967877,430.23505)"
         id="path19" />
      <path
         d="m 330.155,605.515 c -12.886,0 -16.107,-10.541 -15.571,-18.446 0.537,-7.906 4.833,-13.176 10.202,-15.811 5.369,-2.635 11.812,-2.635 18.256,0 6.443,2.635 12.886,7.905 15.034,13.176 2.147,5.27 0,10.54 -4.296,14.493 -4.295,3.953 -10.738,6.588 -23.625,6.588"
         style="fill:none;stroke:#000000;stroke-width:1.2;stroke-linecap:butt;stroke-linejoin:round;stroke-miterlimit:10;stroke-dasharray:none;stroke-opacity:1"
         transform="matrix(0.55641333,0,0,-0.55641333,-10.967877,430.23505)"
         id="path20" />
      <path
         d="m 336.276,616.92 c 13.209,14.946 32.538,17.581 45.424,15.385 12.887,-2.196 19.33,-9.223 21.477,-18.885 2.148,-9.662 0,-21.959 -5.369,-30.743 -5.369,-8.784 -13.96,-14.054 -29.531,-12.737 -15.571,1.318 -38.122,9.223 -35.077,35.522"
         style="fill:none;stroke:#000000;stroke-width:1.2;stroke-linecap:butt;stroke-linejoin:round;stroke-miterlimit:10;stroke-dasharray:none;stroke-opacity:1"
         transform="matrix(0.55641333,0,0,-0.55641333,-10.967877,430.23505)"
         id="path21" />
      <path
         d="m 347.415,614.933 c 14.956,6.393 27.842,6.393 35.359,2.879 7.517,-3.513 9.665,-10.54 9.665,-17.567 0,-7.028 -2.148,-14.055 -8.494,-17.165 -6.347,-3.111 -16.892,-2.306 -25.531,0.128 -8.639,2.434 -15.372,6.496 -15.6,21.124"
         style="fill:none;stroke:#000000;stroke-width:1.2;stroke-linecap:butt;stroke-linejoin:round;stroke-miterlimit:10;stroke-dasharray:none;stroke-opacity:1"
         transform="matrix(0.55641333,0,0,-0.55641333,-10.967877,430.23505)"
         id="path22" />
      <path
         d="m 87.7136,592.023 c 16.9324,8.222 20.1544,18.762 15.3214,24.032 -4.832,5.271 -17.7182,5.271 -27.3829,0.879 -9.6647,-4.392 -16.1078,-13.176 -17.7186,-21.521 -1.6107,-8.344 1.6108,-16.25 14.1588,-10.871"
         style="fill:none;stroke:#000000;stroke-width:1.2;stroke-linecap:butt;stroke-linejoin:round;stroke-miterlimit:10;stroke-dasharray:none;stroke-opacity:1"
         transform="matrix(0.55641333,0,0,-0.55641333,-10.967877,430.23505)"
         id="path23" />
      <path
         d="m 99.2017,587.123 c 18.8333,15.385 25.0253,16.888 32.4163,15.883 7.391,-1.005 15.982,-4.518 21.888,-12.863 5.907,-8.344 9.128,-21.52 7.659,-39.613"
         style="fill:none;stroke:#000000;stroke-width:1.2;stroke-linecap:butt;stroke-linejoin:round;stroke-miterlimit:10;stroke-dasharray:none;stroke-opacity:1"
         transform="matrix(0.55641333,0,0,-0.55641333,-10.967877,430.23505)"
         id="path24" />
      <path
         d="m 75.4459,574.93 c -41.6741,-6.307 -32.0094,30.585 -17.5124,47.274 14.4971,16.689 33.8264,13.176 49.1045,7.934 15.278,-5.241 26.504,-12.21 43.027,-24.961 16.523,-12.751 38.342,-31.284 55.095,-32.686"
         style="fill:none;stroke:#000000;stroke-width:1.2;stroke-linecap:butt;stroke-linejoin:round;stroke-miterlimit:10;stroke-dasharray:none;stroke-opacity:1"
         transform="matrix(0.55641333,0,0,-0.55641333,-10.967877,430.23505)"
         id="path25" />
      <path
         d="m 159.973,541.361 c -7.269,-6.498 -18.412,-0.159 -27.205,1.254 -8.792,1.413 -15.236,-2.1 -18.457,-7.371 -3.222,-5.27 -3.222,-12.297 3.221,-18.446 6.444,-6.148 19.33,-11.419 33.29,-14.054 13.96,-2.635 28.994,-2.635 42.954,0 13.96,2.635 26.846,7.906 42.954,9.663 16.108,1.756 35.437,0 49.397,0.878 13.96,0.878 22.551,4.392 24.699,12.297 2.148,7.906 -2.148,20.203 -9.128,25.034 -6.98,4.831 -16.644,2.196 -18.729,5.664"
         style="fill:none;stroke:#000000;stroke-width:1.2;stroke-linecap:butt;stroke-linejoin:round;stroke-miterlimit:10;stroke-dasharray:none;stroke-opacity:1"
         transform="matrix(0.55641333,0,0,-0.55641333,-10.967877,430.23505)"
         id="path26" />
      <path
         d="m 166.953,540.219 c -11.616,-5.732 -24.075,-9.745 -28.157,-14.387 -4.082,-4.642 0.213,-9.912 10.952,-12.547 10.739,-2.635 27.92,-2.635 42.954,-1.757 15.034,0.879 27.92,2.635 40.807,4.392 12.886,1.757 25.772,3.514 23.624,7.027 -2.147,3.514 -19.329,8.784 -23.624,14.933 -4.296,6.148 4.295,13.175 9.146,20.21 4.851,7.036 5.963,14.079 3.94,19.086 -2.024,5.007 -7.181,7.978 -19.478,1.41"
         style="fill:none;stroke:#000000;stroke-width:1.2;stroke-linecap:butt;stroke-linejoin:round;stroke-miterlimit:10;stroke-dasharray:none;stroke-opacity:1"
         transform="matrix(0.55641333,0,0,-0.55641333,-10.967877,430.23505)"
         id="path27" />
      <path
         d="m 276.243,561.111 c -10.519,2.242 -16,4.299 -18.671,8.375 -2.67,4.075 -2.529,10.169 -4.634,14.174 -2.105,4.005 -6.455,5.921 -13.055,5.321 -6.601,-0.6 -15.451,-3.716 -19.243,-9.019"
         style="fill:none;stroke:#000000;stroke-width:1.2;stroke-linecap:butt;stroke-linejoin:round;stroke-miterlimit:10;stroke-dasharray:none;stroke-opacity:1"
         transform="matrix(0.55641333,0,0,-0.55641333,-10.967877,430.23505)"
         id="path28" />
      <path
         d="m 277.581,551.945 c 26.802,-9.674 20.359,-20.214 12.842,-25.484 -7.517,-5.271 -16.108,-5.271 -22.551,-1.757 -6.443,3.513 -10.739,10.54 -12.886,18.007 -2.148,7.466 -2.148,15.371 14.008,12.379"
         style="fill:none;stroke:#000000;stroke-width:1.2;stroke-linecap:butt;stroke-linejoin:round;stroke-miterlimit:10;stroke-dasharray:none;stroke-opacity:1"
         transform="matrix(0.55641333,0,0,-0.55641333,-10.967877,430.23505)"
         id="path29" />
      <path
         d="m 218.896,566.753 c -11.16,-8.671 -19.862,-7.723 -26.682,-4.93 -6.819,2.793 -11.756,7.431 -15.221,9.396 -3.465,1.964 -5.458,1.254 -5.852,-20.436"
         style="fill:none;stroke:#000000;stroke-width:1.2;stroke-linecap:butt;stroke-linejoin:round;stroke-miterlimit:10;stroke-dasharray:none;stroke-opacity:1"
         transform="matrix(0.55641333,0,0,-0.55641333,-10.967877,430.23505)"
         id="path30" />
      <path
         d="m 90.0251,592.188 6.4834,3.918 11.0245,-1.352 -2.974,-2.296 z"
         style="fill:#ffffff;fill-opacity:1;fill-rule:evenodd;stroke:none"
         transform="matrix(0.55641333,0,0,-0.55641333,-10.967877,430.23505)"
         id="path31" />
      <path
         d="m 105.919,611.942 -0.645,2.896 13.412,-7.635 0.911,-5.09 -2.575,-1.316 z"
         style="fill:#ffffff;fill-opacity:1;fill-rule:evenodd;stroke:none"
         transform="matrix(0.55641333,0,0,-0.55641333,-10.967877,430.23505)"
         id="path32" />
      <path
         d="m 137.388,540.692 7.088,-1.924 9.979,-3.405 -3.146,-1.326 -10.074,-3.473 -1.355,-2.545 -2.007,-1.76 -21.831,9.89 1.589,1.768 z"
         style="fill:#ffffff;fill-opacity:1;fill-rule:evenodd;stroke:none"
         transform="matrix(0.55641333,0,0,-0.55641333,-10.967877,430.23505)"
         id="path33" />
      <path
         d="m 227.293,584.406 3.674,1.622 18.498,0.303 1.733,-1.688 -22.296,-0.913 z"
         style="fill:#ffffff;fill-opacity:1;fill-rule:evenodd;stroke:none"
         transform="matrix(0.55641333,0,0,-0.55641333,-10.967877,430.23505)"
         id="path34" />
      <path
         d="m 246.404,579.638 1.207,-2.21 5.881,1.793 -0.509,1.795 -2.097,0.104 z"
         style="fill:#ffffff;fill-opacity:1;fill-rule:evenodd;stroke:none"
         transform="matrix(0.55641333,0,0,-0.55641333,-10.967877,430.23505)"
         id="path35" />
      <path
         d="m 247.16,564.704 0.881,2.601 8.66,1.782 1.786,-2.242 z"
         style="fill:#ffffff;fill-opacity:1;fill-rule:evenodd;stroke:none"
         transform="matrix(0.55641333,0,0,-0.55641333,-10.967877,430.23505)"
         id="path36" />
      <path
         d="m 297.56,533.611 0.489,2.449 0.546,3.852 -3.748,3.265 -1.996,1.878 10.64,2.85 1.319,-1.51 4.011,-7.47 0.526,-1.741 z"
         style="fill:#ffffff;fill-opacity:1;fill-rule:evenodd;stroke:none"
         transform="matrix(0.55641333,0,0,-0.55641333,-10.967877,430.23505)"
         id="path37" />
      <path
         d="m 161.059,575.087 0.672,-2.601 10.843,-1.185 0.988,1.099 1.06,0.347 -2.613,1.097 z"
         style="fill:#ffffff;fill-opacity:1;fill-rule:evenodd;stroke:none"
         transform="matrix(0.55641333,0,0,-0.55641333,-10.967877,430.23505)"
         id="path38" />
      <path
         d="m 162.438,556.222 0.104,3.639 7.913,-1.386 -0.142,-2.166 z"
         style="fill:#ffffff;fill-opacity:1;fill-rule:evenodd;stroke:none"
         transform="matrix(0.55641333,0,0,-0.55641333,-10.967877,430.23505)"
         id="path39" />
      <path
         d="m 349.306,575.921 1.986,-0.979 9.95,-3.157 2.5,-0.468 6.498,9.03 -2.937,0.288 -8.345,0.623 -0.788,1.178 -2.121,0.646 z"
         style="fill:#ffffff;fill-opacity:1;fill-rule:evenodd;stroke:none"
         transform="matrix(0.55641333,0,0,-0.55641333,-10.967877,430.23505)"
         id="path40" />
      <path
         d="m 71.8716,584.36 3.1604,-9.363 -14.6646,-0.682 -7.6898,2.731 -5.2463,7.314 -1.7284,9.507 2.9606,13.133 7.8993,13.365 9.8354,9.185 12.6237,4.814 15.7969,-0.379 23.0772,-8.236 16.031,-8.615 39.921,-30.15 12.468,-8.045 14.249,-6.143 3.872,-0.127 14.017,-6.082 -2.788,-2.342 -10.997,-4.246 -8.982,0.697 -11.153,5.385 -8.44,5.575 -2.788,-0.951 -1.316,-5.574 -0.93,-10.896 0.078,-3.484 -6.118,-0.697 -3.873,0.444 0.155,2.471 0.077,13.872 -2.709,11.592 -3.49,8.706 -6.841,8.723 -10.464,5.514 -8.049,2.222 -11.268,-2.386 -10.764,-7.16 -8.9547,-6.83 -6.841,1.564 -4.428,3.62 6.8426,3.127 8.0471,7.571 2.516,7.572 -2.314,6.336 -9.0545,3.456 -13.0795,-1.235 -8.3503,-3.867 -8.6515,-6.995 -5.5347,-10.78 0.2014,-11.028 3.7225,-3.621 h 5.6345 z"
         style="fill:#0000ff;fill-opacity:0.5;fill-rule:evenodd;stroke:none"
         transform="matrix(0.55641333,0,0,-0.55641333,-10.967877,430.23505)"
         id="path41" />
      <path
         d="m 159.877,541.186 -2.294,-1.576 -7.158,-1.202 -10.371,2.516 -10.736,1.876 -6.699,-1.013 -8.476,-5.993 -1.907,-11.751 4.768,-7.606 16.1,-8.927 22.614,-5.891 23.852,-0.76 24.737,4.008 19.474,5.132 16.469,2.673 18.037,0.214 25.526,0.384 13.85,1.284 7.155,2.929 6.535,6.735 -1.7,15.503 -7.45,11.225 -10.194,2.887 -9.149,2.245 -4.838,-3.955 6.928,-3.529 6.274,-3.741 5.751,-7.484 -2.352,-7.484 -7.451,-5.452 -7.581,-2.245 -6.535,0.32 -7.842,3.742 -6.142,7.377 -4.053,9.194 -1.176,4.812 1.045,5.772 4.836,2.138 5.883,0.322 3.266,-0.855 7.059,6.093 -7.974,2.246 -9.54,4.168 -4.904,14.2 -3.638,5.75 -6.534,1.674 -9.041,-1.357 -8.972,-3.495 -4.309,-4.45 6.147,-1.271 4.626,2.282 7.453,1.387 4.096,-1.242 3.604,-4.363 0.67,-8.551 -3.992,-8.262 -6.604,-8.783 -4.874,-8.234 2.72,-6.962 9.324,-5.171 12.503,-7.049 0.283,-2.427 -2.084,-1.473 -23.737,-4.612 -44.443,-3.943 -32.903,0.926 -8.156,2.34 -6.362,3.886 -1.896,3.807 2.477,5.218 26.293,12.836 z"
         style="fill:#0000ff;fill-opacity:0.5;fill-rule:evenodd;stroke:none"
         transform="matrix(0.55641333,0,0,-0.55641333,-10.967877,430.23505)"
         id="path42" />
      <path
         d="m 87.5316,592.348 8.5194,4.309 6.736,6.777 2.557,8.425 -1.859,2.47 -9.4474,1.141 -13.5531,-5.132 -8.3632,-12.415 -0.9294,-7.728 4.879,-17.166 10.76,-14.26 17.1081,-14.238 11.625,-6.778 4.291,3.122 8.882,2.242 10.67,-2.291 6.85,0.557 10.851,0.439 10.312,-1.511 1.669,-0.586 -2.682,-3.169 -6.856,-2.34 -4.531,0.097 -13.65,-5.949 -0.715,-1.706 5.185,-1.902 16.274,-4.095 14.903,-1.463 11.623,1.999 6.915,6.192 2.861,9.362 -4.351,18.773 -10.073,11.603 -5.902,3.219 -3.695,1.073 -1.85,-2.292 -0.715,-11.751 8.107,-0.877 -0.834,-2.098 -7.75,-3.559 -7.868,-0.829 -7.452,2.243 -4.648,3.658 6.497,1.316 3.338,0.146 -1.192,16.334 -7.749,0.487 -9.978,2.29 -9.727,8.97 -8.397,9.384 -5.093,5.931 -7.892,-4.28 -2.936,-2.889 1.514,-1.089 0.641,-1.013 -3.577,-3.153 -6.195,-1.539 -8.9483,1.764 z"
         style="fill:#ffd700;fill-opacity:0.5;fill-rule:evenodd;stroke:none"
         transform="matrix(0.55641333,0,0,-0.55641333,-10.967877,430.23505)"
         id="path43" />
      <path
         d="m 99.4321,565.181 2.7059,1.726 15.28,0.564 6.011,-0.939 3.488,-2.027 -6.332,-2.589 -10.784,-1.351 -8.167,2.101 z"
         style="fill:#ffffff;fill-opacity:1;fill-rule:evenodd;stroke:none"
         transform="matrix(0.55641333,0,0,-0.55641333,-10.967877,430.23505)"
         id="path44" />
      <path
         d="m 98.204,568.623 c 0,-10.541 25.773,-10.541 32.216,0"
         style="fill:none;stroke:#000000;stroke-width:1.2;stroke-linecap:butt;stroke-linejoin:round;stroke-miterlimit:10;stroke-dasharray:none;stroke-opacity:1"
         transform="matrix(0.55641333,0,0,-0.55641333,-10.967877,430.23505)"
         id="path45" />
      <path
         d="m 126.241,564.509 c -2.264,4.114 -21.594,4.114 -27.0302,0.817"
         style="fill:none;stroke:#000000;stroke-width:1.2;stroke-linecap:butt;stroke-linejoin:round;stroke-miterlimit:10;stroke-dasharray:none;stroke-opacity:1"
         transform="matrix(0.55641333,0,0,-0.55641333,-10.967877,430.23505)"
         id="path46" />
      <path
         d="m 149.748,558.083 c 6.443,-10.54 25.772,-10.54 32.216,0"
         style="fill:none;stroke:#000000;stroke-width:1.2;stroke-linecap:butt;stroke-linejoin:round;stroke-miterlimit:10;stroke-dasharray:none;stroke-opacity:1"
         transform="matrix(0.55641333,0,0,-0.55641333,-10.967877,430.23505)"
         id="path47" />
      <path
         d="m 151.953,556.098 c 3.157,0.931 6.352,1.375 9.584,1.331"
         style="fill:none;stroke:#000000;stroke-width:1.2;stroke-linecap:butt;stroke-linejoin:round;stroke-miterlimit:10;stroke-dasharray:none;stroke-opacity:1"
         transform="matrix(0.55641333,0,0,-0.55641333,-10.967877,430.23505)"
         id="path48" />
      <path
         d="m 180.722,556.438 c -2.266,0.422 -5.08,0.755 -8.441,1.001"
         style="fill:none;stroke:#000000;stroke-width:1.2;stroke-linecap:butt;stroke-linejoin:round;stroke-miterlimit:10;stroke-dasharray:none;stroke-opacity:1"
         transform="matrix(0.55641333,0,0,-0.55641333,-10.967877,430.23505)"
         id="path49" />
      <path
         d="m 155.358,534.471 c 0.189,-0.188 1.497,-0.291 3.106,-0.182 1.61,0.108 3.522,0.428 5.56,1.452 2.039,1.024 4.204,2.753 5.543,4.961"
         style="fill:none;stroke:#000000;stroke-width:1.2;stroke-linecap:butt;stroke-linejoin:round;stroke-miterlimit:10;stroke-dasharray:none;stroke-opacity:1"
         transform="matrix(0.55641333,0,0,-0.55641333,-10.967877,430.23505)"
         id="path50" />
      <path
         d="m 140.428,540.805 c 4.019,0.891 8.827,1.016 12.975,0.932 4.148,-0.084 7.635,-0.376 15.027,-1.791"
         style="fill:none;stroke:#000000;stroke-width:1.2;stroke-linecap:butt;stroke-linejoin:round;stroke-miterlimit:10;stroke-dasharray:none;stroke-opacity:1"
         transform="matrix(0.55641333,0,0,-0.55641333,-10.967877,430.23505)"
         id="path51" />
      <path
         d="m 85.3158,594.975 c 6.4431,-10.54 25.7722,-10.54 25.7722,0"
         style="fill:none;stroke:#000000;stroke-width:1.2;stroke-linecap:butt;stroke-linejoin:round;stroke-miterlimit:10;stroke-dasharray:none;stroke-opacity:1"
         transform="matrix(0.55641333,0,0,-0.55641333,-10.967877,430.23505)"
         id="path52" />
      <path
         d="m 110.517,592.406 -2.364,1.182"
         style="fill:none;stroke:#000000;stroke-width:1.2;stroke-linecap:butt;stroke-linejoin:round;stroke-miterlimit:10;stroke-dasharray:none;stroke-opacity:1"
         transform="matrix(0.55641333,0,0,-0.55641333,-10.967877,430.23505)"
         id="path53" />
      <path
         d="m 245.485,564.98 c -9.836,-0.508 -15.373,-0.032 -19.923,0.681 -4.549,0.713 -8.112,1.663 -11.79,3.088 -3.679,1.425 -7.473,3.325 -10.765,5.606 -3.291,2.28 -6.079,4.941 -8.119,7.496 -2.039,2.555 -3.329,5.004 -4.077,7.19 -0.749,2.185 -0.956,4.107 -0.491,5.553 0.464,1.446 1.6,2.417 2.787,2.977 1.188,0.559 2.427,0.707 4.415,0.623 1.987,-0.084 4.723,-0.401 8.583,-1.14 3.859,-0.739 8.841,-1.901 12.7,-2.777 3.859,-0.877 6.595,-1.468 9.551,-1.932 2.956,-0.465 6.131,-0.803 9.591,-0.845 3.459,-0.042 7.202,0.211 10.725,0.592 3.524,0.38 6.828,0.887 10.326,1.52 3.498,0.634 7.189,1.394 9.977,1.827 2.788,0.433 4.673,0.538 6.183,0.432 1.51,-0.105 2.645,-0.422 3.433,-1.087 0.787,-0.665 1.225,-1.679 1.045,-3.315 -0.181,-1.637 -0.981,-3.896 -2.84,-6.599 -1.858,-2.703 -4.775,-5.849 -7.576,-8.478 -2.801,-2.628 -5.486,-4.74 -7.306,-5.869 -1.82,-1.13 -2.775,-1.278 -3.472,-1.13 -0.697,0.148 -1.135,0.591 -1.445,1.299 -0.31,0.707 -0.491,1.678 -0.93,3.293 -0.439,1.615 -1.136,3.874 -1.368,5.078 -0.232,1.204 0,1.352 0.491,1.51 0.49,0.159 1.239,0.328 3.652,1.468 2.414,1.14 6.492,3.251 7.719,4.201 1.226,0.951 -0.4,0.74 -1.639,0.571 -1.239,-0.169 -2.091,-0.296 -4.117,-0.486 -2.027,-0.19 -5.227,-0.444 -7.486,-0.243 -2.258,0.201 -3.575,0.856 -4.891,1.405 -1.317,0.549 -2.633,0.992 -3.898,1.287 -1.265,0.296 -2.479,0.444 -3.628,0.444 -1.148,0 -2.233,-0.148 -4.014,-0.57 -1.781,-0.423 -4.259,-1.119 -6.183,-1.7 -1.923,-0.58 -3.291,-1.045 -4.504,-1.288 -1.213,-0.243 -2.272,-0.264 -3.601,-0.211 -1.33,0.053 -2.93,0.179 -4.995,0.327 -2.065,0.148 -4.595,0.317 -6.621,0.517 -2.026,0.201 -3.55,0.433 -4.286,0.359 -0.735,-0.074 -0.684,-0.454 -0.09,-0.876 0.594,-0.422 1.73,-0.887 4.802,-2.101 3.072,-1.214 8.08,-3.177 12.959,-4.328 4.879,-1.151 9.628,-1.489 13.152,-1.531 3.523,-0.043 5.821,0.211 7.112,0.147 1.29,-0.063 1.574,-0.443 1.781,-0.897 0.206,-0.454 0.335,-0.982 0.535,-2.481 0.2,-1.499 0.472,-3.969 -1.31,-9.544"
         style="fill:#ff0000;fill-opacity:0.5;fill-rule:evenodd;stroke:none"
         transform="matrix(0.55641333,0,0,-0.55641333,-10.967877,430.23505)"
         id="path54" />
      <path
         d="m 292.3,543.556 c -6.568,-1.039 -9.906,-0.693 -12.34,-0.274 -2.434,0.419 -3.965,0.91 -4.936,1.426 -0.972,0.515 -1.383,1.054 -1.348,1.732 0.035,0.679 0.518,1.498 2.665,3.596 2.147,2.099 5.958,5.477 9.841,8.385 3.883,2.908 7.837,5.346 10.887,6.76 3.05,1.414 5.196,1.804 7.053,1.942 1.858,0.138 3.428,0.025 5.296,-0.52 1.868,-0.545 4.034,-1.52 5.514,-2.837 1.481,-1.316 2.275,-2.973 2.305,-4.469 0.03,-1.495 -0.705,-2.828 -2.394,-4.518 -1.689,-1.691 -4.332,-3.739 -6.1,-4.974 -1.769,-1.235 -2.663,-1.658 -3.011,-2.023 -0.348,-0.366 -0.15,-0.675 0.188,-1.17 0.338,-0.496 0.816,-1.178 1.551,-2.527 0.735,-1.349 1.729,-3.365 2.434,-4.34 0.705,-0.975 1.122,-0.91 1.728,-0.813 0.606,0.098 1.401,0.228 6.01,2.533 4.608,2.305 13.031,6.786 19.289,10.4 6.258,3.613 10.352,6.36 13.899,9.09 3.547,2.731 6.547,5.445 8.157,7.078 1.609,1.634 1.827,2.186 1.639,2.577 -0.189,0.39 -0.785,0.618 -2.355,1.203 -1.569,0.585 -4.113,1.528 -5.762,2.129 -1.649,0.601 -2.404,0.861 -2.931,0.853 -0.526,-0.008 -0.824,-0.284 -1.46,-0.723 -0.636,-0.439 -1.61,-1.04 -3.667,-1.869 -2.056,-0.829 -5.196,-1.886 -7.689,-2.43 -2.494,-0.545 -4.342,-0.577 -6.508,-0.106 -2.166,0.471 -4.649,1.447 -6.323,2.175 -1.673,0.728 -2.537,1.208 -3.834,2.919 -1.296,1.711 -3.025,4.653 -3.971,6.404 -0.947,1.75 -1.11,2.309 -1.192,4.056 -0.082,1.747 -0.082,4.682 0.266,7.1 0.349,2.418 1.046,4.318 1.988,5.934 0.942,1.615 2.129,2.945 3.136,3.895 1.007,0.951 1.833,1.521 2.956,1.985 1.123,0.465 2.542,0.823 4.207,1.055 1.665,0.233 3.576,0.338 6.144,0.18 2.569,-0.159 5.795,-0.581 8.208,-1.045 2.414,-0.465 4.015,-0.971 5.55,-1.594 1.536,-0.623 3.007,-1.363 4.479,-2.503 1.471,-1.14 2.943,-2.681 4.208,-4.486 1.265,-1.806 2.323,-3.875 2.685,-5.828 0.361,-1.954 0.026,-3.791 -0.246,-4.878 -0.271,-1.088 -0.478,-1.425 -0.361,-1.657 0.116,-0.233 0.555,-0.359 1.652,-0.655 1.098,-0.295 2.853,-0.76 4.453,-1.087 1.6,-0.328 3.046,-0.518 3.872,-0.497 0.826,0.021 1.033,0.254 1.278,0.76 0.245,0.507 0.529,1.289 0.818,2.147 0.289,0.857 0.582,1.792 0.748,3.088 0.167,1.296 0.206,2.954 -0.002,4.75 -0.209,1.795 -0.666,3.73 -1.401,5.518 -0.735,1.787 -1.749,3.429 -3.11,5.095 -1.361,1.666 -3.07,3.356 -4.878,4.819 -1.808,1.462 -3.716,2.698 -6.06,3.974 -2.345,1.276 -5.127,2.593 -7.919,3.535 -2.791,0.943 -5.593,1.512 -8.852,1.788 -3.258,0.276 -6.974,0.26 -10.59,-0.187 -3.616,-0.447 -7.133,-1.325 -10.362,-2.447 -3.229,-1.121 -6.17,-2.486 -8.385,-3.941 -2.216,-1.454 -3.706,-2.998 -4.65,-4.486 -0.944,-1.487 -1.341,-2.917 -1.239,-5.444 0.102,-2.527 0.704,-6.151 0.569,-9.074 -0.135,-2.923 -1.007,-5.145 -2.332,-7.34 -1.324,-2.194 -3.101,-4.362 -6.723,-7.599 -3.622,-3.237 -9.089,-7.543 -13.851,-11.356 -4.762,-3.813 -8.82,-7.132 -11.805,-9.902 -2.985,-2.771 -4.896,-4.993 -6.12,-6.995 -1.224,-2.003 -1.76,-3.786 -1.962,-4.938 -0.201,-1.152 -0.067,-1.674 0.234,-2.51 0.302,-0.837 0.772,-1.989 1.862,-3.114 1.09,-1.124 2.8,-2.222 4.98,-3.031 2.18,-0.809 4.829,-1.33 7.546,-1.591 2.717,-0.26 5.5,-0.26 8.166,-0.096 2.666,0.165 5.215,0.494 7.21,0.713 1.995,0.22 3.437,0.329 4.292,0.521 0.855,0.193 1.124,0.467 1.224,1.057 0.101,0.59 0.034,1.495 -0.15,2.496 -0.185,1.001 -0.487,2.098 -1.216,3.388 -0.73,1.289 -1.887,2.771 -2.892,3.017"
         style="fill:#ff8c00;fill-opacity:0.5;fill-rule:evenodd;stroke:none"
         transform="matrix(0.55641333,0,0,-0.55641333,-10.967877,430.23505)"
         id="path55" />
      <path
         d="m 333.454,605.337 c 8.889,-0.962 9.15,-1.176 9.412,-1.835 0.262,-0.66 0.523,-1.764 1.024,-3.938 0.501,-2.174 1.241,-5.417 2.112,-7.573 0.872,-2.156 1.874,-3.226 3.398,-4.348 1.525,-1.123 3.573,-2.298 6.732,-3.457 3.159,-1.158 7.428,-2.298 11.001,-2.869 3.572,-0.57 6.447,-0.57 9.105,-0.267 2.657,0.303 5.097,0.908 6.731,1.532 1.634,0.624 2.462,1.265 3.551,2.281 1.09,1.016 2.441,2.406 3.443,4.081 1.002,1.675 1.655,3.634 2.004,5.755 0.348,2.12 0.392,4.401 0.239,6.718 -0.152,2.316 -0.501,4.668 -1.285,6.967 -0.784,2.298 -2.004,4.543 -3.79,6.254 -1.787,1.711 -4.139,2.887 -7.56,3.742 -3.42,0.856 -7.907,1.39 -12.199,1.176 -4.291,-0.214 -8.386,-1.176 -11.523,-2.085 -3.137,-0.908 -5.315,-1.763 -8.321,-1.799 -3.007,-0.036 -6.841,0.748 -8.693,1.247 -1.852,0.499 -1.721,0.713 -1.46,1.051 0.262,0.339 0.654,0.802 2.68,2.405 2.027,1.604 5.686,4.349 9.76,6.416 4.074,2.067 8.561,3.456 11.154,4.24 2.592,0.784 3.289,0.963 5.467,1.212 2.178,0.249 5.838,0.57 9.607,0.374 3.768,-0.196 7.646,-0.909 10.739,-1.853 3.094,-0.944 5.402,-2.12 7.537,-3.849 2.135,-1.728 4.096,-4.009 5.425,-6.237 1.329,-2.227 2.026,-4.4 2.679,-6.931 0.653,-2.53 1.263,-5.417 1.416,-8.321 0.152,-2.905 -0.153,-5.827 -0.806,-8.874 -0.653,-3.047 -1.655,-6.218 -2.854,-8.962 -1.198,-2.744 -2.592,-5.061 -4.248,-7.181 -1.655,-2.121 -3.572,-4.045 -5.424,-5.47 -1.851,-1.426 -3.638,-2.352 -5.925,-3.154 -2.287,-0.802 -5.076,-1.48 -7.864,-1.818 -2.788,-0.339 -5.576,-0.339 -8.8,0.035 -3.224,0.375 -6.884,1.123 -10.304,2.121 -3.42,0.998 -6.601,2.245 -9.019,3.421 -2.418,1.176 -4.074,2.281 -5.751,3.582 -1.677,1.301 -3.377,2.798 -4.815,4.882 -1.438,2.085 -2.614,4.757 -3.485,7.163 -0.872,2.405 -1.438,4.544 -1.656,7.216 -0.217,2.673 -0.086,5.88 0.436,6.95"
         style="fill:#8b008b;fill-opacity:0.5;fill-rule:evenodd;stroke:none"
         transform="matrix(0.55641333,0,0,-0.55641333,-10.967877,430.23505)"
         id="path56" />
      <path
         d="m 72.4306,598.488 c -4.2955,-14.054 4.2954,-35.135 30.0674,-52.703 25.773,-17.568 68.727,-31.622 85.909,-24.595 17.181,7.027 8.591,35.136 -4.296,45.676 -12.886,10.541 -30.068,3.514 -42.954,10.541 -12.886,7.027 -21.477,28.108 -34.363,35.135 -12.8864,7.027 -30.068,0 -34.3634,-14.054 z"
         style="fill:none;stroke:#000000;stroke-width:1.2;stroke-linecap:butt;stroke-linejoin:round;stroke-miterlimit:10;stroke-dasharray:none;stroke-opacity:1"
         transform="matrix(0.55641333,0,0,-0.55641333,-10.967877,430.23505)"
         id="path57" />
      <path
         d="m 75.4449,574.93 c -41.6741,-6.307 -32.0094,30.585 -17.5124,47.274 14.4971,16.689 33.8264,13.176 49.1045,7.934 15.278,-5.241 26.504,-12.21 43.027,-24.961 16.523,-12.751 38.342,-31.284 55.095,-32.686"
         style="fill:none;stroke:#000000;stroke-width:1.2;stroke-linecap:butt;stroke-linejoin:round;stroke-miterlimit:10;stroke-dasharray:none;stroke-opacity:1"
         transform="matrix(0.55641333,0,0,-0.55641333,-10.967877,430.23505)"
         id="path58" />
      <path
         d="m 99.2027,587.123 c 18.8333,15.385 25.0253,16.888 32.4163,15.883 7.391,-1.005 15.982,-4.518 21.888,-12.863 5.907,-8.344 9.128,-21.52 7.659,-39.613"
         style="fill:none;stroke:#000000;stroke-width:1.2;stroke-linecap:butt;stroke-linejoin:round;stroke-miterlimit:10;stroke-dasharray:none;stroke-opacity:1"
         transform="matrix(0.55641333,0,0,-0.55641333,-10.967877,430.23505)"
         id="path59" />
      <path
         d="m 72.4306,598.488 c -4.2955,-14.054 4.2954,-35.135 30.0674,-52.703 25.773,-17.568 68.727,-31.622 85.909,-24.595 17.181,7.027 8.591,35.136 -4.296,45.676 -12.886,10.541 -30.068,3.514 -42.954,10.541 -12.886,7.027 -21.477,28.108 -34.363,35.135 -12.8864,7.027 -30.068,0 -34.3634,-14.054 z"
         style="fill:none;stroke:#000000;stroke-width:1.2;stroke-linecap:butt;stroke-linejoin:round;stroke-miterlimit:10;stroke-dasharray:none;stroke-opacity:1"
         transform="matrix(0.55641333,0,0,-0.55641333,-10.967877,430.23505)"
         id="path60" />
      <path
         d="m 159.972,541.361 c -7.269,-6.498 -18.412,-0.159 -27.205,1.254 -8.792,1.413 -15.236,-2.1 -18.457,-7.371 -3.222,-5.27 -3.222,-12.297 3.221,-18.446 6.444,-6.148 19.33,-11.419 33.29,-14.054 13.96,-2.635 28.994,-2.635 42.954,0 13.96,2.635 26.846,7.906 42.954,9.663 16.108,1.756 35.437,0 49.397,0.878 13.96,0.878 22.551,4.392 24.699,12.297 2.148,7.906 -2.148,20.203 -9.128,25.034 -6.98,4.831 -16.644,2.196 -18.729,5.664"
         style="fill:none;stroke:#000000;stroke-width:1.2;stroke-linecap:butt;stroke-linejoin:round;stroke-miterlimit:10;stroke-dasharray:none;stroke-opacity:1"
         transform="matrix(0.55641333,0,0,-0.55641333,-10.967877,430.23505)"
         id="path61" />
      <path
         d="m 166.751,540.219 c -11.616,-5.732 -24.075,-9.745 -28.157,-14.387 -4.082,-4.642 0.213,-9.912 10.952,-12.547 10.739,-2.635 27.92,-2.635 42.954,-1.757 15.034,0.879 27.92,2.635 40.807,4.392 12.886,1.757 25.772,3.514 23.624,7.027 -2.147,3.514 -19.329,8.784 -23.624,14.933 -4.296,6.148 4.295,13.175 9.146,20.21 4.851,7.036 5.963,14.079 3.94,19.086 -2.024,5.007 -7.181,7.978 -19.478,1.41"
         style="fill:none;stroke:#000000;stroke-width:1.2;stroke-linecap:butt;stroke-linejoin:round;stroke-miterlimit:10;stroke-dasharray:none;stroke-opacity:1"
         transform="matrix(0.55641333,0,0,-0.55641333,-10.967877,430.23505)"
         id="path62" />
      <path
         d="m 201.294,589.704 c 19.329,-15.811 51.545,-15.811 70.874,0"
         style="fill:none;stroke:#000000;stroke-width:1.2;stroke-linecap:butt;stroke-linejoin:round;stroke-miterlimit:10;stroke-dasharray:none;stroke-opacity:1"
         transform="matrix(0.55641333,0,0,-0.55641333,-10.967877,430.23505)"
         id="path63" />
      <path
         d="m 277.581,551.945 c 26.802,-9.674 20.359,-20.214 12.842,-25.484 -7.517,-5.271 -16.108,-5.271 -22.551,-1.757 -6.443,3.513 -10.739,10.54 -12.886,18.007 -2.148,7.466 -2.148,15.371 14.008,12.379"
         style="fill:none;stroke:#000000;stroke-width:1.2;stroke-linecap:butt;stroke-linejoin:round;stroke-miterlimit:10;stroke-dasharray:none;stroke-opacity:1"
         transform="matrix(0.55641333,0,0,-0.55641333,-10.967877,430.23505)"
         id="path64" />
      <path
         d="m 278.61,552.813 c -6.443,-5.27 -6.443,-7.905 -2.147,-9.223 4.295,-1.318 12.886,-1.318 21.477,1.318 8.591,2.635 17.181,7.905 19.329,12.297 2.148,4.392 -2.148,7.905 -7.517,9.662 -5.369,1.757 -11.812,1.757 -31.142,-14.054"
         style="fill:none;stroke:#000000;stroke-width:1.2;stroke-linecap:butt;stroke-linejoin:round;stroke-miterlimit:10;stroke-dasharray:none;stroke-opacity:1"
         transform="matrix(0.55641333,0,0,-0.55641333,-10.967877,430.23505)"
         id="path65" />
      <path
         d="m 218.475,566.866 c 12.886,-3.513 30.068,-3.513 42.954,3.514 12.886,7.027 21.477,21.081 17.181,24.594 -4.295,3.514 -21.477,-3.513 -38.658,-3.513 -17.182,0 -34.364,7.027 -42.954,7.027 -8.591,0 -8.591,-7.027 -4.296,-14.054 4.296,-7.027 12.886,-14.054 25.773,-17.568 z"
         style="fill:none;stroke:#000000;stroke-width:1.2;stroke-linecap:butt;stroke-linejoin:round;stroke-miterlimit:10;stroke-dasharray:none;stroke-opacity:1"
         transform="matrix(0.55641333,0,0,-0.55641333,-10.967877,430.23505)"
         id="path66" />
      <path
         d="m 268.265,586.837 c -21.869,-2.402 -54.085,-2.402 -64.081,0.686"
         style="fill:none;stroke:#000000;stroke-width:1.2;stroke-linecap:butt;stroke-linejoin:round;stroke-miterlimit:10;stroke-dasharray:none;stroke-opacity:1"
         transform="matrix(0.55641333,0,0,-0.55641333,-10.967877,430.23505)"
         id="path67" />
      <path
         d="m 330.156,605.515 c -12.886,0 -16.107,-10.541 -15.571,-18.446 0.537,-7.906 4.833,-13.176 10.202,-15.811 5.369,-2.635 11.812,-2.635 18.256,0 6.443,2.635 12.886,7.905 15.034,13.176 2.147,5.27 0,10.54 -4.296,14.493 -4.295,3.953 -10.738,6.588 -23.625,6.588"
         style="fill:none;stroke:#000000;stroke-width:1.2;stroke-linecap:butt;stroke-linejoin:round;stroke-miterlimit:10;stroke-dasharray:none;stroke-opacity:1"
         transform="matrix(0.55641333,0,0,-0.55641333,-10.967877,430.23505)"
         id="path68" />
      <path
         d="m 261.429,545.785 c -4.296,-10.541 12.886,-17.568 38.658,-10.541 25.773,7.027 60.136,28.109 68.727,45.676 8.591,17.568 -8.591,31.622 -25.772,35.135 -17.182,3.514 -34.364,-3.513 -38.659,-10.54 -4.296,-7.027 4.295,-14.054 -4.296,-24.595 -8.59,-10.54 -34.363,-24.594 -38.658,-35.135 z"
         style="fill:none;stroke:#000000;stroke-width:1.2;stroke-linecap:butt;stroke-linejoin:round;stroke-miterlimit:10;stroke-dasharray:none;stroke-opacity:1"
         transform="matrix(0.55641333,0,0,-0.55641333,-10.967877,430.23505)"
         id="path69" />
      <path
         d="m 347.416,614.933 c 14.956,6.393 27.842,6.393 35.359,2.879 7.517,-3.513 9.665,-10.54 9.665,-17.567 0,-7.028 -2.148,-14.055 -8.494,-17.165 -6.347,-3.111 -16.892,-2.306 -25.531,0.128 -8.639,2.434 -15.372,6.496 -15.6,21.124"
         style="fill:none;stroke:#000000;stroke-width:1.2;stroke-linecap:butt;stroke-linejoin:round;stroke-miterlimit:10;stroke-dasharray:none;stroke-opacity:1"
         transform="matrix(0.55641333,0,0,-0.55641333,-10.967877,430.23505)"
         id="path70" />
      <path
         d="m 336.354,616.983 c 13.209,14.946 32.538,17.581 45.424,15.385 12.887,-2.196 19.33,-9.223 21.477,-18.885 2.148,-9.662 0,-21.959 -5.369,-30.743 -5.369,-8.784 -13.96,-14.054 -29.531,-12.737 -15.571,1.318 -38.122,9.223 -35.077,35.522"
         style="fill:none;stroke:#000000;stroke-width:1.2;stroke-linecap:butt;stroke-linejoin:round;stroke-miterlimit:10;stroke-dasharray:none;stroke-opacity:1"
         transform="matrix(0.55641333,0,0,-0.55641333,-10.967877,430.23505)"
         id="path71" />
      <path
         d="m 87.7136,592.023 c 16.9324,8.222 20.1544,18.762 15.3214,24.032 -4.832,5.271 -17.7182,5.271 -27.3829,0.879 -9.6647,-4.392 -16.1078,-13.176 -17.7186,-21.521 -1.6107,-8.344 1.6108,-16.25 14.1588,-10.871"
         style="fill:none;stroke:#000000;stroke-width:1.2;stroke-linecap:butt;stroke-linejoin:round;stroke-miterlimit:10;stroke-dasharray:none;stroke-opacity:1"
         transform="matrix(0.55641333,0,0,-0.55641333,-10.967877,430.23505)"
         id="path72" />
      <path
         d="m 218.896,566.753 c -11.16,-8.671 -19.862,-7.723 -26.682,-4.93 -6.819,2.793 -11.756,7.431 -15.221,9.396 -3.465,1.964 -5.458,1.254 -5.852,-20.436"
         style="fill:none;stroke:#000000;stroke-width:1.2;stroke-linecap:butt;stroke-linejoin:round;stroke-miterlimit:10;stroke-dasharray:none;stroke-opacity:1"
         transform="matrix(0.55641333,0,0,-0.55641333,-10.967877,430.23505)"
         id="path73" />
      <path
         d="m 276.243,561.112 c -10.519,2.242 -16,4.299 -18.671,8.375 -2.67,4.075 -2.529,10.169 -4.634,14.174 -2.105,4.005 -6.455,5.921 -13.055,5.321 -6.601,-0.6 -15.451,-3.716 -19.243,-9.019"
         style="fill:none;stroke:#000000;stroke-width:1.2;stroke-linecap:butt;stroke-linejoin:round;stroke-miterlimit:10;stroke-dasharray:none;stroke-opacity:1"
         transform="matrix(0.55641333,0,0,-0.55641333,-10.967877,430.23505)"
         id="path74" />
      <path
         d="m 137.388,540.692 7.088,-1.924 9.979,-3.405 -3.146,-1.326 -10.074,-3.473 -1.355,-2.545 -2.007,-1.76 -21.831,9.89 1.589,1.768 z"
         style="fill:#ffffff;fill-opacity:1;fill-rule:evenodd;stroke:none"
         transform="matrix(0.55641333,0,0,-0.55641333,-10.967877,430.23505)"
         id="path75" />
      <path
         d="m 137.388,540.692 7.088,-1.924 9.979,-3.405 -3.146,-1.326 -10.074,-3.473 -1.355,-2.545 -2.007,-1.76 -21.831,9.89 1.589,1.768 z"
         style="fill:#0000ff;fill-opacity:0.5;fill-rule:evenodd;stroke:none"
         transform="matrix(0.55641333,0,0,-0.55641333,-10.967877,430.23505)"
         id="path76" />
      <path
         d="m 297.56,533.612 0.489,2.449 0.546,3.852 -3.748,3.265 -1.996,1.878 10.64,2.85 1.319,-1.51 4.011,-7.47 0.526,-1.741 z"
         style="fill:#ffffff;fill-opacity:1;fill-rule:evenodd;stroke:none"
         transform="matrix(0.55641333,0,0,-0.55641333,-10.967877,430.23505)"
         id="path77" />
      <path
         d="m 297.561,533.612 0.489,2.449 0.546,3.852 -3.748,3.265 -1.996,1.878 10.64,2.85 1.319,-1.51 4.011,-7.47 0.526,-1.741 z"
         style="fill:#0000ff;fill-opacity:0.5;fill-rule:evenodd;stroke:none"
         transform="matrix(0.55641333,0,0,-0.55641333,-10.967877,430.23505)"
         id="path78" />
      <path
         d="m 227.292,584.406 3.674,1.622 18.498,0.303 1.733,-1.688 -22.296,-0.913 z"
         style="fill:#ffffff;fill-opacity:1;fill-rule:evenodd;stroke:none"
         transform="matrix(0.55641333,0,0,-0.55641333,-10.967877,430.23505)"
         id="path79" />
      <path
         d="m 246.403,579.638 1.207,-2.21 5.881,1.793 -0.509,1.795 -2.097,0.104 z"
         style="fill:#ffffff;fill-opacity:1;fill-rule:evenodd;stroke:none"
         transform="matrix(0.55641333,0,0,-0.55641333,-10.967877,430.23505)"
         id="path80" />
      <path
         d="m 247.159,564.704 0.881,2.601 8.66,1.782 1.786,-2.242 z"
         style="fill:#ffffff;fill-opacity:1;fill-rule:evenodd;stroke:none"
         transform="matrix(0.55641333,0,0,-0.55641333,-10.967877,430.23505)"
         id="path81" />
      <path
         d="m 227.292,584.406 3.674,1.622 18.498,0.303 1.733,-1.688 -22.296,-0.913 z"
         style="fill:#0000ff;fill-opacity:0.5;fill-rule:evenodd;stroke:none"
         transform="matrix(0.55641333,0,0,-0.55641333,-10.967877,430.23505)"
         id="path82" />
      <path
         d="m 246.403,579.638 1.207,-2.21 5.881,1.793 -0.509,1.795 -2.097,0.104 z"
         style="fill:#0000ff;fill-opacity:0.5;fill-rule:evenodd;stroke:none"
         transform="matrix(0.55641333,0,0,-0.55641333,-10.967877,430.23505)"
         id="path83" />
      <path
         d="m 247.159,564.704 0.881,2.601 8.66,1.782 1.786,-2.242 z"
         style="fill:#0000ff;fill-opacity:0.5;fill-rule:evenodd;stroke:none"
         transform="matrix(0.55641333,0,0,-0.55641333,-10.967877,430.23505)"
         id="path84" />
      <path
         d="m 105.92,611.942 -0.645,2.896 13.412,-7.635 0.911,-5.09 -2.575,-1.316 z"
         style="fill:#ffffff;fill-opacity:1;fill-rule:evenodd;stroke:none"
         transform="matrix(0.55641333,0,0,-0.55641333,-10.967877,430.23505)"
         id="path85" />
      <path
         d="m 161.06,575.087 0.672,-2.601 10.843,-1.185 0.988,1.099 1.06,0.347 -2.613,1.097 z"
         style="fill:#ffffff;fill-opacity:1;fill-rule:evenodd;stroke:none"
         transform="matrix(0.55641333,0,0,-0.55641333,-10.967877,430.23505)"
         id="path86" />
      <path
         d="m 105.92,611.941 -0.645,2.896 13.412,-7.635 0.911,-5.09 -2.575,-1.316 z"
         style="fill:#0000ff;fill-opacity:0.5;fill-rule:evenodd;stroke:none"
         transform="matrix(0.55641333,0,0,-0.55641333,-10.967877,430.23505)"
         id="path87" />
      <path
         d="m 161.06,575.086 0.672,-2.601 10.843,-1.185 0.988,1.099 1.06,0.347 -2.613,1.097 z"
         style="fill:#0000ff;fill-opacity:0.5;fill-rule:evenodd;stroke:none"
         transform="matrix(0.55641333,0,0,-0.55641333,-10.967877,430.23505)"
         id="path88" />
      <path
         d="m 349.307,575.921 1.986,-0.979 9.95,-3.157 2.5,-0.468 6.498,9.03 -2.937,0.288 -8.345,0.623 -0.788,1.178 -2.121,0.646 z"
         style="fill:#ffffff;fill-opacity:1;fill-rule:evenodd;stroke:none"
         transform="matrix(0.55641333,0,0,-0.55641333,-10.967877,430.23505)"
         id="path89" />
      <path
         d="m 349.308,575.922 1.986,-0.979 9.95,-3.157 2.5,-0.468 6.498,9.03 -2.937,0.288 -8.345,0.623 -0.788,1.178 -2.121,0.646 z"
         style="fill:#8b008b;fill-opacity:0.5;fill-rule:evenodd;stroke:none"
         transform="matrix(0.55641333,0,0,-0.55641333,-10.967877,430.23505)"
         id="path90" />
      <path
         d="m 99.4321,565.181 2.7059,1.726 15.28,0.564 6.011,-0.939 3.488,-2.027 -6.332,-2.589 -10.784,-1.351 -8.167,2.101 z"
         style="fill:#40e0d0;fill-opacity:0.3;fill-rule:evenodd;stroke:none"
         transform="matrix(0.55641333,0,0,-0.55641333,-10.967877,430.23505)"
         id="path91" />
      <path
         d="m 98.204,568.623 c 0,-10.541 25.773,-10.541 32.216,0"
         style="fill:none;stroke:#000000;stroke-width:1.2;stroke-linecap:butt;stroke-linejoin:round;stroke-miterlimit:10;stroke-dasharray:none;stroke-opacity:1"
         transform="matrix(0.55641333,0,0,-0.55641333,-10.967877,430.23505)"
         id="path92" />
      <path
         d="m 126.241,564.509 c -2.264,4.114 -21.594,4.114 -27.0302,0.817"
         style="fill:none;stroke:#000000;stroke-width:1.2;stroke-linecap:butt;stroke-linejoin:round;stroke-miterlimit:10;stroke-dasharray:none;stroke-opacity:1"
         transform="matrix(0.55641333,0,0,-0.55641333,-10.967877,430.23505)"
         id="path93" />
      <path
         d="m 44.9942,563.821 c -5.0528,-2.896 -2.7112,-11.523 3.9848,-20.17 6.696,-8.648 17.7464,-17.315 26.5991,-17.829 8.8526,-0.513 15.5075,7.127 15.0351,14.357 -0.4724,7.23 -8.0721,14.05 -18.0956,18.877 -10.0234,4.826 -22.4706,7.661 -27.5234,4.765 z"
         style="fill:#ffffff;fill-opacity:1;fill-rule:evenodd;stroke:#000000;stroke-width:1.2;stroke-linecap:butt;stroke-linejoin:round;stroke-miterlimit:10;stroke-dasharray:none;stroke-opacity:1"
         transform="matrix(0.55641333,0,0,-0.55641333,-10.967877,430.23505)"
         id="path94" />
      <path
         d="m 44.9943,563.821 c -5.0528,-2.897 -2.7113,-11.523 3.9847,-20.17 6.696,-8.648 17.7464,-17.315 26.5991,-17.829 8.8526,-0.513 15.5075,7.127 15.0351,14.357 -0.4724,7.23 -8.0721,14.05 -18.0956,18.877 -10.0234,4.826 -22.4705,7.661 -27.5233,4.765 z"
         style="fill:#2e8b57;fill-opacity:0.75;fill-rule:evenodd;stroke:#000000;stroke-width:1.2;stroke-linecap:butt;stroke-linejoin:round;stroke-miterlimit:10;stroke-dasharray:none;stroke-opacity:1"
         transform="matrix(0.55641333,0,0,-0.55641333,-10.967877,430.23505)"
         id="path95" />
      <path
         d="m 85.2445,550.351 c 2.7308,-2.864 0.227,-9.912 -7.6878,-12.834 -7.9148,-2.922 -21.2408,-1.717 -23.7234,0.619"
         style="fill:none;stroke:#000000;stroke-width:1.2;stroke-linecap:butt;stroke-linejoin:round;stroke-miterlimit:10;stroke-dasharray:none;stroke-opacity:1"
         transform="matrix(0.55641333,0,0,-0.55641333,-10.967877,430.23505)"
         id="path96" />
      <path
         d="m 53.7775,538.135 c -1.5175,1.63 6.014,7.448 13.6158,10.75 7.6018,3.302 15.2739,4.089 17.6907,1.728"
         style="fill:none;stroke:#000000;stroke-width:1.2;stroke-linecap:butt;stroke-linejoin:round;stroke-miterlimit:10;stroke-dasharray:4;stroke-dashoffset:0;stroke-opacity:1"
         transform="matrix(0.55641333,0,0,-0.55641333,-10.967877,430.23505)"
         id="path97" />
      <path
         d="m 356.539,556.973 c -8.993,-3.175 -18.492,-9.259 -25.003,-16.49 -6.511,-7.232 -10.034,-15.611 -6.778,-20.467 3.255,-4.857 13.289,-6.191 24.389,-2.215 11.101,3.976 23.269,13.262 29.006,21.294 5.737,8.032 5.043,14.81 0.454,18.065 -4.59,3.256 -13.076,2.989 -22.068,-0.187 z"
         style="fill:#ffffff;fill-opacity:1;fill-rule:evenodd;stroke:#000000;stroke-width:1.2;stroke-linecap:butt;stroke-linejoin:round;stroke-miterlimit:10;stroke-dasharray:none;stroke-opacity:1"
         transform="matrix(0.55641333,0,0,-0.55641333,-10.967877,430.23505)"
         id="path98" />
      <path
         d="m 356.539,556.974 c -8.992,-3.176 -18.492,-9.26 -25.003,-16.491 -6.511,-7.231 -10.033,-15.61 -6.778,-20.466 3.256,-4.857 13.289,-6.191 24.39,-2.215 11.1,3.975 23.268,13.261 29.005,21.293 5.737,8.032 5.043,14.81 0.454,18.066 -4.59,3.255 -13.075,2.988 -22.068,-0.187 z"
         style="fill:#00ff00;fill-opacity:0.5;fill-rule:evenodd;stroke:#000000;stroke-width:1.2;stroke-linecap:butt;stroke-linejoin:round;stroke-miterlimit:10;stroke-dasharray:none;stroke-opacity:1"
         transform="matrix(0.55641333,0,0,-0.55641333,-10.967877,430.23505)"
         id="path99" />
      <path
         d="m 336.119,532.172 c -3.554,-2.791 -5.658,-6.591 -3.616,-7.818 2.043,-1.228 8.234,0.116 11.787,2.908 3.553,2.791 4.469,7.03 2.426,8.258 -2.042,1.227 -7.044,-0.556 -10.597,-3.348 z"
         style="fill:#ffffff;fill-opacity:1;fill-rule:evenodd;stroke:#000000;stroke-width:1.2;stroke-linecap:butt;stroke-linejoin:round;stroke-miterlimit:10;stroke-dasharray:none;stroke-opacity:1"
         transform="matrix(0.55641333,0,0,-0.55641333,-10.967877,430.23505)"
         id="path100" />
      <path
         d="m 336.118,532.172 c -3.553,-2.791 -5.658,-6.591 -3.615,-7.818 2.043,-1.228 8.233,0.116 11.786,2.908 3.554,2.791 4.47,7.03 2.427,8.258 -2.043,1.227 -7.044,-0.556 -10.598,-3.348 z"
         style="fill:#40e0d0;fill-opacity:0.3;fill-rule:evenodd;stroke:#000000;stroke-width:1.2;stroke-linecap:butt;stroke-linejoin:round;stroke-miterlimit:10;stroke-dasharray:none;stroke-opacity:1"
         transform="matrix(0.55641333,0,0,-0.55641333,-10.967877,430.23505)"
         id="path101" />
      <path
         d="m 359.264,539.383 c -3.553,-2.792 -5.658,-6.591 -3.615,-7.819 2.043,-1.228 8.233,0.116 11.786,2.908 3.554,2.791 4.47,7.03 2.427,8.258 -2.043,1.228 -7.044,-0.556 -10.598,-3.347 z"
         style="fill:#ffffff;fill-opacity:1;fill-rule:evenodd;stroke:#000000;stroke-width:1.2;stroke-linecap:butt;stroke-linejoin:round;stroke-miterlimit:10;stroke-dasharray:none;stroke-opacity:1"
         transform="matrix(0.55641333,0,0,-0.55641333,-10.967877,430.23505)"
         id="path102" />
      <path
         d="m 359.264,539.383 c -3.553,-2.792 -5.658,-6.591 -3.615,-7.819 2.043,-1.228 8.233,0.116 11.786,2.908 3.554,2.791 4.47,7.03 2.427,8.258 -2.043,1.228 -7.044,-0.556 -10.598,-3.347 z"
         style="fill:#40e0d0;fill-opacity:0.3;fill-rule:evenodd;stroke:#000000;stroke-width:1.2;stroke-linecap:butt;stroke-linejoin:round;stroke-miterlimit:10;stroke-dasharray:none;stroke-opacity:1"
         transform="matrix(0.55641333,0,0,-0.55641333,-10.967877,430.23505)"
         id="path103" />
      <path
         d="m 351.106,548.869 c -3.553,-2.792 -5.658,-6.591 -3.615,-7.819 2.043,-1.228 8.233,0.117 11.786,2.908 3.554,2.792 4.47,7.03 2.427,8.258 -2.043,1.228 -7.044,-0.556 -10.598,-3.347 z"
         style="fill:#ffffff;fill-opacity:1;fill-rule:evenodd;stroke:#000000;stroke-width:1.2;stroke-linecap:butt;stroke-linejoin:round;stroke-miterlimit:10;stroke-dasharray:none;stroke-opacity:1"
         transform="matrix(0.55641333,0,0,-0.55641333,-10.967877,430.23505)"
         id="path104" />
      <path
         d="m 351.106,548.869 c -3.553,-2.792 -5.658,-6.591 -3.615,-7.819 2.043,-1.228 8.233,0.117 11.786,2.908 3.554,2.792 4.47,7.03 2.427,8.258 -2.043,1.228 -7.044,-0.556 -10.598,-3.347 z"
         style="fill:#40e0d0;fill-opacity:0.3;fill-rule:evenodd;stroke:#000000;stroke-width:1.2;stroke-linecap:butt;stroke-linejoin:round;stroke-miterlimit:10;stroke-dasharray:none;stroke-opacity:1"
         transform="matrix(0.55641333,0,0,-0.55641333,-10.967877,430.23505)"
         id="path105" />
    </g>
    <path
       id="path106"
       d="M 0,0 V 170.079"
       style="fill:none;stroke:#000000;stroke-width:0.398;stroke-linecap:butt;stroke-linejoin:miter;stroke-miterlimit:10;stroke-dasharray:none;stroke-opacity:1"
       transform="matrix(1.3333333,0,0,-1.3333333,227.03733,226.772)" />
    <path
       id="path107"
       d="M 0,0 H 170.876"
       style="fill:none;stroke:#000000;stroke-width:0.398;stroke-linecap:butt;stroke-linejoin:miter;stroke-miterlimit:10;stroke-dasharray:none;stroke-opacity:1"
       transform="matrix(1.3333333,0,0,-1.3333333,-0.532,227.03733)" />
  </g>
</svg>
