<?xml version="1.0" encoding="UTF-8" standalone="no"?>
<!-- Created with Inkscape (http://www.inkscape.org/) -->

<svg
   version="1.1"
   id="svg1"
   width="226.772"
   height="226.772"
   viewBox="0 0 226.772 226.772"
   sodipodi:docname="blaser2022_relative.svg"
   inkscape:version="1.4.3 (0d15f75, 2025-12-25)"
   xmlns:inkscape="http://www.inkscape.org/namespaces/inkscape"
   xmlns:sodipodi="http://sodipodi.sourceforge.net/DTD/sodipodi-0.dtd"
   xmlns="http://www.w3.org/2000/svg"
   xmlns:svg="http://www.w3.org/2000/svg">
  <defs
     id="defs1">
    <clipPath
       clipPathUnits="userSpaceOnUse"
       id="clipPath28">
      <path
         d="M 22.96057,-127.55977 V 51.023898 h 104.5992 V -127.55977 Z"
         id="path28" />
    </clipPath>
    <clipPath
       clipPathUnits="userSpaceOnUse"
       id="clipPath30">
      <path
         d="M -127.55977,-127.55977 V 51.023898 h 104.5992 V -127.55977 Z"
         id="path30" />
    </clipPath>
  </defs>
  <sodipodi:namedview
     id="namedview1"
     pagecolor="#ffffff"
     bordercolor="#000000"
     borderopacity="0.25"
     inkscape:showpageshadow="2"
     inkscape:pageopacity="0.0"
     inkscape:pagecheckerboard="0"
     inkscape:deskcolor="#d1d1d1"
     inkscape:zoom="5.1461378"
     inkscape:cx="113.386"
     inkscape:cy="113.386"
     inkscape:window-width="2560"
     inkscape:window-height="1369"
     inkscape:window-x="-8"
     inkscape:window-y="-8"
     inkscape:window-maximized="1"
     inkscape:current-layer="g1">
    <inkscape:page
       x="0"
       y="0"
       inkscape:label="1"
       id="page1"
       width="226.772"
       height="226.772"
       margin="0"
       bleed="0" />
  </sodipodi:namedview>
  <g
     id="g1"
     inkscape:groupmode="layer"
     inkscape:label="1">
    <path
       id="path1"
       d="M 0,0 H 170.876"
       style="fill:none;stroke:#000000;stroke-width:0.398;stroke-linecap:butt;stroke-linejoin:miter;stroke-miterlimit:10;stroke-dasharray:none;stroke-opacity:1"
       transform="matrix(1.3333333,0,0,-1.3333333,-0.53066667,-0.26533333)" />
    <path
       id="path2"
       d="M 0,0 V 170.079"
       style="fill:none;stroke:#000000;stroke-width:0.398;stroke-linecap:butt;stroke-linejoin:miter;stroke-miterlimit:10;stroke-dasharray:none;stroke-opacity:1"
       transform="matrix(1.3333333,0,0,-1.3333333,-0.26533333,226.772)" />
    <path
       id="path3"
       d="m -127.55977,-127.55977 v 255.11954 h 45.92162 L 0,-5.10226 v -122.45751 z"
       style="fill:#ebebff;fill-opacity:1;fill-rule:nonzero;stroke:none"
       transform="matrix(0.87746667,0,0,-0.87746667,109.71456,113.38554)" />
    <path
       id="path4"
       d="M 127.55977,-127.55977 V 127.55977 H 81.63815 L 0,-5.10226 v -122.45751 z"
       style="fill:#ebffeb;fill-opacity:1;fill-rule:nonzero;stroke:none"
       transform="matrix(0.87746667,0,0,-0.87746667,109.71456,113.38554)" />
    <path
       id="path5"
       d="M -81.63815,127.55977 H 81.63815 L 0,-5.10226 Z"
       style="fill:#ffebeb;fill-opacity:1;fill-rule:nonzero;stroke:none"
       transform="matrix(0.87746667,0,0,-0.87746667,109.71456,113.38554)" />
    <path
       id="path6"
       d="m -74.29395,-51.02368 c 0,1.23802 -1.00358,2.24161 -2.2416,2.24161 -1.23802,0 -2.24161,-1.00359 -2.24161,-2.24161 0,-1.23802 1.00359,-2.24161 2.24161,-2.24161 1.23802,0 2.2416,1.00359 2.2416,2.24161 z"
       style="fill:#000000;fill-opacity:1;fill-rule:nonzero;stroke:none"
       transform="matrix(0.87746667,0,0,-0.87746667,109.71456,113.38554)" />
    <path
       id="path7"
       d="m 78.77716,-51.02368 c 0,1.23802 -1.00359,2.24161 -2.24161,2.24161 -1.23802,0 -2.2416,-1.00359 -2.2416,-2.24161 0,-1.23802 1.00358,-2.24161 2.2416,-2.24161 1.23802,0 2.24161,1.00359 2.24161,2.24161 z"
       style="fill:#000000;fill-opacity:1;fill-rule:nonzero;stroke:none"
       transform="matrix(0.87746667,0,0,-0.87746667,109.71456,113.38554)" />
    <path
       id="path8"
       d="m 2.24161,76.53555 c 0,1.23802 -1.00361,2.24161 -2.24161,2.24161 -1.238,0 -2.24161,-1.00359 -2.24161,-2.24161 0,-1.23802 1.00361,-2.2416 2.24161,-2.2416 1.238,0 2.24161,1.00358 2.24161,2.2416 z"
       style="fill:#000000;fill-opacity:1;fill-rule:nonzero;stroke:none"
       transform="matrix(0.87746667,0,0,-0.87746667,109.71456,113.38554)" />
    <path
       id="path9"
       d="m 3.3298823,-3.0089486 c 0.053421,-0.2492972 0.2849111,-1.1752583 0.9793819,-1.1752583 0.053421,0 0.2849111,0 0.4985945,0.1246486 -0.2849111,0.053421 -0.4807875,0.302718 -0.4807875,0.5520153 0,0.1602625 0.1068416,0.3383319 0.3739458,0.3383319 0.2314903,0 0.5520153,-0.1780694 0.5520153,-0.5698222 0,-0.5164014 -0.5876292,-0.658857 -0.9259611,-0.658857 -0.5876292,0 -0.9259611,0.5342084 -1.0506097,0.7478917 -0.2492973,-0.64105 -0.7835056,-0.7478917 -1.0684167,-0.7478917 -1.0506097,0 -1.60262497,1.2821 -1.60262497,1.5313973 0,0.1068416 0.0890347,0.1068416 0.10684166,0.1068416 0.0890347,0 0.10684167,-0.035614 0.14245556,-0.1246486 C 1.193049,-3.9349097 1.834099,-4.1842069 2.1724309,-4.1842069 c 0.1958764,0 0.5520153,0.089035 0.5520153,0.6766639 0,0.302718 -0.1780695,0.9615749 -0.5520153,2.3683235 -0.1602625,0.60543615 -0.4985944,1.03280281 -0.943768,1.03280281 -0.053421,0 -0.28491113,0 -0.49859446,-0.12464861 0.24929721,-0.0534208 0.48078746,-0.26710417 0.48078746,-0.55201527 0,-0.26710413 -0.23149025,-0.33833193 -0.3739458,-0.33833193 -0.30271805,0 -0.55201527,0.24929721 -0.55201527,0.5698222 0,0.46298055 0.49859444,0.65885694 0.94376807,0.65885694 0.6588569,0 1.0149958,-0.69447083 1.0328027,-0.74789166 0.1246486,0.35613889 0.4807875,0.74789166 1.0862236,0.74789166 1.0149959,0 1.5848181,-1.28209994 1.5848181,-1.53139724 0,-0.1068416 -0.089035,-0.1068416 -0.1068417,-0.1068416 -0.089035,0 -0.1246486,0.053421 -0.1424555,0.1246486 -0.320525,1.05060969 -0.9971889,1.29990691 -1.3177139,1.29990691 -0.3917528,0 -0.5520153,-0.320525 -0.5520153,-0.65885694 0,-0.21368333 0.071228,-0.44517357 0.1780695,-0.87254027 z m 0,0"
       style="fill:#000000;fill-opacity:1;fill-rule:nonzero;stroke:none"
       aria-label="x"
       transform="matrix(0.87746667,0,0,0.87746667,34.472671,160.03869)" />
    <path
       id="path10"
       d="m 4.845382,-3.7939326 c 0.035614,-0.1424556 0.035614,-0.1602625 0.035614,-0.2314903 0,-0.1780694 -0.1424555,-0.2671041 -0.2849111,-0.2671041 -0.1068416,0 -0.2671041,0.053421 -0.3561389,0.2136833 -0.017807,0.053421 -0.089035,0.3561389 -0.1424555,0.5342083 -0.071228,0.2671042 -0.1424556,0.5342083 -0.1958764,0.8013125 l -0.4451736,1.78069442 c -0.035614,0.1602625 -0.4629806,0.85473333 -1.1218375,0.85473333 -0.5164014,0 -0.623243,-0.44517361 -0.623243,-0.80131249 0,-0.46298056 0.1780694,-1.08622356 0.5164013,-1.95876386 0.1602625,-0.4095597 0.1958764,-0.5164014 0.1958764,-0.7122778 0,-0.4451736 -0.320525,-0.8191194 -0.8191194,-0.8191194 -0.94376805,0 -1.31771388,1.4423625 -1.31771388,1.5313972 0,0.1068417 0.10684167,0.1068417 0.12464861,0.1068417 0.10684167,0 0.10684167,-0.035614 0.1602625,-0.1780695 0.26710416,-0.943768 0.65885697,-1.2464861 0.99718887,-1.2464861 0.089035,0 0.2492972,0 0.2492972,0.320525 0,0.2492972 -0.089035,0.5164014 -0.1602625,0.6944708 -0.4095597,1.0506097 -0.5876291,1.620432 -0.5876291,2.1012195 0,0.87254023 0.64105,1.17525828 1.2286791,1.17525828 0.3739459,0 0.7122778,-0.1602625 0.9971889,-0.44517361 -0.1246486,0.51640139 -0.2492972,0.99718888 -0.64105,1.53139723 -0.2671042,0.3383319 -0.64105,0.623243 -1.1040305,0.623243 -0.1424556,0 -0.5876292,-0.017807 -0.74789169,-0.4095597 0.16026249,0 0.28491109,0 0.42736669,-0.1246486 0.089035,-0.089035 0.1958764,-0.2136833 0.1958764,-0.40955972 0,-0.30271805 -0.2671042,-0.33833194 -0.3739459,-0.33833194 -0.23149025,0 -0.55201525,0.1602625 -0.55201525,0.64104996 0,0.4985945 0.44517361,0.8725403 1.05060975,0.8725403 1.0328027,0 2.0477986,-0.9081542 2.3327097,-2.02999164 z m 0,0"
       style="fill:#000000;fill-opacity:1;fill-rule:nonzero;stroke:none"
       aria-label="y"
       transform="matrix(0.87746667,0,0,0.87746667,179.95928,159.18842)" />
    <path
       id="path11"
       d="M 1.316548,-0.81834774 C 1.8685633,-1.4059769 2.1534744,-1.6552741 2.5096133,-1.9579922 c 0,-0.017807 0.623243,-0.5342083 0.9793819,-0.8903472 0.943768,-0.9259611 1.1574514,-1.4067486 1.1574514,-1.4423625 0,-0.1068416 -0.089035,-0.1068416 -0.1068417,-0.1068416 -0.071228,0 -0.1068417,0.017807 -0.1424555,0.1068416 -0.3027181,0.4807875 -0.5164014,0.64105 -0.7478917,0.64105 -0.2492972,0 -0.3739458,-0.1602625 -0.5164014,-0.320525 -0.1958764,-0.2314902 -0.3561389,-0.4273666 -0.6766639,-0.4273666 -0.7478916,0 -1.2108722,0.9259611 -1.2108722,1.1396444 0,0.035614 0.035614,0.1068417 0.1246486,0.1068417 0.089035,0 0.1068417,-0.053421 0.1246486,-0.1068417 0.1780695,-0.4629806 0.7656986,-0.4807875 0.8369264,-0.4807875 0.2136834,0 0.4095597,0.071228 0.64105,0.1602625 0.3917528,0.1424556 0.4985945,0.1424556 0.7656986,0.1424556 -0.3561389,0.4273666 -1.1930652,1.1396444 -1.3889416,1.2999069 l -0.8903472,0.8369264 c -0.67666393,0.67666384 -1.03280281,1.24648606 -1.03280281,1.31771384 0,0.08903472 0.10684166,0.08903472 0.12464861,0.08903472 0.0712278,0 0.0890347,-0.01780695 0.16026249,-0.12464861 0.23149028,-0.35613889 0.51640141,-0.62324305 0.83692641,-0.62324305 0.2314902,0 0.3383319,0.0890347 0.5876291,0.37394583 0.1602625,0.21368333 0.338332,0.37394583 0.6232431,0.37394583 0.9971889,0 1.5670111,-1.26429306 1.5670111,-1.53139716 0,-0.053421 -0.035614,-0.1068417 -0.1246486,-0.1068417 -0.089035,0 -0.1068417,0.071228 -0.1246486,0.1424555 -0.2314903,0.64105003 -0.8725403,0.83692642 -1.1930653,0.83692642 -0.2136833,0 -0.3917528,-0.0712278 -0.5876292,-0.14245555 -0.3383319,-0.12464861 -0.4985944,-0.1602625 -0.7122777,-0.1602625 -0.017807,0 -0.1780695,0 -0.2671042,0.0356139 z m 0,0"
       style="fill:#000000;fill-opacity:1;fill-rule:nonzero;stroke:none"
       aria-label="z"
       transform="matrix(0.87746667,0,0,0.87746667,107.4893,43.139948)" />
    <path
       id="path12"
       d="M 0,-5.10226 -81.63815,127.55977"
       style="fill:none;stroke:#000000;stroke-width:0.79701;stroke-linecap:butt;stroke-linejoin:miter;stroke-miterlimit:10;stroke-dasharray:none;stroke-opacity:1"
       transform="matrix(0.87746667,0,0,-0.87746667,109.71456,113.38554)" />
    <path
       id="path13"
       d="M 0,-5.10226 81.63815,127.55977"
       style="fill:none;stroke:#000000;stroke-width:0.79701;stroke-linecap:butt;stroke-linejoin:miter;stroke-miterlimit:10;stroke-dasharray:none;stroke-opacity:1"
       transform="matrix(0.87746667,0,0,-0.87746667,109.71456,113.38554)" />
    <path
       id="path14"
       d="M 0,-5.10226 V -127.55977"
       style="fill:none;stroke:#000000;stroke-width:0.79701;stroke-linecap:butt;stroke-linejoin:miter;stroke-miterlimit:10;stroke-dasharray:none;stroke-opacity:1"
       transform="matrix(0.87746667,0,0,-0.87746667,109.71456,113.38554)" />
    <g
       id="g14"
       aria-label="Vor(X,x)"
       transform="matrix(0.87746667,0,0,0.87746667,24.184374,61.845782)">
      <path
         id="path15"
         d="M 6.1781206,-5.8207351 C 6.3205761,-6.1946809 6.5876803,-6.479592 7.2643442,-6.479592 v -0.320525 c -0.3027181,0.017807 -0.7122778,0.035614 -0.961575,0.035614 -0.302718,0 -0.8725403,-0.017807 -1.1396444,-0.035614 v 0.320525 c 0.5164014,0 0.7300847,0.2671041 0.7300847,0.4807875 0,0.089035 -0.035614,0.1424555 -0.053421,0.2136833 l -1.8163084,4.790068 -1.905343,-5.0215583 c -0.053421,-0.1424555 -0.053421,-0.1602625 -0.053421,-0.1780694 0,-0.2849111 0.5698222,-0.2849111 0.8191194,-0.2849111 v -0.320525 c -0.3739458,0.035614 -1.0506097,0.035614 -1.4245555,0.035614 -0.48078752,0 -0.90815418,-0.017807 -1.26429307,-0.035614 v 0.320525 c 0.64104999,0 0.83692637,0 0.96157497,0.3739458 l 2.3149028,6.10778187 c 0.071228,0.19587639 0.1246486,0.21368334 0.2492972,0.21368334 0.1780694,0 0.1958764,-0.0356139 0.2314903,-0.17806945 z m 5.1506584,3.6860375 c 0,-1.2642931 -0.997189,-2.3149028 -2.1902539,-2.3149028 -1.2464861,0 -2.2080611,1.0684167 -2.2080611,2.3149028 0,1.28209995 1.0328028,2.24367494 2.1902541,2.24367494 1.2108719,0 2.2080609,-0.97938193 2.2080609,-2.24367494 z m -2.1902539,1.99437772 c -0.4273667,0 -0.8725403,-0.21368333 -1.1396445,-0.65885694 C 7.7495834,-1.2443504 7.7495834,-1.8497865 7.7495834,-2.2059254 c 0,-0.3917528 0,-0.9259611 0.2314903,-1.3711347 0.2849111,-0.4451736 0.7478917,-0.658857 1.1396444,-0.658857 0.4451736,0 0.8725403,0.2136834 1.1218379,0.64105 0.267104,0.4273667 0.267104,1.0149959 0.267104,1.3889417 0,0.3561389 0,0.8903472 -0.213684,1.33552081 -0.23149,0.4451736 -0.6588565,0.73008471 -1.1574509,0.73008471 z M 13.283091,-3.309956 v -1.0862236 l -1.371134,0.1068417 v 0.3027181 c 0.69447,0 0.765698,0.071228 0.765698,0.5698222 v 2.67104162 c 0,0.4451736 -0.106841,0.4451736 -0.765698,0.4451736 v 0.30271805 c 0.373945,-0.01780694 0.854733,-0.03561388 1.121837,-0.03561388 0.40956,0 0.87254,0 1.264293,0.03561388 v -0.30271805 h -0.195876 c -0.747892,0 -0.765699,-0.10684166 -0.765699,-0.48078749 V -2.3127671 c 0,-0.9793819 0.427367,-1.8697291 1.175258,-1.8697291 0.07123,0 0.08903,0 0.106842,0.017807 -0.01781,0 -0.23149,0.1246486 -0.23149,0.3917528 0,0.2671042 0.213683,0.4273667 0.427367,0.4273667 0.195876,0 0.427366,-0.1246487 0.427366,-0.4451736 0,-0.320525 -0.302718,-0.6054362 -0.730085,-0.6054362 -0.730084,0 -1.086223,0.658857 -1.228679,1.0862235 z m 5.53796,5.6982222 c 0,-0.035614 0,-0.053421 -0.160262,-0.2136833 -1.246487,-1.26429307 -1.567012,-3.13402221 -1.567012,-4.6654194 0,-1.7272736 0.373946,-3.4545472 1.602625,-4.7010333 0.124649,-0.1246486 0.124649,-0.1424555 0.124649,-0.1780694 0,-0.071228 -0.03561,-0.089035 -0.106842,-0.089035 -0.08903,0 -0.979382,0.6766639 -1.567011,1.940957 -0.516401,1.0862236 -0.64105,2.1902541 -0.64105,3.0271805 0,0.7835055 0.106842,1.97657079 0.658857,3.11621522 0.605436,1.21087218 1.46017,1.86972918 1.549204,1.86972918 0.07123,0 0.106842,-0.035614 0.106842,-0.1068415 z m 0,0"
         style="fill:#000000;fill-opacity:1;fill-rule:nonzero;stroke:none" />
      <path
         id="path16"
         d="m 24.22991,-4.0934615 -0.836926,-1.9765708 c -0.03561,-0.071228 -0.05342,-0.1246486 -0.05342,-0.1246486 0,-0.071228 0.17807,-0.2492972 0.587629,-0.2849111 0.106842,-0.017807 0.213684,-0.035614 0.213684,-0.1958764 0,-0.1246486 -0.124649,-0.1246486 -0.160263,-0.1246486 -0.40956,0 -0.836926,0.035614 -1.246486,0.035614 -0.249297,0 -0.87254,-0.035614 -1.121837,-0.035614 -0.05342,0 -0.17807,0 -0.17807,0.1958764 0,0.1246486 0.106842,0.1246486 0.23149,0.1246486 0.58763,0 0.658857,0.089035 0.747892,0.302718 l 1.175258,2.7778833 -2.101219,2.2614819 -0.124649,0.1068417 c -0.498594,0.53420834 -0.961575,0.69447083 -1.477976,0.73008472 -0.124649,0 -0.213683,0 -0.213683,0.19587639 0,0 0,0.10684166 0.124648,0.10684166 0.302718,0 0.64105,-0.03561388 0.943768,-0.03561388 0.373946,0 0.747892,0.03561388 1.121838,0.03561388 0.05342,0 0.178069,0 0.178069,-0.19587638 0,-0.10684167 -0.106841,-0.10684167 -0.124648,-0.10684167 -0.08903,-0.0178069 -0.391753,-0.0356139 -0.391753,-0.32052499 0,-0.1602625 0.142455,-0.320525 0.267104,-0.44517363 l 1.014996,-1.0684166 0.890347,-0.979382 0.997189,2.38613056 c 0.05342,0.10684167 0.05342,0.10684167 0.05342,0.12464861 0,0.0890347 -0.17807,0.24929722 -0.569823,0.30271805 -0.106841,0 -0.195876,0.0178069 -0.195876,0.17806945 0,0.1246486 0.106842,0.1246486 0.142456,0.1246486 0.284911,0 0.979382,-0.03561388 1.246486,-0.03561388 0.249297,0 0.854733,0.03561388 1.10403,0.03561388 0.07123,0 0.195877,0 0.195877,-0.19587638 0,-0.10684167 -0.106842,-0.10684167 -0.17807,-0.10684167 -0.658857,-0.0178069 -0.694471,-0.0534208 -0.854733,-0.4451736 -0.391753,-0.92596112 -1.05061,-2.47516522 -1.2821,-3.08060132 0.676664,-0.6944709 1.727274,-1.8697292 2.029992,-2.1546403 0.302718,-0.2314903 0.676663,-0.4807875 1.264293,-0.4985944 0.142455,-0.017807 0.23149,-0.017807 0.23149,-0.2136834 0,0 0,-0.1068416 -0.142456,-0.1068416 -0.284911,0 -0.623243,0.035614 -0.925961,0.035614 -0.373946,0 -0.747891,-0.035614 -1.10403,-0.035614 -0.07123,0 -0.195877,0 -0.195877,0.1958764 0,0.071228 0.05342,0.1068416 0.124649,0.1246486 0.08903,0 0.391753,0.017807 0.391753,0.302718 0,0.1424556 -0.106842,0.2671042 -0.17807,0.3561389 z m 5.66706,4.07779023 c 0,-0.64104999 -0.23149,-1.03280273 -0.623243,-1.03280273 -0.338332,0 -0.534208,0.24929718 -0.534208,0.51640135 0,0.26710416 0.195876,0.53420832 0.534208,0.53420832 0.106842,0 0.249297,-0.03561388 0.338332,-0.1246486 0.03561,-0.017807 0.05342,-0.0356139 0.05342,-0.0356139 0.01781,0 0.01781,0.0178069 0.01781,0.14245555 0,0.74789166 -0.338332,1.33552078 -0.676664,1.67385278 -0.106842,0.1068417 -0.106842,0.1246486 -0.106842,0.1602625 0,0.071228 0.05342,0.1068417 0.106842,0.1068417 0.106842,0 0.890347,-0.7656987 0.890347,-1.94095698 z m 5.74274,-2.99156663 c 0.05342,-0.2492972 0.284911,-1.1752583 0.979382,-1.1752583 0.05342,0 0.284911,0 0.498594,0.1246486 -0.284911,0.053421 -0.480787,0.302718 -0.480787,0.5520153 0,0.1602625 0.106841,0.3383319 0.373946,0.3383319 0.23149,0 0.552015,-0.1780694 0.552015,-0.5698222 0,-0.5164014 -0.587629,-0.658857 -0.925961,-0.658857 -0.587629,0 -0.925961,0.5342084 -1.05061,0.7478917 -0.249297,-0.64105 -0.783506,-0.7478917 -1.068417,-0.7478917 -1.050609,0 -1.602625,1.2821 -1.602625,1.5313973 0,0.1068416 0.08904,0.1068416 0.106842,0.1068416 0.08903,0 0.106842,-0.035614 0.142456,-0.1246486 0.338332,-1.0506097 0.979382,-1.2999069 1.317713,-1.2999069 0.195877,0 0.552016,0.089035 0.552016,0.6766639 0,0.302718 -0.17807,0.9615749 -0.552016,2.3683235 -0.160262,0.60543615 -0.498594,1.03280281 -0.943768,1.03280281 -0.05342,0 -0.284911,0 -0.498594,-0.12464861 0.249297,-0.0534208 0.480787,-0.26710416 0.480787,-0.55201527 0,-0.26710413 -0.23149,-0.33833193 -0.373945,-0.33833193 -0.302718,0 -0.552016,0.24929721 -0.552016,0.5698222 0,0.46298055 0.498595,0.65885694 0.943768,0.65885694 0.658857,0 1.014996,-0.69447083 1.032803,-0.74789166 0.124649,0.35613889 0.480788,0.74789166 1.086224,0.74789166 1.014996,0 1.584818,-1.28209994 1.584818,-1.53139724 0,-0.1068416 -0.08903,-0.1068416 -0.106842,-0.1068416 -0.08903,0 -0.124648,0.053421 -0.142455,0.1246486 -0.320525,1.05060969 -0.997189,1.29990691 -1.317714,1.29990691 -0.391753,0 -0.552016,-0.320525 -0.552016,-0.65885694 0,-0.21368333 0.07123,-0.44517357 0.17807,-0.87254027 z m 0,0"
         style="fill:#000000;fill-opacity:1;fill-rule:nonzero;stroke:none" />
      <path
         id="path17"
         d="m 40.883855,-2.4908365 c 0,-0.7656986 -0.124649,-1.9765708 -0.658857,-3.0984083 -0.605436,-1.2286792 -1.460169,-1.8697292 -1.567011,-1.8697292 -0.05342,0 -0.08903,0.035614 -0.08903,0.089035 0,0.035614 0,0.053421 0.17807,0.2314902 0.979382,0.9971889 1.549204,2.5642 1.549204,4.6476125 0,1.70946663 -0.373946,3.45454716 -1.602625,4.7188402 -0.124649,0.1068417 -0.124649,0.1246486 -0.124649,0.1602625 0,0.071228 0.03561,0.1068417 0.08903,0.1068417 0.106842,0 0.997189,-0.6766639 1.584818,-1.94095695 0.516401,-1.10403055 0.64105,-2.20806105 0.64105,-3.04498765 z m 0,0"
         style="fill:#000000;fill-opacity:1;fill-rule:nonzero;stroke:none" />
    </g>
    <g
       id="g17"
       aria-label="Vor(X,y)"
       transform="matrix(0.87746667,0,0,0.87746667,158.6965,61.845782)">
      <path
         id="path18"
         d="M 6.1776518,-5.8207351 C 6.3201073,-6.1946809 6.5872115,-6.479592 7.2638754,-6.479592 v -0.320525 c -0.3027181,0.017807 -0.7122778,0.035614 -0.961575,0.035614 -0.3027181,0 -0.8725403,-0.017807 -1.1396445,-0.035614 v 0.320525 c 0.5164014,0 0.7300848,0.2671041 0.7300848,0.4807875 0,0.089035 -0.035614,0.1424555 -0.053421,0.2136833 l -1.8163083,4.790068 -1.905343,-5.0215583 c -0.053421,-0.1424555 -0.053421,-0.1602625 -0.053421,-0.1780694 0,-0.2849111 0.5698223,-0.2849111 0.8191195,-0.2849111 v -0.320525 c -0.3739458,0.035614 -1.0506097,0.035614 -1.4245556,0.035614 -0.48078745,0 -0.90815412,-0.017807 -1.264293,-0.035614 v 0.320525 c 0.64104999,0 0.8369264,0 0.961575,0.3739458 L 3.470996,0.00213567 c 0.071228,0.19587639 0.1246486,0.21368334 0.2492973,0.21368334 0.1780694,0 0.1958763,-0.0356139 0.2314902,-0.17806945 z m 5.1506582,3.6860375 c 0,-1.2642931 -0.997188,-2.3149028 -2.1902538,-2.3149028 -1.2464861,0 -2.208061,1.0684167 -2.208061,2.3149028 0,1.28209995 1.0328027,2.24367494 2.1902541,2.24367494 1.2108727,0 2.2080607,-0.97938193 2.2080607,-2.24367494 z m -2.1902538,1.99437772 c -0.4273666,0 -0.8725402,-0.21368333 -1.1396444,-0.65885694 C 7.7491146,-1.2443504 7.7491146,-1.8497865 7.7491146,-2.2059254 c 0,-0.3917528 0,-0.9259611 0.2314903,-1.3711347 0.2849111,-0.4451736 0.7478916,-0.658857 1.1396444,-0.658857 0.4451736,0 0.8725403,0.2136834 1.1218377,0.64105 0.267104,0.4273667 0.267104,1.0149959 0.267104,1.3889417 0,0.3561389 0,0.8903472 -0.213683,1.33552081 -0.231491,0.4451736 -0.6588573,0.73008471 -1.1574518,0.73008471 z M 13.282623,-3.309956 v -1.0862236 l -1.371135,0.1068417 v 0.3027181 c 0.694471,0 0.765698,0.071228 0.765698,0.5698222 v 2.67104162 c 0,0.4451736 -0.106841,0.4451736 -0.765698,0.4451736 v 0.30271805 c 0.373946,-0.01780694 0.854733,-0.03561388 1.121837,-0.03561388 0.40956,0 0.872541,0 1.264293,0.03561388 v -0.30271805 h -0.195876 c -0.747892,0 -0.765699,-0.10684166 -0.765699,-0.48078749 V -2.3127671 c 0,-0.9793819 0.427367,-1.8697291 1.175259,-1.8697291 0.07123,0 0.08903,0 0.106841,0.017807 -0.01781,0 -0.23149,0.1246486 -0.23149,0.3917528 0,0.2671042 0.213683,0.4273667 0.427367,0.4273667 0.195876,0 0.427366,-0.1246487 0.427366,-0.4451736 0,-0.320525 -0.302718,-0.6054362 -0.730084,-0.6054362 -0.730085,0 -1.086224,0.658857 -1.228679,1.0862235 z m 5.542411,5.6982222 c 0,-0.035614 0,-0.053421 -0.160263,-0.2136833 -1.246486,-1.26429307 -1.567011,-3.13402221 -1.567011,-4.6654194 0,-1.7272736 0.373946,-3.4545472 1.602625,-4.7010333 0.124649,-0.1246486 0.124649,-0.1424555 0.124649,-0.1780694 0,-0.071228 -0.03561,-0.089035 -0.106842,-0.089035 -0.08903,0 -0.979382,0.6766639 -1.567011,1.940957 -0.516401,1.0862236 -0.64105,2.1902541 -0.64105,3.0271805 0,0.7835055 0.106842,1.97657079 0.658857,3.11621522 0.605436,1.21087218 1.46017,1.86972918 1.549204,1.86972918 0.07123,0 0.106842,-0.035614 0.106842,-0.1068415 z m 0,0"
         style="fill:#000000;fill-opacity:1;fill-rule:nonzero;stroke:none" />
      <path
         id="path19"
         d="m 24.229441,-4.0934615 -0.836926,-1.9765708 c -0.03561,-0.071228 -0.05342,-0.1246486 -0.05342,-0.1246486 0,-0.071228 0.17807,-0.2492972 0.587629,-0.2849111 0.106842,-0.017807 0.213684,-0.035614 0.213684,-0.1958764 0,-0.1246486 -0.124649,-0.1246486 -0.160263,-0.1246486 -0.409559,0 -0.836926,0.035614 -1.246486,0.035614 -0.249297,0 -0.87254,-0.035614 -1.121837,-0.035614 -0.05342,0 -0.17807,0 -0.17807,0.1958764 0,0.1246486 0.106842,0.1246486 0.231491,0.1246486 0.587629,0 0.658856,0.089035 0.747891,0.302718 l 1.175258,2.7778833 -2.101219,2.2614819 -0.124649,0.1068417 c -0.498594,0.53420834 -0.961575,0.69447083 -1.477976,0.73008472 -0.124649,0 -0.213683,0 -0.213683,0.19587639 0,0 0,0.10684166 0.124648,0.10684166 0.302718,0 0.64105,-0.03561388 0.943768,-0.03561388 0.373946,0 0.747892,0.03561388 1.121838,0.03561388 0.05342,0 0.178069,0 0.178069,-0.19587638 0,-0.10684167 -0.106841,-0.10684167 -0.124648,-0.10684167 -0.08904,-0.0178069 -0.391753,-0.0356139 -0.391753,-0.32052499 0,-0.1602625 0.142456,-0.320525 0.267104,-0.44517363 l 1.014996,-1.0684166 0.890347,-0.979382 0.997189,2.38613056 c 0.05342,0.10684167 0.05342,0.10684167 0.05342,0.12464861 0,0.0890347 -0.17807,0.24929722 -0.569822,0.30271805 -0.106842,0 -0.195877,0.0178069 -0.195877,0.17806945 0,0.1246486 0.106842,0.1246486 0.142456,0.1246486 0.284911,0 0.979382,-0.03561388 1.246486,-0.03561388 0.249297,0 0.854733,0.03561388 1.10403,0.03561388 0.07123,0 0.195877,0 0.195877,-0.19587638 0,-0.10684167 -0.106842,-0.10684167 -0.17807,-0.10684167 -0.658857,-0.0178069 -0.69447,-0.0534208 -0.854733,-0.4451736 -0.391753,-0.92596112 -1.05061,-2.47516522 -1.2821,-3.08060132 0.676664,-0.6944709 1.727274,-1.8697292 2.029992,-2.1546403 0.302718,-0.2314903 0.676664,-0.4807875 1.264293,-0.4985944 0.142455,-0.017807 0.23149,-0.017807 0.23149,-0.2136834 0,0 0,-0.1068416 -0.142456,-0.1068416 -0.284911,0 -0.623243,0.035614 -0.925961,0.035614 -0.373945,0 -0.747891,-0.035614 -1.10403,-0.035614 -0.07123,0 -0.195877,0 -0.195877,0.1958764 0,0.071228 0.05342,0.1068416 0.124649,0.1246486 0.08903,0 0.391753,0.017807 0.391753,0.302718 0,0.1424556 -0.106842,0.2671042 -0.17807,0.3561389 z m 5.658157,4.07779023 c 0,-0.64104999 -0.23149,-1.03280273 -0.623243,-1.03280273 -0.338332,0 -0.534208,0.24929718 -0.534208,0.51640135 0,0.26710416 0.195876,0.53420832 0.534208,0.53420832 0.106842,0 0.249297,-0.03561388 0.338332,-0.1246486 0.03561,-0.017807 0.05342,-0.0356139 0.05342,-0.0356139 0.01781,0 0.01781,0.0178069 0.01781,0.14245555 0,0.74789166 -0.338332,1.33552078 -0.676664,1.67385278 -0.106842,0.1068417 -0.106842,0.1246486 -0.106842,0.1602625 0,0.071228 0.05342,0.1068417 0.106842,0.1068417 0.106841,0 0.890347,-0.7656987 0.890347,-1.94095698 z m 7.265233,-3.77507213 c 0.03561,-0.1424556 0.03561,-0.1602625 0.03561,-0.2314903 0,-0.1780695 -0.142455,-0.2671042 -0.284911,-0.2671042 -0.106842,0 -0.267104,0.053421 -0.356139,0.2136833 -0.01781,0.053421 -0.08904,0.3561389 -0.142455,0.5342084 -0.07123,0.2671041 -0.142456,0.5342083 -0.195877,0.8013125 l -0.445173,1.78069439 c -0.03561,0.16026249 -0.462981,0.85473332 -1.121838,0.85473332 -0.516401,0 -0.623243,-0.44517361 -0.623243,-0.80131249 0,-0.46298052 0.17807,-1.08622362 0.516401,-1.95876382 0.160263,-0.4095598 0.195877,-0.5164014 0.195877,-0.7122778 0,-0.4451736 -0.320525,-0.8191195 -0.81912,-0.8191195 -0.943768,0 -1.317713,1.4423625 -1.317713,1.5313973 0,0.1068416 0.106841,0.1068416 0.124648,0.1068416 0.106842,0 0.106842,-0.035614 0.160263,-0.1780694 0.267104,-0.9437681 0.658857,-1.2464861 0.997189,-1.2464861 0.08903,0 0.249297,0 0.249297,0.320525 0,0.2492972 -0.08903,0.5164014 -0.160263,0.6944708 -0.409559,1.0506097 -0.587629,1.6204319 -0.587629,2.1012194 0,0.87254029 0.64105,1.17525834 1.228679,1.17525834 0.373946,0 0.712278,-0.1602625 0.997189,-0.44517361 -0.124649,0.51640139 -0.249297,0.99718888 -0.64105,1.53139717 -0.267104,0.338332 -0.64105,0.6232431 -1.10403,0.6232431 -0.142456,0 -0.58763,-0.017807 -0.747892,-0.4095597 0.160262,0 0.284911,0 0.427367,-0.1246486 0.08903,-0.089035 0.195876,-0.2136834 0.195876,-0.40955976 0,-0.30271805 -0.267104,-0.33833194 -0.373946,-0.33833194 -0.23149,0 -0.552015,0.1602625 -0.552015,0.64105 0,0.4985944 0.445173,0.8725403 1.05061,0.8725403 1.032802,0 2.047798,-0.9081542 2.332709,-2.02999168 z m 0,0"
         style="fill:#000000;fill-opacity:1;fill-rule:nonzero;stroke:none" />
      <path
         id="path20"
         d="m 40.433761,-2.4908365 c 0,-0.7656986 -0.124649,-1.9765708 -0.658857,-3.0984083 -0.605436,-1.2286792 -1.46017,-1.8697292 -1.567011,-1.8697292 -0.05342,0 -0.08903,0.035614 -0.08903,0.089035 0,0.035614 0,0.053421 0.178069,0.2314902 0.979382,0.9971889 1.549205,2.5642 1.549205,4.6476125 0,1.70946663 -0.373946,3.45454716 -1.602625,4.7188402 -0.124649,0.1068417 -0.124649,0.1246486 -0.124649,0.1602625 0,0.071228 0.03561,0.1068417 0.08903,0.1068417 0.106841,0 0.997189,-0.6766639 1.584818,-1.94095695 0.516401,-1.10403055 0.64105,-2.20806105 0.64105,-3.04498765 z m 0,0"
         style="fill:#000000;fill-opacity:1;fill-rule:nonzero;stroke:none" />
    </g>
    <g
       id="g20"
       aria-label="Vor(X,z)"
       transform="matrix(0.87746667,0,0,0.87746667,73.70596,28.266888)">
      <path
         id="path21"
         d="m 6.1802303,-5.82431 c 0.1424556,-0.3739458 0.4095598,-0.6588569 1.0862236,-0.6588569 v -0.320525 c -0.302718,0.017807 -0.7122777,0.035614 -0.9615749,0.035614 -0.3027181,0 -0.8725403,-0.017807 -1.1396445,-0.035614 v 0.320525 c 0.5164014,0 0.7300847,0.2671041 0.7300847,0.4807875 0,0.089035 -0.035614,0.1424555 -0.053421,0.2136833 l -1.8163083,4.790068 -1.905343,-5.0215583 c -0.053421,-0.1424555 -0.053421,-0.1602625 -0.053421,-0.1780694 0,-0.2849111 0.5698222,-0.2849111 0.8191195,-0.2849111 v -0.320525 c -0.3739459,0.035614 -1.0506098,0.035614 -1.4245556,0.035614 -0.48078748,0 -0.90815414,-0.017807 -1.26429302,-0.035614 v 0.320525 c 0.64104999,0 0.83692642,0 0.96157502,0.3739458 l 2.3149027,6.10778188 c 0.071228,0.19587639 0.1246486,0.21368333 0.2492972,0.21368333 0.1780695,0 0.1958764,-0.0356139 0.2314903,-0.17806944 z m 5.1462067,3.6860375 c 0,-1.2642931 -0.997189,-2.3149028 -2.1902539,-2.3149028 -1.2464861,0 -2.2080611,1.0684167 -2.2080611,2.3149028 0,1.28209996 1.0328028,2.24367495 2.1902541,2.24367495 1.2108719,0 2.2080609,-0.97938194 2.2080609,-2.24367495 z m -2.1902539,1.99437773 c -0.4273667,0 -0.8725403,-0.21368333 -1.1396444,-0.65885694 C 7.7472414,-1.2479253 7.7472414,-1.8533614 7.7472414,-2.2095003 c 0,-0.3917528 0,-0.9259611 0.2314903,-1.3711347 0.2849111,-0.4451736 0.7478917,-0.6588569 1.1396444,-0.6588569 0.4451736,0 0.8725403,0.2136833 1.1218379,0.6410499 0.267104,0.4273667 0.267104,1.0149959 0.267104,1.3889417 0,0.3561389 0,0.8903472 -0.213684,1.33552081 -0.23149,0.44517361 -0.6588565,0.73008472 -1.1574509,0.73008472 z M 13.280749,-3.3135308 v -1.0862236 l -1.371134,0.1068416 v 0.3027181 c 0.69447,0 0.765698,0.071228 0.765698,0.5698222 v 2.67104162 c 0,0.44517361 -0.106841,0.44517361 -0.765698,0.44517361 v 0.30271805 c 0.373945,-0.01780694 0.854733,-0.03561389 1.121837,-0.03561389 0.40956,0 0.87254,0 1.264293,0.03561389 v -0.30271805 h -0.195876 c -0.747892,0 -0.765699,-0.10684167 -0.765699,-0.4807875 V -2.316342 c 0,-0.9793819 0.427367,-1.8697291 1.175259,-1.8697291 0.07123,0 0.08903,0 0.106841,0.017807 -0.01781,0 -0.23149,0.1246486 -0.23149,0.3917528 0,0.2671042 0.213683,0.4273667 0.427367,0.4273667 0.195876,0 0.427366,-0.1246486 0.427366,-0.4451736 0,-0.320525 -0.302718,-0.6054361 -0.730084,-0.6054361 -0.730085,0 -1.086224,0.6588569 -1.22868,1.0862235 z m 5.542412,5.6982221 c 0,-0.035614 0,-0.053421 -0.160263,-0.2136833 -1.246486,-1.26429306 -1.567011,-3.13402221 -1.567011,-4.6654194 0,-1.7272736 0.373946,-3.4545472 1.602625,-4.7010333 0.124649,-0.1246486 0.124649,-0.1424555 0.124649,-0.1780694 0,-0.071228 -0.03561,-0.089035 -0.106842,-0.089035 -0.08903,0 -0.979382,0.6766639 -1.567011,1.940957 -0.516401,1.0862236 -0.64105,2.1902541 -0.64105,3.0271805 0,0.7835055 0.106842,1.9765708 0.658857,3.11621523 0.605436,1.21087217 1.460169,1.86972917 1.549204,1.86972917 0.07123,0 0.106842,-0.035614 0.106842,-0.1068415 z m 0,0"
         style="fill:#000000;fill-opacity:1;fill-rule:nonzero;stroke:none" />
      <path
         id="path22"
         d="m 24.227568,-4.0970364 -0.836926,-1.9765708 c -0.03561,-0.071228 -0.05342,-0.1246486 -0.05342,-0.1246486 0,-0.071228 0.17807,-0.2492972 0.587629,-0.2849111 0.106842,-0.017807 0.213684,-0.035614 0.213684,-0.1958764 0,-0.1246486 -0.124649,-0.1246486 -0.160263,-0.1246486 -0.40956,0 -0.836926,0.035614 -1.246486,0.035614 -0.249297,0 -0.87254,-0.035614 -1.121837,-0.035614 -0.05342,0 -0.17807,0 -0.17807,0.1958764 0,0.1246486 0.106842,0.1246486 0.23149,0.1246486 0.58763,0 0.658857,0.089035 0.747892,0.302718 l 1.175258,2.7778833 -2.101219,2.261482 -0.124649,0.1068416 c -0.498594,0.53420834 -0.961575,0.69447084 -1.477976,0.73008473 -0.124649,0 -0.213683,0 -0.213683,0.19587639 0,0 0,0.10684166 0.124648,0.10684166 0.302718,0 0.64105,-0.03561389 0.943768,-0.03561389 0.373946,0 0.747892,0.03561389 1.121838,0.03561389 0.05342,0 0.178069,0 0.178069,-0.19587639 0,-0.10684166 -0.106841,-0.10684166 -0.124648,-0.10684166 -0.08904,-0.017807 -0.391753,-0.0356139 -0.391753,-0.320525 0,-0.1602625 0.142455,-0.32052499 0.267104,-0.44517363 l 1.014996,-1.0684166 0.890347,-0.979382 0.997189,2.38613057 c 0.05342,0.10684166 0.05342,0.10684166 0.05342,0.12464861 0,0.0890347 -0.17807,0.24929722 -0.569823,0.30271805 -0.106841,0 -0.195876,0.0178069 -0.195876,0.17806944 0,0.12464861 0.106842,0.12464861 0.142456,0.12464861 0.284911,0 0.979382,-0.03561389 1.246486,-0.03561389 0.249297,0 0.854733,0.03561389 1.10403,0.03561389 0.07123,0 0.195877,0 0.195877,-0.19587639 0,-0.10684166 -0.106842,-0.10684166 -0.17807,-0.10684166 -0.658857,-0.017807 -0.694471,-0.0534208 -0.854733,-0.44517361 -0.391753,-0.92596112 -1.05061,-2.47516522 -1.2821,-3.08060132 0.676664,-0.6944709 1.727274,-1.8697292 2.029992,-2.1546403 0.302718,-0.2314903 0.676663,-0.4807875 1.264293,-0.4985944 0.142455,-0.017807 0.23149,-0.017807 0.23149,-0.2136834 0,0 0,-0.1068416 -0.142456,-0.1068416 -0.284911,0 -0.623243,0.035614 -0.925961,0.035614 -0.373946,0 -0.747891,-0.035614 -1.10403,-0.035614 -0.07123,0 -0.195877,0 -0.195877,0.1958764 0,0.071228 0.05342,0.1068416 0.124649,0.1246486 0.08903,0 0.391753,0.017807 0.391753,0.302718 0,0.1424556 -0.106842,0.2671042 -0.17807,0.3561389 z m 5.671512,4.07779024 c 0,-0.64105 -0.23149,-1.03280274 -0.623243,-1.03280274 -0.338332,0 -0.534208,0.24929719 -0.534208,0.51640135 0,0.26710417 0.195876,0.53420833 0.534208,0.53420833 0.106842,0 0.249297,-0.03561389 0.338332,-0.12464861 0.03561,-0.0178069 0.05342,-0.0356139 0.05342,-0.0356139 0.01781,0 0.01781,0.0178069 0.01781,0.14245556 0,0.74789165 -0.338332,1.33552087 -0.676664,1.67385277 -0.106842,0.1068417 -0.106842,0.1246486 -0.106842,0.1602625 0,0.071228 0.05342,0.1068417 0.106842,0.1068417 0.106842,0 0.890347,-0.7656986 0.890347,-1.94095697 z m 3.726103,-0.80131249 c 0.552015,-0.58762915 0.836927,-0.83692635 1.193065,-1.13964445 0,-0.017807 0.623243,-0.5342083 0.979382,-0.8903472 0.943768,-0.9259611 1.157452,-1.4067486 1.157452,-1.4423625 0,-0.1068416 -0.08903,-0.1068416 -0.106842,-0.1068416 -0.07123,0 -0.106842,0.017807 -0.142456,0.1068416 -0.302718,0.4807875 -0.516401,0.64105 -0.747891,0.64105 -0.249297,0 -0.373946,-0.1602625 -0.516402,-0.320525 -0.195876,-0.2314903 -0.356138,-0.4273666 -0.676663,-0.4273666 -0.747892,0 -1.210873,0.9259611 -1.210873,1.1396444 0,0.035614 0.03561,0.1068417 0.124649,0.1068417 0.08904,0 0.106842,-0.053421 0.124649,-0.1068417 0.178069,-0.4629806 0.765698,-0.4807875 0.836926,-0.4807875 0.213683,0 0.40956,0.071228 0.64105,0.1602625 0.391753,0.1424555 0.498594,0.1424555 0.765699,0.1424555 -0.356139,0.4273667 -1.193066,1.1396445 -1.388942,1.299907 l -0.890347,0.8369264 c -0.676664,0.67666383 -1.032803,1.24648605 -1.032803,1.31771383 0,0.08903472 0.106842,0.08903472 0.124649,0.08903472 0.07123,0 0.08903,-0.01780695 0.160262,-0.12464861 0.23149,-0.35613889 0.516401,-0.62324305 0.836926,-0.62324305 0.231491,0 0.338332,0.0890347 0.58763,0.37394583 0.160262,0.21368333 0.338332,0.37394583 0.623243,0.37394583 0.997189,0 1.567011,-1.26429305 1.567011,-1.53139725 0,-0.053421 -0.03561,-0.1068416 -0.124649,-0.1068416 -0.08904,0 -0.106842,0.071228 -0.124649,0.1424555 -0.23149,0.64105002 -0.87254,0.83692641 -1.193065,0.83692641 -0.213683,0 -0.391753,-0.0712278 -0.587629,-0.14245555 -0.338332,-0.12464861 -0.498594,-0.1602625 -0.712278,-0.1602625 -0.01781,0 -0.178069,0 -0.267104,0.0356139 z m 0,0"
         style="fill:#000000;fill-opacity:1;fill-rule:nonzero;stroke:none" />
      <path
         id="path23"
         d="m 40.262722,-2.4944114 c 0,-0.7656986 -0.124649,-1.9765708 -0.658857,-3.0984083 -0.605436,-1.2286792 -1.46017,-1.8697292 -1.567011,-1.8697292 -0.05342,0 -0.08903,0.035614 -0.08903,0.089035 0,0.035614 0,0.053421 0.178069,0.2314902 0.979382,0.9971889 1.549204,2.5642 1.549204,4.6476125 0,1.70946663 -0.373945,3.45454717 -1.602625,4.7188402 -0.124648,0.1068417 -0.124648,0.1246486 -0.124648,0.1602625 0,0.071228 0.03561,0.1068417 0.08903,0.1068417 0.106841,0 0.997188,-0.6766639 1.584818,-1.94095695 0.516401,-1.10403054 0.64105,-2.20806105 0.64105,-3.04498765 z m 0,0"
         style="fill:#000000;fill-opacity:1;fill-rule:nonzero;stroke:none" />
    </g>
    <path
       id="path24"
       d="M 58.67732,33.16547 -61.22827,0"
       style="fill:none;stroke:#000000;stroke-width:1.19553;stroke-linecap:butt;stroke-linejoin:miter;stroke-miterlimit:10;stroke-dasharray:none;stroke-opacity:1"
       transform="matrix(0.87746667,0,0,-0.87746667,109.71456,113.38554)" />
    <path
       id="path25"
       d="m 60.91893,33.16547 c 0,1.23802 -1.00359,2.2416 -2.24161,2.2416 -1.23802,0 -2.24161,-1.00358 -2.24161,-2.2416 0,-1.23803 1.00359,-2.24161 2.24161,-2.24161 1.23802,0 2.24161,1.00358 2.24161,2.24161 z"
       style="fill:#000000;fill-opacity:1;fill-rule:nonzero;stroke:none"
       transform="matrix(0.87746667,0,0,-0.87746667,109.71456,113.38554)" />
    <path
       id="path26"
       d="m -58.98666,0 c 0,1.238 -1.00359,2.24161 -2.24161,2.24161 -1.23803,0 -2.24161,-1.00361 -2.24161,-2.24161 0,-1.238 1.00358,-2.24161 2.24161,-2.24161 1.23802,0 2.24161,1.00361 2.24161,2.24161 z"
       style="fill:#000000;fill-opacity:1;fill-rule:nonzero;stroke:none"
       transform="matrix(0.87746667,0,0,-0.87746667,109.71456,113.38554)" />
    <path
       id="path27"
       d="m 175.16629,-51.02368 c 0,54.47293 -44.15779,98.63072 -98.63074,98.63072 -54.47295,0 -98.63072,-44.15779 -98.63072,-98.63072 0,-54.47295 44.15777,-98.63074 98.63072,-98.63074 54.47295,0 98.63074,44.15779 98.63074,98.63074 z"
       style="fill:none;stroke:#000000;stroke-width:0.3985;stroke-linecap:butt;stroke-linejoin:miter;stroke-miterlimit:10;stroke-dasharray:none;stroke-opacity:1"
       transform="matrix(0.87746667,0,0,-0.87746667,109.71456,113.38554)"
       clip-path="url(#clipPath28)" />
    <path
       id="path29"
       d="m 22.09517,-51.02368 c 0,54.47293 -44.15777,98.63072 -98.63072,98.63072 -54.47295,0 -98.63074,-44.15779 -98.63074,-98.63072 0,-54.47295 44.15779,-98.63074 98.63074,-98.63074 54.47295,0 98.63072,44.15779 98.63072,98.63074 z"
       style="fill:none;stroke:#000000;stroke-width:0.3985;stroke-linecap:butt;stroke-linejoin:miter;stroke-miterlimit:10;stroke-dasharray:none;stroke-opacity:1"
       transform="matrix(0.87746667,0,0,-0.87746667,109.71456,113.38554)"
       clip-path="url(#clipPath30)" />
    <path
       id="path31"
       d="m 0.44470176,1.2109514 c -0.0712278,0.3383319 -0.0890347,0.4095597 -0.53420833,0.4095597 -0.12464861,0 -0.23149028,0 -0.23149028,0.1958764 0,0.071228 0.0534208,0.1068417 0.12464861,0.1068417 0.26710417,0 0.56982222,-0.017807 0.83692638,-0.017807 0.33833194,0 0.67666386,0.017807 0.99718886,0.017807 0.035614,0 0.1780695,0 0.1780695,-0.1958764 0,-0.1068417 -0.1068417,-0.1068417 -0.2492973,-0.1068417 -0.4985944,0 -0.4985944,-0.071228 -0.4985944,-0.1602625 0,-0.1246486 0.4273667,-1.74508052 0.4985944,-1.99437774 0.1246487,0.30271805 0.4095598,0.64104999 0.9081542,0.64104999 1.1574514,0 2.4039375,-1.44236245 2.4039375,-2.92033885 0,-0.9259611 -0.5698222,-1.584818 -1.3177139,-1.584818 -0.4985944,0 -0.9793819,0.3561388 -1.3177139,0.7478916 -0.089035,-0.5342083 -0.5164014,-0.7478916 -0.8903472,-0.7478916 -0.46298054,0 -0.64104998,0.3917527 -0.7300847,0.5698222 -0.17806944,0.3383319 -0.320525,0.9259611 -0.320525,0.961575 0,0.1068416 0.10684167,0.1068416 0.12464861,0.1068416 0.10684167,0 0.10684167,-0.017807 0.17806944,-0.2314902 0.1602625,-0.7122778 0.35613889,-1.1930653 0.71227775,-1.1930653 0.1780695,0 0.320525,0.089035 0.320525,0.4629805 0,0.2314903 -0.035614,0.338332 -0.071228,0.4985945 z M 2.2075892,-3.0983291 c 0.053421,-0.2849111 0.338332,-0.5520153 0.5164014,-0.7122778 0.338332,-0.302718 0.6232431,-0.3739458 0.8013125,-0.3739458 0.3917528,0 0.64105,0.3561389 0.64105,0.943768 0,0.5876292 -0.3383319,1.7272736 -0.5164014,2.1012195 -0.3383319,0.69447078 -0.8191194,1.03280272 -1.1752583,1.03280272 -0.6588569,0 -0.8013125,-0.83692638 -0.8013125,-0.89034721 0,-0.0178069 0,-0.0356139 0.035614,-0.16026251 z m 0,0"
       style="fill:#000000;fill-opacity:1;fill-rule:nonzero;stroke:none"
       aria-label="p"
       transform="matrix(0.87746667,0,0,0.87746667,164.28948,79.496024)" />
    <g
       id="g31"
       aria-label="q&#10;′"
       transform="matrix(0.87746667,0,0,0.87746667,46.231601,115.82139)">
      <path
         id="path32"
         d="m 4.5038661,-4.2927008 c 0,-0.035614 -0.035614,-0.1068416 -0.1068416,-0.1068416 -0.1068417,0 -0.4985945,0.4095597 -0.6766639,0.6944708 -0.2136833,-0.5342083 -0.6054361,-0.6944708 -0.9259611,-0.6944708 -1.1752583,0 -2.40393747,1.4779763 -2.40393747,2.9203388 0,0.96157501 0.58762916,1.58481806 1.31771387,1.58481806 0.4273667,0 0.8191194,-0.23149028 1.1752583,-0.58762916 -0.089035,0.33833194 -0.4095597,1.6916597 -0.4451736,1.7806944 -0.089035,0.2671042 -0.1602625,0.320525 -0.7122778,0.320525 -0.1424555,0 -0.2314902,0 -0.2314902,0.1958764 0,0.017807 0,0.1068417 0.1246486,0.1068417 0.320525,0 0.6766639,-0.017807 0.9971889,-0.017807 0.3383319,0 0.6944708,0.017807 1.0328027,0.017807 0.035614,0 0.1780695,0 0.1780695,-0.1958764 0,-0.1068417 -0.1068417,-0.1068417 -0.2671042,-0.1068417 -0.4807875,0 -0.4807875,-0.071228 -0.4807875,-0.1602625 0,-0.071228 0.017807,-0.1246486 0.053421,-0.2136833 z m -2.7600763,4.18463193 c -0.6054361,0 -0.64105,-0.7656986 -0.64105,-0.94376803 0,-0.4807875 0.2849111,-1.5492042 0.4629806,-1.9765708 0.302718,-0.7300847 0.8191194,-1.1574514 1.2286791,-1.1574514 0.64105,0 0.7835055,0.8013125 0.7835055,0.8725403 0,0.071228 -0.5520152,2.2436749 -0.5698222,2.2792888 -0.1602625,0.28491114 -0.7122777,0.92596113 -1.264293,0.92596113 z m 0,0"
         style="fill:#000000;fill-opacity:1;fill-rule:nonzero;stroke:none" />
      <path
         id="path33"
         d="m 6.8365758,-6.9103216 c 0.053421,-0.1246486 0.053421,-0.1780694 0.053421,-0.2314902 0,-0.2136834 -0.1958764,-0.3739459 -0.4095597,-0.3739459 -0.2671042,0 -0.3561389,0.2136834 -0.3739459,0.320525 L 5.18053,-4.1680522 c -0.017807,0.017807 -0.035614,0.1068417 -0.035614,0.1068417 0,0.089035 0.2136834,0.1602625 0.2671042,0.1602625 0.053421,0 0.053421,-0.017807 0.1068417,-0.1246486 z m 0,0"
         style="fill:#000000;fill-opacity:1;fill-rule:nonzero;stroke:none" />
    </g>
    <path
       id="path34"
       d="M 0,0 V 170.079"
       style="fill:none;stroke:#000000;stroke-width:0.398;stroke-linecap:butt;stroke-linejoin:miter;stroke-miterlimit:10;stroke-dasharray:none;stroke-opacity:1"
       transform="matrix(1.3333333,0,0,-1.3333333,227.03733,226.772)" />
    <path
       id="path35"
       d="M 0,0 H 170.876"
       style="fill:none;stroke:#000000;stroke-width:0.398;stroke-linecap:butt;stroke-linejoin:miter;stroke-miterlimit:10;stroke-dasharray:none;stroke-opacity:1"
       transform="matrix(1.3333333,0,0,-1.3333333,-0.53066667,227.03733)" />
  </g>
</svg>
