<?xml version="1.0" encoding="UTF-8" standalone="no"?>
<!-- Created with Inkscape (http://www.inkscape.org/) -->

<svg
   version="1.1"
   id="svg1"
   width="226.772"
   height="226.772"
   viewBox="0 0 226.772 226.772"
   sodipodi:docname="blaser2025core.svg"
   inkscape:version="1.4.3 (0d15f75, 2025-12-25)"
   xmlns:inkscape="http://www.inkscape.org/namespaces/inkscape"
   xmlns:sodipodi="http://sodipodi.sourceforge.net/DTD/sodipodi-0.dtd"
   xmlns="http://www.w3.org/2000/svg"
   xmlns:svg="http://www.w3.org/2000/svg">
  <defs
     id="defs1" />
  <sodipodi:namedview
     id="namedview1"
     pagecolor="#ffffff"
     bordercolor="#000000"
     borderopacity="0.25"
     inkscape:showpageshadow="2"
     inkscape:pageopacity="0.0"
     inkscape:pagecheckerboard="0"
     inkscape:deskcolor="#d1d1d1"
     inkscape:zoom="3.2411408"
     inkscape:cx="113.386"
     inkscape:cy="113.386"
     inkscape:window-width="1920"
     inkscape:window-height="974"
     inkscape:window-x="-11"
     inkscape:window-y="-11"
     inkscape:window-maximized="1"
     inkscape:current-layer="g1">
    <inkscape:page
       x="0"
       y="0"
       inkscape:label="1"
       id="page1"
       width="226.772"
       height="226.772"
       margin="0"
       bleed="0" />
  </sodipodi:namedview>
  <g
     id="g1"
     inkscape:groupmode="layer"
     inkscape:label="1">
    <path
       id="path1"
       d="M 0,0 H 170.876"
       style="fill:none;stroke:#000000;stroke-width:0.398;stroke-linecap:butt;stroke-linejoin:miter;stroke-miterlimit:10;stroke-dasharray:none;stroke-opacity:1"
       transform="matrix(1.3333333,0,0,-1.3333333,-0.53066667,-0.26533333)" />
    <path
       id="path2"
       d="M 0,0 V 170.079"
       style="fill:none;stroke:#000000;stroke-width:0.398;stroke-linecap:butt;stroke-linejoin:miter;stroke-miterlimit:10;stroke-dasharray:none;stroke-opacity:1"
       transform="matrix(1.3333333,0,0,-1.3333333,-0.26533333,226.772)" />
    <g
       id="g54">
      <path
         d="m 69.738,31.863 c 0,15.657 -12.691,28.348 -28.347,28.348 -15.657,0 -28.348,-12.691 -28.348,-28.348 0,-15.656 12.691,-28.343 28.348,-28.343 15.656,0 28.347,12.687 28.347,28.343 z"
         style="fill:none;stroke:#000000;stroke-width:0.749999;stroke-linecap:butt;stroke-linejoin:miter;stroke-miterlimit:4;stroke-dasharray:none;stroke-opacity:1"
         transform="matrix(1.22656,0,0,1.22656,5.3453333,13.991506)"
         id="path3" />
      <path
         d="m -39.598,-31.488 c 0,0.781 -0.636,1.418 -1.418,1.418 -0.781,0 -1.418,-0.637 -1.418,-1.418 0,-0.785 0.637,-1.418 1.418,-1.418 0.782,0 1.418,0.633 1.418,1.418 z"
         style="fill:none;stroke:#000000;stroke-width:2.83465;stroke-linecap:butt;stroke-linejoin:miter;stroke-miterlimit:4;stroke-dasharray:none;stroke-opacity:1"
         transform="matrix(-1.22656,0,0,-1.22656,5.3453333,13.991506)"
         id="path4" />
      <path
         d="m 77.27,52.336 c 0,15.656 -12.692,28.348 -28.348,28.348 -15.656,0 -28.348,-12.692 -28.348,-28.348 0,-15.652 12.692,-28.344 28.348,-28.344 15.656,0 28.348,12.692 28.348,28.344 z"
         style="fill:none;stroke:#000000;stroke-width:0.749999;stroke-linecap:butt;stroke-linejoin:miter;stroke-miterlimit:4;stroke-dasharray:none;stroke-opacity:1"
         transform="matrix(1.22656,0,0,1.22656,5.3453333,13.991506)"
         id="path5" />
      <path
         d="m -47.129,-51.961 c 0,0.781 -0.637,1.414 -1.418,1.414 -0.781,0 -1.418,-0.633 -1.418,-1.414 0,-0.785 0.637,-1.418 1.418,-1.418 0.781,0 1.418,0.633 1.418,1.418 z"
         style="fill:none;stroke:#000000;stroke-width:2.83465;stroke-linecap:butt;stroke-linejoin:miter;stroke-miterlimit:4;stroke-dasharray:none;stroke-opacity:1"
         transform="matrix(-1.22656,0,0,-1.22656,5.3453333,13.991506)"
         id="path6" />
      <path
         d="m 57.066,46.105 c 0,15.657 -12.691,28.348 -28.343,28.348 -15.657,0 -28.348,-12.691 -28.348,-28.348 0,-15.656 12.691,-28.347 28.348,-28.347 15.652,0 28.343,12.691 28.343,28.347 z"
         style="fill:none;stroke:#000000;stroke-width:0.749999;stroke-linecap:butt;stroke-linejoin:miter;stroke-miterlimit:4;stroke-dasharray:none;stroke-opacity:1"
         transform="matrix(1.22656,0,0,1.22656,5.3453333,13.991506)"
         id="path7" />
      <path
         d="m -26.93,-45.73 c 0,0.781 -0.632,1.418 -1.418,1.418 -0.781,0 -1.418,-0.637 -1.418,-1.418 0,-0.786 0.637,-1.418 1.418,-1.418 0.786,0 1.418,0.632 1.418,1.418 z"
         style="fill:none;stroke:#000000;stroke-width:2.83465;stroke-linecap:butt;stroke-linejoin:miter;stroke-miterlimit:4;stroke-dasharray:none;stroke-opacity:1"
         transform="matrix(-1.22656,0,0,-1.22656,5.3453333,13.991506)"
         id="path8" />
      <path
         d="m 101.965,28.723 c 0,15.652 -12.692,28.343 -28.348,28.343 -15.656,0 -28.347,-12.691 -28.347,-28.343 0,-15.657 12.691,-28.348 28.347,-28.348 15.656,0 28.348,12.691 28.348,28.348 z"
         style="fill:none;stroke:#000000;stroke-width:0.749999;stroke-linecap:butt;stroke-linejoin:miter;stroke-miterlimit:4;stroke-dasharray:0.749999, 0.749999;stroke-dashoffset:0;stroke-opacity:1"
         transform="matrix(1.22656,0,0,1.22656,5.3453333,13.991506)"
         id="path9" />
      <path
         d="m -71.824,-28.348 c 0,0.786 -0.637,1.418 -1.418,1.418 -0.781,0 -1.418,-0.632 -1.418,-1.418 0,-0.781 0.637,-1.418 1.418,-1.418 0.781,0 1.418,0.637 1.418,1.418 z"
         style="fill:none;stroke:#000000;stroke-width:0.566929;stroke-linecap:butt;stroke-linejoin:miter;stroke-miterlimit:4;stroke-dasharray:none;stroke-opacity:1"
         transform="matrix(-1.22656,0,0,-1.22656,5.3453333,13.991506)"
         id="path10" />
      <path
         d="m 133.637,32.84 c 0,15.656 -12.692,28.348 -28.348,28.348 -15.656,0 -28.344,-12.692 -28.344,-28.348 0,-15.656 12.688,-28.344 28.344,-28.344 15.656,0 28.348,12.688 28.348,28.344 z"
         style="fill:none;stroke:#000000;stroke-width:0.749999;stroke-linecap:butt;stroke-linejoin:miter;stroke-miterlimit:4;stroke-dasharray:0.749999, 0.749999;stroke-dashoffset:0;stroke-opacity:1"
         transform="matrix(1.22656,0,0,1.22656,5.3453333,13.991506)"
         id="path11" />
      <path
         d="m -103.496,-32.465 c 0,0.781 -0.637,1.418 -1.418,1.418 -0.785,0 -1.418,-0.637 -1.418,-1.418 0,-0.785 0.633,-1.418 1.418,-1.418 0.781,0 1.418,0.633 1.418,1.418 z"
         style="fill:none;stroke:#000000;stroke-width:0.566929;stroke-linecap:butt;stroke-linejoin:miter;stroke-miterlimit:4;stroke-dasharray:none;stroke-opacity:1"
         transform="matrix(-1.22656,0,0,-1.22656,5.3453333,13.991506)"
         id="path12" />
      <path
         d="m 164.133,72.855 c 0,15.653 -12.692,28.344 -28.348,28.344 -15.652,0 -28.344,-12.691 -28.344,-28.344 0,-15.656 12.692,-28.347 28.344,-28.347 15.656,0 28.348,12.691 28.348,28.347 z"
         style="fill:none;stroke:#000000;stroke-width:0.749999;stroke-linecap:butt;stroke-linejoin:miter;stroke-miterlimit:4;stroke-dasharray:0.749999, 0.749999;stroke-dashoffset:0;stroke-opacity:1"
         transform="matrix(1.22656,0,0,1.22656,5.3453333,13.991506)"
         id="path13" />
      <path
         d="m -133.996,-72.48 c 0,0.785 -0.633,1.418 -1.414,1.418 -0.785,0 -1.418,-0.633 -1.418,-1.418 0,-0.782 0.633,-1.415 1.418,-1.415 0.781,0 1.414,0.633 1.414,1.415 z"
         style="fill:none;stroke:#000000;stroke-width:0.566929;stroke-linecap:butt;stroke-linejoin:miter;stroke-miterlimit:4;stroke-dasharray:none;stroke-opacity:1"
         transform="matrix(-1.22656,0,0,-1.22656,5.3453333,13.991506)"
         id="path14" />
      <path
         d="m 157.012,124.668 c 0,15.656 -12.692,28.348 -28.348,28.348 -15.656,0 -28.348,-12.692 -28.348,-28.348 0,-15.656 12.692,-28.348 28.348,-28.348 15.656,0 28.348,12.692 28.348,28.348 z"
         style="fill:none;stroke:#000000;stroke-width:0.749999;stroke-linecap:butt;stroke-linejoin:miter;stroke-miterlimit:4;stroke-dasharray:none;stroke-opacity:1"
         transform="matrix(1.22656,0,0,1.22656,5.3453333,13.991506)"
         id="path15" />
      <path
         d="m -126.871,-124.293 c 0,0.781 -0.637,1.418 -1.418,1.418 -0.781,0 -1.418,-0.637 -1.418,-1.418 0,-0.781 0.637,-1.418 1.418,-1.418 0.781,0 1.418,0.637 1.418,1.418 z"
         style="fill:none;stroke:#000000;stroke-width:2.83465;stroke-linecap:butt;stroke-linejoin:miter;stroke-miterlimit:4;stroke-dasharray:none;stroke-opacity:1"
         transform="matrix(-1.22656,0,0,-1.22656,5.3453333,13.991506)"
         id="path16" />
      <path
         d="m 135.77,133.336 c 0,15.656 -12.692,28.348 -28.348,28.348 -15.656,0 -28.348,-12.692 -28.348,-28.348 0,-15.652 12.692,-28.344 28.348,-28.344 15.656,0 28.348,12.692 28.348,28.344 z"
         style="fill:none;stroke:#000000;stroke-width:0.749999;stroke-linecap:butt;stroke-linejoin:miter;stroke-miterlimit:4;stroke-dasharray:none;stroke-opacity:1"
         transform="matrix(1.22656,0,0,1.22656,5.3453333,13.991506)"
         id="path17" />
      <path
         d="m -105.629,-132.961 c 0,0.781 -0.637,1.414 -1.418,1.414 -0.781,0 -1.418,-0.633 -1.418,-1.414 0,-0.785 0.637,-1.418 1.418,-1.418 0.781,0 1.418,0.633 1.418,1.418 z"
         style="fill:none;stroke:#000000;stroke-width:2.83465;stroke-linecap:butt;stroke-linejoin:miter;stroke-miterlimit:4;stroke-dasharray:none;stroke-opacity:1"
         transform="matrix(-1.22656,0,0,-1.22656,5.3453333,13.991506)"
         id="path18" />
      <path
         d="m 75.02,113.086 c 0,15.656 -12.692,28.348 -28.348,28.348 -15.656,0 -28.348,-12.692 -28.348,-28.348 0,-15.652 12.692,-28.344 28.348,-28.344 15.656,0 28.348,12.692 28.348,28.344 z"
         style="fill:none;stroke:#000000;stroke-width:0.749999;stroke-linecap:butt;stroke-linejoin:miter;stroke-miterlimit:4;stroke-dasharray:none;stroke-opacity:1"
         transform="matrix(1.22656,0,0,1.22656,5.3453333,13.991506)"
         id="path19" />
      <path
         d="m -44.879,-112.711 c 0,0.781 -0.637,1.414 -1.418,1.414 -0.781,0 -1.418,-0.633 -1.418,-1.414 0,-0.785 0.637,-1.418 1.418,-1.418 0.781,0 1.418,0.633 1.418,1.418 z"
         style="fill:none;stroke:#000000;stroke-width:2.83465;stroke-linecap:butt;stroke-linejoin:miter;stroke-miterlimit:4;stroke-dasharray:none;stroke-opacity:1"
         transform="matrix(-1.22656,0,0,-1.22656,5.3453333,13.991506)"
         id="path20" />
      <path
         d="m 72.77,77.086 c 0,15.656 -12.692,28.348 -28.348,28.348 -15.656,0 -28.348,-12.692 -28.348,-28.348 0,-15.652 12.692,-28.344 28.348,-28.344 15.656,0 28.348,12.692 28.348,28.344 z"
         style="fill:none;stroke:#000000;stroke-width:0.749999;stroke-linecap:butt;stroke-linejoin:miter;stroke-miterlimit:4;stroke-dasharray:none;stroke-opacity:1"
         transform="matrix(1.22656,0,0,1.22656,5.3453333,13.991506)"
         id="path21" />
      <path
         d="m -42.629,-76.711 c 0,0.781 -0.637,1.414 -1.418,1.414 -0.781,0 -1.418,-0.633 -1.418,-1.414 0,-0.785 0.637,-1.418 1.418,-1.418 0.781,0 1.418,0.633 1.418,1.418 z"
         style="fill:none;stroke:#000000;stroke-width:2.83465;stroke-linecap:butt;stroke-linejoin:miter;stroke-miterlimit:4;stroke-dasharray:none;stroke-opacity:1"
         transform="matrix(-1.22656,0,0,-1.22656,5.3453333,13.991506)"
         id="path22" />
      <path
         d="m 91.52,126.586 c 0,15.656 -12.692,28.348 -28.348,28.348 -15.656,0 -28.348,-12.692 -28.348,-28.348 0,-15.652 12.692,-28.344 28.348,-28.344 15.656,0 28.348,12.692 28.348,28.344 z"
         style="fill:none;stroke:#000000;stroke-width:0.749999;stroke-linecap:butt;stroke-linejoin:miter;stroke-miterlimit:4;stroke-dasharray:none;stroke-opacity:1"
         transform="matrix(1.22656,0,0,1.22656,5.3453333,13.991506)"
         id="path23" />
      <path
         d="m -61.379,-126.211 c 0,0.781 -0.637,1.414 -1.418,1.414 -0.781,0 -1.418,-0.633 -1.418,-1.414 0,-0.785 0.637,-1.418 1.418,-1.418 0.781,0 1.418,0.633 1.418,1.418 z"
         style="fill:none;stroke:#000000;stroke-width:2.83465;stroke-linecap:butt;stroke-linejoin:miter;stroke-miterlimit:4;stroke-dasharray:none;stroke-opacity:1"
         transform="matrix(-1.22656,0,0,-1.22656,5.3453333,13.991506)"
         id="path24" />
      <path
         d="m 168.609,129.543 c 0,15.652 -12.691,28.344 -28.347,28.344 -15.657,0 -28.344,-12.692 -28.344,-28.344 0,-15.656 12.687,-28.348 28.344,-28.348 15.656,0 28.347,12.692 28.347,28.348 z"
         style="fill:none;stroke:#000000;stroke-width:0.749999;stroke-linecap:butt;stroke-linejoin:miter;stroke-miterlimit:4;stroke-dasharray:none;stroke-opacity:1"
         transform="matrix(1.22656,0,0,1.22656,5.3453333,13.991506)"
         id="path25" />
      <path
         d="m -138.469,-129.168 c 0,0.785 -0.636,1.418 -1.418,1.418 -0.785,0 -1.418,-0.633 -1.418,-1.418 0,-0.781 0.633,-1.418 1.418,-1.418 0.782,0 1.418,0.637 1.418,1.418 z"
         style="fill:none;stroke:#000000;stroke-width:2.83465;stroke-linecap:butt;stroke-linejoin:miter;stroke-miterlimit:4;stroke-dasharray:none;stroke-opacity:1"
         transform="matrix(-1.22656,0,0,-1.22656,5.3453333,13.991506)"
         id="path26" />
      <path
         d="m 178.359,41.043 c 0,15.652 -12.691,28.344 -28.347,28.344 -15.657,0 -28.344,-12.692 -28.344,-28.344 0,-15.656 12.687,-28.348 28.344,-28.348 15.656,0 28.347,12.692 28.347,28.348 z"
         style="fill:none;stroke:#000000;stroke-width:0.749999;stroke-linecap:butt;stroke-linejoin:miter;stroke-miterlimit:4;stroke-dasharray:0.749999, 0.749999;stroke-dashoffset:0;stroke-opacity:1"
         transform="matrix(1.22656,0,0,1.22656,5.3453333,13.991506)"
         id="path27" />
      <path
         d="m -148.219,-40.668 c 0,0.785 -0.636,1.418 -1.418,1.418 -0.785,0 -1.418,-0.633 -1.418,-1.418 0,-0.781 0.633,-1.418 1.418,-1.418 0.782,0 1.418,0.637 1.418,1.418 z"
         style="fill:none;stroke:#000000;stroke-width:0.566929;stroke-linecap:butt;stroke-linejoin:miter;stroke-miterlimit:4;stroke-dasharray:none;stroke-opacity:1"
         transform="matrix(-1.22656,0,0,-1.22656,5.3453333,13.991506)"
         id="path28" />
      <path
         d="M 66.93,29.844 C 62.078,25.871 56.008,23.695 49.34,23.539 46.824,23.48 46.613,23.434 46.418,22.914 c -0.121,-0.332 -0.43,-0.559 -0.758,-0.559 -0.301,0 -0.875,-0.23 -1.273,-0.515 -1.348,-0.957 -5.559,-2.832 -7.821,-3.477 -3.371,-0.961 -7.191,-1.301 -10.601,-0.945 -2.828,0.297 -6.367,1.18 -8.481,2.109 -0.625,0.278 -1.175,0.469 -1.218,0.426 -0.137,-0.137 2.004,-3.609 3.148,-5.105 0.598,-0.786 1.91,-2.203 2.914,-3.149 5.922,-5.59 13.926,-8.351 21.738,-7.504 4.442,0.481 10.133,2.383 10.059,3.36 -0.023,0.324 0.156,0.418 0.711,0.379 1.461,-0.102 6.109,3.707 8.726,7.148 1.829,2.402 3.997,6.914 4.747,9.871 0.546,2.168 1.164,6.762 0.898,6.699 -0.055,-0.011 -1.078,-0.828 -2.277,-1.808 z M 46.715,21.605 c 0,-0.543 -0.672,-0.925 -0.922,-0.519 -0.242,0.394 0.078,1.012 0.523,1.012 0.219,0 0.399,-0.223 0.399,-0.493 z m 0.453,-1.515 c 0.156,-0.469 -0.719,-0.731 -0.992,-0.297 -0.129,0.199 -0.231,0.457 -0.235,0.574 -0.007,0.336 1.11,0.082 1.227,-0.277 z m 0.434,-1.274 c 0.148,-0.382 -0.211,-0.847 -0.664,-0.855 -0.348,-0.012 -0.485,0.867 -0.168,1.07 0.488,0.309 0.648,0.27 0.832,-0.215 z m 0.535,-1.898 c -0.239,-0.383 -0.828,-0.309 -0.996,0.125 -0.203,0.531 0.668,1 0.945,0.504 0.117,-0.207 0.137,-0.488 0.051,-0.629 z m 0.746,-0.914 c 0.09,-0.231 -0.016,-0.465 -0.25,-0.551 -0.485,-0.187 -1.012,0.274 -0.77,0.668 0.254,0.41 0.844,0.344 1.02,-0.117 z m 0.679,-1.414 c 0,-0.344 -0.171,-0.52 -0.519,-0.52 -0.496,0 -0.699,0.508 -0.344,0.864 0.356,0.359 0.863,0.156 0.863,-0.344 z m 0.876,-1.176 c 0.085,-0.23 -0.02,-0.461 -0.25,-0.551 -0.485,-0.187 -1.012,0.274 -0.77,0.668 0.254,0.41 0.84,0.344 1.02,-0.117 z m 0.824,-1.648 c -0.223,-0.36 -0.84,-0.368 -1.059,-0.012 -0.094,0.148 -0.023,0.445 0.156,0.66 0.282,0.34 0.371,0.344 0.7,0.012 0.207,-0.207 0.296,-0.504 0.203,-0.66 z m 0.8,-0.688 c 0.239,-0.613 -0.316,-1.047 -0.808,-0.637 -0.309,0.254 -0.336,0.418 -0.109,0.688 0.386,0.469 0.726,0.449 0.917,-0.051 z m 1.126,-1.445 c 0,-0.414 -0.821,-0.571 -1.047,-0.203 -0.325,0.523 0.234,1.109 0.691,0.73 C 53.027,10 53.188,9.762 53.188,9.633 Z M 54.156,8.699 C 54.297,8.273 53.488,7.973 53.141,8.32 c -0.149,0.149 -0.192,0.403 -0.09,0.567 0.23,0.371 0.961,0.246 1.105,-0.188 z"
         style="fill:#009ffe;fill-opacity:1;fill-rule:nonzero;stroke:none"
         transform="matrix(1.22656,0,0,1.22656,5.3453333,13.991506)"
         id="path29" />
      <path
         d="m 58.48,51.863 -1.281,-0.738 0.242,-2.641 C 58.176,40.457 55.348,32.363 49.672,26.266 l -1.781,-1.914 2.453,0.187 c 4.226,0.324 7.715,1.273 11.265,3.063 2.028,1.023 5.481,3.519 6.817,4.925 l 0.875,0.922 -0.446,2.656 c -0.914,5.477 -3.066,10.055 -6.644,14.149 -2.152,2.465 -2.207,2.488 -3.731,1.609 z"
         style="fill:#009ffe;fill-opacity:1;fill-rule:nonzero;stroke:none"
         transform="matrix(1.22656,0,0,1.22656,5.3453333,13.991506)"
         id="path30" />
      <path
         d="M 24.961,54.266 C 24.465,53.887 23.383,53 22.551,52.293 l -1.508,-1.289 0.18,-1.574 c 0.472,-4.176 2.379,-9.297 4.761,-12.805 4.321,-6.363 12.348,-11.27 19.321,-11.801 l 1.371,-0.105 1.922,2.008 c 4.289,4.492 6.808,9.66 7.711,15.82 0.386,2.66 0.195,7.476 -0.313,7.793 -0.234,0.144 -0.406,0.047 -0.535,-0.293 -0.195,-0.527 -0.981,-0.715 -0.981,-0.235 0,0.153 -0.121,0.2 -0.269,0.106 -0.188,-0.113 -0.172,-0.285 0.039,-0.543 0.227,-0.27 0.234,-0.453 0.031,-0.656 -0.39,-0.391 -1.183,-0.047 -1,0.433 0.184,0.477 0.352,0.489 -2.215,-0.14 -4.703,-1.153 -11.05,-0.883 -15.66,0.664 -2.109,0.707 -5.738,2.453 -6.945,3.336 -0.426,0.312 -1.188,0.879 -1.688,1.254 l -0.914,0.683 z m 4.512,-5.864 c 1.187,-0.496 1.711,-1.34 1.703,-2.738 -0.008,-1.809 -1.106,-2.855 -2.981,-2.855 -0.734,0 -1.148,0.199 -1.828,0.879 -0.734,0.734 -0.883,1.07 -0.883,2.015 0,1.332 0.532,2.199 1.653,2.688 1.031,0.449 1.285,0.449 2.336,0.011 z m 23.906,-0.351 c 0.144,-0.426 -0.668,-0.731 -1.016,-0.383 -0.148,0.152 -0.187,0.406 -0.09,0.566 0.231,0.371 0.961,0.25 1.106,-0.183 z m -1.055,-0.989 c 0.235,-0.613 -0.316,-1.046 -0.812,-0.636 -0.309,0.254 -0.332,0.418 -0.11,0.687 0.387,0.469 0.727,0.449 0.922,-0.051 z m -0.859,-1.539 c -0.164,-0.425 -0.758,-0.515 -0.985,-0.148 -0.078,0.129 -0.074,0.418 0.012,0.641 0.117,0.308 0.274,0.343 0.641,0.148 0.277,-0.148 0.418,-0.418 0.332,-0.641 z m -0.918,-1.109 c -0.098,-0.5 -0.488,-0.633 -0.969,-0.328 -0.301,0.191 -0.308,0.309 -0.047,0.629 0.395,0.473 1.121,0.258 1.016,-0.301 z M 49.77,43.121 c -0.098,-0.504 -0.485,-0.633 -0.969,-0.328 -0.301,0.191 -0.309,0.309 -0.043,0.629 0.39,0.473 1.117,0.258 1.012,-0.301 z m -0.727,-1.23 c 0,-0.489 -0.512,-0.746 -0.832,-0.422 -0.387,0.383 -0.047,1.105 0.434,0.918 0.218,-0.082 0.398,-0.309 0.398,-0.496 z m -0.684,-1.547 c -0.164,-0.426 -0.757,-0.516 -0.984,-0.149 -0.078,0.129 -0.074,0.418 0.012,0.645 0.117,0.308 0.273,0.344 0.636,0.148 0.282,-0.152 0.422,-0.422 0.336,-0.644 z m -0.656,-1.246 c 0.059,-0.293 -0.09,-0.434 -0.453,-0.434 -0.293,0 -0.535,0.156 -0.535,0.348 0,0.793 0.836,0.867 0.988,0.086 z M 47.23,37.602 c 0,-0.52 -0.632,-0.672 -0.914,-0.219 -0.089,0.148 -0.101,0.437 -0.023,0.644 0.195,0.512 0.937,0.18 0.937,-0.425 z m -0.449,-0.903 c 0.289,-0.289 -0.121,-0.883 -0.613,-0.883 -0.539,0 -0.559,0.036 -0.332,0.629 0.156,0.41 0.656,0.543 0.945,0.254 z m -0.328,-1.937 c 0,-0.367 -0.137,-0.508 -0.449,-0.45 -0.672,0.133 -0.75,0.989 -0.086,0.989 0.371,0 0.535,-0.168 0.535,-0.539 z m -4.297,-0.598 c 1.129,-0.473 1.711,-1.336 1.711,-2.535 0,-1.875 -1.121,-3.059 -2.894,-3.059 -1.653,0 -2.782,1.153 -2.793,2.856 -0.012,1.375 0.504,2.23 1.64,2.726 1.035,0.45 1.285,0.45 2.336,0.012 z m 3.629,-0.316 c 0.59,-0.223 0.508,-0.879 -0.105,-0.879 -0.348,0 -0.52,0.176 -0.52,0.519 0,0.571 0.031,0.59 0.625,0.36 z m 0.153,-1.914 c 0,-0.344 -0.172,-0.516 -0.52,-0.516 -0.344,0 -0.516,0.172 -0.516,0.516 0,0.347 0.172,0.519 0.516,0.519 0.348,0 0.52,-0.172 0.52,-0.519 z m -0.051,-1.485 c -0.129,-0.676 -0.985,-0.75 -0.985,-0.086 0,0.371 0.164,0.535 0.536,0.535 0.371,0 0.511,-0.136 0.449,-0.449 z M 45.68,28.828 c 0,-0.285 -0.157,-0.519 -0.348,-0.519 -0.484,0 -0.676,0.25 -0.516,0.675 0.211,0.551 0.864,0.434 0.864,-0.156 z m 0.082,-1.398 c 0.082,-0.215 -0.063,-0.414 -0.36,-0.492 -0.367,-0.098 -0.5,0 -0.5,0.363 0,0.57 0.653,0.668 0.86,0.129 z m 0.176,-1.45 c 0,-0.343 -0.172,-0.519 -0.52,-0.519 -0.344,0 -0.516,0.176 -0.516,0.519 0,0.344 0.172,0.52 0.516,0.52 0.348,0 0.52,-0.176 0.52,-0.52 z"
         style="fill:#009ffe;fill-opacity:1;fill-rule:nonzero;stroke:none"
         transform="matrix(1.22656,0,0,1.22656,5.3453333,13.991506)"
         id="path31" />
      <path
         d="m 18.773,47.984 c -3.136,-4.41 -4.871,-9.453 -5.117,-14.882 -0.164,-3.54 0.129,-5.95 1.125,-9.239 l 0.676,-2.242 1.996,-0.914 c 7.121,-3.254 15.602,-3.207 22.781,0.133 2.364,1.098 4.668,2.484 4.668,2.805 0,0.109 -0.593,0.277 -1.32,0.375 -5.121,0.675 -12.09,4.515 -15.902,8.753 -3.84,4.27 -6.43,9.641 -7.207,14.954 l -0.321,2.195 z"
         style="fill:#009ffe;fill-opacity:1;fill-rule:nonzero;stroke:none"
         transform="matrix(1.22656,0,0,1.22656,5.3453333,13.991506)"
         id="path32" />
      <path
         d="M 14.527,70.023 C 8.395,66.414 3.648,60.074 1.785,53.004 -0.613,43.898 1.961,34.02 8.543,27.039 c 1.516,-1.609 4.887,-4.414 5.309,-4.422 0.078,0 -0.129,1.074 -0.465,2.391 -1.133,4.48 -1.059,9.722 0.215,14.605 0.894,3.434 3.363,8.141 5.648,10.778 0.656,0.757 0.738,1.074 0.895,3.527 0.093,1.48 0.347,3.445 0.558,4.367 l 0.387,1.672 -1.074,1.707 c -1.328,2.098 -2.157,3.914 -3.086,6.766 -0.395,1.207 -0.817,2.222 -0.934,2.261 -0.121,0.036 -0.781,-0.265 -1.469,-0.668 z"
         style="fill:#009ffe;fill-opacity:1;fill-rule:nonzero;stroke:none"
         transform="matrix(1.22656,0,0,1.22656,5.3453333,13.991506)"
         id="path33" />
      <path
         d="M 29.305,71.984 C 27.016,69.688 25.012,66.828 23.637,63.887 22.016,60.43 22.02,60.359 24.105,58.152 l 1.77,-1.871 2.848,1.418 c 1.605,0.801 3.972,1.719 5.433,2.11 2.328,0.621 3.051,0.695 7.121,0.707 4.911,0.015 7.145,-0.356 10.641,-1.778 0.887,-0.359 1.672,-0.597 1.738,-0.531 0.246,0.246 -2.394,4.273 -4.066,6.195 -4.309,4.961 -10.789,8.469 -17.18,9.301 l -1.23,0.16 z"
         style="fill:#009ffe;fill-opacity:1;fill-rule:nonzero;stroke:none"
         transform="matrix(1.22656,0,0,1.22656,5.3453333,13.991506)"
         id="path34" />
      <path
         d="m 23.645,73.473 c -1.887,-0.344 -6.442,-1.836 -6.442,-2.11 0,-0.074 0.172,-0.808 0.387,-1.633 0.5,-1.933 1.691,-4.722 2.89,-6.769 0.911,-1.555 0.961,-1.594 1.2,-0.984 1.593,4.058 3.824,7.636 6.406,10.281 l 1.586,1.617 -2.027,-0.023 c -1.118,-0.012 -2.915,-0.184 -4,-0.379 z"
         style="fill:#009ffe;fill-opacity:1;fill-rule:nonzero;stroke:none"
         transform="matrix(1.22656,0,0,1.22656,5.3453333,13.991506)"
         id="path35" />
      <path
         d="m 21.758,58.449 c -0.281,-0.734 -0.781,-5.523 -0.598,-5.707 0.094,-0.094 0.672,0.281 1.278,0.84 0.609,0.555 1.417,1.242 1.8,1.523 l 0.692,0.516 -1.5,1.641 c -1.223,1.336 -1.532,1.554 -1.672,1.187 z"
         style="fill:#009ffe;fill-opacity:1;fill-rule:nonzero;stroke:none"
         transform="matrix(1.22656,0,0,1.22656,5.3453333,13.991506)"
         id="path36" />
      <path
         d="m 36.336,59.25 c -3.117,-0.59 -9.297,-3.066 -9.297,-3.723 0,-0.41 3.102,-2.394 5.559,-3.558 3.539,-1.676 6.754,-2.442 11,-2.621 l 3.488,-0.145 -0.703,0.836 c -0.821,0.973 -0.961,2.645 -0.301,3.586 0.492,0.703 1.691,1.352 2.496,1.348 0.781,0 2.164,-0.856 2.551,-1.575 0.387,-0.726 0.371,-2.488 -0.031,-2.972 -0.418,-0.508 -0.102,-0.469 2.011,0.25 2.321,0.793 2.93,1.121 2.801,1.519 -0.058,0.176 -0.355,1.176 -0.656,2.223 l -0.551,1.902 -1.91,0.883 c -3.461,1.598 -6.234,2.203 -10.609,2.317 -2.684,0.07 -4.493,-0.012 -5.848,-0.27 z"
         style="fill:#009ffe;fill-opacity:1;fill-rule:nonzero;stroke:none"
         transform="matrix(1.22656,0,0,1.22656,5.3453333,13.991506)"
         id="path37" />
      <path
         d="m 56.121,55.121 c 0.102,-0.262 0.309,-0.98 0.465,-1.601 0.156,-0.625 0.367,-1.133 0.465,-1.133 0.097,0 0.539,0.265 0.976,0.59 l 0.805,0.593 -1.445,1.008 c -1.02,0.715 -1.391,0.871 -1.266,0.543 z"
         style="fill:#009ffe;fill-opacity:1;fill-rule:nonzero;stroke:none"
         transform="matrix(1.22656,0,0,1.22656,5.3453333,13.991506)"
         id="path38" />
      <path
         d="m 44.645,79.828 c -0.852,-0.18 -0.864,-0.191 -0.168,-0.226 0.461,-0.02 1.062,-0.36 1.617,-0.914 1.879,-1.879 0.683,-4.786 -1.977,-4.805 -1.332,-0.012 -2.148,0.457 -2.711,1.547 -0.551,1.062 -0.48,1.855 0.25,2.937 0.352,0.52 0.547,0.942 0.434,0.942 -1.145,0 -7.012,-2.664 -8.852,-4.02 -0.726,-0.539 -0.781,-0.637 -0.328,-0.637 0.293,0 1.66,-0.289 3.035,-0.636 7.84,-1.989 14.832,-7.61 18.528,-14.899 0.918,-1.805 1.144,-2.051 3.23,-3.465 2.656,-1.804 2.445,-1.843 5.563,1.055 2.339,2.172 4.172,4.543 5.687,7.352 0.832,1.539 2.098,4.589 2.098,5.054 0,0.039 -0.578,0.766 -1.278,1.61 -3.566,4.281 -9.835,7.828 -15.875,8.972 -2.136,0.407 -7.589,0.485 -9.253,0.133 z"
         style="fill:#009ffe;fill-opacity:1;fill-rule:nonzero;stroke:none"
         transform="matrix(1.22656,0,0,1.22656,5.3453333,13.991506)"
         id="path39" />
      <path
         d="m 71.539,67.176 c -1.101,-3.156 -3.621,-7.242 -6.113,-9.906 -0.836,-0.891 -1.11,-1.368 -0.992,-1.731 0.179,-0.57 -0.598,-1.039 -0.903,-0.543 -0.133,0.211 -0.234,0.215 -0.359,0.008 -0.098,-0.16 -0.086,-0.293 0.031,-0.297 0.113,-0.004 -0.406,-0.309 -1.16,-0.672 l -1.367,-0.66 1.84,-1.937 c 3.882,-4.09 6.531,-9.504 7.32,-14.973 l 0.312,-2.18 1.036,1.418 c 3.293,4.524 5.125,9.508 5.472,14.879 0.153,2.344 -0.109,6.957 -0.355,6.27 -0.196,-0.543 -1.11,-0.387 -1.11,0.195 0,0.344 0.172,0.515 0.516,0.515 0.641,0 0.641,-0.031 -0.016,2.336 -0.593,2.137 -2.132,5.59 -3.179,7.133 l -0.676,0.992 z m 0.285,-10.129 c 0,-0.344 -0.172,-0.52 -0.515,-0.52 -0.348,0 -0.52,0.176 -0.52,0.52 0,0.344 0.172,0.515 0.52,0.515 0.343,0 0.515,-0.171 0.515,-0.515 z m 1.555,0 c 0,-0.344 -0.172,-0.52 -0.52,-0.52 -0.343,0 -0.515,0.176 -0.515,0.52 0,0.344 0.172,0.515 0.515,0.515 0.348,0 0.52,-0.171 0.52,-0.515 z m 1.293,0 c 0,-0.344 -0.172,-0.52 -0.516,-0.52 -0.5,0 -0.703,0.508 -0.347,0.864 0.359,0.355 0.863,0.156 0.863,-0.344 z m -4.399,-0.258 c 0,-0.348 -0.171,-0.519 -0.519,-0.519 -0.344,0 -0.516,0.171 -0.516,0.519 0,0.344 0.172,0.516 0.516,0.516 0.348,0 0.519,-0.172 0.519,-0.516 z m -1.554,-0.281 c 0,-0.367 -0.141,-0.508 -0.449,-0.449 -0.676,0.132 -0.75,0.988 -0.086,0.988 0.371,0 0.535,-0.168 0.535,-0.539 z m -1.344,-0.305 c 0.059,-0.305 -0.078,-0.449 -0.422,-0.449 -0.515,0 -0.926,0.586 -0.625,0.887 0.297,0.297 0.961,0.019 1.047,-0.438 z m -1.551,-0.238 c -0.047,-0.309 -0.226,-0.61 -0.406,-0.668 -0.469,-0.152 -0.73,0.719 -0.297,0.996 0.586,0.367 0.793,0.273 0.703,-0.328 z"
         style="fill:#009ffe;fill-opacity:1;fill-rule:nonzero;stroke:none"
         transform="matrix(1.22656,0,0,1.22656,5.3453333,13.991506)"
         id="path40" />
      <path
         d="m 22.973,94.777 c -2.68,-2.945 -5.282,-8.726 -6.032,-13.414 -0.296,-1.855 -0.289,-8.32 0.012,-8.621 0.074,-0.078 1.125,0.199 2.328,0.613 2.883,0.993 6.219,1.555 9.231,1.555 2.402,0 2.461,0.016 3.656,0.926 1.922,1.473 6.652,3.68 9.496,4.434 2.316,0.613 3.07,0.687 7.121,0.699 3.863,0.011 4.867,-0.071 6.82,-0.563 5.676,-1.433 10.137,-4.004 14.184,-8.164 l 1.719,-1.765 0.273,1.632 c 0.528,3.168 0.602,5.028 0.309,7.68 -0.469,4.258 -1.938,8.649 -3.918,11.734 l -0.789,1.227 -2.375,-1.934 c -6.375,-5.195 -14.582,-7.441 -22.696,-6.211 -6.371,0.965 -11.546,3.625 -16.25,8.348 -1.32,1.324 -2.433,2.406 -2.476,2.406 -0.047,0 -0.32,-0.261 -0.613,-0.582 z"
         style="fill:#009ffe;fill-opacity:1;fill-rule:nonzero;stroke:none"
         transform="matrix(1.22656,0,0,1.22656,5.3453333,13.991506)"
         id="path41" />
      <path
         d="m 39.855,104.523 c -2.414,-0.429 -5.667,-1.457 -7.507,-2.367 -1.766,-0.871 -5.164,-3.183 -6.715,-4.562 l -1.274,-1.137 0.813,-1.027 c 0.449,-0.567 1.578,-1.742 2.504,-2.61 9.312,-8.711 23.32,-9.992 34.066,-3.109 1.57,1.004 4.906,3.766 4.906,4.059 0,0.105 -0.75,1.011 -1.668,2.015 l -1.668,1.828 -2.796,0.289 c -5.903,0.61 -10.981,2.629 -15.36,6.11 -1.328,1.058 -1.926,1.113 -5.301,0.511 z"
         style="fill:#009ffe;fill-opacity:1;fill-rule:nonzero;stroke:none"
         transform="matrix(1.22656,0,0,1.22656,5.3453333,13.991506)"
         id="path42" />
      <path
         d="m 34.598,138.086 c -8.746,-4.227 -14.489,-12.453 -15.602,-22.332 -0.367,-3.262 -0.051,-6.746 0.918,-10.18 0.648,-2.304 2.965,-7.332 3.629,-7.883 0.273,-0.226 0.68,0.008 1.824,1.043 3.848,3.489 9.945,6.317 14.746,6.84 2.996,0.328 2.918,0.235 1.524,1.77 -1.93,2.129 -4.164,5.777 -5.262,8.597 -1.52,3.899 -1.914,6.082 -1.914,10.618 0,4.382 0.383,6.629 1.754,10.289 0.465,1.246 0.769,2.265 0.676,2.265 -0.094,0 -1.125,-0.461 -2.293,-1.027 z"
         style="fill:#009ffe;fill-opacity:1;fill-rule:nonzero;stroke:none"
         transform="matrix(1.22656,0,0,1.22656,5.3453333,13.991506)"
         id="path43" />
      <path
         d="m 43.477,140.781 c -0.286,-0.066 -1.493,-0.312 -2.68,-0.547 l -2.164,-0.422 -0.707,-1.582 c -1.887,-4.21 -2.473,-7.07 -2.442,-11.933 0.02,-3.317 0.125,-4.258 0.707,-6.473 1.18,-4.476 3.579,-8.855 6.649,-12.136 l 1.539,-1.645 2.141,-0.184 c 2.593,-0.222 5.019,-0.711 7.218,-1.457 2.446,-0.828 6.485,-3 8.293,-4.457 l 1.59,-1.281 1.707,0.164 c 0.942,0.09 2.617,0.356 3.731,0.59 l 2.023,0.426 0.668,1.32 c 3.035,5.992 3.527,14.145 1.25,20.836 -1.488,4.371 -4.738,9.25 -7.965,11.945 -5.504,4.598 -10.793,6.664 -17.543,6.856 -1.922,0.054 -3.73,0.047 -4.015,-0.02 z m 21.101,-12.269 c 0.899,-0.625 1.336,-2.039 1.004,-3.239 -0.469,-1.703 -2.734,-2.488 -4.375,-1.523 -0.891,0.527 -1.289,1.352 -1.289,2.656 0,2.332 2.633,3.524 4.66,2.106 z m -16.34,-13.621 c 2.086,-1.754 0.797,-5.032 -1.972,-5.032 -0.969,0 -1.297,0.141 -2.036,0.879 -0.722,0.723 -0.882,1.078 -0.882,1.969 0,2.438 3,3.777 4.89,2.184 z"
         style="fill:#009ffe;fill-opacity:1;fill-rule:nonzero;stroke:none"
         transform="matrix(1.22656,0,0,1.22656,5.3453333,13.991506)"
         id="path44" />
      <path
         d="m 45.938,104.824 c 0,-0.07 0.714,-0.609 1.585,-1.199 2.141,-1.457 5.887,-3.199 8.25,-3.844 2,-0.543 5.692,-1.144 5.879,-0.957 0.203,0.203 -3.547,2.524 -5.742,3.555 -1.226,0.574 -3.301,1.312 -4.613,1.637 -2.359,0.589 -5.359,1.043 -5.359,0.808 z"
         style="fill:#009ffe;fill-opacity:1;fill-rule:nonzero;stroke:none"
         transform="matrix(1.22656,0,0,1.22656,5.3453333,13.991506)"
         id="path45" />
      <path
         d="M 67.555,98.152 C 64.516,97.68 64.668,97.879 66.062,96.148 l 1.235,-1.531 1.035,1.133 c 0.566,0.625 1.246,1.488 1.5,1.926 0.469,0.789 0.469,0.793 -0.129,0.754 -0.328,-0.02 -1.293,-0.145 -2.148,-0.278 z"
         style="fill:#009ffe;fill-opacity:1;fill-rule:nonzero;stroke:none"
         transform="matrix(1.22656,0,0,1.22656,5.3453333,13.991506)"
         id="path46" />
      <path
         d="m 58.273,153.992 c -4.222,-0.801 -8.289,-2.57 -11.613,-5.062 -1.93,-1.442 -5.164,-4.758 -6.402,-6.559 l -0.867,-1.258 0.879,0.157 c 0.484,0.085 2.128,0.296 3.66,0.468 9.566,1.09 19.687,-3.277 25.586,-11.039 3.804,-5.008 5.601,-10.023 5.859,-16.383 0.191,-4.574 -0.367,-8.066 -1.898,-11.89 -0.368,-0.914 -0.606,-1.723 -0.532,-1.797 0.266,-0.27 4.707,2.113 6.625,3.551 1.078,0.812 2.68,2.218 3.551,3.125 1.656,1.715 3.981,4.754 3.981,5.199 0,0.141 -0.543,0.855 -1.207,1.59 -5.247,5.789 -7.946,14.101 -7.145,21.976 0.324,3.215 1.234,6.692 2.414,9.235 l 0.77,1.656 -0.567,0.605 c -1.984,2.11 -7.308,4.918 -11.301,5.957 -3.211,0.836 -8.695,1.051 -11.793,0.469 z"
         style="fill:#009ffe;fill-opacity:1;fill-rule:nonzero;stroke:none"
         transform="matrix(1.22656,0,0,1.22656,5.3453333,13.991506)"
         id="path47" />
      <path
         d="m 81.961,144.559 c -3.172,-7.094 -3.098,-15.329 0.211,-22.922 0.75,-1.727 3.617,-5.992 4.769,-7.098 l 0.922,-0.887 0.625,1.407 c 3.985,9.015 3.141,18.984 -2.293,27 -0.781,1.156 -1.871,2.605 -2.418,3.218 l -0.992,1.121 z"
         style="fill:#009ffe;fill-opacity:1;fill-rule:nonzero;stroke:none"
         transform="matrix(1.22656,0,0,1.22656,5.3453333,13.991506)"
         id="path48" />
      <path
         d="m 101.984,160.605 c -5.66,-1.226 -10.226,-3.691 -14.207,-7.671 -1.781,-1.778 -4.3,-5.094 -4.3,-5.653 0,-0.164 0.468,-0.758 1.046,-1.32 2.282,-2.227 4.797,-6.551 6.02,-10.344 1.148,-3.566 1.344,-4.945 1.316,-9.32 -0.019,-3.59 -0.113,-4.477 -0.699,-6.68 -0.371,-1.398 -1.09,-3.496 -1.598,-4.66 l -0.921,-2.121 0.847,-0.734 c 3.653,-3.161 8.836,-5.504 13.856,-6.262 4.004,-0.602 3.89,-0.68 2.238,1.496 -1.781,2.34 -3.758,6.344 -4.617,9.336 -1.613,5.629 -1.477,11.758 0.39,17.32 3.133,9.328 11.403,16.738 21.024,18.836 1.199,0.262 3.027,1.234 3.031,1.617 0.008,0.391 -3.848,2.903 -6.137,4 -3.675,1.762 -6.699,2.457 -11.203,2.571 -3.019,0.078 -4.211,-0.004 -6.086,-0.411 z"
         style="fill:#009ffe;fill-opacity:1;fill-rule:nonzero;stroke:none"
         transform="matrix(1.22656,0,0,1.22656,5.3453333,13.991506)"
         id="path49" />
      <path
         d="m 118.797,150.668 c -13.836,-5.141 -21.235,-20.875 -16.445,-34.961 1.105,-3.25 3.011,-6.535 5.543,-9.555 l 0.609,-0.73 2.18,0.289 c 2.824,0.375 5.461,1.094 7.722,2.105 l 1.817,0.813 -1.309,1.457 c -3.102,3.457 -5.371,7.699 -6.641,12.414 -0.605,2.246 -0.671,2.969 -0.671,7.035 0,4.067 0.066,4.785 0.671,7.031 1.336,4.969 3.633,9.145 7.067,12.852 0.945,1.023 1.566,1.855 1.375,1.848 -0.192,-0.008 -1.055,-0.274 -1.918,-0.598 z m -10.625,-15.023 c 1.187,-0.497 1.711,-1.336 1.703,-2.739 -0.008,-1.754 -1.105,-2.855 -2.848,-2.855 -1.722,0 -2.839,1.207 -2.839,3.062 0,1.176 0.574,2.051 1.648,2.52 1.035,0.449 1.285,0.453 2.336,0.012 z"
         style="fill:#009ffe;fill-opacity:1;fill-rule:nonzero;stroke:none"
         transform="matrix(1.22656,0,0,1.22656,5.3453333,13.991506)"
         id="path50" />
      <path
         d="m 125.66,152.344 c -1.781,-0.196 -2.43,-0.61 -5.055,-3.242 -5.671,-5.68 -8.441,-12.879 -8.058,-20.969 0.219,-4.688 1.387,-8.606 3.773,-12.676 1.215,-2.066 4.188,-5.777 4.828,-6.023 0.516,-0.2 3.29,1.781 5.629,4.019 3.618,3.453 6.231,7.977 7.645,13.219 0.59,2.195 0.664,2.957 0.656,6.746 -0.008,4.574 -0.301,6.238 -1.793,10.156 -1.133,2.969 -5.144,9.028 -5.93,8.949 -0.14,-0.011 -0.902,-0.093 -1.695,-0.179 z m 4.012,-25.438 c 0.918,-0.418 1.469,-1.371 1.484,-2.566 0.028,-2.028 -1.793,-3.426 -3.707,-2.852 -1.336,0.403 -2.035,1.36 -2.035,2.801 0,0.969 0.141,1.297 0.879,2.035 0.957,0.957 2.117,1.156 3.379,0.582 z"
         style="fill:#009ffe;fill-opacity:1;fill-rule:nonzero;stroke:none"
         transform="matrix(1.22656,0,0,1.22656,5.3453333,13.991506)"
         id="path51" />
      <path
         d="m 130.445,150.719 c 4.266,-5.578 6.414,-13.356 5.633,-20.395 -0.769,-6.914 -3.547,-12.672 -8.43,-17.492 -1.3,-1.281 -3.078,-2.793 -3.949,-3.352 l -1.59,-1.019 1.2,-0.949 c 3.109,-2.457 7.64,-4.504 11.707,-5.285 2.23,-0.426 7.414,-0.575 9.097,-0.258 1.078,0.199 3.867,2.433 5.528,4.422 9.39,11.246 9.05,26.906 -0.809,37.359 -4.73,5.012 -10.855,7.957 -18.066,8.691 l -1.77,0.18 z m 11.594,-19.61 c 1.359,-1.523 0.813,-3.894 -1.078,-4.675 -2.516,-1.043 -4.871,1.746 -3.609,4.281 0.8,1.613 3.402,1.832 4.687,0.394 z"
         style="fill:#009ffe;fill-opacity:1;fill-rule:nonzero;stroke:none"
         transform="matrix(1.22656,0,0,1.22656,5.3453333,13.991506)"
         id="path52" />
      <path
         d="m 118.848,106.863 c -2.356,-1.031 -5.317,-1.836 -7.789,-2.117 l -1.731,-0.195 1.973,-1.551 c 3.5,-2.758 9.726,-5.703 10.48,-4.957 0.231,0.223 0.379,0.191 0.621,-0.133 0.45,-0.609 2.879,-0.996 6.274,-0.996 4.211,0 7.562,0.711 11.285,2.387 1.523,0.687 2.473,1.496 1.754,1.496 -0.137,0 -0.25,-0.117 -0.25,-0.258 0,-0.141 -0.235,-0.258 -0.516,-0.258 -0.285,0 -0.519,0.09 -0.519,0.199 0,0.11 -0.727,0.211 -1.618,0.231 -3.374,0.07 -4.335,0.152 -4.335,0.375 0,0.125 -0.118,0.23 -0.262,0.23 -0.141,0 -0.258,-0.175 -0.258,-0.39 0,-0.606 -0.984,-0.473 -1.082,0.148 -0.063,0.406 -0.523,0.68 -1.973,1.168 -1.043,0.348 -2.613,1 -3.496,1.446 -1.832,0.921 -5.074,3.058 -5.59,3.679 -0.461,0.555 -0.593,0.531 -2.968,-0.504 z m 13.558,-5.777 c 0,-0.27 -0.179,-0.559 -0.398,-0.645 -0.52,-0.199 -0.832,0.594 -0.352,0.895 0.551,0.352 0.75,0.285 0.75,-0.25 z m -1.453,-0.18 c 0.215,-0.558 0.219,-0.551 -0.34,-0.695 -0.547,-0.145 -0.965,0.73 -0.445,0.941 0.508,0.211 0.625,0.176 0.785,-0.246 z m -1.484,-0.738 c -0.219,-0.574 -0.949,-0.504 -0.949,0.09 0,0.547 0.515,0.855 0.878,0.523 0.125,-0.113 0.157,-0.39 0.071,-0.613 z m -1.465,-0.148 c 0,-0.282 -0.168,-0.516 -0.375,-0.516 -0.457,0 -0.75,0.426 -0.531,0.777 0.281,0.453 0.906,0.278 0.906,-0.261 z m -1.344,-0.582 c 0.059,-0.305 -0.078,-0.454 -0.422,-0.454 -0.515,0 -0.926,0.59 -0.625,0.891 0.297,0.297 0.957,0.02 1.047,-0.437 z m -1.406,-0.333 c 0.086,-0.23 -0.016,-0.464 -0.25,-0.55 -0.484,-0.188 -1.012,0.273 -0.77,0.668 0.254,0.41 0.844,0.343 1.02,-0.118 z m -1.481,-1.007 c -0.085,-0.223 -0.277,-0.407 -0.429,-0.407 -0.446,0 -0.625,0.809 -0.235,1.051 0.461,0.285 0.868,-0.113 0.664,-0.644 z"
         style="fill:#009ffe;fill-opacity:1;fill-rule:nonzero;stroke:none"
         transform="matrix(1.22656,0,0,1.22656,5.3453333,13.991506)"
         id="path53" />
      <path
         d="m 137.238,157.211 c -3.48,-0.367 -9.91,-2.477 -9.679,-3.176 0.054,-0.164 0.961,-0.383 2.019,-0.484 7.234,-0.719 11.797,-2.348 16.492,-5.887 13.778,-10.379 15.313,-30.894 3.235,-43.16 -0.922,-0.938 -1.442,-1.637 -1.215,-1.637 0.703,0 4.738,1.789 6.582,2.918 6.547,4.008 11.113,10.457 12.867,18.176 0.52,2.277 0.586,8.437 0.117,10.621 -2.711,12.602 -12.304,21.332 -24.894,22.645 -2.723,0.285 -2.668,0.285 -5.524,-0.016 z"
         style="fill:#009ffe;fill-opacity:1;fill-rule:nonzero;stroke:none"
         transform="matrix(1.22656,0,0,1.22656,5.3453333,13.991506)"
         id="path54" />
    </g>
    <path
       id="path55"
       d="M 0,0 V 170.079"
       style="fill:none;stroke:#000000;stroke-width:0.398;stroke-linecap:butt;stroke-linejoin:miter;stroke-miterlimit:10;stroke-dasharray:none;stroke-opacity:1"
       transform="matrix(1.3333333,0,0,-1.3333333,227.03733,226.772)" />
    <path
       id="path56"
       d="M 0,0 H 170.876"
       style="fill:none;stroke:#000000;stroke-width:0.398;stroke-linecap:butt;stroke-linejoin:miter;stroke-miterlimit:10;stroke-dasharray:none;stroke-opacity:1"
       transform="matrix(1.3333333,0,0,-1.3333333,-0.53066667,227.03733)" />
  </g>
</svg>
