<?xml version="1.0" encoding="UTF-8" standalone="no"?>
<!-- Created with Inkscape (http://www.inkscape.org/) -->

<svg
   version="1.1"
   id="svg1"
   width="226.772"
   height="226.772"
   viewBox="0 0 226.772 226.772"
   sodipodi:docname="Eide2023.svg"
   inkscape:version="1.4.3 (0d15f75, 2025-12-25)"
   xmlns:inkscape="http://www.inkscape.org/namespaces/inkscape"
   xmlns:sodipodi="http://sodipodi.sourceforge.net/DTD/sodipodi-0.dtd"
   xmlns="http://www.w3.org/2000/svg"
   xmlns:svg="http://www.w3.org/2000/svg">
  <defs
     id="defs1">
    <clipPath
       clipPathUnits="userSpaceOnUse"
       id="clipPath3">
      <path
         d="M -1.0799603e-7,0 H 720.00001 V 720.00001 H -1.0799603e-7 Z"
         id="path3" />
    </clipPath>
    <clipPath
       clipPathUnits="userSpaceOnUse"
       id="clipPath4">
      <path
         d="M 18.108741,13.303018 H 199.13763 V 214.20856 H 18.108741 Z"
         id="path4" />
    </clipPath>
    <clipPath
       clipPathUnits="userSpaceOnUse"
       id="clipPath5">
      <path
         d="M -1.0799603e-7,0 H 720.00001 V 720.00001 H -1.0799603e-7 Z"
         id="path5" />
    </clipPath>
    <clipPath
       clipPathUnits="userSpaceOnUse"
       id="clipPath6">
      <path
         d="m 212.4841,13.303018 h 0.0182 V 214.20856 h -0.0182 z"
         id="path6" />
    </clipPath>
  </defs>
  <sodipodi:namedview
     id="namedview1"
     pagecolor="#ffffff"
     bordercolor="#000000"
     borderopacity="0.25"
     inkscape:showpageshadow="2"
     inkscape:pageopacity="0.0"
     inkscape:pagecheckerboard="0"
     inkscape:deskcolor="#d1d1d1"
     inkscape:zoom="5.1461378"
     inkscape:cx="113.386"
     inkscape:cy="113.386"
     inkscape:window-width="2560"
     inkscape:window-height="1369"
     inkscape:window-x="-8"
     inkscape:window-y="-8"
     inkscape:window-maximized="1"
     inkscape:current-layer="g1">
    <inkscape:page
       x="0"
       y="0"
       inkscape:label="1"
       id="page1"
       width="226.772"
       height="226.772"
       margin="0"
       bleed="0" />
  </sodipodi:namedview>
  <g
     id="g1"
     inkscape:groupmode="layer"
     inkscape:label="1">
    <path
       id="path1"
       d="M 0,0 H 170.876"
       style="fill:none;stroke:#000000;stroke-width:0.398;stroke-linecap:butt;stroke-linejoin:miter;stroke-miterlimit:10;stroke-dasharray:none;stroke-opacity:1"
       transform="matrix(1.3333333,0,0,-1.3333333,-0.53066667,-0.26533333)" />
    <path
       id="path2"
       d="M 0,0 V 170.079"
       style="fill:none;stroke:#000000;stroke-width:0.398;stroke-linecap:butt;stroke-linejoin:miter;stroke-miterlimit:10;stroke-dasharray:none;stroke-opacity:1"
       transform="matrix(1.3333333,0,0,-1.3333333,-0.26533333,226.772)" />
    <g
       id="g151">
      <path
         d="M 0,0 H 720 V 720 H 0 Z"
         style="fill:#ffffff;fill-opacity:1;fill-rule:nonzero;stroke:none"
         transform="matrix(0.30865333,0,0,0.30865333,2.3226667,2.2736)"
         id="path7" />
      <path
         d="m 51.145,35.734 h 586.512 v 650.91 H 51.145 Z"
         style="fill:#ffffff;fill-opacity:1;fill-rule:nonzero;stroke:none"
         transform="matrix(0.30865333,0,0,0.30865333,2.3226667,2.2736)"
         id="path8" />
      <path
         d="m 343.73,405.805 c 22.278,-29.657 38.708,-64.676 45.672,-97.344 6.965,-32.672 3.895,-60.324 -8.535,-76.867 -12.429,-16.547 -33.203,-20.633 -57.742,-11.364 -24.543,9.27 -50.848,31.141 -73.125,60.797 -22.277,29.657 -38.707,64.676 -45.672,97.344 -6.965,32.668 -3.894,60.32 8.535,76.867 12.43,16.547 33.203,20.633 57.742,11.364 24.543,-9.27 50.848,-31.145 73.125,-60.797 z"
         style="fill:#ffad7a;fill-opacity:1;fill-rule:nonzero;stroke:none"
         transform="matrix(0.30865333,0,0,0.30865333,2.3226667,2.2736)"
         opacity="0.2"
         id="path9" />
      <path
         d="m 471.789,603.746 c 47.125,-31.558 75.762,-72.922 79.606,-114.98 3.843,-42.055 -17.418,-81.371 -59.106,-109.289 -41.687,-27.918 -100.394,-42.157 -163.191,-39.582 -62.801,2.574 -124.563,21.753 -171.688,53.312 -47.121,31.559 -75.762,72.922 -79.605,114.977 -3.844,42.054 17.418,81.371 59.105,109.289 41.688,27.918 100.395,42.16 163.195,39.586 62.797,-2.579 124.559,-21.754 171.684,-53.313 z"
         style="fill:#42c292;fill-opacity:1;fill-rule:nonzero;stroke:none"
         transform="matrix(0.30865333,0,0,0.30865333,2.3226667,2.2736)"
         opacity="0.2"
         id="path10" />
      <path
         d="m 300.773,522.781 c 10.012,-57.554 16.352,-131.519 17.622,-205.613 1.269,-74.09 -2.633,-142.258 -10.848,-189.484 -8.219,-47.231 -20.078,-69.664 -32.969,-62.364 -12.89,7.301 -25.758,43.739 -35.769,101.293 -10.012,57.551 -16.352,131.52 -17.625,205.61 -1.27,74.093 2.632,142.261 10.851,189.488 8.215,47.23 20.074,69.664 32.965,62.363 12.891,-7.301 25.758,-43.742 35.773,-101.293 z"
         style="fill:#448fc2;fill-opacity:1;fill-rule:nonzero;stroke:none"
         transform="matrix(0.30865333,0,0,0.30865333,2.3226667,2.2736)"
         opacity="0.2"
         id="path11" />
      <g
         clip-path="url(#clipPath4)"
         id="g13">
        <g
           id="g12">
          <path
             d="m 241.52,570.281 c 0.796,0 1.558,-0.316 2.121,-0.879 0.562,-0.562 0.879,-1.324 0.879,-2.121 0,-0.797 -0.317,-1.558 -0.879,-2.121 -0.563,-0.562 -1.325,-0.879 -2.121,-0.879 -0.797,0 -1.559,0.317 -2.122,0.879 -0.562,0.563 -0.878,1.324 -0.878,2.121 0,0.797 0.316,1.559 0.878,2.121 0.563,0.563 1.325,0.879 2.122,0.879 z"
             style="fill:#448fc2;fill-opacity:1;fill-rule:nonzero;stroke:#448fc2;stroke-width:1;stroke-linecap:butt;stroke-linejoin:round;stroke-miterlimit:4;stroke-dasharray:none;stroke-opacity:1"
             transform="matrix(0.30865333,0,0,0.30865333,2.3226667,2.2736)"
             clip-path="url(#clipPath3)"
             id="path12" />
        </g>
      </g>
      <path
         d="m 315.801,427.34 c 0.793,0 1.558,-0.317 2.121,-0.879 0.562,-0.563 0.879,-1.328 0.879,-2.121 0,-0.797 -0.317,-1.559 -0.879,-2.121 -0.563,-0.567 -1.328,-0.879 -2.121,-0.879 -0.797,0 -1.563,0.312 -2.125,0.879 -0.563,0.562 -0.875,1.324 -0.875,2.121 0,0.793 0.312,1.558 0.875,2.121 0.562,0.562 1.328,0.879 2.125,0.879 z"
         style="fill:#448fc2;fill-opacity:1;fill-rule:nonzero;stroke:#448fc2;stroke-width:1;stroke-linecap:butt;stroke-linejoin:round;stroke-miterlimit:4;stroke-dasharray:none;stroke-opacity:1"
         transform="matrix(0.30865333,0,0,0.30865333,2.3226667,2.2736)"
         opacity="1"
         id="path13" />
      <path
         d="m 260.891,193.793 c 0.797,0 1.558,-0.316 2.121,-0.879 0.562,-0.562 0.879,-1.328 0.879,-2.121 0,-0.797 -0.317,-1.563 -0.879,-2.125 -0.563,-0.563 -1.324,-0.875 -2.121,-0.875 -0.797,0 -1.559,0.312 -2.121,0.875 -0.563,0.562 -0.879,1.328 -0.879,2.125 0,0.793 0.316,1.559 0.879,2.121 0.562,0.563 1.324,0.879 2.121,0.879 z"
         style="fill:#448fc2;fill-opacity:1;fill-rule:nonzero;stroke:#448fc2;stroke-width:1;stroke-linecap:butt;stroke-linejoin:round;stroke-miterlimit:4;stroke-dasharray:none;stroke-opacity:1"
         transform="matrix(0.30865333,0,0,0.30865333,2.3226667,2.2736)"
         opacity="1"
         id="path14" />
      <path
         d="m 247.094,425.941 c 0.793,0 1.558,-0.316 2.121,-0.879 0.562,-0.562 0.879,-1.324 0.879,-2.121 0,-0.796 -0.317,-1.558 -0.879,-2.121 -0.563,-0.562 -1.328,-0.879 -2.121,-0.879 -0.797,0 -1.563,0.317 -2.125,0.879 -0.563,0.563 -0.875,1.325 -0.875,2.121 0,0.797 0.312,1.559 0.875,2.121 0.562,0.563 1.328,0.879 2.125,0.879 z"
         style="fill:#448fc2;fill-opacity:1;fill-rule:nonzero;stroke:#448fc2;stroke-width:1;stroke-linecap:butt;stroke-linejoin:round;stroke-miterlimit:4;stroke-dasharray:none;stroke-opacity:1"
         transform="matrix(0.30865333,0,0,0.30865333,2.3226667,2.2736)"
         opacity="1"
         id="path15" />
      <path
         d="m 284.121,295.305 c 0.793,0 1.559,-0.317 2.121,-0.879 0.563,-0.563 0.879,-1.324 0.879,-2.121 0,-0.797 -0.316,-1.559 -0.879,-2.121 -0.562,-0.563 -1.328,-0.879 -2.121,-0.879 -0.797,0 -1.559,0.316 -2.121,0.879 -0.562,0.562 -0.879,1.324 -0.879,2.121 0,0.797 0.317,1.558 0.879,2.121 0.562,0.562 1.324,0.879 2.121,0.879 z"
         style="fill:#448fc2;fill-opacity:1;fill-rule:nonzero;stroke:#448fc2;stroke-width:1;stroke-linecap:butt;stroke-linejoin:round;stroke-miterlimit:4;stroke-dasharray:none;stroke-opacity:1"
         transform="matrix(0.30865333,0,0,0.30865333,2.3226667,2.2736)"
         opacity="1"
         id="path16" />
      <path
         d="m 267.352,359.301 c 0.796,0 1.558,-0.317 2.121,-0.879 0.562,-0.563 0.879,-1.328 0.879,-2.121 0,-0.797 -0.317,-1.559 -0.879,-2.121 -0.563,-0.563 -1.325,-0.879 -2.121,-0.879 -0.797,0 -1.559,0.316 -2.122,0.879 -0.562,0.562 -0.878,1.324 -0.878,2.121 0,0.793 0.316,1.558 0.878,2.121 0.563,0.562 1.325,0.879 2.122,0.879 z"
         style="fill:#448fc2;fill-opacity:1;fill-rule:nonzero;stroke:#448fc2;stroke-width:1;stroke-linecap:butt;stroke-linejoin:round;stroke-miterlimit:4;stroke-dasharray:none;stroke-opacity:1"
         transform="matrix(0.30865333,0,0,0.30865333,2.3226667,2.2736)"
         opacity="1"
         id="path17" />
      <path
         d="m 271.758,161.918 c 0.797,0 1.558,-0.313 2.121,-0.879 0.562,-0.562 0.879,-1.324 0.879,-2.121 0,-0.793 -0.317,-1.559 -0.879,-2.121 -0.563,-0.563 -1.324,-0.879 -2.121,-0.879 -0.793,0 -1.559,0.316 -2.121,0.879 -0.563,0.562 -0.879,1.328 -0.879,2.121 0,0.797 0.316,1.559 0.879,2.121 0.562,0.566 1.328,0.879 2.121,0.879 z"
         style="fill:#448fc2;fill-opacity:1;fill-rule:nonzero;stroke:#448fc2;stroke-width:1;stroke-linecap:butt;stroke-linejoin:round;stroke-miterlimit:4;stroke-dasharray:none;stroke-opacity:1"
         transform="matrix(0.30865333,0,0,0.30865333,2.3226667,2.2736)"
         opacity="1"
         id="path18" />
      <path
         d="m 249.531,405.469 c 0.797,0 1.563,-0.317 2.125,-0.879 0.563,-0.563 0.875,-1.324 0.875,-2.121 0,-0.793 -0.312,-1.559 -0.875,-2.121 -0.562,-0.563 -1.328,-0.879 -2.125,-0.879 -0.793,0 -1.558,0.316 -2.121,0.879 -0.562,0.562 -0.879,1.328 -0.879,2.121 0,0.797 0.317,1.558 0.879,2.121 0.563,0.562 1.328,0.879 2.121,0.879 z"
         style="fill:#ffad7a;fill-opacity:1;fill-rule:nonzero;stroke:#ffad7a;stroke-width:1;stroke-linecap:butt;stroke-linejoin:round;stroke-miterlimit:4;stroke-dasharray:none;stroke-opacity:1"
         transform="matrix(0.30865333,0,0,0.30865333,2.3226667,2.2736)"
         opacity="1"
         id="path19" />
      <path
         d="m 289.168,359.477 c 0.793,0 1.559,-0.313 2.121,-0.875 0.563,-0.567 0.879,-1.329 0.879,-2.125 0,-0.793 -0.316,-1.559 -0.879,-2.122 -0.562,-0.562 -1.328,-0.878 -2.121,-0.878 -0.797,0 -1.559,0.316 -2.125,0.878 -0.563,0.563 -0.875,1.329 -0.875,2.122 0,0.796 0.312,1.558 0.875,2.125 0.566,0.562 1.328,0.875 2.125,0.875 z"
         style="fill:#ffad7a;fill-opacity:1;fill-rule:nonzero;stroke:#ffad7a;stroke-width:1;stroke-linecap:butt;stroke-linejoin:round;stroke-miterlimit:4;stroke-dasharray:none;stroke-opacity:1"
         transform="matrix(0.30865333,0,0,0.30865333,2.3226667,2.2736)"
         opacity="1"
         id="path20" />
      <path
         d="m 323.199,208.109 c 0.797,0 1.559,-0.316 2.121,-0.879 0.563,-0.562 0.879,-1.324 0.879,-2.121 0,-0.793 -0.316,-1.558 -0.879,-2.121 -0.562,-0.562 -1.324,-0.879 -2.121,-0.879 -0.797,0 -1.558,0.317 -2.121,0.879 -0.562,0.563 -0.879,1.328 -0.879,2.121 0,0.797 0.317,1.559 0.879,2.121 0.563,0.563 1.324,0.879 2.121,0.879 z"
         style="fill:#ffad7a;fill-opacity:1;fill-rule:nonzero;stroke:#ffad7a;stroke-width:1;stroke-linecap:butt;stroke-linejoin:round;stroke-miterlimit:4;stroke-dasharray:none;stroke-opacity:1"
         transform="matrix(0.30865333,0,0,0.30865333,2.3226667,2.2736)"
         opacity="1"
         id="path21" />
      <path
         d="m 248.469,357.32 c 0.793,0 1.558,-0.312 2.121,-0.875 0.562,-0.562 0.879,-1.328 0.879,-2.125 0,-0.793 -0.317,-1.558 -0.879,-2.121 -0.563,-0.562 -1.328,-0.879 -2.121,-0.879 -0.797,0 -1.559,0.317 -2.121,0.879 -0.563,0.563 -0.879,1.328 -0.879,2.121 0,0.797 0.316,1.563 0.879,2.125 0.562,0.563 1.324,0.875 2.121,0.875 z"
         style="fill:#ffad7a;fill-opacity:1;fill-rule:nonzero;stroke:#ffad7a;stroke-width:1;stroke-linecap:butt;stroke-linejoin:round;stroke-miterlimit:4;stroke-dasharray:none;stroke-opacity:1"
         transform="matrix(0.30865333,0,0,0.30865333,2.3226667,2.2736)"
         opacity="1"
         id="path22" />
      <path
         d="m 252.383,365.621 c 0.797,0 1.558,-0.316 2.121,-0.879 0.562,-0.562 0.879,-1.324 0.879,-2.121 0,-0.797 -0.317,-1.559 -0.879,-2.121 -0.563,-0.562 -1.324,-0.879 -2.121,-0.879 -0.793,0 -1.559,0.317 -2.121,0.879 -0.563,0.562 -0.879,1.324 -0.879,2.121 0,0.797 0.316,1.559 0.879,2.121 0.562,0.563 1.328,0.879 2.121,0.879 z"
         style="fill:#ffad7a;fill-opacity:1;fill-rule:nonzero;stroke:#ffad7a;stroke-width:1;stroke-linecap:butt;stroke-linejoin:round;stroke-miterlimit:4;stroke-dasharray:none;stroke-opacity:1"
         transform="matrix(0.30865333,0,0,0.30865333,2.3226667,2.2736)"
         opacity="1"
         id="path23" />
      <path
         d="m 285.867,416.641 c 0.797,0 1.559,-0.317 2.121,-0.879 0.563,-0.563 0.879,-1.324 0.879,-2.121 0,-0.797 -0.316,-1.559 -0.879,-2.121 -0.562,-0.563 -1.324,-0.879 -2.121,-0.879 -0.797,0 -1.558,0.316 -2.121,0.879 -0.562,0.562 -0.879,1.324 -0.879,2.121 0,0.797 0.317,1.558 0.879,2.121 0.563,0.562 1.324,0.879 2.121,0.879 z"
         style="fill:#ffad7a;fill-opacity:1;fill-rule:nonzero;stroke:#ffad7a;stroke-width:1;stroke-linecap:butt;stroke-linejoin:round;stroke-miterlimit:4;stroke-dasharray:none;stroke-opacity:1"
         transform="matrix(0.30865333,0,0,0.30865333,2.3226667,2.2736)"
         opacity="1"
         id="path24" />
      <path
         d="m 345.316,352.668 c 0.797,0 1.559,-0.316 2.122,-0.879 0.562,-0.562 0.878,-1.328 0.878,-2.121 0,-0.797 -0.316,-1.559 -0.878,-2.121 -0.563,-0.563 -1.325,-0.879 -2.122,-0.879 -0.796,0 -1.558,0.316 -2.121,0.879 -0.562,0.562 -0.879,1.324 -0.879,2.121 0,0.793 0.317,1.559 0.879,2.121 0.563,0.563 1.325,0.879 2.121,0.879 z"
         style="fill:#ffad7a;fill-opacity:1;fill-rule:nonzero;stroke:#ffad7a;stroke-width:1;stroke-linecap:butt;stroke-linejoin:round;stroke-miterlimit:4;stroke-dasharray:none;stroke-opacity:1"
         transform="matrix(0.30865333,0,0,0.30865333,2.3226667,2.2736)"
         opacity="1"
         id="path25" />
      <path
         d="m 380.992,306.012 c 0.797,0 1.559,-0.313 2.121,-0.879 0.563,-0.563 0.879,-1.324 0.879,-2.121 0,-0.793 -0.316,-1.559 -0.879,-2.121 -0.562,-0.563 -1.324,-0.879 -2.121,-0.879 -0.797,0 -1.558,0.316 -2.121,0.879 -0.562,0.562 -0.879,1.328 -0.879,2.121 0,0.797 0.317,1.558 0.879,2.121 0.563,0.566 1.324,0.879 2.121,0.879 z"
         style="fill:#ffad7a;fill-opacity:1;fill-rule:nonzero;stroke:#ffad7a;stroke-width:1;stroke-linecap:butt;stroke-linejoin:round;stroke-miterlimit:4;stroke-dasharray:none;stroke-opacity:1"
         transform="matrix(0.30865333,0,0,0.30865333,2.3226667,2.2736)"
         opacity="1"
         id="path26" />
      <path
         d="m 610.996,477.145 c 0.797,0 1.563,-0.317 2.125,-0.879 0.563,-0.563 0.875,-1.325 0.875,-2.121 0,-0.793 -0.312,-1.559 -0.875,-2.122 -0.562,-0.562 -1.328,-0.878 -2.125,-0.878 -0.793,0 -1.558,0.316 -2.121,0.878 -0.563,0.563 -0.879,1.329 -0.879,2.122 0,0.796 0.316,1.558 0.879,2.121 0.563,0.562 1.328,0.879 2.121,0.879 z"
         style="fill:#42c292;fill-opacity:1;fill-rule:nonzero;stroke:#42c292;stroke-width:1;stroke-linecap:butt;stroke-linejoin:round;stroke-miterlimit:4;stroke-dasharray:none;stroke-opacity:1"
         transform="matrix(0.30865333,0,0,0.30865333,2.3226667,2.2736)"
         opacity="1"
         id="path27" />
      <path
         d="m 275.68,422.168 c 0.797,0 1.558,-0.313 2.121,-0.875 0.562,-0.563 0.879,-1.328 0.879,-2.125 0,-0.793 -0.317,-1.559 -0.879,-2.121 -0.563,-0.563 -1.324,-0.879 -2.121,-0.879 -0.797,0 -1.559,0.316 -2.121,0.879 -0.563,0.562 -0.879,1.328 -0.879,2.121 0,0.797 0.316,1.562 0.879,2.125 0.562,0.562 1.324,0.875 2.121,0.875 z"
         style="fill:#42c292;fill-opacity:1;fill-rule:nonzero;stroke:#42c292;stroke-width:1;stroke-linecap:butt;stroke-linejoin:round;stroke-miterlimit:4;stroke-dasharray:none;stroke-opacity:1"
         transform="matrix(0.30865333,0,0,0.30865333,2.3226667,2.2736)"
         opacity="1"
         id="path28" />
      <path
         d="m 304.465,431.785 c 0.797,0 1.558,-0.316 2.121,-0.879 0.562,-0.562 0.879,-1.324 0.879,-2.121 0,-0.797 -0.317,-1.558 -0.879,-2.121 -0.563,-0.562 -1.324,-0.879 -2.121,-0.879 -0.793,0 -1.559,0.317 -2.121,0.879 -0.563,0.563 -0.879,1.324 -0.879,2.121 0,0.797 0.316,1.559 0.879,2.121 0.562,0.563 1.328,0.879 2.121,0.879 z"
         style="fill:#42c292;fill-opacity:1;fill-rule:nonzero;stroke:#42c292;stroke-width:1;stroke-linecap:butt;stroke-linejoin:round;stroke-miterlimit:4;stroke-dasharray:none;stroke-opacity:1"
         transform="matrix(0.30865333,0,0,0.30865333,2.3226667,2.2736)"
         opacity="1"
         id="path29" />
      <path
         d="m 286.293,620.496 c 0.797,0 1.559,-0.316 2.125,-0.879 0.562,-0.562 0.875,-1.324 0.875,-2.121 0,-0.797 -0.313,-1.558 -0.875,-2.121 -0.566,-0.563 -1.328,-0.879 -2.125,-0.879 -0.793,0 -1.559,0.316 -2.121,0.879 -0.563,0.563 -0.879,1.324 -0.879,2.121 0,0.797 0.316,1.559 0.879,2.121 0.562,0.563 1.328,0.879 2.121,0.879 z"
         style="fill:#42c292;fill-opacity:1;fill-rule:nonzero;stroke:#42c292;stroke-width:1;stroke-linecap:butt;stroke-linejoin:round;stroke-miterlimit:4;stroke-dasharray:none;stroke-opacity:1"
         transform="matrix(0.30865333,0,0,0.30865333,2.3226667,2.2736)"
         opacity="1"
         id="path30" />
      <path
         d="m 264.871,447.09 c 0.793,0 1.559,-0.317 2.121,-0.879 0.563,-0.563 0.879,-1.324 0.879,-2.121 0,-0.797 -0.316,-1.559 -0.879,-2.121 -0.562,-0.563 -1.328,-0.879 -2.121,-0.879 -0.797,0 -1.559,0.316 -2.121,0.879 -0.562,0.562 -0.879,1.324 -0.879,2.121 0,0.797 0.317,1.558 0.879,2.121 0.562,0.562 1.324,0.879 2.121,0.879 z"
         style="fill:#42c292;fill-opacity:1;fill-rule:nonzero;stroke:#42c292;stroke-width:1;stroke-linecap:butt;stroke-linejoin:round;stroke-miterlimit:4;stroke-dasharray:none;stroke-opacity:1"
         transform="matrix(0.30865333,0,0,0.30865333,2.3226667,2.2736)"
         opacity="1"
         id="path31" />
      <path
         d="m 269.117,618.352 c 0.797,0 1.559,-0.317 2.121,-0.879 0.563,-0.563 0.879,-1.328 0.879,-2.121 0,-0.797 -0.316,-1.559 -0.879,-2.122 -0.562,-0.562 -1.324,-0.878 -2.121,-0.878 -0.797,0 -1.558,0.316 -2.121,0.878 -0.562,0.563 -0.879,1.325 -0.879,2.122 0,0.793 0.317,1.558 0.879,2.121 0.563,0.562 1.324,0.879 2.121,0.879 z"
         style="fill:#42c292;fill-opacity:1;fill-rule:nonzero;stroke:#42c292;stroke-width:1;stroke-linecap:butt;stroke-linejoin:round;stroke-miterlimit:4;stroke-dasharray:none;stroke-opacity:1"
         transform="matrix(0.30865333,0,0,0.30865333,2.3226667,2.2736)"
         opacity="1"
         id="path32" />
      <path
         d="m 258.887,538.855 c 0.797,0 1.558,-0.312 2.121,-0.878 0.562,-0.563 0.879,-1.325 0.879,-2.122 0,-0.793 -0.317,-1.558 -0.879,-2.121 -0.563,-0.562 -1.324,-0.879 -2.121,-0.879 -0.793,0 -1.559,0.317 -2.121,0.879 -0.563,0.563 -0.879,1.328 -0.879,2.121 0,0.797 0.316,1.559 0.879,2.122 0.562,0.566 1.328,0.878 2.121,0.878 z"
         style="fill:#42c292;fill-opacity:1;fill-rule:nonzero;stroke:#42c292;stroke-width:1;stroke-linecap:butt;stroke-linejoin:round;stroke-miterlimit:4;stroke-dasharray:none;stroke-opacity:1"
         transform="matrix(0.30865333,0,0,0.30865333,2.3226667,2.2736)"
         opacity="1"
         id="path33" />
      <path
         d="m 246.488,455.91 c 0.797,0 1.559,-0.316 2.121,-0.879 0.567,-0.562 0.879,-1.328 0.879,-2.121 0,-0.797 -0.312,-1.558 -0.879,-2.121 -0.562,-0.562 -1.324,-0.879 -2.121,-0.879 -0.793,0 -1.558,0.317 -2.121,0.879 -0.562,0.563 -0.879,1.324 -0.879,2.121 0,0.793 0.317,1.559 0.879,2.121 0.563,0.563 1.328,0.879 2.121,0.879 z"
         style="fill:#42c292;fill-opacity:1;fill-rule:nonzero;stroke:#42c292;stroke-width:1;stroke-linecap:butt;stroke-linejoin:round;stroke-miterlimit:4;stroke-dasharray:none;stroke-opacity:1"
         transform="matrix(0.30865333,0,0,0.30865333,2.3226667,2.2736)"
         opacity="1"
         id="path34" />
      <path
         d="m 169.637,686.645 v 3.5"
         style="fill:none;stroke:#000000;stroke-width:0.8;stroke-linecap:butt;stroke-linejoin:round;stroke-miterlimit:4;stroke-dasharray:none;stroke-opacity:1"
         transform="matrix(0.30865333,0,0,0.30865333,2.3226667,2.2736)"
         id="path35" />
      <path
         d="m 156.965,697.691 h 6.258 v 0.832 h -6.258 z"
         style="fill:#000000;fill-opacity:1;fill-rule:nonzero;stroke:none"
         transform="matrix(0.30865333,0,0,0.30865333,2.3226667,2.2736)"
         id="path36" />
      <path
         d="m 165.523,700.414 h 1.614 v -5.562 l -1.754,0.351 v -0.898 l 1.742,-0.352 h 0.988 v 6.461 h 1.61 v 0.828 h -4.2 z"
         style="fill:#000000;fill-opacity:1;fill-rule:nonzero;stroke:none"
         transform="matrix(0.30865333,0,0,0.30865333,2.3226667,2.2736)"
         id="path37" />
      <path
         d="m 173.824,694.602 c -0.508,0 -0.89,0.25 -1.144,0.75 -0.258,0.5 -0.383,1.25 -0.383,2.253 0,0.997 0.125,1.747 0.383,2.247 0.254,0.5 0.636,0.75 1.144,0.75 0.512,0 0.895,-0.25 1.149,-0.75 0.257,-0.5 0.386,-1.25 0.386,-2.247 0,-1.003 -0.129,-1.753 -0.386,-2.253 -0.254,-0.5 -0.637,-0.75 -1.149,-0.75 z m 0,-0.782 c 0.817,0 1.442,0.325 1.871,0.969 0.434,0.649 0.649,1.586 0.649,2.816 0,1.227 -0.215,2.165 -0.649,2.809 -0.429,0.648 -1.054,0.969 -1.871,0.969 -0.816,0 -1.441,-0.321 -1.871,-0.969 -0.433,-0.644 -0.648,-1.582 -0.648,-2.809 0,-1.23 0.215,-2.167 0.648,-2.816 0.43,-0.644 1.055,-0.969 1.871,-0.969 z"
         style="fill:#000000;fill-opacity:1;fill-rule:nonzero;stroke:none"
         transform="matrix(0.30865333,0,0,0.30865333,2.3226667,2.2736)"
         id="path38" />
      <path
         d="m 180.188,694.602 c -0.508,0 -0.891,0.25 -1.149,0.75 -0.254,0.5 -0.383,1.25 -0.383,2.253 0,0.997 0.129,1.747 0.383,2.247 0.258,0.5 0.641,0.75 1.149,0.75 0.511,0 0.894,-0.25 1.148,-0.75 0.258,-0.5 0.383,-1.25 0.383,-2.247 0,-1.003 -0.125,-1.753 -0.383,-2.253 -0.254,-0.5 -0.637,-0.75 -1.148,-0.75 z m 0,-0.782 c 0.816,0 1.441,0.325 1.871,0.969 0.433,0.649 0.648,1.586 0.648,2.816 0,1.227 -0.215,2.165 -0.648,2.809 -0.43,0.648 -1.055,0.969 -1.871,0.969 -0.817,0 -1.442,-0.321 -1.876,-0.969 -0.429,-0.644 -0.644,-1.582 -0.644,-2.809 0,-1.23 0.215,-2.167 0.644,-2.816 0.434,-0.644 1.059,-0.969 1.876,-0.969 z"
         style="fill:#000000;fill-opacity:1;fill-rule:nonzero;stroke:none"
         transform="matrix(0.30865333,0,0,0.30865333,2.3226667,2.2736)"
         id="path39" />
      <path
         d="m 294.793,686.645 v 3.5"
         style="fill:none;stroke:#000000;stroke-width:0.8;stroke-linecap:butt;stroke-linejoin:round;stroke-miterlimit:4;stroke-dasharray:none;stroke-opacity:1"
         transform="matrix(0.30865333,0,0,0.30865333,2.3226667,2.2736)"
         id="path40" />
      <path
         d="m 294.789,694.602 c -0.504,0 -0.887,0.25 -1.144,0.75 -0.254,0.5 -0.383,1.25 -0.383,2.253 0,0.997 0.129,1.747 0.383,2.247 0.257,0.5 0.64,0.75 1.144,0.75 0.512,0 0.899,-0.25 1.152,-0.75 0.254,-0.5 0.383,-1.25 0.383,-2.247 0,-1.003 -0.129,-1.753 -0.383,-2.253 -0.253,-0.5 -0.64,-0.75 -1.152,-0.75 z m 0,-0.782 c 0.82,0 1.445,0.325 1.875,0.969 0.43,0.649 0.648,1.586 0.648,2.816 0,1.227 -0.218,2.165 -0.648,2.809 -0.43,0.648 -1.055,0.969 -1.875,0.969 -0.816,0 -1.437,-0.321 -1.871,-0.969 -0.43,-0.644 -0.645,-1.582 -0.645,-2.809 0,-1.23 0.215,-2.167 0.645,-2.816 0.434,-0.644 1.055,-0.969 1.871,-0.969 z"
         style="fill:#000000;fill-opacity:1;fill-rule:nonzero;stroke:none"
         transform="matrix(0.30865333,0,0,0.30865333,2.3226667,2.2736)"
         id="path41" />
      <path
         d="m 419.949,686.645 v 3.5"
         style="fill:none;stroke:#000000;stroke-width:0.8;stroke-linecap:butt;stroke-linejoin:round;stroke-miterlimit:4;stroke-dasharray:none;stroke-opacity:1"
         transform="matrix(0.30865333,0,0,0.30865333,2.3226667,2.2736)"
         id="path42" />
      <path
         d="m 411.648,700.414 h 1.61 v -5.562 l -1.754,0.351 v -0.898 l 1.746,-0.352 h 0.984 v 6.461 h 1.61 v 0.828 h -4.196 z"
         style="fill:#000000;fill-opacity:1;fill-rule:nonzero;stroke:none"
         transform="matrix(0.30865333,0,0,0.30865333,2.3226667,2.2736)"
         id="path43" />
      <path
         d="m 419.945,694.602 c -0.507,0 -0.886,0.25 -1.144,0.75 -0.254,0.5 -0.383,1.25 -0.383,2.253 0,0.997 0.129,1.747 0.383,2.247 0.258,0.5 0.637,0.75 1.144,0.75 0.512,0 0.895,-0.25 1.153,-0.75 0.254,-0.5 0.382,-1.25 0.382,-2.247 0,-1.003 -0.128,-1.753 -0.382,-2.253 -0.258,-0.5 -0.641,-0.75 -1.153,-0.75 z m 0,-0.782 c 0.821,0 1.446,0.325 1.875,0.969 0.43,0.649 0.649,1.586 0.649,2.816 0,1.227 -0.219,2.165 -0.649,2.809 -0.429,0.648 -1.054,0.969 -1.875,0.969 -0.816,0 -1.437,-0.321 -1.871,-0.969 -0.429,-0.644 -0.644,-1.582 -0.644,-2.809 0,-1.23 0.215,-2.167 0.644,-2.816 0.434,-0.644 1.055,-0.969 1.871,-0.969 z"
         style="fill:#000000;fill-opacity:1;fill-rule:nonzero;stroke:none"
         transform="matrix(0.30865333,0,0,0.30865333,2.3226667,2.2736)"
         id="path44" />
      <path
         d="m 426.309,694.602 c -0.508,0 -0.891,0.25 -1.145,0.75 -0.254,0.5 -0.383,1.25 -0.383,2.253 0,0.997 0.129,1.747 0.383,2.247 0.254,0.5 0.637,0.75 1.145,0.75 0.511,0 0.894,-0.25 1.148,-0.75 0.258,-0.5 0.387,-1.25 0.387,-2.247 0,-1.003 -0.129,-1.753 -0.387,-2.253 -0.254,-0.5 -0.637,-0.75 -1.148,-0.75 z m 0,-0.782 c 0.816,0 1.441,0.325 1.875,0.969 0.429,0.649 0.644,1.586 0.644,2.816 0,1.227 -0.215,2.165 -0.644,2.809 -0.434,0.648 -1.059,0.969 -1.875,0.969 -0.817,0 -1.442,-0.321 -1.871,-0.969 -0.434,-0.644 -0.649,-1.582 -0.649,-2.809 0,-1.23 0.215,-2.167 0.649,-2.816 0.429,-0.644 1.054,-0.969 1.871,-0.969 z"
         style="fill:#000000;fill-opacity:1;fill-rule:nonzero;stroke:none"
         transform="matrix(0.30865333,0,0,0.30865333,2.3226667,2.2736)"
         id="path45" />
      <path
         d="m 545.105,686.645 v 3.5"
         style="fill:none;stroke:#000000;stroke-width:0.8;stroke-linecap:butt;stroke-linejoin:round;stroke-miterlimit:4;stroke-dasharray:none;stroke-opacity:1"
         transform="matrix(0.30865333,0,0,0.30865333,2.3226667,2.2736)"
         id="path46" />
      <path
         d="m 537.48,700.414 h 3.442 v 0.828 h -4.629 v -0.828 c 0.375,-0.391 0.887,-0.91 1.531,-1.562 0.649,-0.653 1.055,-1.075 1.219,-1.262 0.316,-0.356 0.535,-0.656 0.66,-0.902 0.129,-0.247 0.192,-0.485 0.192,-0.723 0,-0.387 -0.137,-0.703 -0.411,-0.949 -0.269,-0.243 -0.625,-0.368 -1.062,-0.368 -0.309,0 -0.637,0.055 -0.981,0.164 -0.339,0.106 -0.707,0.27 -1.097,0.489 v -0.996 c 0.394,-0.16 0.765,-0.282 1.113,-0.364 0.344,-0.082 0.66,-0.121 0.945,-0.121 0.758,0 1.36,0.188 1.809,0.567 0.449,0.379 0.672,0.883 0.672,1.511 0,0.301 -0.055,0.586 -0.168,0.856 -0.11,0.266 -0.317,0.582 -0.613,0.949 -0.082,0.094 -0.34,0.367 -0.778,0.817 -0.433,0.453 -1.047,1.082 -1.844,1.894 z"
         style="fill:#000000;fill-opacity:1;fill-rule:nonzero;stroke:none"
         transform="matrix(0.30865333,0,0,0.30865333,2.3226667,2.2736)"
         id="path47" />
      <path
         d="m 545.102,694.602 c -0.508,0 -0.887,0.25 -1.145,0.75 -0.254,0.5 -0.383,1.25 -0.383,2.253 0,0.997 0.129,1.747 0.383,2.247 0.258,0.5 0.637,0.75 1.145,0.75 0.511,0 0.894,-0.25 1.152,-0.75 0.254,-0.5 0.383,-1.25 0.383,-2.247 0,-1.003 -0.129,-1.753 -0.383,-2.253 -0.258,-0.5 -0.641,-0.75 -1.152,-0.75 z m 0,-0.782 c 0.82,0 1.441,0.325 1.875,0.969 0.429,0.649 0.644,1.586 0.644,2.816 0,1.227 -0.215,2.165 -0.644,2.809 -0.434,0.648 -1.055,0.969 -1.875,0.969 -0.817,0 -1.442,-0.321 -1.872,-0.969 -0.429,-0.644 -0.648,-1.582 -0.648,-2.809 0,-1.23 0.219,-2.167 0.648,-2.816 0.43,-0.644 1.055,-0.969 1.872,-0.969 z"
         style="fill:#000000;fill-opacity:1;fill-rule:nonzero;stroke:none"
         transform="matrix(0.30865333,0,0,0.30865333,2.3226667,2.2736)"
         id="path48" />
      <path
         d="m 551.465,694.602 c -0.508,0 -0.891,0.25 -1.145,0.75 -0.258,0.5 -0.382,1.25 -0.382,2.253 0,0.997 0.124,1.747 0.382,2.247 0.254,0.5 0.637,0.75 1.145,0.75 0.512,0 0.894,-0.25 1.148,-0.75 0.258,-0.5 0.387,-1.25 0.387,-2.247 0,-1.003 -0.129,-1.753 -0.387,-2.253 -0.254,-0.5 -0.636,-0.75 -1.148,-0.75 z m 0,-0.782 c 0.816,0 1.441,0.325 1.875,0.969 0.43,0.649 0.644,1.586 0.644,2.816 0,1.227 -0.214,2.165 -0.644,2.809 -0.434,0.648 -1.059,0.969 -1.875,0.969 -0.817,0 -1.442,-0.321 -1.871,-0.969 -0.434,-0.644 -0.649,-1.582 -0.649,-2.809 0,-1.23 0.215,-2.167 0.649,-2.816 0.429,-0.644 1.054,-0.969 1.871,-0.969 z"
         style="fill:#000000;fill-opacity:1;fill-rule:nonzero;stroke:none"
         transform="matrix(0.30865333,0,0,0.30865333,2.3226667,2.2736)"
         id="path49" />
      <path
         d="m 315.309,708.441 v 2.739 h 1.238 c 0.461,0 0.816,-0.118 1.066,-0.356 0.25,-0.238 0.375,-0.578 0.375,-1.015 0,-0.438 -0.125,-0.774 -0.375,-1.012 -0.25,-0.238 -0.605,-0.356 -1.066,-0.356 z m -0.989,-0.812 h 2.227 c 0.82,0 1.437,0.183 1.855,0.555 0.418,0.371 0.625,0.91 0.625,1.625 0,0.718 -0.207,1.261 -0.625,1.629 -0.418,0.367 -1.035,0.554 -1.855,0.554 h -1.238 v 2.93 h -0.989 z"
         style="fill:#000000;fill-opacity:1;fill-rule:nonzero;stroke:none"
         transform="matrix(0.30865333,0,0,0.30865333,2.3226667,2.2736)"
         id="path50" />
      <path
         d="m 325.812,708.191 v 1.039 c -0.335,-0.308 -0.687,-0.539 -1.062,-0.691 -0.379,-0.152 -0.777,-0.23 -1.199,-0.23 -0.836,0 -1.473,0.253 -1.914,0.765 -0.446,0.508 -0.664,1.246 -0.664,2.207 0,0.961 0.218,1.696 0.664,2.207 0.441,0.508 1.078,0.762 1.914,0.762 0.422,0 0.82,-0.074 1.199,-0.227 0.375,-0.156 0.727,-0.386 1.062,-0.695 v 1.031 c -0.347,0.235 -0.71,0.411 -1.097,0.528 -0.387,0.117 -0.793,0.175 -1.223,0.175 -1.105,0 -1.972,-0.335 -2.609,-1.011 -0.633,-0.676 -0.953,-1.598 -0.953,-2.77 0,-1.172 0.32,-2.093 0.953,-2.769 0.637,-0.676 1.504,-1.012 2.609,-1.012 0.434,0 0.844,0.055 1.231,0.172 0.386,0.117 0.75,0.289 1.089,0.519 z"
         style="fill:#000000;fill-opacity:1;fill-rule:nonzero;stroke:none"
         transform="matrix(0.30865333,0,0,0.30865333,2.3226667,2.2736)"
         id="path51" />
      <path
         d="m 327.594,714.09 h 1.609 v -5.563 l -1.754,0.352 v -0.899 l 1.746,-0.351 h 0.985 v 6.461 h 1.613 v 0.832 h -4.199 z"
         style="fill:#000000;fill-opacity:1;fill-rule:nonzero;stroke:none"
         transform="matrix(0.30865333,0,0,0.30865333,2.3226667,2.2736)"
         id="path52" />
      <path
         d="m 338.992,707.332 c -0.433,0.75 -0.758,1.488 -0.969,2.223 -0.214,0.73 -0.32,1.472 -0.32,2.226 0,0.75 0.109,1.496 0.32,2.235 0.215,0.734 0.539,1.476 0.969,2.222 h -0.781 c -0.484,-0.765 -0.852,-1.515 -1.094,-2.254 -0.242,-0.742 -0.363,-1.472 -0.363,-2.203 0,-0.726 0.121,-1.457 0.359,-2.191 0.242,-0.738 0.61,-1.488 1.098,-2.258 z"
         style="fill:#000000;fill-opacity:1;fill-rule:nonzero;stroke:none"
         transform="matrix(0.30865333,0,0,0.30865333,2.3226667,2.2736)"
         id="path53" />
      <path
         d="m 341.715,714.09 h 3.441 v 0.832 h -4.629 v -0.832 c 0.375,-0.387 0.883,-0.906 1.532,-1.559 0.644,-0.652 1.05,-1.074 1.218,-1.265 0.313,-0.352 0.535,-0.653 0.661,-0.899 0.124,-0.246 0.187,-0.488 0.187,-0.726 0,-0.387 -0.137,-0.703 -0.406,-0.946 -0.274,-0.246 -0.625,-0.367 -1.063,-0.367 -0.308,0 -0.636,0.055 -0.98,0.16 -0.344,0.11 -0.711,0.27 -1.102,0.489 v -0.997 c 0.399,-0.16 0.77,-0.277 1.114,-0.359 0.347,-0.082 0.664,-0.121 0.949,-0.121 0.754,0 1.359,0.188 1.804,0.566 0.45,0.375 0.676,0.879 0.676,1.512 0,0.301 -0.058,0.586 -0.168,0.852 -0.113,0.269 -0.316,0.586 -0.613,0.949 -0.082,0.094 -0.34,0.367 -0.777,0.82 -0.434,0.449 -1.051,1.082 -1.844,1.891 z"
         style="fill:#000000;fill-opacity:1;fill-rule:nonzero;stroke:none"
         transform="matrix(0.30865333,0,0,0.30865333,2.3226667,2.2736)"
         id="path54" />
      <path
         d="m 347.398,714.09 h 1.61 v -5.563 l -1.754,0.352 V 707.98 L 349,707.629 h 0.984 v 6.461 h 1.614 v 0.832 h -4.2 z"
         style="fill:#000000;fill-opacity:1;fill-rule:nonzero;stroke:none"
         transform="matrix(0.30865333,0,0,0.30865333,2.3226667,2.2736)"
         id="path55" />
      <path
         d="m 353.59,713.68 h 1.031 v 1.242 h -1.031 z"
         style="fill:#000000;fill-opacity:1;fill-rule:nonzero;stroke:none"
         transform="matrix(0.30865333,0,0,0.30865333,2.3226667,2.2736)"
         id="path56" />
      <path
         d="m 356.52,707.629 h 4.687 v 0.422 l -2.648,6.871 h -1.028 l 2.489,-6.461 h -3.5 z"
         style="fill:#000000;fill-opacity:1;fill-rule:nonzero;stroke:none"
         transform="matrix(0.30865333,0,0,0.30865333,2.3226667,2.2736)"
         id="path57" />
      <path
         d="m 369.332,711.711 c -0.285,0 -0.508,0.121 -0.668,0.363 -0.16,0.238 -0.242,0.574 -0.242,1.004 0,0.426 0.082,0.758 0.242,1 0.16,0.242 0.383,0.363 0.668,0.363 0.277,0 0.496,-0.121 0.656,-0.363 0.16,-0.242 0.242,-0.574 0.242,-1 0,-0.426 -0.082,-0.762 -0.242,-1 -0.16,-0.246 -0.379,-0.367 -0.656,-0.367 z m 0,-0.617 c 0.512,0 0.922,0.176 1.223,0.535 0.304,0.359 0.457,0.84 0.457,1.449 0,0.61 -0.153,1.094 -0.457,1.449 -0.305,0.356 -0.711,0.535 -1.223,0.535 -0.523,0 -0.934,-0.179 -1.238,-0.535 -0.301,-0.355 -0.453,-0.839 -0.453,-1.449 0,-0.609 0.152,-1.094 0.457,-1.453 0.304,-0.355 0.714,-0.531 1.234,-0.531 z m -5.039,-2.977 c -0.281,0 -0.504,0.121 -0.664,0.367 -0.16,0.239 -0.242,0.575 -0.242,0.996 0,0.43 0.082,0.766 0.242,1.008 0.156,0.239 0.379,0.36 0.664,0.36 0.281,0 0.504,-0.121 0.664,-0.36 0.16,-0.242 0.242,-0.578 0.242,-1.008 0,-0.418 -0.082,-0.75 -0.242,-0.996 -0.164,-0.242 -0.387,-0.367 -0.664,-0.367 z m 4.406,-0.617 h 0.781 l -4.558,7.562 h -0.781 z m -4.406,0 c 0.512,0 0.922,0.176 1.227,0.531 0.308,0.36 0.46,0.84 0.46,1.449 0,0.614 -0.152,1.102 -0.457,1.458 -0.304,0.351 -0.714,0.531 -1.23,0.531 -0.52,0 -0.93,-0.18 -1.231,-0.535 -0.3,-0.356 -0.449,-0.84 -0.449,-1.454 0,-0.605 0.149,-1.085 0.453,-1.445 0.301,-0.359 0.711,-0.535 1.227,-0.535 z"
         style="fill:#000000;fill-opacity:1;fill-rule:nonzero;stroke:none"
         transform="matrix(0.30865333,0,0,0.30865333,2.3226667,2.2736)"
         id="path58" />
      <path
         d="m 372.363,707.332 h 0.782 c 0.488,0.77 0.851,1.52 1.097,2.258 0.242,0.734 0.363,1.465 0.363,2.191 0,0.731 -0.121,1.461 -0.363,2.203 -0.246,0.739 -0.609,1.489 -1.097,2.254 h -0.782 c 0.434,-0.746 0.758,-1.488 0.969,-2.222 0.215,-0.739 0.32,-1.485 0.32,-2.235 0,-0.754 -0.105,-1.496 -0.32,-2.226 -0.211,-0.735 -0.535,-1.473 -0.969,-2.223 z"
         style="fill:#000000;fill-opacity:1;fill-rule:nonzero;stroke:none"
         transform="matrix(0.30865333,0,0,0.30865333,2.3226667,2.2736)"
         id="path59" />
      <path
         d="m 51.145,647.156 h -3.5"
         style="fill:none;stroke:#000000;stroke-width:0.8;stroke-linecap:butt;stroke-linejoin:round;stroke-miterlimit:4;stroke-dasharray:none;stroke-opacity:1"
         transform="matrix(0.30865333,0,0,0.30865333,2.3226667,2.2736)"
         id="path60" />
      <path
         d="m 17.738,647.406 h 6.258 v 0.828 h -6.258 z"
         style="fill:#000000;fill-opacity:1;fill-rule:nonzero;stroke:none"
         transform="matrix(0.30865333,0,0,0.30865333,2.3226667,2.2736)"
         id="path61" />
      <path
         d="m 26.297,650.125 h 1.613 v -5.563 l -1.754,0.352 v -0.898 l 1.742,-0.352 h 0.989 v 6.461 h 1.609 v 0.832 h -4.199 z"
         style="fill:#000000;fill-opacity:1;fill-rule:nonzero;stroke:none"
         transform="matrix(0.30865333,0,0,0.30865333,2.3226667,2.2736)"
         id="path62" />
      <path
         d="m 34.598,644.316 c -0.508,0 -0.891,0.25 -1.145,0.75 -0.258,0.496 -0.383,1.25 -0.383,2.254 0,0.996 0.125,1.746 0.383,2.246 0.254,0.5 0.637,0.75 1.145,0.75 0.511,0 0.894,-0.25 1.148,-0.75 0.258,-0.5 0.387,-1.25 0.387,-2.246 0,-1.004 -0.129,-1.758 -0.387,-2.254 -0.254,-0.5 -0.637,-0.75 -1.148,-0.75 z m 0,-0.781 c 0.816,0 1.441,0.324 1.875,0.969 0.429,0.644 0.644,1.586 0.644,2.816 0,1.227 -0.215,2.164 -0.644,2.809 -0.434,0.644 -1.059,0.969 -1.875,0.969 -0.817,0 -1.442,-0.325 -1.871,-0.969 -0.434,-0.645 -0.649,-1.582 -0.649,-2.809 0,-1.23 0.215,-2.172 0.649,-2.816 0.429,-0.645 1.054,-0.969 1.871,-0.969 z"
         style="fill:#000000;fill-opacity:1;fill-rule:nonzero;stroke:none"
         transform="matrix(0.30865333,0,0,0.30865333,2.3226667,2.2736)"
         id="path63" />
      <path
         d="m 40.961,644.316 c -0.508,0 -0.891,0.25 -1.145,0.75 -0.257,0.496 -0.382,1.25 -0.382,2.254 0,0.996 0.125,1.746 0.382,2.246 0.254,0.5 0.637,0.75 1.145,0.75 0.512,0 0.894,-0.25 1.148,-0.75 0.258,-0.5 0.387,-1.25 0.387,-2.246 0,-1.004 -0.129,-1.758 -0.387,-2.254 -0.254,-0.5 -0.636,-0.75 -1.148,-0.75 z m 0,-0.781 c 0.816,0 1.441,0.324 1.871,0.969 0.434,0.644 0.648,1.586 0.648,2.816 0,1.227 -0.214,2.164 -0.648,2.809 -0.43,0.644 -1.055,0.969 -1.871,0.969 -0.816,0 -1.441,-0.325 -1.871,-0.969 -0.434,-0.645 -0.649,-1.582 -0.649,-2.809 0,-1.23 0.215,-2.172 0.649,-2.816 0.43,-0.645 1.055,-0.969 1.871,-0.969 z"
         style="fill:#000000;fill-opacity:1;fill-rule:nonzero;stroke:none"
         transform="matrix(0.30865333,0,0,0.30865333,2.3226667,2.2736)"
         id="path64" />
      <path
         d="m 51.145,522.449 h -3.5"
         style="fill:none;stroke:#000000;stroke-width:0.8;stroke-linecap:butt;stroke-linejoin:round;stroke-miterlimit:4;stroke-dasharray:none;stroke-opacity:1"
         transform="matrix(0.30865333,0,0,0.30865333,2.3226667,2.2736)"
         id="path65" />
      <path
         d="m 24.102,522.695 h 6.258 v 0.832 h -6.258 z"
         style="fill:#000000;fill-opacity:1;fill-rule:nonzero;stroke:none"
         transform="matrix(0.30865333,0,0,0.30865333,2.3226667,2.2736)"
         id="path66" />
      <path
         d="m 32.5,518.957 h 3.871 v 0.832 h -2.969 v 1.785 c 0.145,-0.051 0.286,-0.086 0.43,-0.109 0.141,-0.024 0.285,-0.035 0.43,-0.035 0.812,0 1.457,0.222 1.933,0.668 0.477,0.445 0.715,1.05 0.715,1.808 0,0.785 -0.246,1.395 -0.734,1.832 -0.488,0.434 -1.176,0.653 -2.067,0.653 -0.304,0 -0.617,-0.028 -0.933,-0.079 -0.317,-0.054 -0.645,-0.132 -0.985,-0.234 v -0.992 c 0.293,0.156 0.594,0.277 0.907,0.355 0.312,0.079 0.644,0.118 0.992,0.118 0.562,0 1.008,-0.149 1.336,-0.446 0.332,-0.293 0.496,-0.695 0.496,-1.207 0,-0.504 -0.164,-0.906 -0.496,-1.203 -0.328,-0.297 -0.774,-0.445 -1.336,-0.445 -0.262,0 -0.528,0.031 -0.789,0.086 -0.262,0.058 -0.528,0.152 -0.801,0.273 z"
         style="fill:#000000;fill-opacity:1;fill-rule:nonzero;stroke:none"
         transform="matrix(0.30865333,0,0,0.30865333,2.3226667,2.2736)"
         id="path67" />
      <path
         d="m 40.961,519.605 c -0.508,0 -0.891,0.25 -1.145,0.75 -0.257,0.5 -0.382,1.25 -0.382,2.254 0,1 0.125,1.75 0.382,2.25 0.254,0.5 0.637,0.75 1.145,0.75 0.512,0 0.894,-0.25 1.148,-0.75 0.258,-0.5 0.387,-1.25 0.387,-2.25 0,-1.004 -0.129,-1.754 -0.387,-2.254 -0.254,-0.5 -0.636,-0.75 -1.148,-0.75 z m 0,-0.781 c 0.816,0 1.441,0.324 1.871,0.973 0.434,0.644 0.648,1.582 0.648,2.812 0,1.227 -0.214,2.164 -0.648,2.813 -0.43,0.644 -1.055,0.969 -1.871,0.969 -0.816,0 -1.441,-0.325 -1.871,-0.969 -0.434,-0.649 -0.649,-1.586 -0.649,-2.813 0,-1.23 0.215,-2.168 0.649,-2.812 0.43,-0.649 1.055,-0.973 1.871,-0.973 z"
         style="fill:#000000;fill-opacity:1;fill-rule:nonzero;stroke:none"
         transform="matrix(0.30865333,0,0,0.30865333,2.3226667,2.2736)"
         id="path68" />
      <path
         d="m 51.145,397.738 h -3.5"
         style="fill:none;stroke:#000000;stroke-width:0.8;stroke-linecap:butt;stroke-linejoin:round;stroke-miterlimit:4;stroke-dasharray:none;stroke-opacity:1"
         transform="matrix(0.30865333,0,0,0.30865333,2.3226667,2.2736)"
         id="path69" />
      <path
         d="m 40.961,394.898 c -0.508,0 -0.891,0.25 -1.145,0.75 -0.254,0.5 -0.382,1.25 -0.382,2.254 0,0.996 0.128,1.746 0.382,2.246 0.254,0.5 0.637,0.75 1.145,0.75 0.512,0 0.894,-0.25 1.148,-0.75 0.258,-0.5 0.387,-1.25 0.387,-2.246 0,-1.004 -0.129,-1.754 -0.387,-2.254 -0.254,-0.5 -0.636,-0.75 -1.148,-0.75 z m 0,-0.781 c 0.816,0 1.441,0.324 1.875,0.969 0.43,0.648 0.644,1.586 0.644,2.816 0,1.227 -0.214,2.164 -0.644,2.809 -0.434,0.648 -1.059,0.969 -1.875,0.969 -0.816,0 -1.441,-0.321 -1.871,-0.969 -0.434,-0.645 -0.649,-1.582 -0.649,-2.809 0,-1.23 0.215,-2.168 0.649,-2.816 0.43,-0.645 1.055,-0.969 1.871,-0.969 z"
         style="fill:#000000;fill-opacity:1;fill-rule:nonzero;stroke:none"
         transform="matrix(0.30865333,0,0,0.30865333,2.3226667,2.2736)"
         id="path70" />
      <path
         d="m 51.145,273.031 h -3.5"
         style="fill:none;stroke:#000000;stroke-width:0.8;stroke-linecap:butt;stroke-linejoin:round;stroke-miterlimit:4;stroke-dasharray:none;stroke-opacity:1"
         transform="matrix(0.30865333,0,0,0.30865333,2.3226667,2.2736)"
         id="path71" />
      <path
         d="m 32.5,269.539 h 3.871 v 0.832 h -2.969 v 1.785 c 0.145,-0.051 0.286,-0.086 0.43,-0.109 0.145,-0.024 0.285,-0.035 0.43,-0.035 0.816,0 1.457,0.222 1.933,0.668 0.477,0.445 0.715,1.05 0.715,1.812 0,0.781 -0.246,1.395 -0.734,1.828 -0.488,0.434 -1.176,0.653 -2.067,0.653 -0.304,0 -0.617,-0.028 -0.933,-0.078 -0.317,-0.055 -0.645,-0.133 -0.985,-0.235 v -0.992 c 0.293,0.16 0.598,0.277 0.911,0.355 0.312,0.079 0.64,0.118 0.988,0.118 0.566,0 1.012,-0.149 1.34,-0.446 0.328,-0.293 0.492,-0.695 0.492,-1.203 0,-0.508 -0.164,-0.91 -0.492,-1.207 -0.328,-0.297 -0.774,-0.445 -1.34,-0.445 -0.262,0 -0.528,0.031 -0.789,0.09 -0.262,0.058 -0.528,0.148 -0.801,0.273 z"
         style="fill:#000000;fill-opacity:1;fill-rule:nonzero;stroke:none"
         transform="matrix(0.30865333,0,0,0.30865333,2.3226667,2.2736)"
         id="path72" />
      <path
         d="m 40.961,270.188 c -0.508,0 -0.891,0.25 -1.145,0.75 -0.257,0.5 -0.382,1.25 -0.382,2.253 0,1 0.125,1.75 0.382,2.25 0.254,0.5 0.637,0.75 1.145,0.75 0.512,0 0.894,-0.25 1.148,-0.75 0.258,-0.5 0.387,-1.25 0.387,-2.25 0,-1.003 -0.129,-1.753 -0.387,-2.253 -0.254,-0.5 -0.636,-0.75 -1.148,-0.75 z m 0,-0.782 c 0.816,0 1.441,0.324 1.875,0.973 0.43,0.644 0.644,1.582 0.644,2.812 0,1.227 -0.214,2.164 -0.644,2.813 -0.434,0.644 -1.059,0.969 -1.875,0.969 -0.816,0 -1.441,-0.325 -1.871,-0.969 -0.434,-0.649 -0.649,-1.586 -0.649,-2.813 0,-1.23 0.215,-2.168 0.649,-2.812 0.43,-0.649 1.055,-0.973 1.871,-0.973 z"
         style="fill:#000000;fill-opacity:1;fill-rule:nonzero;stroke:none"
         transform="matrix(0.30865333,0,0,0.30865333,2.3226667,2.2736)"
         id="path73" />
      <path
         d="m 51.145,148.32 h -3.5"
         style="fill:none;stroke:#000000;stroke-width:0.8;stroke-linecap:butt;stroke-linejoin:round;stroke-miterlimit:4;stroke-dasharray:none;stroke-opacity:1"
         transform="matrix(0.30865333,0,0,0.30865333,2.3226667,2.2736)"
         id="path74" />
      <path
         d="m 26.297,151.293 h 1.613 v -5.563 l -1.754,0.352 v -0.898 l 1.742,-0.352 h 0.989 v 6.461 h 1.609 v 0.828 h -4.199 z"
         style="fill:#000000;fill-opacity:1;fill-rule:nonzero;stroke:none"
         transform="matrix(0.30865333,0,0,0.30865333,2.3226667,2.2736)"
         id="path75" />
      <path
         d="m 34.598,145.48 c -0.508,0 -0.887,0.25 -1.145,0.75 -0.254,0.5 -0.383,1.25 -0.383,2.254 0,0.996 0.129,1.746 0.383,2.246 0.258,0.5 0.637,0.75 1.145,0.75 0.511,0 0.894,-0.25 1.152,-0.75 0.254,-0.5 0.383,-1.25 0.383,-2.246 0,-1.004 -0.129,-1.754 -0.383,-2.254 -0.258,-0.5 -0.641,-0.75 -1.152,-0.75 z m 0,-0.781 c 0.82,0 1.441,0.324 1.875,0.969 0.429,0.648 0.644,1.586 0.644,2.816 0,1.227 -0.215,2.164 -0.644,2.809 -0.434,0.648 -1.055,0.969 -1.875,0.969 -0.817,0 -1.442,-0.321 -1.871,-0.969 -0.43,-0.645 -0.649,-1.582 -0.649,-2.809 0,-1.23 0.219,-2.168 0.649,-2.816 0.429,-0.645 1.054,-0.969 1.871,-0.969 z"
         style="fill:#000000;fill-opacity:1;fill-rule:nonzero;stroke:none"
         transform="matrix(0.30865333,0,0,0.30865333,2.3226667,2.2736)"
         id="path76" />
      <path
         d="m 40.961,145.48 c -0.508,0 -0.891,0.25 -1.145,0.75 -0.257,0.5 -0.382,1.25 -0.382,2.254 0,0.996 0.125,1.746 0.382,2.246 0.254,0.5 0.637,0.75 1.145,0.75 0.512,0 0.894,-0.25 1.148,-0.75 0.258,-0.5 0.387,-1.25 0.387,-2.246 0,-1.004 -0.129,-1.754 -0.387,-2.254 -0.254,-0.5 -0.636,-0.75 -1.148,-0.75 z m 0,-0.781 c 0.816,0 1.441,0.324 1.875,0.969 0.43,0.648 0.644,1.586 0.644,2.816 0,1.227 -0.214,2.164 -0.644,2.809 -0.434,0.648 -1.059,0.969 -1.875,0.969 -0.816,0 -1.441,-0.321 -1.871,-0.969 -0.434,-0.645 -0.649,-1.582 -0.649,-2.809 0,-1.23 0.215,-2.168 0.649,-2.816 0.43,-0.645 1.055,-0.969 1.871,-0.969 z"
         style="fill:#000000;fill-opacity:1;fill-rule:nonzero;stroke:none"
         transform="matrix(0.30865333,0,0,0.30865333,2.3226667,2.2736)"
         id="path77" />
      <path
         d="m 4.117,390.281 h 2.742 v -1.238 c 0,-0.461 -0.121,-0.816 -0.359,-1.066 -0.234,-0.25 -0.574,-0.375 -1.016,-0.375 -0.433,0 -0.773,0.125 -1.007,0.375 -0.239,0.25 -0.36,0.605 -0.36,1.066 z m -0.808,0.989 v -2.227 c 0,-0.82 0.183,-1.438 0.554,-1.855 0.371,-0.418 0.91,-0.626 1.621,-0.626 0.723,0 1.266,0.208 1.633,0.626 0.367,0.417 0.551,1.035 0.551,1.855 v 1.238 h 2.93 v 0.989 z"
         style="fill:#000000;fill-opacity:1;fill-rule:nonzero;stroke:none"
         transform="matrix(0.30865333,0,0,0.30865333,2.3226667,2.2736)"
         id="path78" />
      <path
         d="M 3.871,379.777 H 4.91 c -0.308,0.332 -0.539,0.688 -0.691,1.063 -0.157,0.379 -0.231,0.777 -0.231,1.199 0,0.836 0.254,1.473 0.762,1.914 0.512,0.445 1.246,0.664 2.211,0.664 0.961,0 1.695,-0.219 2.203,-0.664 0.512,-0.441 0.766,-1.078 0.766,-1.914 0,-0.422 -0.078,-0.82 -0.231,-1.199 -0.152,-0.375 -0.383,-0.731 -0.691,-1.063 h 1.031 c 0.234,0.348 0.41,0.711 0.527,1.098 0.118,0.387 0.176,0.793 0.176,1.223 0,1.105 -0.34,1.972 -1.015,2.609 -0.676,0.633 -1.598,0.953 -2.766,0.953 -1.172,0 -2.094,-0.32 -2.77,-0.953 -0.675,-0.637 -1.015,-1.504 -1.015,-2.609 0,-0.434 0.058,-0.848 0.176,-1.231 0.113,-0.387 0.289,-0.75 0.519,-1.09 z"
         style="fill:#000000;fill-opacity:1;fill-rule:nonzero;stroke:none"
         transform="matrix(0.30865333,0,0,0.30865333,2.3226667,2.2736)"
         id="path79" />
      <path
         d="m 9.77,377.316 v -3.441 h 0.828 v 4.629 H 9.77 c -0.387,-0.375 -0.907,-0.883 -1.559,-1.531 -0.656,-0.645 -1.074,-1.051 -1.266,-1.219 -0.355,-0.313 -0.652,-0.535 -0.898,-0.66 -0.246,-0.125 -0.488,-0.188 -0.727,-0.188 -0.386,0 -0.703,0.137 -0.945,0.406 -0.246,0.274 -0.367,0.629 -0.367,1.063 0,0.309 0.051,0.637 0.16,0.98 0.105,0.344 0.27,0.711 0.488,1.102 H 3.66 c -0.16,-0.398 -0.281,-0.769 -0.363,-1.113 -0.078,-0.348 -0.121,-0.664 -0.121,-0.949 0,-0.754 0.191,-1.356 0.566,-1.805 0.379,-0.449 0.883,-0.676 1.516,-0.676 0.297,0 0.582,0.059 0.851,0.168 0.27,0.113 0.586,0.316 0.95,0.613 0.093,0.082 0.367,0.34 0.816,0.778 0.453,0.437 1.082,1.05 1.895,1.843 z"
         style="fill:#000000;fill-opacity:1;fill-rule:nonzero;stroke:none"
         transform="matrix(0.30865333,0,0,0.30865333,2.3226667,2.2736)"
         id="path80" />
      <path
         d="m 3.012,366.598 c 0.746,0.433 1.488,0.757 2.222,0.968 0.731,0.215 1.473,0.321 2.227,0.321 0.75,0 1.492,-0.11 2.23,-0.321 0.739,-0.214 1.481,-0.539 2.227,-0.968 v 0.781 c -0.766,0.484 -1.52,0.851 -2.258,1.094 -0.738,0.242 -1.472,0.363 -2.199,0.363 -0.727,0 -1.457,-0.121 -2.195,-0.359 -0.735,-0.243 -1.489,-0.61 -2.254,-1.098 z"
         style="fill:#000000;fill-opacity:1;fill-rule:nonzero;stroke:none"
         transform="matrix(0.30865333,0,0,0.30865333,2.3226667,2.2736)"
         id="path81" />
      <path
         d="m 9.77,364.555 v -1.614 H 4.207 l 0.352,1.754 H 3.66 l -0.351,-1.742 v -0.988 H 9.77 v -1.61 h 0.828 v 4.2 z"
         style="fill:#000000;fill-opacity:1;fill-rule:nonzero;stroke:none"
         transform="matrix(0.30865333,0,0,0.30865333,2.3226667,2.2736)"
         id="path82" />
      <path
         d="m 6.668,355.375 c 0.102,-0.473 0.312,-0.84 0.629,-1.105 0.32,-0.266 0.715,-0.399 1.183,-0.399 0.719,0 1.274,0.246 1.668,0.742 0.395,0.496 0.594,1.199 0.594,2.11 0,0.304 -0.031,0.621 -0.094,0.945 -0.058,0.324 -0.148,0.656 -0.269,1 H 9.426 c 0.16,-0.27 0.281,-0.57 0.363,-0.895 0.078,-0.328 0.121,-0.668 0.121,-1.023 0,-0.617 -0.121,-1.086 -0.367,-1.41 -0.242,-0.324 -0.598,-0.488 -1.063,-0.488 -0.429,0 -0.765,0.152 -1.007,0.453 -0.243,0.3 -0.364,0.718 -0.364,1.254 v 0.851 H 6.297 v -0.89 c 0,-0.485 -0.098,-0.852 -0.289,-1.11 -0.196,-0.258 -0.473,-0.387 -0.84,-0.387 -0.371,0 -0.66,0.133 -0.859,0.399 -0.204,0.266 -0.301,0.644 -0.301,1.137 0,0.273 0.027,0.562 0.086,0.871 0.058,0.308 0.152,0.652 0.273,1.019 H 3.488 c -0.101,-0.375 -0.179,-0.722 -0.234,-1.051 -0.051,-0.328 -0.078,-0.636 -0.078,-0.925 0,-0.75 0.172,-1.34 0.512,-1.778 0.339,-0.433 0.8,-0.652 1.378,-0.652 0.403,0 0.746,0.113 1.024,0.344 0.277,0.234 0.469,0.562 0.578,0.988 z"
         style="fill:#000000;fill-opacity:1;fill-rule:nonzero;stroke:none"
         transform="matrix(0.30865333,0,0,0.30865333,2.3226667,2.2736)"
         id="path83" />
      <path
         d="m 9.359,350.969 h 1.238 V 352 H 9.359 Z"
         style="fill:#000000;fill-opacity:1;fill-rule:nonzero;stroke:none"
         transform="matrix(0.30865333,0,0,0.30865333,2.3226667,2.2736)"
         id="path84" />
      <path
         d="m 3.309,348.812 v -3.871 h 0.832 v 2.969 h 1.785 c -0.051,-0.144 -0.086,-0.285 -0.11,-0.43 -0.023,-0.144 -0.035,-0.289 -0.035,-0.429 0,-0.817 0.223,-1.461 0.668,-1.934 0.446,-0.476 1.051,-0.715 1.809,-0.715 0.785,0 1.394,0.246 1.832,0.735 0.433,0.488 0.652,1.175 0.652,2.062 0,0.309 -0.027,0.621 -0.078,0.938 -0.055,0.316 -0.133,0.644 -0.234,0.984 H 9.438 c 0.156,-0.293 0.277,-0.598 0.355,-0.91 0.078,-0.313 0.117,-0.641 0.117,-0.988 0,-0.567 -0.148,-1.012 -0.445,-1.34 -0.293,-0.328 -0.695,-0.492 -1.207,-0.492 -0.504,0 -0.906,0.164 -1.203,0.492 -0.297,0.328 -0.446,0.773 -0.446,1.34 0,0.261 0.032,0.523 0.086,0.789 0.059,0.261 0.153,0.527 0.274,0.8 z"
         style="fill:#000000;fill-opacity:1;fill-rule:nonzero;stroke:none"
         transform="matrix(0.30865333,0,0,0.30865333,2.3226667,2.2736)"
         id="path85" />
      <path
         d="m 7.391,336.258 c 0,0.285 0.121,0.508 0.359,0.668 0.242,0.16 0.578,0.242 1.008,0.242 0.422,0 0.758,-0.082 1,-0.242 0.242,-0.16 0.363,-0.383 0.363,-0.668 0,-0.278 -0.121,-0.496 -0.363,-0.656 -0.242,-0.161 -0.578,-0.243 -1,-0.243 -0.426,0 -0.762,0.082 -1.004,0.243 -0.242,0.16 -0.363,0.378 -0.363,0.656 z m -0.621,0 c 0,-0.512 0.179,-0.922 0.539,-1.223 0.355,-0.305 0.839,-0.457 1.449,-0.457 0.609,0 1.09,0.152 1.449,0.457 0.355,0.305 0.535,0.711 0.535,1.223 0,0.523 -0.18,0.933 -0.535,1.238 -0.359,0.301 -0.84,0.453 -1.449,0.453 -0.613,0 -1.098,-0.152 -1.453,-0.457 -0.356,-0.304 -0.535,-0.715 -0.535,-1.234 z m -2.973,5.039 c 0,0.281 0.121,0.504 0.363,0.664 0.242,0.16 0.574,0.238 1,0.238 0.43,0 0.766,-0.078 1.004,-0.238 0.242,-0.16 0.363,-0.379 0.363,-0.664 0,-0.281 -0.121,-0.504 -0.363,-0.664 -0.238,-0.16 -0.574,-0.242 -1.004,-0.242 -0.422,0 -0.754,0.082 -0.996,0.242 -0.246,0.164 -0.367,0.387 -0.367,0.664 z m -0.621,-4.41 v -0.782 l 7.566,4.563 v 0.781 z m 0,4.41 c 0,-0.512 0.179,-0.922 0.535,-1.231 0.355,-0.304 0.84,-0.457 1.449,-0.457 0.613,0 1.098,0.153 1.453,0.457 0.356,0.305 0.535,0.715 0.535,1.231 0,0.519 -0.179,0.93 -0.535,1.23 -0.359,0.301 -0.843,0.45 -1.453,0.45 -0.605,0 -1.09,-0.149 -1.445,-0.454 -0.36,-0.3 -0.539,-0.711 -0.539,-1.226 z"
         style="fill:#000000;fill-opacity:1;fill-rule:nonzero;stroke:none"
         transform="matrix(0.30865333,0,0,0.30865333,2.3226667,2.2736)"
         id="path86" />
      <path
         d="m 3.012,333.227 v -0.782 c 0.765,-0.488 1.519,-0.855 2.254,-1.097 0.738,-0.243 1.468,-0.364 2.195,-0.364 0.727,0 1.461,0.121 2.199,0.364 0.738,0.242 1.492,0.609 2.258,1.097 v 0.782 c -0.746,-0.434 -1.488,-0.758 -2.227,-0.969 -0.738,-0.215 -1.48,-0.32 -2.23,-0.32 -0.754,0 -1.496,0.105 -2.227,0.32 -0.734,0.211 -1.476,0.535 -2.222,0.969 z"
         style="fill:#000000;fill-opacity:1;fill-rule:nonzero;stroke:none"
         transform="matrix(0.30865333,0,0,0.30865333,2.3226667,2.2736)"
         id="path87" />
      <path
         d="M 51.145,686.645 V 35.734"
         style="fill:none;stroke:#000000;stroke-width:0.8;stroke-linecap:square;stroke-linejoin:miter;stroke-miterlimit:4;stroke-dasharray:none;stroke-opacity:1"
         transform="matrix(0.30865333,0,0,0.30865333,2.3226667,2.2736)"
         id="path88" />
      <path
         d="M 637.656,686.645 V 35.734"
         style="fill:none;stroke:#000000;stroke-width:0.8;stroke-linecap:square;stroke-linejoin:miter;stroke-miterlimit:4;stroke-dasharray:none;stroke-opacity:1"
         transform="matrix(0.30865333,0,0,0.30865333,2.3226667,2.2736)"
         id="path89" />
      <path
         d="M 51.145,686.645 H 637.656"
         style="fill:none;stroke:#000000;stroke-width:0.8;stroke-linecap:square;stroke-linejoin:miter;stroke-miterlimit:4;stroke-dasharray:none;stroke-opacity:1"
         transform="matrix(0.30865333,0,0,0.30865333,2.3226667,2.2736)"
         id="path90" />
      <path
         d="M 51.145,35.734 H 637.656"
         style="fill:none;stroke:#000000;stroke-width:0.8;stroke-linecap:square;stroke-linejoin:miter;stroke-miterlimit:4;stroke-dasharray:none;stroke-opacity:1"
         transform="matrix(0.30865333,0,0,0.30865333,2.3226667,2.2736)"
         id="path91" />
      <path
         d="m 321.645,21.66 v 1.246 c -0.399,-0.371 -0.825,-0.648 -1.274,-0.832 -0.453,-0.183 -0.93,-0.273 -1.437,-0.273 -1,0 -1.766,0.304 -2.297,0.914 -0.532,0.613 -0.797,1.496 -0.797,2.652 0,1.153 0.265,2.035 0.797,2.645 0.531,0.613 1.297,0.918 2.297,0.918 0.507,0 0.984,-0.09 1.437,-0.274 0.449,-0.183 0.875,-0.465 1.274,-0.836 v 1.239 c -0.415,0.281 -0.852,0.492 -1.317,0.632 -0.461,0.141 -0.949,0.211 -1.465,0.211 -1.324,0 -2.367,-0.402 -3.133,-1.214 -0.761,-0.809 -1.14,-1.918 -1.14,-3.321 0,-1.406 0.379,-2.515 1.14,-3.324 0.766,-0.813 1.809,-1.215 3.133,-1.215 0.524,0 1.016,0.067 1.477,0.207 0.465,0.137 0.898,0.348 1.305,0.625 z"
         style="fill:#000000;fill-opacity:1;fill-rule:nonzero;stroke:none"
         transform="matrix(0.30865333,0,0,0.30865333,2.3226667,2.2736)"
         id="path92" />
      <path
         d="m 325.969,23.926 c -0.578,0 -1.035,0.226 -1.371,0.676 -0.336,0.453 -0.504,1.07 -0.504,1.855 0,0.785 0.168,1.402 0.5,1.855 0.336,0.45 0.793,0.676 1.375,0.676 0.574,0 1.031,-0.226 1.363,-0.679 0.34,-0.454 0.508,-1.071 0.508,-1.852 0,-0.777 -0.168,-1.395 -0.508,-1.848 -0.332,-0.457 -0.789,-0.683 -1.363,-0.683 z m 0,-0.914 c 0.937,0 1.676,0.304 2.207,0.914 0.539,0.609 0.804,1.453 0.804,2.531 0,1.074 -0.265,1.918 -0.804,2.531 -0.531,0.61 -1.27,0.914 -2.207,0.914 -0.942,0 -1.68,-0.304 -2.211,-0.914 -0.535,-0.613 -0.801,-1.457 -0.801,-2.531 0,-1.078 0.266,-1.922 0.801,-2.531 0.531,-0.61 1.269,-0.914 2.211,-0.914 z"
         style="fill:#000000;fill-opacity:1;fill-rule:nonzero;stroke:none"
         transform="matrix(0.30865333,0,0,0.30865333,2.3226667,2.2736)"
         id="path93" />
      <path
         d="m 335.879,24.43 c 0.269,-0.485 0.59,-0.844 0.965,-1.071 0.375,-0.23 0.816,-0.347 1.324,-0.347 0.684,0 1.211,0.242 1.582,0.718 0.371,0.477 0.559,1.157 0.559,2.04 v 3.964 h -1.086 v -3.929 c 0,-0.629 -0.11,-1.094 -0.332,-1.399 -0.223,-0.304 -0.563,-0.457 -1.02,-0.457 -0.559,0 -1,0.188 -1.324,0.559 -0.324,0.371 -0.488,0.875 -0.488,1.515 v 3.711 h -1.082 v -3.929 c 0,-0.629 -0.114,-1.098 -0.336,-1.403 -0.223,-0.3 -0.567,-0.453 -1.032,-0.453 -0.55,0 -0.988,0.188 -1.312,0.559 -0.324,0.375 -0.485,0.879 -0.485,1.515 v 3.711 h -1.085 v -6.562 h 1.085 v 1.019 c 0.247,-0.402 0.54,-0.699 0.883,-0.89 0.344,-0.192 0.754,-0.289 1.227,-0.289 0.476,0 0.883,0.121 1.215,0.363 0.332,0.242 0.582,0.594 0.742,1.055 z"
         style="fill:#000000;fill-opacity:1;fill-rule:nonzero;stroke:none"
         transform="matrix(0.30865333,0,0,0.30865333,2.3226667,2.2736)"
         id="path94" />
      <path
         d="m 347.168,26.457 c 0,-0.793 -0.16,-1.414 -0.488,-1.867 -0.325,-0.449 -0.774,-0.676 -1.344,-0.676 -0.57,0 -1.02,0.227 -1.348,0.676 -0.324,0.453 -0.488,1.074 -0.488,1.867 0,0.793 0.164,1.414 0.488,1.867 0.328,0.449 0.778,0.676 1.348,0.676 0.57,0 1.019,-0.227 1.344,-0.676 0.328,-0.453 0.488,-1.074 0.488,-1.867 z M 343.5,24.164 c 0.227,-0.387 0.516,-0.676 0.859,-0.867 0.348,-0.188 0.758,-0.285 1.239,-0.285 0.797,0 1.445,0.316 1.941,0.949 0.5,0.633 0.75,1.465 0.75,2.496 0,1.031 -0.25,1.863 -0.75,2.496 -0.496,0.633 -1.144,0.949 -1.941,0.949 -0.481,0 -0.891,-0.093 -1.239,-0.285 -0.343,-0.187 -0.632,-0.48 -0.859,-0.867 v 0.984 h -1.082 v -9.121 h 1.082 z"
         style="fill:#000000;fill-opacity:1;fill-rule:nonzero;stroke:none"
         transform="matrix(0.30865333,0,0,0.30865333,2.3226667,2.2736)"
         id="path95" />
      <path
         d="m 350.074,23.172 h 1.078 v 6.562 h -1.078 z m 0,-2.559 h 1.078 v 1.367 h -1.078 z"
         style="fill:#000000;fill-opacity:1;fill-rule:nonzero;stroke:none"
         transform="matrix(0.30865333,0,0,0.30865333,2.3226667,2.2736)"
         id="path96" />
      <path
         d="m 358.863,25.77 v 3.964 h -1.078 v -3.929 c 0,-0.621 -0.121,-1.082 -0.363,-1.391 -0.242,-0.309 -0.606,-0.465 -1.09,-0.465 -0.582,0 -1.039,0.188 -1.375,0.559 -0.336,0.371 -0.504,0.875 -0.504,1.515 v 3.711 h -1.086 v -6.562 h 1.086 v 1.019 c 0.258,-0.394 0.563,-0.691 0.91,-0.886 0.348,-0.196 0.754,-0.293 1.211,-0.293 0.754,0 1.324,0.234 1.711,0.699 0.387,0.469 0.578,1.152 0.578,2.059 z"
         style="fill:#000000;fill-opacity:1;fill-rule:nonzero;stroke:none"
         transform="matrix(0.30865333,0,0,0.30865333,2.3226667,2.2736)"
         id="path97" />
      <path
         d="m 366.629,26.18 v 0.527 h -4.957 c 0.047,0.742 0.269,1.309 0.672,1.699 0.398,0.387 0.957,0.582 1.672,0.582 0.414,0 0.812,-0.05 1.203,-0.152 0.386,-0.102 0.773,-0.254 1.156,-0.457 v 1.019 c -0.387,0.164 -0.781,0.29 -1.187,0.375 -0.407,0.086 -0.821,0.129 -1.239,0.129 -1.047,0 -1.875,-0.304 -2.488,-0.914 -0.609,-0.609 -0.914,-1.433 -0.914,-2.472 0,-1.075 0.289,-1.926 0.867,-2.555 0.582,-0.633 1.363,-0.949 2.348,-0.949 0.883,0 1.582,0.285 2.097,0.855 0.512,0.567 0.77,1.34 0.77,2.313 z m -1.078,-0.317 c -0.008,-0.586 -0.172,-1.058 -0.496,-1.41 -0.321,-0.351 -0.75,-0.527 -1.282,-0.527 -0.601,0 -1.082,0.172 -1.441,0.512 -0.363,0.339 -0.57,0.816 -0.625,1.433 z"
         style="fill:#000000;fill-opacity:1;fill-rule:nonzero;stroke:none"
         transform="matrix(0.30865333,0,0,0.30865333,2.3226667,2.2736)"
         id="path98" />
      <path
         d="m 372.715,24.164 v -3.551 h 1.078 v 9.121 h -1.078 V 28.75 c -0.227,0.387 -0.512,0.68 -0.86,0.867 -0.343,0.192 -0.757,0.285 -1.242,0.285 -0.793,0 -1.441,-0.316 -1.937,-0.949 -0.5,-0.633 -0.746,-1.465 -0.746,-2.496 0,-1.031 0.246,-1.863 0.746,-2.496 0.496,-0.633 1.144,-0.949 1.937,-0.949 0.485,0 0.899,0.097 1.242,0.285 0.348,0.191 0.633,0.48 0.86,0.867 z m -3.672,2.293 c 0,0.793 0.164,1.414 0.488,1.867 0.328,0.449 0.774,0.676 1.344,0.676 0.57,0 1.02,-0.227 1.348,-0.676 0.328,-0.453 0.492,-1.074 0.492,-1.867 0,-0.793 -0.164,-1.414 -0.492,-1.867 -0.328,-0.449 -0.778,-0.676 -1.348,-0.676 -0.57,0 -1.016,0.227 -1.344,0.676 -0.324,0.453 -0.488,1.074 -0.488,1.867 z"
         style="fill:#000000;fill-opacity:1;fill-rule:nonzero;stroke:none"
         transform="matrix(0.30865333,0,0,0.30865333,2.3226667,2.2736)"
         id="path99" />
      <path
         d="m 680.898,35.734 h 0.059 v 650.91 h -0.059 z"
         style="fill:#ffffff;fill-opacity:1;fill-rule:nonzero;stroke:none"
         transform="matrix(0.30865333,0,0,0.30865333,2.3226667,2.2736)"
         id="path100" />
      <g
         clip-path="url(#clipPath6)"
         id="g102">
        <g
           id="g101">
          <path
             d="m 680.93,364.188 c 0.793,0 1.558,-0.317 2.121,-0.879 0.562,-0.563 0.879,-1.325 0.879,-2.121 0,-0.797 -0.317,-1.559 -0.879,-2.122 -0.563,-0.562 -1.328,-0.878 -2.121,-0.878 -0.797,0 -1.559,0.316 -2.121,0.878 -0.563,0.563 -0.879,1.325 -0.879,2.122 0,0.796 0.316,1.558 0.879,2.121 0.562,0.562 1.324,0.879 2.121,0.879 z"
             style="fill:#42c292;fill-opacity:1;fill-rule:nonzero;stroke:#42c292;stroke-width:1;stroke-linecap:butt;stroke-linejoin:round;stroke-miterlimit:4;stroke-dasharray:none;stroke-opacity:1"
             transform="matrix(0.30865333,0,0,0.30865333,2.3226667,2.2736)"
             clip-path="url(#clipPath5)"
             id="path101" />
        </g>
      </g>
      <path
         d="m 680.93,364.188 c 0.793,0 1.558,-0.317 2.121,-0.879 0.562,-0.563 0.879,-1.325 0.879,-2.121 0,-0.797 -0.317,-1.559 -0.879,-2.122 -0.563,-0.562 -1.328,-0.878 -2.121,-0.878 -0.797,0 -1.559,0.316 -2.121,0.878 -0.563,0.563 -0.879,1.325 -0.879,2.122 0,0.796 0.316,1.558 0.879,2.121 0.562,0.562 1.324,0.879 2.121,0.879 z"
         style="fill:#93fad3;fill-opacity:1;fill-rule:nonzero;stroke:#93fad3;stroke-width:1;stroke-linecap:butt;stroke-linejoin:round;stroke-miterlimit:4;stroke-dasharray:none;stroke-opacity:1"
         transform="matrix(0.30865333,0,0,0.30865333,2.3226667,2.2736)"
         opacity="1"
         id="path102" />
      <path
         d="m 680.93,364.188 c 0.793,0 1.558,-0.317 2.121,-0.879 0.562,-0.563 0.879,-1.325 0.879,-2.121 0,-0.797 -0.317,-1.559 -0.879,-2.122 -0.563,-0.562 -1.328,-0.878 -2.121,-0.878 -0.797,0 -1.559,0.316 -2.121,0.878 -0.563,0.563 -0.879,1.325 -0.879,2.122 0,0.796 0.316,1.558 0.879,2.121 0.562,0.562 1.324,0.879 2.121,0.879 z"
         style="fill:#ffad7a;fill-opacity:1;fill-rule:nonzero;stroke:#ffad7a;stroke-width:1;stroke-linecap:butt;stroke-linejoin:round;stroke-miterlimit:4;stroke-dasharray:none;stroke-opacity:1"
         transform="matrix(0.30865333,0,0,0.30865333,2.3226667,2.2736)"
         opacity="1"
         id="path103" />
      <path
         d="m 680.93,364.188 c 0.793,0 1.558,-0.317 2.121,-0.879 0.562,-0.563 0.879,-1.325 0.879,-2.121 0,-0.797 -0.317,-1.559 -0.879,-2.122 -0.563,-0.562 -1.328,-0.878 -2.121,-0.878 -0.797,0 -1.559,0.316 -2.121,0.878 -0.563,0.563 -0.879,1.325 -0.879,2.122 0,0.796 0.316,1.558 0.879,2.121 0.562,0.562 1.324,0.879 2.121,0.879 z"
         style="fill:#448fc2;fill-opacity:1;fill-rule:nonzero;stroke:#448fc2;stroke-width:1;stroke-linecap:butt;stroke-linejoin:round;stroke-miterlimit:4;stroke-dasharray:none;stroke-opacity:1"
         transform="matrix(0.30865333,0,0,0.30865333,2.3226667,2.2736)"
         opacity="1"
         id="path104" />
      <path
         d="m 680.93,364.188 c 0.793,0 1.558,-0.317 2.121,-0.879 0.562,-0.563 0.879,-1.325 0.879,-2.121 0,-0.797 -0.317,-1.559 -0.879,-2.122 -0.563,-0.562 -1.328,-0.878 -2.121,-0.878 -0.797,0 -1.559,0.316 -2.121,0.878 -0.563,0.563 -0.879,1.325 -0.879,2.122 0,0.796 0.316,1.558 0.879,2.121 0.562,0.562 1.324,0.879 2.121,0.879 z"
         style="fill:#9cd8ff;fill-opacity:1;fill-rule:nonzero;stroke:#9cd8ff;stroke-width:1;stroke-linecap:butt;stroke-linejoin:round;stroke-miterlimit:4;stroke-dasharray:none;stroke-opacity:1"
         transform="matrix(0.30865333,0,0,0.30865333,2.3226667,2.2736)"
         opacity="1"
         id="path105" />
      <path
         d="M 646.859,117.125 H 715 c 1.332,0 2,-0.668 2,-2 V 42.734 c 0,-1.336 -0.668,-2 -2,-2 h -68.141 c -1.336,0 -2,0.664 -2,2 v 72.391 c 0,1.332 0.664,2 2,2 z"
         style="fill:#ffffff;fill-opacity:1;fill-rule:nonzero;stroke:#cccccc;stroke-width:1;stroke-linecap:butt;stroke-linejoin:miter;stroke-miterlimit:4;stroke-dasharray:none;stroke-opacity:1"
         transform="matrix(0.30865333,0,0,0.30865333,2.3226667,2.2736)"
         opacity="0.8"
         id="path106" />
      <path
         d="m 658.859,52.707 c 0.793,0 1.559,-0.316 2.121,-0.879 0.563,-0.562 0.879,-1.328 0.879,-2.121 0,-0.797 -0.316,-1.559 -0.879,-2.121 -0.562,-0.563 -1.328,-0.879 -2.121,-0.879 -0.797,0 -1.562,0.316 -2.125,0.879 -0.562,0.562 -0.875,1.324 -0.875,2.121 0,0.793 0.313,1.559 0.875,2.121 0.563,0.563 1.328,0.879 2.125,0.879 z"
         style="fill:#42c292;fill-opacity:1;fill-rule:nonzero;stroke:#42c292;stroke-width:1;stroke-linecap:butt;stroke-linejoin:round;stroke-miterlimit:4;stroke-dasharray:none;stroke-opacity:1"
         transform="matrix(0.30865333,0,0,0.30865333,2.3226667,2.2736)"
         id="path107" />
      <path
         d="m 682.809,51.289 v -1.957 h -1.61 v -0.809 h 2.586 v 3.129 c -0.379,0.27 -0.801,0.473 -1.258,0.614 -0.461,0.136 -0.949,0.207 -1.468,0.207 -1.141,0 -2.032,-0.332 -2.676,-0.996 -0.645,-0.668 -0.965,-1.594 -0.965,-2.782 0,-1.195 0.32,-2.121 0.965,-2.789 0.644,-0.664 1.535,-0.996 2.676,-0.996 0.472,0 0.925,0.059 1.355,0.176 0.426,0.117 0.82,0.289 1.184,0.516 v 1.05 c -0.368,-0.308 -0.754,-0.543 -1.164,-0.699 -0.411,-0.156 -0.84,-0.234 -1.293,-0.234 -0.895,0 -1.563,0.25 -2.012,0.75 -0.445,0.496 -0.668,1.238 -0.668,2.226 0,0.981 0.223,1.723 0.668,2.219 0.449,0.5 1.117,0.75 2.012,0.75 0.347,0 0.656,-0.031 0.929,-0.094 0.274,-0.058 0.52,-0.152 0.739,-0.281 z"
         style="fill:#000000;fill-opacity:1;fill-rule:nonzero;stroke:none"
         transform="matrix(0.30865333,0,0,0.30865333,2.3226667,2.2736)"
         id="path108" />
      <path
         d="m 684.938,45.039 h 0.996 l 1.535,6.164 1.527,-6.164 h 1.109 l 1.532,6.164 1.527,-6.164 h 1.004 l -1.832,7.293 h -1.242 l -1.535,-6.328 -1.555,6.328 h -1.238 z"
         style="fill:#000000;fill-opacity:1;fill-rule:nonzero;stroke:none"
         transform="matrix(0.30865333,0,0,0.30865333,2.3226667,2.2736)"
         id="path109" />
      <path
         d="m 694.582,49.191 h 2.633 v 0.801 h -2.633 z"
         style="fill:#000000;fill-opacity:1;fill-rule:nonzero;stroke:none"
         transform="matrix(0.30865333,0,0,0.30865333,2.3226667,2.2736)"
         id="path110" />
      <path
         d="m 698.684,45.039 h 0.984 v 2.992 h 3.586 v -2.992 h 0.984 v 7.293 h -0.984 v -3.473 h -3.586 v 3.473 h -0.984 z"
         style="fill:#000000;fill-opacity:1;fill-rule:nonzero;stroke:none"
         transform="matrix(0.30865333,0,0,0.30865333,2.3226667,2.2736)"
         id="path111" />
      <path
         d="m 707.188,45.852 v 5.668 h 1.195 c 1.004,0 1.742,-0.227 2.207,-0.684 0.469,-0.453 0.699,-1.176 0.699,-2.156 0,-0.977 -0.23,-1.692 -0.699,-2.149 -0.465,-0.453 -1.203,-0.679 -2.207,-0.679 z m -0.985,-0.813 h 2.027 c 1.411,0 2.45,0.297 3.11,0.883 0.66,0.586 0.992,1.508 0.992,2.758 0,1.254 -0.332,2.179 -0.996,2.769 -0.664,0.586 -1.699,0.883 -3.106,0.883 h -2.027 z"
         style="fill:#000000;fill-opacity:1;fill-rule:nonzero;stroke:none"
         transform="matrix(0.30865333,0,0,0.30865333,2.3226667,2.2736)"
         id="path112" />
      <path
         d="m 658.859,67.383 c 0.793,0 1.559,-0.317 2.121,-0.879 0.563,-0.563 0.879,-1.324 0.879,-2.121 0,-0.793 -0.316,-1.559 -0.879,-2.121 -0.562,-0.563 -1.328,-0.879 -2.121,-0.879 -0.797,0 -1.562,0.316 -2.125,0.879 -0.562,0.562 -0.875,1.328 -0.875,2.121 0,0.797 0.313,1.558 0.875,2.121 0.563,0.562 1.328,0.879 2.125,0.879 z"
         style="fill:#93fad3;fill-opacity:1;fill-rule:nonzero;stroke:#93fad3;stroke-width:1;stroke-linecap:butt;stroke-linejoin:round;stroke-miterlimit:4;stroke-dasharray:none;stroke-opacity:1"
         transform="matrix(0.30865333,0,0,0.30865333,2.3226667,2.2736)"
         id="path113" />
      <path
         d="m 682.809,65.969 v -1.957 h -1.61 v -0.813 h 2.586 v 3.133 c -0.379,0.27 -0.801,0.473 -1.258,0.613 -0.461,0.137 -0.949,0.207 -1.468,0.207 -1.141,0 -2.032,-0.332 -2.676,-1 -0.645,-0.668 -0.965,-1.593 -0.965,-2.781 0,-1.191 0.32,-2.121 0.965,-2.785 0.644,-0.664 1.535,-1 2.676,-1 0.472,0 0.925,0.059 1.355,0.18 0.426,0.113 0.82,0.289 1.184,0.515 v 1.051 c -0.368,-0.309 -0.754,-0.543 -1.164,-0.699 -0.411,-0.156 -0.84,-0.235 -1.293,-0.235 -0.895,0 -1.563,0.25 -2.012,0.747 -0.445,0.5 -0.668,1.242 -0.668,2.226 0,0.984 0.223,1.723 0.668,2.223 0.449,0.496 1.117,0.746 2.012,0.746 0.347,0 0.656,-0.031 0.929,-0.09 0.274,-0.062 0.52,-0.156 0.739,-0.281 z"
         style="fill:#000000;fill-opacity:1;fill-rule:nonzero;stroke:none"
         transform="matrix(0.30865333,0,0,0.30865333,2.3226667,2.2736)"
         id="path114" />
      <path
         d="m 684.938,59.719 h 0.996 l 1.535,6.164 1.527,-6.164 h 1.109 l 1.532,6.164 1.527,-6.164 h 1.004 l -1.832,7.289 h -1.242 l -1.535,-6.328 -1.555,6.328 h -1.238 z"
         style="fill:#000000;fill-opacity:1;fill-rule:nonzero;stroke:none"
         transform="matrix(0.30865333,0,0,0.30865333,2.3226667,2.2736)"
         id="path115" />
      <path
         d="m 694.582,63.871 h 2.633 v 0.801 h -2.633 z"
         style="fill:#000000;fill-opacity:1;fill-rule:nonzero;stroke:none"
         transform="matrix(0.30865333,0,0,0.30865333,2.3226667,2.2736)"
         id="path116" />
      <path
         d="m 698.684,59.719 h 0.984 v 6.461 h 3.551 v 0.828 h -4.535 z"
         style="fill:#000000;fill-opacity:1;fill-rule:nonzero;stroke:none"
         transform="matrix(0.30865333,0,0,0.30865333,2.3226667,2.2736)"
         id="path117" />
      <path
         d="m 705.242,60.531 v 5.668 h 1.192 c 1.007,0 1.742,-0.23 2.211,-0.683 0.464,-0.457 0.699,-1.176 0.699,-2.161 0,-0.976 -0.235,-1.691 -0.699,-2.144 -0.469,-0.453 -1.204,-0.68 -2.211,-0.68 z m -0.988,-0.812 h 2.027 c 1.414,0 2.449,0.293 3.11,0.883 0.66,0.586 0.992,1.503 0.992,2.753 0,1.258 -0.332,2.18 -0.996,2.77 -0.664,0.59 -1.699,0.883 -3.106,0.883 h -2.027 z"
         style="fill:#000000;fill-opacity:1;fill-rule:nonzero;stroke:none"
         transform="matrix(0.30865333,0,0,0.30865333,2.3226667,2.2736)"
         id="path118" />
      <path
         d="m 658.859,82.062 c 0.793,0 1.559,-0.316 2.121,-0.878 0.563,-0.563 0.879,-1.325 0.879,-2.122 0,-0.796 -0.316,-1.558 -0.879,-2.121 -0.562,-0.562 -1.328,-0.879 -2.121,-0.879 -0.797,0 -1.562,0.317 -2.125,0.879 -0.562,0.563 -0.875,1.325 -0.875,2.121 0,0.797 0.313,1.559 0.875,2.122 0.563,0.562 1.328,0.878 2.125,0.878 z"
         style="fill:#ffad7a;fill-opacity:1;fill-rule:nonzero;stroke:#ffad7a;stroke-width:1;stroke-linecap:butt;stroke-linejoin:round;stroke-miterlimit:4;stroke-dasharray:none;stroke-opacity:1"
         transform="matrix(0.30865333,0,0,0.30865333,2.3226667,2.2736)"
         id="path119" />
      <path
         d="M 683.297,74.961 V 76 c -0.332,-0.312 -0.684,-0.543 -1.063,-0.695 -0.375,-0.153 -0.773,-0.227 -1.195,-0.227 -0.836,0 -1.473,0.254 -1.914,0.762 -0.445,0.512 -0.664,1.246 -0.664,2.211 0,0.961 0.219,1.695 0.664,2.203 0.441,0.512 1.078,0.766 1.914,0.766 0.422,0 0.82,-0.079 1.195,-0.231 0.379,-0.152 0.731,-0.383 1.063,-0.695 v 1.031 c -0.344,0.234 -0.711,0.41 -1.094,0.531 -0.387,0.114 -0.793,0.172 -1.223,0.172 -1.105,0 -1.976,-0.336 -2.609,-1.012 -0.637,-0.675 -0.953,-1.597 -0.953,-2.765 0,-1.172 0.316,-2.098 0.953,-2.77 0.633,-0.679 1.504,-1.015 2.609,-1.015 0.434,0 0.844,0.058 1.231,0.172 0.387,0.117 0.75,0.289 1.086,0.523 z"
         style="fill:#000000;fill-opacity:1;fill-rule:nonzero;stroke:none"
         transform="matrix(0.30865333,0,0,0.30865333,2.3226667,2.2736)"
         id="path120" />
      <path
         d="m 686.902,76.848 c -0.484,0 -0.863,0.187 -1.144,0.566 -0.278,0.375 -0.418,0.891 -0.418,1.543 0,0.656 0.137,1.168 0.414,1.547 0.281,0.375 0.664,0.562 1.148,0.562 0.477,0 0.856,-0.187 1.137,-0.566 0.281,-0.375 0.418,-0.891 0.418,-1.543 0,-0.648 -0.137,-1.16 -0.418,-1.539 -0.281,-0.379 -0.66,-0.57 -1.137,-0.57 z m 0,-0.762 c 0.782,0 1.395,0.254 1.84,0.766 0.446,0.503 0.668,1.207 0.668,2.105 0,0.895 -0.222,1.598 -0.668,2.109 -0.445,0.508 -1.058,0.762 -1.84,0.762 -0.785,0 -1.398,-0.254 -1.843,-0.762 -0.446,-0.511 -0.668,-1.214 -0.668,-2.109 0,-0.898 0.222,-1.602 0.668,-2.105 0.445,-0.512 1.058,-0.766 1.843,-0.766 z"
         style="fill:#000000;fill-opacity:1;fill-rule:nonzero;stroke:none"
         transform="matrix(0.30865333,0,0,0.30865333,2.3226667,2.2736)"
         id="path121" />
      <path
         d="m 695.445,78.387 v 3.301 h -0.898 v -3.274 c 0,-0.516 -0.098,-0.902 -0.301,-1.16 -0.203,-0.258 -0.504,-0.387 -0.91,-0.387 -0.484,0 -0.867,0.156 -1.148,0.465 -0.278,0.309 -0.418,0.73 -0.418,1.266 v 3.09 h -0.903 v -5.469 h 0.903 v 0.851 c 0.214,-0.332 0.468,-0.578 0.757,-0.738 0.293,-0.164 0.629,-0.246 1.012,-0.246 0.625,0 1.102,0.195 1.422,0.586 0.324,0.387 0.484,0.957 0.484,1.715 z"
         style="fill:#000000;fill-opacity:1;fill-rule:nonzero;stroke:none"
         transform="matrix(0.30865333,0,0,0.30865333,2.3226667,2.2736)"
         id="path122" />
      <path
         d="m 698.129,74.664 v 1.555 h 1.848 v 0.699 h -1.848 v 2.969 c 0,0.445 0.059,0.73 0.18,0.859 0.125,0.125 0.371,0.192 0.746,0.192 h 0.922 v 0.75 h -0.922 c -0.692,0 -1.172,-0.129 -1.434,-0.387 -0.266,-0.262 -0.398,-0.731 -0.398,-1.414 v -2.969 h -0.657 v -0.699 h 0.657 v -1.555 z"
         style="fill:#000000;fill-opacity:1;fill-rule:nonzero;stroke:none"
         transform="matrix(0.30865333,0,0,0.30865333,2.3226667,2.2736)"
         id="path123" />
      <path
         d="M 704.328,77.059 C 704.227,77 704.117,76.957 704,76.93 c -0.121,-0.028 -0.25,-0.043 -0.395,-0.043 -0.507,0 -0.898,0.164 -1.167,0.496 -0.274,0.328 -0.411,0.805 -0.411,1.422 v 2.883 h -0.902 v -5.469 h 0.902 v 0.851 c 0.192,-0.336 0.438,-0.582 0.739,-0.742 0.304,-0.16 0.672,-0.242 1.105,-0.242 0.059,0 0.129,0.004 0.203,0.016 0.074,0.003 0.16,0.015 0.25,0.035 z"
         style="fill:#000000;fill-opacity:1;fill-rule:nonzero;stroke:none"
         transform="matrix(0.30865333,0,0,0.30865333,2.3226667,2.2736)"
         id="path124" />
      <path
         d="m 707.164,76.848 c -0.48,0 -0.863,0.187 -1.141,0.566 -0.281,0.375 -0.421,0.891 -0.421,1.543 0,0.656 0.14,1.168 0.418,1.547 0.277,0.375 0.66,0.562 1.144,0.562 0.481,0 0.859,-0.187 1.137,-0.566 0.281,-0.375 0.422,-0.891 0.422,-1.543 0,-0.648 -0.141,-1.16 -0.422,-1.539 -0.278,-0.379 -0.656,-0.57 -1.137,-0.57 z m 0,-0.762 c 0.781,0 1.395,0.254 1.84,0.766 0.449,0.503 0.672,1.207 0.672,2.105 0,0.895 -0.223,1.598 -0.672,2.109 -0.445,0.508 -1.059,0.762 -1.84,0.762 -0.785,0 -1.398,-0.254 -1.844,-0.762 -0.445,-0.511 -0.664,-1.214 -0.664,-2.109 0,-0.898 0.219,-1.602 0.664,-2.105 0.446,-0.512 1.059,-0.766 1.844,-0.766 z"
         style="fill:#000000;fill-opacity:1;fill-rule:nonzero;stroke:none"
         transform="matrix(0.30865333,0,0,0.30865333,2.3226667,2.2736)"
         id="path125" />
      <path
         d="m 711.164,74.09 h 0.898 v 7.598 h -0.898 z"
         style="fill:#000000;fill-opacity:1;fill-rule:nonzero;stroke:none"
         transform="matrix(0.30865333,0,0,0.30865333,2.3226667,2.2736)"
         id="path126" />
      <path
         d="m 658.859,96.742 c 0.793,0 1.559,-0.316 2.121,-0.879 0.563,-0.562 0.879,-1.328 0.879,-2.121 0,-0.797 -0.316,-1.558 -0.879,-2.125 -0.562,-0.562 -1.328,-0.875 -2.121,-0.875 -0.797,0 -1.562,0.313 -2.125,0.875 -0.562,0.567 -0.875,1.328 -0.875,2.125 0,0.793 0.313,1.559 0.875,2.121 0.563,0.563 1.328,0.879 2.125,0.879 z"
         style="fill:#448fc2;fill-opacity:1;fill-rule:nonzero;stroke:#448fc2;stroke-width:1;stroke-linecap:butt;stroke-linejoin:round;stroke-miterlimit:4;stroke-dasharray:none;stroke-opacity:1"
         transform="matrix(0.30865333,0,0,0.30865333,2.3226667,2.2736)"
         id="path127" />
      <path
         d="m 677.191,89.074 h 0.997 l 1.531,6.164 1.527,-6.164 h 1.109 l 1.536,6.164 1.527,-6.164 h 1 l -1.832,7.293 h -1.238 l -1.539,-6.328 -1.551,6.328 h -1.242 z"
         style="fill:#000000;fill-opacity:1;fill-rule:nonzero;stroke:none"
         transform="matrix(0.30865333,0,0,0.30865333,2.3226667,2.2736)"
         id="path128" />
      <path
         d="m 686.727,89.074 h 1.058 l 2.02,3 2.007,-3 h 1.063 l -2.578,3.821 v 3.472 h -0.992 v -3.472 z"
         style="fill:#000000;fill-opacity:1;fill-rule:nonzero;stroke:none"
         transform="matrix(0.30865333,0,0,0.30865333,2.3226667,2.2736)"
         id="path129" />
      <path
         d="m 692.156,93.227 h 2.629 v 0.801 h -2.629 z"
         style="fill:#000000;fill-opacity:1;fill-rule:nonzero;stroke:none"
         transform="matrix(0.30865333,0,0,0.30865333,2.3226667,2.2736)"
         id="path130" />
      <path
         d="m 696.254,89.074 h 0.988 v 2.988 h 3.582 v -2.988 h 0.988 v 7.293 h -0.988 v -3.472 h -3.582 v 3.472 h -0.988 z"
         style="fill:#000000;fill-opacity:1;fill-rule:nonzero;stroke:none"
         transform="matrix(0.30865333,0,0,0.30865333,2.3226667,2.2736)"
         id="path131" />
      <path
         d="m 704.762,89.887 v 5.668 h 1.191 c 1.008,0 1.742,-0.227 2.211,-0.684 0.465,-0.457 0.699,-1.176 0.699,-2.16 0,-0.977 -0.234,-1.691 -0.699,-2.145 -0.469,-0.453 -1.203,-0.679 -2.211,-0.679 z m -0.989,-0.813 h 2.028 c 1.414,0 2.449,0.293 3.109,0.883 0.664,0.586 0.992,1.504 0.992,2.754 0,1.258 -0.332,2.184 -0.996,2.773 -0.664,0.586 -1.699,0.883 -3.105,0.883 h -2.028 z"
         style="fill:#000000;fill-opacity:1;fill-rule:nonzero;stroke:none"
         transform="matrix(0.30865333,0,0,0.30865333,2.3226667,2.2736)"
         id="path132" />
      <path
         d="m 658.859,111.418 c 0.793,0 1.559,-0.316 2.121,-0.879 0.563,-0.562 0.879,-1.324 0.879,-2.121 0,-0.797 -0.316,-1.559 -0.879,-2.121 -0.562,-0.563 -1.328,-0.879 -2.121,-0.879 -0.797,0 -1.562,0.316 -2.125,0.879 -0.562,0.562 -0.875,1.324 -0.875,2.121 0,0.797 0.313,1.559 0.875,2.121 0.563,0.563 1.328,0.879 2.125,0.879 z"
         style="fill:#9cd8ff;fill-opacity:1;fill-rule:nonzero;stroke:#9cd8ff;stroke-width:1;stroke-linecap:butt;stroke-linejoin:round;stroke-miterlimit:4;stroke-dasharray:none;stroke-opacity:1"
         transform="matrix(0.30865333,0,0,0.30865333,2.3226667,2.2736)"
         id="path133" />
      <path
         d="m 677.191,103.754 h 0.997 l 1.531,6.16 1.527,-6.16 h 1.109 l 1.536,6.16 1.527,-6.16 h 1 l -1.832,7.289 h -1.238 l -1.539,-6.328 -1.551,6.328 h -1.242 z"
         style="fill:#000000;fill-opacity:1;fill-rule:nonzero;stroke:none"
         transform="matrix(0.30865333,0,0,0.30865333,2.3226667,2.2736)"
         id="path134" />
      <path
         d="m 686.727,103.754 h 1.058 l 2.02,2.996 2.007,-2.996 h 1.063 l -2.578,3.816 v 3.473 h -0.992 v -3.473 z"
         style="fill:#000000;fill-opacity:1;fill-rule:nonzero;stroke:none"
         transform="matrix(0.30865333,0,0,0.30865333,2.3226667,2.2736)"
         id="path135" />
      <path
         d="m 692.156,107.906 h 2.629 v 0.797 h -2.629 z"
         style="fill:#000000;fill-opacity:1;fill-rule:nonzero;stroke:none"
         transform="matrix(0.30865333,0,0,0.30865333,2.3226667,2.2736)"
         id="path136" />
      <path
         d="m 696.254,103.754 h 0.988 v 6.461 h 3.551 v 0.828 h -4.539 z"
         style="fill:#000000;fill-opacity:1;fill-rule:nonzero;stroke:none"
         transform="matrix(0.30865333,0,0,0.30865333,2.3226667,2.2736)"
         id="path137" />
      <path
         d="m 702.812,104.562 v 5.672 h 1.192 c 1.008,0 1.742,-0.23 2.211,-0.683 0.465,-0.457 0.699,-1.176 0.699,-2.16 0,-0.977 -0.234,-1.692 -0.699,-2.145 -0.469,-0.457 -1.203,-0.684 -2.211,-0.684 z m -0.984,-0.808 h 2.027 c 1.411,0 2.446,0.293 3.11,0.879 0.66,0.59 0.992,1.508 0.992,2.758 0,1.257 -0.336,2.179 -1,2.769 -0.664,0.59 -1.695,0.883 -3.102,0.883 h -2.027 z"
         style="fill:#000000;fill-opacity:1;fill-rule:nonzero;stroke:none"
         transform="matrix(0.30865333,0,0,0.30865333,2.3226667,2.2736)"
         id="path138" />
      <path
         d="m 311.484,4.344 v 3.285 h 1.489 c 0.55,0 0.976,-0.141 1.277,-0.426 0.301,-0.285 0.449,-0.691 0.449,-1.219 0,-0.523 -0.148,-0.929 -0.449,-1.214 -0.301,-0.286 -0.727,-0.426 -1.277,-0.426 z m -1.183,-0.973 h 2.672 c 0.98,0 1.722,0.219 2.222,0.664 0.504,0.445 0.754,1.094 0.754,1.949 0,0.864 -0.25,1.516 -0.754,1.957 -0.5,0.442 -1.242,0.661 -2.222,0.661 h -1.489 v 3.515 h -1.183 z"
         style="fill:#000000;fill-opacity:1;fill-rule:nonzero;stroke:none"
         transform="matrix(0.30865333,0,0,0.30865333,2.3226667,2.2736)"
         id="path139" />
      <path
         d="m 324.086,4.043 v 1.25 c -0.398,-0.371 -0.824,-0.648 -1.274,-0.832 -0.453,-0.184 -0.929,-0.277 -1.437,-0.277 -1,0 -1.766,0.308 -2.297,0.918 -0.531,0.613 -0.797,1.496 -0.797,2.652 0,1.152 0.266,2.035 0.797,2.644 0.531,0.614 1.297,0.918 2.297,0.918 0.508,0 0.984,-0.093 1.437,-0.277 0.45,-0.184 0.876,-0.461 1.274,-0.832 v 1.238 c -0.414,0.282 -0.852,0.493 -1.316,0.633 -0.461,0.141 -0.95,0.211 -1.465,0.211 -1.325,0 -2.367,-0.406 -3.133,-1.215 -0.762,-0.812 -1.141,-1.918 -1.141,-3.32 0,-1.406 0.379,-2.516 1.141,-3.324 0.766,-0.813 1.808,-1.219 3.133,-1.219 0.523,0 1.015,0.07 1.476,0.211 0.465,0.137 0.899,0.344 1.305,0.621 z"
         style="fill:#000000;fill-opacity:1;fill-rule:nonzero;stroke:none"
         transform="matrix(0.30865333,0,0,0.30865333,2.3226667,2.2736)"
         id="path140" />
      <path
         d="m 328.84,4.535 -1.606,4.356 h 3.215 z m -0.668,-1.164 h 1.34 l 3.336,8.746 h -1.231 L 330.82,9.875 h -3.945 l -0.797,2.242 h -1.246 z"
         style="fill:#000000;fill-opacity:1;fill-rule:nonzero;stroke:none"
         transform="matrix(0.30865333,0,0,0.30865333,2.3226667,2.2736)"
         id="path141" />
      <path
         d="m 343.504,8.566 v 0.528 h -4.957 c 0.047,0.742 0.273,1.308 0.672,1.695 0.398,0.391 0.957,0.586 1.672,0.586 0.414,0 0.816,-0.051 1.203,-0.152 0.39,-0.102 0.777,-0.254 1.16,-0.457 v 1.019 c -0.387,0.164 -0.785,0.289 -1.192,0.375 -0.406,0.086 -0.816,0.129 -1.234,0.129 -1.047,0 -1.879,-0.305 -2.488,-0.914 -0.613,-0.609 -0.918,-1.434 -0.918,-2.473 0,-1.074 0.289,-1.925 0.871,-2.558 0.578,-0.629 1.363,-0.946 2.348,-0.946 0.882,0 1.578,0.286 2.093,0.852 0.516,0.57 0.77,1.34 0.77,2.316 z M 342.426,8.25 c -0.008,-0.59 -0.172,-1.059 -0.492,-1.41 -0.325,-0.352 -0.75,-0.528 -1.282,-0.528 -0.601,0 -1.082,0.168 -1.445,0.508 -0.359,0.34 -0.57,0.821 -0.625,1.438 z"
         style="fill:#000000;fill-opacity:1;fill-rule:nonzero;stroke:none"
         transform="matrix(0.30865333,0,0,0.30865333,2.3226667,2.2736)"
         id="path142" />
      <path
         d="m 350.383,6.816 c 0.269,-0.484 0.594,-0.843 0.969,-1.074 0.375,-0.23 0.816,-0.344 1.324,-0.344 0.683,0 1.211,0.239 1.582,0.719 0.371,0.477 0.554,1.156 0.554,2.039 v 3.961 H 353.73 V 8.191 c 0,-0.629 -0.113,-1.093 -0.335,-1.398 -0.223,-0.305 -0.563,-0.457 -1.02,-0.457 -0.559,0 -1,0.187 -1.324,0.559 -0.324,0.367 -0.485,0.875 -0.485,1.515 v 3.707 H 349.48 V 8.191 c 0,-0.632 -0.109,-1.097 -0.332,-1.402 -0.222,-0.301 -0.566,-0.453 -1.031,-0.453 -0.551,0 -0.988,0.187 -1.316,0.559 -0.324,0.371 -0.485,0.878 -0.485,1.515 v 3.707 h -1.082 V 5.555 h 1.082 v 1.019 c 0.246,-0.402 0.543,-0.699 0.887,-0.89 0.344,-0.192 0.75,-0.286 1.223,-0.286 0.476,0 0.883,0.122 1.219,0.364 0.332,0.242 0.578,0.593 0.738,1.054 z"
         style="fill:#000000;fill-opacity:1;fill-rule:nonzero;stroke:none"
         transform="matrix(0.30865333,0,0,0.30865333,2.3226667,2.2736)"
         id="path143" />
      <path
         d="m 361.676,8.844 c 0,-0.793 -0.164,-1.414 -0.488,-1.867 -0.329,-0.45 -0.778,-0.676 -1.348,-0.676 -0.57,0 -1.02,0.226 -1.344,0.676 -0.328,0.453 -0.488,1.074 -0.488,1.867 0,0.793 0.16,1.414 0.488,1.863 0.324,0.453 0.774,0.68 1.344,0.68 0.57,0 1.019,-0.227 1.348,-0.68 0.324,-0.449 0.488,-1.07 0.488,-1.863 z m -3.668,-2.293 c 0.226,-0.391 0.512,-0.68 0.855,-0.867 0.348,-0.192 0.762,-0.286 1.242,-0.286 0.797,0 1.446,0.317 1.942,0.95 0.5,0.632 0.746,1.464 0.746,2.496 0,1.031 -0.246,1.863 -0.746,2.496 -0.496,0.633 -1.145,0.949 -1.942,0.949 -0.48,0 -0.894,-0.094 -1.242,-0.285 -0.343,-0.192 -0.629,-0.481 -0.855,-0.871 v 0.984 h -1.086 V 3 h 1.086 z"
         style="fill:#000000;fill-opacity:1;fill-rule:nonzero;stroke:none"
         transform="matrix(0.30865333,0,0,0.30865333,2.3226667,2.2736)"
         id="path144" />
      <path
         d="m 370.195,8.566 v 0.528 h -4.957 c 0.047,0.742 0.27,1.308 0.668,1.695 0.403,0.391 0.961,0.586 1.676,0.586 0.414,0 0.813,-0.051 1.203,-0.152 0.387,-0.102 0.774,-0.254 1.156,-0.457 v 1.019 c -0.386,0.164 -0.781,0.289 -1.187,0.375 -0.406,0.086 -0.82,0.129 -1.238,0.129 -1.047,0 -1.875,-0.305 -2.489,-0.914 -0.609,-0.609 -0.914,-1.434 -0.914,-2.473 0,-1.074 0.289,-1.925 0.867,-2.558 0.582,-0.629 1.364,-0.946 2.348,-0.946 0.883,0 1.582,0.286 2.094,0.852 0.516,0.57 0.773,1.34 0.773,2.316 z M 369.117,8.25 c -0.008,-0.59 -0.172,-1.059 -0.496,-1.41 -0.324,-0.352 -0.75,-0.528 -1.281,-0.528 -0.602,0 -1.082,0.168 -1.442,0.508 -0.363,0.34 -0.57,0.821 -0.625,1.438 z"
         style="fill:#000000;fill-opacity:1;fill-rule:nonzero;stroke:none"
         transform="matrix(0.30865333,0,0,0.30865333,2.3226667,2.2736)"
         id="path145" />
      <path
         d="M 376.281,6.551 V 3 h 1.078 v 9.117 h -1.078 v -0.984 c -0.226,0.39 -0.511,0.679 -0.859,0.871 -0.344,0.191 -0.758,0.285 -1.242,0.285 -0.793,0 -1.442,-0.316 -1.938,-0.949 -0.5,-0.633 -0.746,-1.465 -0.746,-2.496 0,-1.032 0.246,-1.864 0.746,-2.496 0.496,-0.633 1.145,-0.95 1.938,-0.95 0.484,0 0.898,0.094 1.242,0.286 0.348,0.187 0.633,0.476 0.859,0.867 z m -3.672,2.293 c 0,0.793 0.164,1.414 0.489,1.863 0.328,0.453 0.773,0.68 1.343,0.68 0.571,0 1.02,-0.227 1.348,-0.68 0.328,-0.449 0.492,-1.07 0.492,-1.863 0,-0.793 -0.164,-1.414 -0.492,-1.867 -0.328,-0.45 -0.777,-0.676 -1.348,-0.676 -0.57,0 -1.015,0.226 -1.343,0.676 -0.325,0.453 -0.489,1.074 -0.489,1.867 z"
         style="fill:#000000;fill-opacity:1;fill-rule:nonzero;stroke:none"
         transform="matrix(0.30865333,0,0,0.30865333,2.3226667,2.2736)"
         id="path146" />
      <path
         d="M 383.898,6.551 V 3 h 1.079 v 9.117 h -1.079 v -0.984 c -0.226,0.39 -0.511,0.679 -0.859,0.871 -0.344,0.191 -0.758,0.285 -1.242,0.285 -0.793,0 -1.442,-0.316 -1.938,-0.949 -0.5,-0.633 -0.746,-1.465 -0.746,-2.496 0,-1.032 0.246,-1.864 0.746,-2.496 0.496,-0.633 1.145,-0.95 1.938,-0.95 0.484,0 0.898,0.094 1.242,0.286 0.348,0.187 0.633,0.476 0.859,0.867 z m -3.671,2.293 c 0,0.793 0.164,1.414 0.488,1.863 0.328,0.453 0.773,0.68 1.344,0.68 0.57,0 1.019,-0.227 1.347,-0.68 0.328,-0.449 0.492,-1.07 0.492,-1.863 0,-0.793 -0.164,-1.414 -0.492,-1.867 -0.328,-0.45 -0.777,-0.676 -1.347,-0.676 -0.571,0 -1.016,0.226 -1.344,0.676 -0.324,0.453 -0.488,1.074 -0.488,1.867 z"
         style="fill:#000000;fill-opacity:1;fill-rule:nonzero;stroke:none"
         transform="matrix(0.30865333,0,0,0.30865333,2.3226667,2.2736)"
         id="path147" />
      <path
         d="m 387.199,5.555 h 1.078 v 6.562 h -1.078 z m 0,-2.555 h 1.078 v 1.367 h -1.078 z"
         style="fill:#000000;fill-opacity:1;fill-rule:nonzero;stroke:none"
         transform="matrix(0.30865333,0,0,0.30865333,2.3226667,2.2736)"
         id="path148" />
      <path
         d="m 395.988,8.156 v 3.961 H 394.91 V 8.191 c 0,-0.621 -0.121,-1.086 -0.363,-1.39 -0.242,-0.309 -0.606,-0.465 -1.09,-0.465 -0.582,0 -1.043,0.187 -1.379,0.559 -0.336,0.367 -0.504,0.875 -0.504,1.515 v 3.707 h -1.082 V 5.555 h 1.082 v 1.019 c 0.258,-0.394 0.563,-0.687 0.91,-0.883 0.352,-0.195 0.754,-0.293 1.211,-0.293 0.754,0 1.325,0.235 1.711,0.7 0.387,0.464 0.582,1.152 0.582,2.058 z"
         style="fill:#000000;fill-opacity:1;fill-rule:nonzero;stroke:none"
         transform="matrix(0.30865333,0,0,0.30865333,2.3226667,2.2736)"
         id="path149" />
      <path
         d="m 402.457,8.762 c 0,-0.782 -0.164,-1.387 -0.484,-1.817 -0.325,-0.429 -0.774,-0.644 -1.356,-0.644 -0.578,0 -1.027,0.215 -1.351,0.644 -0.321,0.43 -0.485,1.035 -0.485,1.817 0,0.777 0.164,1.379 0.485,1.808 0.324,0.43 0.773,0.645 1.351,0.645 0.582,0 1.031,-0.215 1.356,-0.645 0.32,-0.429 0.484,-1.031 0.484,-1.808 z m 1.078,2.543 c 0,1.117 -0.25,1.945 -0.746,2.492 -0.496,0.543 -1.254,0.816 -2.277,0.816 -0.379,0 -0.739,-0.027 -1.074,-0.082 -0.336,-0.058 -0.661,-0.144 -0.977,-0.261 v -1.047 c 0.316,0.168 0.629,0.297 0.937,0.379 0.309,0.082 0.622,0.121 0.942,0.121 0.707,0 1.238,-0.184 1.59,-0.551 0.351,-0.371 0.527,-0.93 0.527,-1.676 v -0.531 c -0.223,0.387 -0.508,0.676 -0.855,0.867 -0.348,0.191 -0.766,0.285 -1.25,0.285 -0.805,0 -1.454,-0.305 -1.946,-0.918 -0.492,-0.613 -0.738,-1.426 -0.738,-2.437 0,-1.016 0.246,-1.832 0.738,-2.442 0.492,-0.613 1.141,-0.922 1.946,-0.922 0.484,0 0.902,0.094 1.25,0.286 0.347,0.191 0.632,0.48 0.855,0.867 V 5.555 h 1.078 z"
         style="fill:#000000;fill-opacity:1;fill-rule:nonzero;stroke:none"
         transform="matrix(0.30865333,0,0,0.30865333,2.3226667,2.2736)"
         id="path150" />
      <path
         d="m 409.938,5.75 v 1.02 c -0.305,-0.157 -0.622,-0.274 -0.95,-0.352 -0.328,-0.078 -0.668,-0.117 -1.019,-0.117 -0.535,0 -0.938,0.082 -1.203,0.246 -0.27,0.164 -0.403,0.41 -0.403,0.738 0,0.25 0.098,0.445 0.289,0.59 0.192,0.141 0.575,0.277 1.153,0.406 l 0.371,0.082 c 0.765,0.164 1.308,0.395 1.629,0.692 0.324,0.3 0.484,0.718 0.484,1.254 0,0.609 -0.242,1.089 -0.723,1.449 -0.484,0.355 -1.144,0.531 -1.988,0.531 -0.351,0 -0.719,-0.035 -1.101,-0.101 -0.379,-0.071 -0.782,-0.172 -1.204,-0.309 v -1.113 c 0.399,0.207 0.793,0.363 1.18,0.464 0.387,0.106 0.77,0.157 1.149,0.157 0.507,0 0.898,-0.09 1.168,-0.262 0.277,-0.176 0.414,-0.418 0.414,-0.734 0,-0.293 -0.102,-0.52 -0.297,-0.676 -0.199,-0.156 -0.629,-0.305 -1.297,-0.449 l -0.375,-0.09 C 406.547,9.035 406.062,8.82 405.766,8.531 405.469,8.238 405.32,7.84 405.32,7.332 c 0,-0.617 0.219,-1.094 0.657,-1.43 0.437,-0.336 1.058,-0.504 1.863,-0.504 0.398,0 0.773,0.032 1.125,0.09 0.351,0.055 0.676,0.145 0.973,0.262 z"
         style="fill:#000000;fill-opacity:1;fill-rule:nonzero;stroke:none"
         transform="matrix(0.30865333,0,0,0.30865333,2.3226667,2.2736)"
         id="path151" />
    </g>
    <path
       id="path152"
       d="M 0,0 V 170.079"
       style="fill:none;stroke:#000000;stroke-width:0.398;stroke-linecap:butt;stroke-linejoin:miter;stroke-miterlimit:10;stroke-dasharray:none;stroke-opacity:1"
       transform="matrix(1.3333333,0,0,-1.3333333,227.03733,226.772)" />
    <path
       id="path153"
       d="M 0,0 H 170.876"
       style="fill:none;stroke:#000000;stroke-width:0.398;stroke-linecap:butt;stroke-linejoin:miter;stroke-miterlimit:10;stroke-dasharray:none;stroke-opacity:1"
       transform="matrix(1.3333333,0,0,-1.3333333,-0.53066667,227.03733)" />
  </g>
</svg>
