<?xml version="1.0" encoding="UTF-8" standalone="no"?>
<!-- Created with Inkscape (http://www.inkscape.org/) -->

<svg
   version="1.1"
   id="svg1"
   width="226.772"
   height="226.772"
   viewBox="0 0 226.772 226.772"
   sodipodi:docname="gardaa2025rotatouille.svg"
   inkscape:version="1.4.3 (0d15f75, 2025-12-25)"
   xmlns:inkscape="http://www.inkscape.org/namespaces/inkscape"
   xmlns:sodipodi="http://sodipodi.sourceforge.net/DTD/sodipodi-0.dtd"
   xmlns="http://www.w3.org/2000/svg"
   xmlns:svg="http://www.w3.org/2000/svg">
  <defs
     id="defs1" />
  <sodipodi:namedview
     id="namedview1"
     pagecolor="#ffffff"
     bordercolor="#000000"
     borderopacity="0.25"
     inkscape:showpageshadow="2"
     inkscape:pageopacity="0.0"
     inkscape:pagecheckerboard="0"
     inkscape:deskcolor="#d1d1d1"
     inkscape:zoom="3.2411408"
     inkscape:cx="113.386"
     inkscape:cy="113.386"
     inkscape:window-width="1920"
     inkscape:window-height="974"
     inkscape:window-x="-11"
     inkscape:window-y="-11"
     inkscape:window-maximized="1"
     inkscape:current-layer="g1">
    <inkscape:page
       x="0"
       y="0"
       inkscape:label="1"
       id="page1"
       width="226.772"
       height="226.772"
       margin="0"
       bleed="0" />
  </sodipodi:namedview>
  <g
     id="g1"
     inkscape:groupmode="layer"
     inkscape:label="1">
    <path
       id="path1"
       d="M 0,0 H 170.876"
       style="fill:none;stroke:#000000;stroke-width:0.398;stroke-linecap:butt;stroke-linejoin:miter;stroke-miterlimit:10;stroke-dasharray:none;stroke-opacity:1"
       transform="matrix(1.3333333,0,0,-1.3333333,-0.53066667,-0.26533333)" />
    <path
       id="path2"
       d="M 0,0 V 170.079"
       style="fill:none;stroke:#000000;stroke-width:0.398;stroke-linecap:butt;stroke-linejoin:miter;stroke-miterlimit:10;stroke-dasharray:none;stroke-opacity:1"
       transform="matrix(1.3333333,0,0,-1.3333333,-0.26533333,226.772)" />
    <g
       id="g8">
      <path
         d="m 65.797,64.559 c 0,1.078 -0.871,1.953 -1.949,1.953 -1.078,0 -1.953,-0.875 -1.953,-1.953 0,-1.079 0.875,-1.954 1.953,-1.954 1.078,0 1.949,0.875 1.949,1.954 z"
         style="fill:#000000;fill-opacity:1;fill-rule:nonzero;stroke:none"
         transform="matrix(0.67030667,0,0,0.67030667,-130.71733,50.957098)"
         id="path3" />
      <path
         d="M 95.99,99.681 64.087,104.732 49.421,75.95 72.263,53.108 101.044,67.775 Z"
         style="fill:none;stroke:#000000;stroke-width:0.414567;stroke-linecap:round;stroke-linejoin:round;stroke-miterlimit:1;stroke-dasharray:0.414567, 1.2437;stroke-dashoffset:0;stroke-opacity:1"
         transform="matrix(0.67030667,0.10621076,-0.10621076,0.67030667,-130.71733,50.957098)"
         id="path4" />
      <path
         d="m 92.258,83.785 c 0,1.078 -0.875,1.949 -1.953,1.949 -1.078,0 -1.95,-0.871 -1.95,-1.949 0,-1.078 0.872,-1.953 1.95,-1.953 1.078,0 1.953,0.875 1.953,1.953 z"
         style="fill:#000000;fill-opacity:1;fill-rule:nonzero;stroke:none"
         transform="matrix(0.67030667,0,0,0.67030667,-130.71733,50.957098)"
         id="path5" />
      <path
         d="m 82.148,114.891 c 0,1.074 -0.875,1.949 -1.953,1.949 -1.078,0 -1.949,-0.875 -1.949,-1.949 0,-1.079 0.871,-1.953 1.949,-1.953 1.078,0 1.953,0.874 1.953,1.953 z"
         style="fill:#000000;fill-opacity:1;fill-rule:nonzero;stroke:none"
         transform="matrix(0.67030667,0,0,0.67030667,-130.71733,50.957098)"
         id="path6" />
      <path
         d="m 49.441,114.887 c 0,1.078 -0.875,1.953 -1.949,1.953 -1.078,0 -1.953,-0.875 -1.953,-1.953 0,-1.078 0.875,-1.953 1.953,-1.953 1.074,0 1.949,0.875 1.949,1.953 z"
         style="fill:#000000;fill-opacity:1;fill-rule:nonzero;stroke:none"
         transform="matrix(0.67030667,0,0,0.67030667,-130.71733,50.957098)"
         id="path7" />
      <path
         d="m 39.336,83.781 c 0,1.078 -0.871,1.949 -1.949,1.949 -1.078,0 -1.953,-0.871 -1.953,-1.949 0,-1.078 0.875,-1.953 1.953,-1.953 1.078,0 1.949,0.875 1.949,1.953 z"
         style="fill:#000000;fill-opacity:1;fill-rule:nonzero;stroke:none"
         transform="matrix(0.67030667,0,0,0.67030667,-130.71733,50.957098)"
         id="path8" />
    </g>
    <path
       id="path9"
       d="m 3.5970781,-2.2275312 c 0,-0.7617188 -0.09375,-1.3125 -0.4101562,-1.8046875 C 2.9642656,-4.348625 2.5423906,-4.629875 1.9798906,-4.629875 c -1.61718748,0 -1.61718748,1.8984375 -1.61718748,2.4023438 0,0.5039062 0,2.36718745 1.61718748,2.36718745 1.6171875,0 1.6171875,-1.86328125 1.6171875,-2.36718745 z m -1.6171875,2.1679687 c -0.3164062,0 -0.75,-0.1875 -0.890625,-0.76171875 -0.09375,-0.41015625 -0.09375,-0.98437495 -0.09375,-1.49999995 0,-0.5039063 0,-1.03125 0.1054688,-1.4179688 0.1523437,-0.5507812 0.5976562,-0.6914062 0.8789062,-0.6914062 0.375,0 0.7382813,0.2226562 0.8671875,0.6328125 0.1054688,0.375 0.1171875,0.8789062 0.1171875,1.4765625 0,0.515625 0,1.0429687 -0.09375,1.47656245 -0.140625,0.6328125 -0.609375,0.78515625 -0.890625,0.78515625 z m 0,0"
       style="fill:#000000;fill-opacity:1;fill-rule:nonzero;stroke:none"
       aria-label="0"
       transform="matrix(1.3333333,0,0,1.3333333,-90.522667,90.110667)" />
    <path
       id="path10"
       d="m 2.3315859,-4.4284219 c 0,-0.1875 -0.011719,-0.1992187 -0.2109375,-0.1992187 -0.4453125,0.4335937 -1.078125,0.4453125 -1.35937496,0.4453125 v 0.2460937 c 0.1640625,0 0.62109376,0 1.00781246,-0.1875 v 3.55078128 c 0,0.234375 0,0.328125 -0.6914062,0.328125 H 0.80814844 v 0.24609375 c 0.12890625,-0.01171875 0.98437496,-0.0234375 1.24218746,-0.0234375 0.2109375,0 1.0898438,0.01171875 1.2421875,0.0234375 V -0.24482812 H 3.0347109 c -0.703125,0 -0.703125,-0.09375 -0.703125,-0.328125 z m 0,0"
       style="fill:#000000;fill-opacity:1;fill-rule:nonzero;stroke:none"
       aria-label="1"
       transform="matrix(1.3333333,0,0,1.3333333,-67.808,108.428)" />
    <path
       id="path11"
       d="m 3.5150703,-1.2661328 h -0.234375 c -0.023437,0.1523437 -0.082031,0.56249999 -0.1757812,0.63281249 -0.058594,0.0351563 -0.5976563,0.0351563 -0.6914063,0.0351563 H 1.1244453 C 1.8627266,-1.2426953 2.1088203,-1.441914 2.5189766,-1.770039 c 0.515625,-0.4101563 0.9960937,-0.8437501 0.9960937,-1.5000001 0,-0.8437499 -0.7382812,-1.3593749 -1.6289062,-1.3593749 -0.8671875,0 -1.45312504,0.609375 -1.45312504,1.2421874 0,0.3632813 0.3046875,0.3984375 0.375,0.3984375 0.1640625,0 0.37500004,-0.1171875 0.37500004,-0.375 0,-0.1289062 -0.058594,-0.3632812 -0.42187504,-0.3632812 0.22265625,-0.5039062 0.69140624,-0.65625 1.01953124,-0.65625 0.703125,0 1.0664063,0.5507812 1.0664063,1.1132812 0,0.609375 -0.4335938,1.0898438 -0.65625,1.3359375 l -1.68750004,1.66406259 c -0.0703125,0.0585938 -0.0703125,0.0703125 -0.0703125,0.2695312475 H 3.3158516 Z m 0,0"
       style="fill:#000000;fill-opacity:1;fill-rule:nonzero;stroke:none"
       aria-label="2"
       transform="matrix(1.3333333,0,0,1.3333333,-79.690667,135.97333)" />
    <path
       id="path12"
       d="m 1.8976236,-2.3325391 c 0.5507813,0 0.9375001,0.375 0.9375001,1.125 0,0.86718754 -0.5039063,1.12500004 -0.9023438,1.12500004 -0.28125,0 -0.890625,-0.08203125 -1.18359375,-0.4921875 0.32812495,-0.0117188 0.39843745,-0.24609375 0.39843745,-0.38671875 0,-0.22265629 -0.16406245,-0.38671879 -0.3867187,-0.38671879 -0.1875,0 -0.38671875,0.1171875 -0.38671875,0.41015629 0,0.65625 0.72656245,1.078125 1.57031245,1.078125 0.9726563,0 1.6406251,-0.64453125 1.6406251,-1.34765629 0,-0.5390625 -0.4453125,-1.0898437 -1.21875,-1.2421875 0.7382812,-0.2695312 0.9960937,-0.796875 0.9960937,-1.21875 0,-0.5507812 -0.6328125,-0.9609375 -1.40625,-0.9609375 -0.7734375,0 -1.359375,0.375 -1.359375,0.9375 0,0.234375 0.15234375,0.3632813 0.36328125,0.3632813 0.21093745,0 0.35156245,-0.1640625 0.35156245,-0.3515625 0,-0.1992188 -0.140625,-0.3515625 -0.35156245,-0.3632813 0.23437495,-0.3046875 0.71484375,-0.3867187 0.97265625,-0.3867187 0.3164063,0 0.7617188,0.1523437 0.7617188,0.7617187 0,0.2929688 -0.1054688,0.609375 -0.28125,0.8320313 -0.234375,0.2578125 -0.4218751,0.28125 -0.7734376,0.2929687 -0.1757812,0.023437 -0.1875,0.023437 -0.2226562,0.023437 -0.011719,0 -0.070312,0.011719 -0.070312,0.09375 0,0.09375 0.058594,0.09375 0.1757812,0.09375 z m 0,0"
       style="fill:#000000;fill-opacity:1;fill-rule:nonzero;stroke:none"
       aria-label="3"
       transform="matrix(1.3333333,0,0,1.3333333,-101.63954,135.97333)" />
    <path
       id="path13"
       d="M 3.6921172,-1.1471719 V -1.3932656 H 2.9186797 v -3.1054688 c 0,-0.1523437 0,-0.1992187 -0.1523438,-0.1992187 -0.09375,0 -0.1171875,0 -0.1875,0.09375 l -2.30859371,3.2109375 v 0.2460937 H 2.3210234 v 0.57421878 c 0,0.234375 0,0.328125 -0.5625,0.328125 h -0.1875 v 0.24609375 c 0.3515625,-0.01171875 0.796875,-0.0234375 1.0429688,-0.0234375 0.2578125,0 0.703125,0.01171875 1.0546875,0.0234375 v -0.24609375 h -0.1875 c -0.5625,0 -0.5625,-0.09375 -0.5625,-0.328125 V -1.1471719 Z M 2.3678984,-3.9479531 v 2.5546875 H 0.52805469 Z m 0,0"
       style="fill:#000000;fill-opacity:1;fill-rule:nonzero;stroke:none"
       aria-label="4"
       transform="matrix(1.3333333,0,0,1.3333333,-113.76267,108.428)" />
    <g
       id="g15">
      <path
         d="m 231.629,68.719 c 0,1 -0.813,1.808 -1.809,1.808 -1,0 -1.808,-0.808 -1.808,-1.808 0,-1 0.808,-1.809 1.808,-1.809 0.996,0 1.809,0.809 1.809,1.809 z"
         style="fill:#000000;fill-opacity:1;fill-rule:nonzero;stroke:none"
         transform="matrix(0.67030667,0,0,0.67030667,-130.71733,50.957098)"
         id="path14" />
      <path
         d="m 269.145,81.703 -39.325,-12.984 21.887,29.308 -31.164,7.977 73.254,26.344 z"
         style="fill:none;stroke:#000000;stroke-width:0.389004;stroke-linecap:round;stroke-linejoin:round;stroke-miterlimit:1;stroke-dasharray:none;stroke-opacity:1"
         transform="matrix(0.67030667,0,0,0.67030667,-130.71733,50.957098)"
         id="path15" />
    </g>
    <g
       id="g16"
       aria-label="x&#10;0"
       transform="matrix(1.3333333,0,0,1.3333333,61.178667,146.57067)">
      <path
         id="path16"
         d="m 1.7351406,-0.73854687 c -0.070312,0.234375 -0.2929687,0.609375 -0.65625,0.609375 -0.023437,0 -0.22265622,0 -0.37499997,-0.09375 0.28125,-0.09375 0.30468747,-0.33984375 0.30468747,-0.38671875 0,-0.15234375 -0.11718747,-0.2578125 -0.28124997,-0.2578125 -0.1875,0 -0.38671875,0.1640625 -0.38671875,0.43359375 0,0.33984375 0.38671875,0.50390625 0.72656252,0.50390625 0.3164062,0 0.609375,-0.19921875 0.7851562,-0.4921875 0.1640625,0.36328125 0.5507813,0.4921875 0.8203125,0.4921875 0.8085938,0 1.2304688,-0.8671875 1.2304688,-1.06640625 0,-0.09375 -0.09375,-0.09375 -0.1054688,-0.09375 -0.1054687,0 -0.1054687,0.035156 -0.140625,0.11718756 -0.140625,0.48046875 -0.5625,0.84375 -0.9492187,0.84375 -0.28125,0 -0.421875,-0.1875 -0.421875,-0.4453125 0,-0.1875 0.1640625,-0.82031256 0.3632812,-1.59375006 0.1289063,-0.5390625 0.4453125,-0.7148437 0.6796875,-0.7148437 0.011719,0 0.2226563,0 0.375,0.1054687 -0.2226562,0.058594 -0.3046875,0.2578125 -0.3046875,0.375 0,0.1523438 0.1171875,0.2578125 0.28125,0.2578125 0.1523438,0 0.3867188,-0.1289062 0.3867188,-0.421875 0,-0.3867187 -0.4453125,-0.5039062 -0.7265625,-0.5039062 -0.3515625,0 -0.6328125,0.2226562 -0.7851563,0.4921875 -0.1171875,-0.2929688 -0.4453125,-0.4921875 -0.8320312,-0.4921875 -0.78515627,0 -1.23046877,0.8554687 -1.23046877,1.0664062 0,0.082031 0.10546875,0.082031 0.1171875,0.082031 0.09375,0 0.10546875,-0.023437 0.140625,-0.1171875 0.17578125,-0.5390625 0.60937497,-0.84375 0.94921877,-0.84375 0.234375,0 0.421875,0.1289062 0.421875,0.46875 0,0.1289062 -0.082031,0.4804687 -0.1523438,0.7148437 z m 0,0"
         style="fill:#000000;fill-opacity:1;fill-rule:nonzero;stroke:none" />
      <path
         id="path17"
         d="m 7.506625,-0.59792187 c 0,-0.36328125 0,-1.72265623 -1.2890625,-1.72265623 -1.3007812,0 -1.3007812,1.35937498 -1.3007812,1.72265623 0,0.36328125 0,1.69921877 1.3007812,1.69921877 1.2890625,0 1.2890625,-1.33593752 1.2890625,-1.69921877 z M 6.2175625,0.93723438 c -0.1875,0 -0.609375,-0.0585938 -0.7382812,-0.5625 -0.058594,-0.26953125 -0.070312,-0.62109375 -0.070312,-1.03125 0,-0.37499998 0,-0.71484378 0.082031,-0.99609378 0.1289063,-0.421875 0.5039063,-0.5039062 0.7265625,-0.5039062 0.3632813,0 0.6210938,0.1875 0.7265625,0.5390625 0.070312,0.2578125 0.070312,0.66796873 0.070312,0.96093748 0,0.33984375 0,0.73828125 -0.070312,1.04296875 -0.1289065,0.48046875 -0.527344,0.55078125 -0.7265628,0.55078125 z m 0,0"
         style="fill:#000000;fill-opacity:1;fill-rule:nonzero;stroke:none" />
    </g>
    <g
       id="g17"
       aria-label="x&#10;1"
       transform="matrix(1.3333333,0,0,1.3333333,45.804,101.772)">
      <path
         id="path18"
         d="m 1.7348906,-0.73720312 c -0.070312,0.234375 -0.2929687,0.609375 -0.65625,0.609375 -0.023437,0 -0.22265622,0 -0.37499997,-0.09375 0.28125,-0.09375 0.30468747,-0.33984375 0.30468747,-0.38671875 0,-0.15234375 -0.11718747,-0.2578125 -0.28124997,-0.2578125 -0.1875,0 -0.38671875,0.1640625 -0.38671875,0.43359375 0,0.33984375 0.38671875,0.50390625 0.72656252,0.50390625 0.3164062,0 0.609375,-0.19921875 0.7851562,-0.4921875 0.1640625,0.36328125 0.5507813,0.4921875 0.8203125,0.4921875 0.8085938,0 1.2304688,-0.8671875 1.2304688,-1.06640625 0,-0.09375 -0.09375,-0.09375 -0.1054688,-0.09375 -0.1054687,0 -0.1054687,0.035156 -0.140625,0.11718746 -0.140625,0.48046875 -0.5625,0.84375 -0.9492187,0.84375 -0.28125,0 -0.421875,-0.1875 -0.421875,-0.4453125 0,-0.1875 0.1640625,-0.82031246 0.3632812,-1.59374996 0.1289063,-0.5390625 0.4453125,-0.7148438 0.6796875,-0.7148438 0.011719,0 0.2226563,0 0.375,0.1054688 -0.2226562,0.058594 -0.3046875,0.2578125 -0.3046875,0.375 0,0.1523437 0.1171875,0.2578125 0.28125,0.2578125 0.1523438,0 0.3867188,-0.1289063 0.3867188,-0.421875 0,-0.3867188 -0.4453125,-0.5039063 -0.7265625,-0.5039063 -0.3515625,0 -0.6328125,0.2226563 -0.7851563,0.4921875 -0.1171875,-0.2929687 -0.4453125,-0.4921875 -0.8320312,-0.4921875 -0.78515627,0 -1.23046877,0.8554688 -1.23046877,1.0664063 0,0.082031 0.10546875,0.082031 0.1171875,0.082031 0.09375,0 0.10546875,-0.023437 0.140625,-0.1171875 0.17578125,-0.5390625 0.60937497,-0.84375 0.94921877,-0.84375 0.234375,0 0.421875,0.1289063 0.421875,0.46875 0,0.1289063 -0.082031,0.4804688 -0.1523438,0.7148438 z m 0,0"
         style="fill:#000000;fill-opacity:1;fill-rule:nonzero;stroke:none" />
      <path
         id="path19"
         d="m 6.4985625,-2.1668906 c 0,-0.1523438 -0.011719,-0.1523438 -0.1757812,-0.1523438 -0.3515625,0.3164063 -0.9023438,0.3164063 -1.0078125,0.3164063 h -0.082031 v 0.2226562 h 0.082031 c 0.1171875,0 0.4335937,-0.011719 0.7265625,-0.140625 v 2.48437503 c 0,0.1640625 0,0.2109375 -0.5273438,0.2109375 H 5.2680938 v 0.22265625 c 0.2695312,-0.0234375 0.7148437,-0.0234375 1.0078125,-0.0234375 0.28125,0 0.7265625,0 0.9960937,0.0234375 V 0.77451563 H 7.0259063 c -0.5273438,0 -0.5273438,-0.046875 -0.5273438,-0.2109375 z m 0,0"
         style="fill:#000000;fill-opacity:1;fill-rule:nonzero;stroke:none" />
    </g>
    <g
       id="g19"
       aria-label="x&#10;2"
       transform="matrix(1.3333333,0,0,1.3333333,11.376,96.258667)">
      <path
         id="path20"
         d="m 1.733625,-0.73892187 c -0.070312,0.234375 -0.2929687,0.609375 -0.65625,0.609375 -0.023437,0 -0.22265625,0 -0.375,-0.09375 0.28125,-0.09375 0.3046875,-0.33984375 0.3046875,-0.38671875 0,-0.15234375 -0.1171875,-0.2578125 -0.28125,-0.2578125 -0.1875,0 -0.38671875,0.1640625 -0.38671875,0.43359375 0,0.33984375 0.38671875,0.50390625 0.72656255,0.50390625 0.3164062,0 0.609375,-0.19921875 0.7851562,-0.4921875 0.1640625,0.36328125 0.5507813,0.4921875 0.8203125,0.4921875 0.8085938,0 1.2304688,-0.8671875 1.2304688,-1.06640625 0,-0.09375 -0.09375,-0.09375 -0.1054688,-0.09375 -0.1054687,0 -0.1054687,0.035156 -0.140625,0.11718756 -0.140625,0.48046875 -0.5625,0.84375 -0.9492187,0.84375 -0.28125,0 -0.421875,-0.1875 -0.421875,-0.4453125 0,-0.1875 0.1640625,-0.82031256 0.3632812,-1.59375006 C 2.7765938,-2.7076719 3.093,-2.8834531 3.327375,-2.8834531 c 0.011719,0 0.2226563,0 0.375,0.1054687 -0.2226562,0.058594 -0.3046875,0.2578125 -0.3046875,0.375 0,0.1523438 0.1171875,0.2578125 0.28125,0.2578125 0.1523438,0 0.3867188,-0.1289062 0.3867188,-0.421875 0,-0.3867187 -0.4453125,-0.5039062 -0.7265625,-0.5039062 -0.3515625,0 -0.6328125,0.2226562 -0.7851563,0.4921875 C 2.43675,-2.8717344 2.108625,-3.0709531 1.7219063,-3.0709531 c -0.7851563,0 -1.2304688,0.8554687 -1.2304688,1.0664062 0,0.082031 0.10546875,0.082031 0.1171875,0.082031 0.09375,0 0.10546875,-0.023437 0.140625,-0.1171875 0.17578125,-0.5390625 0.609375,-0.84375 0.9492188,-0.84375 0.234375,0 0.421875,0.1289062 0.421875,0.46875 0,0.1289062 -0.082031,0.4804687 -0.1523438,0.7148437 z m 0,0"
         style="fill:#000000;fill-opacity:1;fill-rule:nonzero;stroke:none" />
      <path
         id="path21"
         d="M 7.4465156,0.03451563 H 7.2355781 c -0.011719,0.09375 -0.058594,0.3984375 -0.140625,0.45703125 -0.035156,0.0234375 -0.4570312,0.0234375 -0.5273437,0.0234375 h -0.984375 c 0.328125,-0.24609375 0.703125,-0.515625005 0.9960937,-0.71484375 0.4570313,-0.31640625 0.8671875,-0.59765625 0.8671875,-1.12500003 0,-0.6445312 -0.5976562,-0.9960937 -1.3125,-0.9960937 -0.6679687,0 -1.1601562,0.3867187 -1.1601562,0.8789062 0,0.2578125 0.2109375,0.3046875 0.28125,0.3046875 0.140625,0 0.2929687,-0.09375 0.2929687,-0.2929687 0,-0.1875 -0.1289062,-0.28125 -0.28125,-0.2929688 0.140625,-0.234375 0.4335938,-0.375 0.7617188,-0.375 0.4804687,0 0.890625,0.28125 0.890625,0.7734375 0,0.42187503 -0.2929688,0.73828128 -0.6796875,1.05468753 l -1.2070313,1.03125 c -0.046875,0.046875 -0.058594,0.046875 -0.058594,0.0820313 v 0.15234375 h 2.3085937 z m 0,0"
         style="fill:#000000;fill-opacity:1;fill-rule:nonzero;stroke:none" />
    </g>
    <g
       id="g21"
       aria-label="x&#10;3"
       transform="matrix(1.3333333,0,0,1.3333333,39.537333,117.904)">
      <path
         id="path22"
         d="m 1.7356719,-0.73952344 c -0.070312,0.234375 -0.2929688,0.609375 -0.65625,0.609375 -0.023437,0 -0.22265627,0 -0.37500002,-0.09375 0.28125,-0.09375 0.30468752,-0.33984375 0.30468752,-0.38671875 0,-0.15234375 -0.11718752,-0.2578125 -0.28125002,-0.2578125 -0.1875,0 -0.38671875,0.1640625 -0.38671875,0.43359375 0,0.33984375 0.38671875,0.50390625 0.72656247,0.50390625 0.3164063,0 0.609375,-0.19921875 0.7851563,-0.4921875 0.1640625,0.36328125 0.5507812,0.4921875 0.8203125,0.4921875 0.8085937,0 1.2304687,-0.8671875 1.2304687,-1.06640625 0,-0.09375 -0.09375,-0.09375 -0.1054687,-0.09375 -0.1054688,0 -0.1054688,0.035156 -0.140625,0.11718742 -0.140625,0.48046875 -0.5625,0.84375 -0.9492188,0.84375 -0.28125,0 -0.421875,-0.1875 -0.421875,-0.4453125 0,-0.1875 0.1640625,-0.82031242 0.3632813,-1.59374992 0.1289062,-0.5390625 0.4453125,-0.7148438 0.6796875,-0.7148438 0.011719,0 0.2226562,0 0.375,0.1054688 -0.2226563,0.058594 -0.3046875,0.2578125 -0.3046875,0.375 0,0.1523437 0.1171875,0.2578125 0.28125,0.2578125 0.1523437,0 0.3867187,-0.1289063 0.3867187,-0.421875 0,-0.3867188 -0.4453125,-0.5039063 -0.7265625,-0.5039063 -0.3515625,0 -0.6328125,0.2226563 -0.7851562,0.4921875 -0.1171875,-0.2929687 -0.4453125,-0.4921875 -0.8320313,-0.4921875 -0.78515622,0 -1.23046872,0.8554688 -1.23046872,1.0664063 0,0.082031 0.10546875,0.082031 0.1171875,0.082031 0.09375,0 0.10546875,-0.023437 0.140625,-0.1171875 0.17578125,-0.5390625 0.60937502,-0.84375 0.94921872,-0.84375 0.234375,0 0.421875,0.1289063 0.421875,0.46875 0,0.1289063 -0.082031,0.4804688 -0.1523437,0.7148438 z m 0,0"
         style="fill:#000000;fill-opacity:1;fill-rule:nonzero;stroke:none" />
      <path
         id="path23"
         d="m 6.1595,-0.6545625 c 0.4570313,0 0.7617188,0.29296875 0.7617188,0.78515625 0,0.50390625 -0.3046875,0.7734375 -0.75,0.7734375 -0.058594,0 -0.65625,0 -0.9023438,-0.2578125 0.1992188,-0.0351563 0.2578125,-0.1875 0.2578125,-0.3046875 0,-0.1875 -0.140625,-0.3046875 -0.3046875,-0.3046875 -0.1523437,0 -0.3046875,0.10546875 -0.3046875,0.31640625 0,0.515625 0.5859375,0.75 1.265625,0.75 0.8203125,0 1.3242188,-0.4921875 1.3242188,-0.97265625 0,-0.41015625 -0.3632813,-0.76171875 -0.9257813,-0.890625 0.5976563,-0.1875 0.75,-0.56249995 0.75,-0.84374995 0,-0.4101563 -0.5039062,-0.7148438 -1.1367187,-0.7148438 -0.609375,0 -1.1015625,0.2578125 -1.1015625,0.703125 0,0.234375 0.1875,0.2929688 0.28125,0.2929688 0.140625,0 0.28125,-0.1054688 0.28125,-0.28125 0,-0.1171875 -0.058594,-0.2578125 -0.234375,-0.28125 0.2109375,-0.234375 0.65625,-0.2460938 0.7617187,-0.2460938 0.3632813,0 0.6210938,0.1875 0.6210938,0.5273438 0,0.28125 -0.1875,0.7382812 -0.7148438,0.77343745 -0.140625,0 -0.1523437,0 -0.28125,0.0117188 -0.058594,0 -0.1171875,0.0117188 -0.1171875,0.0820313 0,0.0820313 0.058594,0.0820313 0.140625,0.0820313 z m 0,0"
         style="fill:#000000;fill-opacity:1;fill-rule:nonzero;stroke:none" />
    </g>
    <g
       id="g23"
       aria-label="x&#10;4"
       transform="matrix(1.3333333,0,0,1.3333333,4.952,123.29333)">
      <path
         id="path24"
         d="m 1.7352188,-0.73855469 c -0.070312,0.234375 -0.2929688,0.609375 -0.65625,0.609375 -0.023437,0 -0.2226563,0 -0.37500005,-0.09375 0.28125,-0.09375 0.30468755,-0.33984375 0.30468755,-0.38671875 0,-0.15234375 -0.11718755,-0.2578125 -0.28125005,-0.2578125 -0.1875,0 -0.38671875,0.1640625 -0.38671875,0.43359375 0,0.33984375 0.38671875,0.50390625 0.7265625,0.50390625 0.3164063,0 0.609375,-0.19921875 0.7851563,-0.4921875 0.1640625,0.36328125 0.5507812,0.4921875 0.8203125,0.4921875 0.8085937,0 1.2304687,-0.8671875 1.2304687,-1.06640625 0,-0.09375 -0.09375,-0.09375 -0.1054687,-0.09375 -0.1054688,0 -0.1054688,0.035156 -0.140625,0.11718752 -0.140625,0.48046875 -0.5625,0.84375 -0.9492188,0.84375 -0.28125,0 -0.421875,-0.1875 -0.421875,-0.4453125 0,-0.1875 0.1640625,-0.82031252 0.3632813,-1.59375002 0.1289062,-0.5390625 0.4453125,-0.7148437 0.6796875,-0.7148437 0.011719,0 0.2226562,0 0.375,0.1054687 -0.2226563,0.058594 -0.3046875,0.2578125 -0.3046875,0.375 0,0.1523438 0.1171875,0.2578125 0.28125,0.2578125 0.1523437,0 0.3867187,-0.1289062 0.3867187,-0.421875 0,-0.3867187 -0.4453125,-0.5039062 -0.7265625,-0.5039062 -0.3515625,0 -0.6328125,0.2226562 -0.7851562,0.4921875 C 2.4383438,-2.8713672 2.1102188,-3.0705859 1.7235,-3.0705859 c -0.78515625,0 -1.23046875,0.8554687 -1.23046875,1.0664062 0,0.082031 0.10546875,0.082031 0.1171875,0.082031 0.09375,0 0.10546875,-0.023437 0.140625,-0.1171875 0.17578125,-0.5390625 0.60937505,-0.84375 0.94921875,-0.84375 0.234375,0 0.421875,0.1289062 0.421875,0.46875 0,0.1289062 -0.082031,0.4804687 -0.1523437,0.7148437 z m 0,0"
         style="fill:#000000;fill-opacity:1;fill-rule:nonzero;stroke:none" />
      <path
         id="path25"
         d="M 7.5887344,0.18722656 V -0.03542969 H 6.9676406 V -2.2268359 c 0,-0.1171875 0,-0.1523438 -0.1289062,-0.1523438 -0.1054688,0 -0.1054688,0.011719 -0.1640625,0.082031 l -1.8398438,2.26171871 v 0.22265625 h 1.6523438 v 0.38671875 c 0,0.15234375 0,0.19921875 -0.4335938,0.19921875 H 5.8777969 v 0.22265625 c 0.234375,-0.0117188 0.5625,-0.0234375 0.8554687,-0.0234375 0.28125,0 0.609375,0.0117188 0.84375,0.0234375 V 0.77316406 H 7.4012344 c -0.4335938,0 -0.4335938,-0.046875 -0.4335938,-0.19921875 V 0.18722656 Z M 6.5340469,-1.8401172 v 1.80468751 H 5.0692031 Z m 0,0"
         style="fill:#000000;fill-opacity:1;fill-rule:nonzero;stroke:none" />
    </g>
    <g
       id="g31">
      <path
         d="m 270.953,81.703 c 0,1 -0.808,1.809 -1.808,1.809 -0.997,0 -1.809,-0.809 -1.809,-1.809 0,-0.996 0.812,-1.808 1.809,-1.808 1,0 1.808,0.812 1.808,1.808 z"
         style="fill:#000000;fill-opacity:1;fill-rule:nonzero;stroke:none"
         transform="matrix(0.67030667,0,0,0.67030667,-130.71733,50.957098)"
         id="path26" />
      <path
         d="m 253.516,98.027 c 0,1 -0.809,1.809 -1.809,1.809 -0.996,0 -1.809,-0.809 -1.809,-1.809 0,-0.996 0.813,-1.808 1.809,-1.808 1,0 1.809,0.812 1.809,1.808 z"
         style="fill:#000000;fill-opacity:1;fill-rule:nonzero;stroke:none"
         transform="matrix(0.67030667,0,0,0.67030667,-130.71733,50.957098)"
         id="path27" />
      <path
         d="m 295.605,132.348 c 0,0.996 -0.812,1.808 -1.808,1.808 -1,0 -1.809,-0.812 -1.809,-1.808 0,-1 0.809,-1.809 1.809,-1.809 0.996,0 1.808,0.809 1.808,1.809 z"
         style="fill:#000000;fill-opacity:1;fill-rule:nonzero;stroke:none"
         transform="matrix(0.67030667,0,0,0.67030667,-130.71733,50.957098)"
         id="path28" />
      <path
         d="m 222.352,106.004 c 0,1 -0.809,1.808 -1.809,1.808 -0.996,0 -1.809,-0.808 -1.809,-1.808 0,-0.996 0.813,-1.809 1.809,-1.809 1,0 1.809,0.813 1.809,1.809 z"
         style="fill:#000000;fill-opacity:1;fill-rule:nonzero;stroke:none"
         transform="matrix(0.67030667,0,0,0.67030667,-130.71733,50.957098)"
         id="path29" />
      <path
         d="m 434.289,7.098 c 0,1 -0.809,1.808 -1.809,1.808 -1,0 -1.808,-0.808 -1.808,-1.808 0,-1 0.808,-1.809 1.808,-1.809 1,0 1.809,0.809 1.809,1.809 z"
         style="fill:#000000;fill-opacity:1;fill-rule:nonzero;stroke:none"
         transform="matrix(0.67030667,0,0,0.67030667,-130.71733,50.957098)"
         id="path30" />
      <path
         d="M 471.809,20.082 432.48,7.098 l 21.891,29.308 -31.168,7.977 73.254,26.344 z"
         style="fill:none;stroke:#000000;stroke-width:0.389007;stroke-linecap:round;stroke-linejoin:round;stroke-miterlimit:1;stroke-dasharray:none;stroke-opacity:1"
         transform="matrix(0.67030667,0,0,0.67030667,-130.71733,50.957098)"
         id="path31" />
    </g>
    <g
       id="g32"
       aria-label="x&#10;4"
       transform="matrix(1.3333333,0,0,1.3333333,198.028,105.268)">
      <path
         id="path32"
         d="m 1.7338828,-0.73713281 c -0.070312,0.234375 -0.2929687,0.609375 -0.65625,0.609375 -0.023437,0 -0.22265624,0 -0.37499999,-0.09375 0.28125,-0.09375 0.30468749,-0.33984375 0.30468749,-0.38671875 0,-0.15234375 -0.11718749,-0.2578125 -0.28124999,-0.2578125 -0.1875,0 -0.38671875,0.1640625 -0.38671875,0.43359375 0,0.33984375 0.38671875,0.50390625 0.72656254,0.50390625 0.3164062,0 0.609375,-0.19921875 0.7851562,-0.4921875 0.1640625,0.36328125 0.5507813,0.4921875 0.8203125,0.4921875 0.8085938,0 1.2304688,-0.8671875 1.2304688,-1.06640625 0,-0.09375 -0.09375,-0.09375 -0.1054688,-0.09375 -0.1054687,0 -0.1054687,0.035156 -0.140625,0.11718748 -0.140625,0.48046875 -0.5625,0.84375 -0.9492187,0.84375 -0.28125,0 -0.421875,-0.1875 -0.421875,-0.4453125 0,-0.1875 0.1640625,-0.82031248 0.3632812,-1.59374998 0.1289063,-0.5390625 0.4453125,-0.7148438 0.6796875,-0.7148438 0.011719,0 0.2226563,0 0.375,0.1054688 -0.2226562,0.058594 -0.3046875,0.2578125 -0.3046875,0.375 0,0.1523437 0.1171875,0.2578125 0.28125,0.2578125 0.1523438,0 0.3867188,-0.1289063 0.3867188,-0.421875 0,-0.3867188 -0.4453125,-0.5039063 -0.7265625,-0.5039063 -0.3515625,0 -0.6328125,0.2226563 -0.7851563,0.4921875 -0.1171875,-0.2929687 -0.4453125,-0.4921875 -0.8320312,-0.4921875 -0.78515629,0 -1.23046879,0.8554688 -1.23046879,1.0664063 0,0.082031 0.10546875,0.082031 0.1171875,0.082031 0.09375,0 0.10546875,-0.023437 0.140625,-0.1171875 0.17578125,-0.5390625 0.60937499,-0.84375 0.94921879,-0.84375 0.234375,0 0.421875,0.1289063 0.421875,0.46875 0,0.1289063 -0.082031,0.4804688 -0.1523438,0.7148438 z m 0,0"
         style="fill:#000000;fill-opacity:1;fill-rule:nonzero;stroke:none" />
      <path
         id="path33"
         d="M 7.5873984,0.18864844 V -0.03400781 H 6.9663047 V -2.2254141 c 0,-0.1171875 0,-0.1523437 -0.1289063,-0.1523437 -0.1054687,0 -0.1054687,0.011719 -0.1640625,0.082031 l -1.8398437,2.26171879 v 0.22265625 h 1.6523437 v 0.38671875 c 0,0.15234375 0,0.19921875 -0.4335937,0.19921875 H 5.8764609 v 0.22265625 c 0.234375,-0.0117188 0.5625,-0.0234375 0.8554688,-0.0234375 0.28125,0 0.609375,0.0117188 0.84375,0.0234375 V 0.77458594 H 7.3998984 c -0.4335937,0 -0.4335937,-0.046875 -0.4335937,-0.19921875 V 0.18864844 Z M 6.5327109,-1.8386953 v 1.80468749 H 5.0678672 Z m 0,0"
         style="fill:#000000;fill-opacity:1;fill-rule:nonzero;stroke:none" />
    </g>
    <g
       id="g33"
       aria-label="x&#10;0"
       transform="matrix(1.3333333,0,0,1.3333333,181.65067,60.468)">
      <path
         id="path34"
         d="m 1.7356328,-0.73771875 c -0.070312,0.234375 -0.2929687,0.609375 -0.65625,0.609375 -0.023437,0 -0.22265624,0 -0.37499999,-0.09375 0.28125,-0.09375 0.30468749,-0.33984375 0.30468749,-0.38671875 0,-0.15234375 -0.11718749,-0.2578125 -0.28124999,-0.2578125 -0.1875,0 -0.38671875,0.1640625 -0.38671875,0.43359375 0,0.33984375 0.38671875,0.50390625 0.72656254,0.50390625 0.3164062,0 0.609375,-0.19921875 0.7851562,-0.4921875 0.1640625,0.36328125 0.5507813,0.4921875 0.8203125,0.4921875 0.8085938,0 1.2304688,-0.8671875 1.2304688,-1.06640625 0,-0.09375 -0.09375,-0.09375 -0.1054688,-0.09375 -0.1054687,0 -0.1054687,0.035156 -0.140625,0.1171874 -0.140625,0.48046875 -0.5625,0.84375 -0.9492187,0.84375 -0.28125,0 -0.421875,-0.1875 -0.421875,-0.4453125 0,-0.1875 0.1640625,-0.8203124 0.3632812,-1.59375 0.1289063,-0.5390625 0.4453125,-0.7148438 0.6796875,-0.7148438 0.011719,0 0.2226563,0 0.375,0.1054688 -0.2226562,0.058594 -0.3046875,0.2578125 -0.3046875,0.375 0,0.1523437 0.1171875,0.2578125 0.28125,0.2578125 0.1523438,0 0.3867188,-0.1289063 0.3867188,-0.421875 0,-0.3867188 -0.4453125,-0.5039063 -0.7265625,-0.5039063 -0.3515625,0 -0.6328125,0.2226563 -0.7851563,0.4921875 C 2.4387578,-2.8705312 2.1106328,-3.06975 1.7239141,-3.06975 c -0.78515629,0 -1.23046879,0.8554688 -1.23046879,1.0664063 0,0.082031 0.10546875,0.082031 0.1171875,0.082031 0.09375,0 0.10546875,-0.023437 0.140625,-0.1171875 0.17578125,-0.5390625 0.60937499,-0.84375 0.94921879,-0.84375 0.234375,0 0.421875,0.1289063 0.421875,0.46875 0,0.1289063 -0.082031,0.4804688 -0.1523438,0.7148438 z m 0,0"
         style="fill:#000000;fill-opacity:1;fill-rule:nonzero;stroke:none" />
      <path
         id="path35"
         d="m 7.5071172,-0.59709375 c 0,-0.36328125 0,-1.72265625 -1.2890625,-1.72265625 -1.3007813,0 -1.3007813,1.359375 -1.3007813,1.72265625 0,0.36328125 0,1.69921875 1.3007813,1.69921875 1.2890625,0 1.2890625,-1.3359375 1.2890625,-1.69921875 z M 6.2180547,0.9380625 c -0.1875,0 -0.609375,-0.0585938 -0.7382813,-0.5625 -0.058594,-0.26953125 -0.070312,-0.62109375 -0.070312,-1.03125 0,-0.375 0,-0.7148437 0.082031,-0.9960937 0.1289062,-0.421875 0.5039062,-0.5039063 0.7265625,-0.5039063 0.3632812,0 0.6210937,0.1875 0.7265625,0.5390625 0.070312,0.2578125 0.070312,0.66796875 0.070312,0.9609375 0,0.33984375 0,0.73828125 -0.070312,1.04296875 C 6.8157109,0.86775 6.4172734,0.9380625 6.2180547,0.9380625 Z m 0,0"
         style="fill:#000000;fill-opacity:1;fill-rule:nonzero;stroke:none" />
    </g>
    <g
       id="g35"
       aria-label="x&#10;1"
       transform="matrix(1.3333333,0,0,1.3333333,147.216,54.954667)">
      <path
         id="path36"
         d="m 1.7335078,-0.7394375 c -0.070312,0.234375 -0.2929687,0.609375 -0.65625,0.609375 -0.023437,0 -0.22265624,0 -0.37499999,-0.09375 0.28125,-0.09375 0.30468749,-0.33984375 0.30468749,-0.38671875 0,-0.15234375 -0.11718749,-0.2578125 -0.28124999,-0.2578125 -0.1875,0 -0.38671875,0.1640625 -0.38671875,0.43359375 0,0.33984375 0.38671875,0.50390625 0.72656254,0.50390625 0.3164062,0 0.609375,-0.19921875 0.7851562,-0.4921875 0.1640625,0.36328125 0.5507813,0.4921875 0.8203125,0.4921875 0.8085938,0 1.2304688,-0.8671875 1.2304688,-1.06640625 0,-0.09375 -0.09375,-0.09375 -0.1054688,-0.09375 -0.1054687,0 -0.1054687,0.035156 -0.140625,0.1171875 -0.140625,0.48046875 -0.5625,0.84375 -0.9492187,0.84375 -0.28125,0 -0.421875,-0.1875 -0.421875,-0.4453125 0,-0.1875 0.1640625,-0.8203125 0.3632812,-1.59375 0.1289063,-0.5390625 0.4453125,-0.7148437 0.6796875,-0.7148437 0.011719,0 0.2226563,0 0.375,0.1054687 -0.2226562,0.058594 -0.3046875,0.2578125 -0.3046875,0.375 0,0.1523438 0.1171875,0.2578125 0.28125,0.2578125 0.1523438,0 0.3867188,-0.1289062 0.3867188,-0.421875 0,-0.3867187 -0.4453125,-0.5039062 -0.7265625,-0.5039062 -0.3515625,0 -0.6328125,0.2226562 -0.7851563,0.4921875 C 2.4366328,-2.87225 2.1085078,-3.0714687 1.7217891,-3.0714687 c -0.78515629,0 -1.23046879,0.8554687 -1.23046879,1.0664062 0,0.082031 0.10546875,0.082031 0.1171875,0.082031 0.09375,0 0.10546875,-0.023437 0.140625,-0.1171875 0.17578125,-0.5390625 0.60937499,-0.84375 0.94921879,-0.84375 0.234375,0 0.421875,0.1289062 0.421875,0.46875 0,0.1289062 -0.082031,0.4804687 -0.1523438,0.7148437 z m 0,0"
         style="fill:#000000;fill-opacity:1;fill-rule:nonzero;stroke:none" />
      <path
         id="path37"
         d="m 6.4971797,-2.1661953 c 0,-0.1523438 -0.011719,-0.1523438 -0.1757813,-0.1523438 -0.3515625,0.3164063 -0.9023437,0.3164063 -1.0078125,0.3164063 h -0.082031 v 0.2226562 h 0.082031 c 0.1171875,0 0.4335938,-0.011719 0.7265625,-0.140625 v 2.48437504 c 0,0.1640625 0,0.2109375 -0.5273437,0.2109375 H 5.2667109 v 0.22265625 c 0.2695313,-0.0234375 0.7148438,-0.0234375 1.0078125,-0.0234375 0.28125,0 0.7265625,0 0.9960938,0.0234375 V 0.77521094 H 7.0245234 c -0.5273437,0 -0.5273437,-0.046875 -0.5273437,-0.2109375 z m 0,0"
         style="fill:#000000;fill-opacity:1;fill-rule:nonzero;stroke:none" />
    </g>
    <g
       id="g37"
       aria-label="x&#10;2"
       transform="matrix(1.3333333,0,0,1.3333333,176.388,77.604)">
      <path
         id="path38"
         d="m 1.7334141,-0.73717969 c -0.070312,0.234375 -0.2929688,0.609375 -0.65625,0.609375 -0.023437,0 -0.22265629,0 -0.37500004,-0.09375 0.28125,-0.09375 0.30468754,-0.33984375 0.30468754,-0.38671875 0,-0.15234375 -0.11718754,-0.2578125 -0.28125004,-0.2578125 -0.1875,0 -0.38671875,0.1640625 -0.38671875,0.43359375 0,0.33984375 0.38671875,0.50390625 0.72656249,0.50390625 0.3164063,0 0.609375,-0.19921875 0.7851563,-0.4921875 0.1640625,0.36328125 0.5507812,0.4921875 0.8203125,0.4921875 0.8085937,0 1.2304687,-0.8671875 1.2304687,-1.06640625 0,-0.09375 -0.09375,-0.09375 -0.1054687,-0.09375 -0.1054688,0 -0.1054688,0.035156 -0.140625,0.11718752 -0.140625,0.48046875 -0.5625,0.84375 -0.9492188,0.84375 -0.28125,0 -0.421875,-0.1875 -0.421875,-0.4453125 0,-0.1875 0.1640625,-0.82031252 0.3632813,-1.59375002 0.1289062,-0.5390625 0.4453125,-0.7148437 0.6796875,-0.7148437 0.011719,0 0.2226562,0 0.375,0.1054687 -0.2226563,0.058594 -0.3046875,0.2578125 -0.3046875,0.375 0,0.1523438 0.1171875,0.2578125 0.28125,0.2578125 0.1523437,0 0.3867187,-0.1289062 0.3867187,-0.421875 0,-0.3867187 -0.4453125,-0.5039062 -0.7265625,-0.5039062 -0.3515625,0 -0.6328125,0.2226562 -0.7851562,0.4921875 -0.1171875,-0.2929688 -0.4453125,-0.4921875 -0.8320313,-0.4921875 -0.78515624,0 -1.23046874,0.8554687 -1.23046874,1.0664062 0,0.082031 0.10546875,0.082031 0.1171875,0.082031 0.09375,0 0.10546875,-0.023437 0.140625,-0.1171875 0.17578125,-0.5390625 0.60937504,-0.84375 0.94921874,-0.84375 0.234375,0 0.421875,0.1289062 0.421875,0.46875 0,0.1289062 -0.082031,0.4804687 -0.1523437,0.7148437 z m 0,0"
         style="fill:#000000;fill-opacity:1;fill-rule:nonzero;stroke:none" />
      <path
         id="path39"
         d="M 7.4463047,0.03625781 H 7.2353672 c -0.011719,0.09375 -0.058594,0.3984375 -0.140625,0.45703125 -0.035156,0.0234375 -0.4570313,0.0234375 -0.5273438,0.0234375 h -0.984375 c 0.328125,-0.24609375 0.703125,-0.515625 0.9960938,-0.71484375 0.4570312,-0.31640625 0.8671875,-0.59765625 0.8671875,-1.12500001 0,-0.6445312 -0.5976563,-0.9960937 -1.3125,-0.9960937 -0.6679688,0 -1.1601563,0.3867187 -1.1601563,0.8789062 0,0.2578125 0.2109375,0.3046875 0.28125,0.3046875 0.140625,0 0.2929688,-0.09375 0.2929688,-0.2929687 0,-0.1875 -0.1289063,-0.28125 -0.28125,-0.2929688 0.140625,-0.234375 0.4335937,-0.375 0.7617187,-0.375 0.4804688,0 0.890625,0.28125 0.890625,0.7734375 0,0.42187501 -0.2929687,0.73828126 -0.6796875,1.05468751 l -1.2070312,1.03125 c -0.046875,0.046875 -0.058594,0.046875 -0.058594,0.0820313 V 0.99719536 H 7.282242 Z m 0,0"
         style="fill:#000000;fill-opacity:1;fill-rule:nonzero;stroke:none" />
    </g>
    <g
       id="g39"
       aria-label="x&#10;3"
       transform="matrix(1.3333333,0,0,1.3333333,140.792,81.989333)">
      <path
         id="path40"
         d="m 1.7351016,-0.73907031 c -0.070312,0.234375 -0.2929688,0.609375 -0.65625,0.609375 -0.023437,0 -0.22265629,0 -0.37500004,-0.09375 0.28125,-0.09375 0.30468754,-0.33984375 0.30468754,-0.38671875 0,-0.15234375 -0.11718754,-0.2578125 -0.28125004,-0.2578125 -0.1875,0 -0.38671875,0.1640625 -0.38671875,0.43359375 0,0.33984375 0.38671875,0.50390625 0.72656249,0.50390625 0.3164063,0 0.609375,-0.19921875 0.7851563,-0.4921875 0.1640625,0.36328125 0.5507812,0.4921875 0.8203125,0.4921875 0.8085937,0 1.2304687,-0.8671875 1.2304687,-1.06640625 0,-0.09375 -0.09375,-0.09375 -0.1054687,-0.09375 -0.1054688,0 -0.1054688,0.035156 -0.140625,0.11718748 -0.140625,0.48046875 -0.5625,0.84375 -0.9492188,0.84375 -0.28125,0 -0.421875,-0.1875 -0.421875,-0.4453125 0,-0.1875 0.1640625,-0.82031248 0.3632813,-1.59374998 0.1289062,-0.5390625 0.4453125,-0.7148438 0.6796875,-0.7148438 0.011719,0 0.2226562,0 0.375,0.1054688 -0.2226563,0.058594 -0.3046875,0.2578125 -0.3046875,0.375 0,0.1523437 0.1171875,0.2578125 0.28125,0.2578125 0.1523437,0 0.3867187,-0.1289063 0.3867187,-0.421875 0,-0.3867188 -0.4453125,-0.5039063 -0.7265625,-0.5039063 -0.3515625,0 -0.6328125,0.2226563 -0.7851562,0.4921875 -0.1171875,-0.2929687 -0.4453125,-0.4921875 -0.8320313,-0.4921875 -0.78515624,0 -1.23046874,0.8554688 -1.23046874,1.0664063 0,0.082031 0.10546875,0.082031 0.1171875,0.082031 0.09375,0 0.10546875,-0.023437 0.140625,-0.1171875 0.17578125,-0.5390625 0.60937504,-0.84375 0.94921874,-0.84375 0.234375,0 0.421875,0.1289063 0.421875,0.46875 0,0.1289063 -0.082031,0.4804688 -0.1523437,0.7148438 z m 0,0"
         style="fill:#000000;fill-opacity:1;fill-rule:nonzero;stroke:none" />
      <path
         id="path41"
         d="m 6.1589297,-0.65410937 c 0.4570312,0 0.7617187,0.29296875 0.7617187,0.78515625 0,0.50390625 -0.3046875,0.7734375 -0.75,0.7734375 -0.058594,0 -0.65625,0 -0.9023437,-0.2578125 0.1992187,-0.0351563 0.2578125,-0.1875 0.2578125,-0.3046875 0,-0.1875 -0.140625,-0.3046875 -0.3046875,-0.3046875 -0.1523438,0 -0.3046875,0.10546875 -0.3046875,0.31640625 0,0.515625 0.5859375,0.74999997 1.265625,0.74999997 0.8203125,0 1.3242187,-0.49218747 1.3242187,-0.97265622 0,-0.41015625 -0.3632812,-0.76171875 -0.9257812,-0.890625 0.5976562,-0.1875 0.75,-0.56249998 0.75,-0.84374998 0,-0.4101563 -0.5039063,-0.7148438 -1.1367188,-0.7148438 -0.609375,0 -1.1015625,0.2578125 -1.1015625,0.703125 0,0.234375 0.1875,0.2929688 0.28125,0.2929688 0.140625,0 0.28125,-0.1054688 0.28125,-0.28125 0,-0.1171875 -0.058594,-0.2578125 -0.234375,-0.28125 0.2109375,-0.234375 0.65625,-0.2460938 0.7617188,-0.2460938 0.3632812,0 0.6210937,0.1875 0.6210937,0.5273438 0,0.28125 -0.1875,0.73828123 -0.7148437,0.77343748 -0.140625,0 -0.1523438,0 -0.28125,0.0117188 -0.058594,0 -0.1171875,0.0117188 -0.1171875,0.0820313 0,0.0820313 0.058594,0.0820313 0.140625,0.0820313 z m 0,0"
         style="fill:#000000;fill-opacity:1;fill-rule:nonzero;stroke:none" />
    </g>
    <g
       id="g45">
      <path
         d="m 473.613,20.082 c 0,1 -0.808,1.809 -1.808,1.809 -0.996,0 -1.809,-0.809 -1.809,-1.809 0,-0.996 0.813,-1.809 1.809,-1.809 1,0 1.808,0.813 1.808,1.809 z"
         style="fill:#000000;fill-opacity:1;fill-rule:nonzero;stroke:none"
         transform="matrix(0.67030667,0,0,0.67030667,-130.71733,50.957098)"
         id="path42" />
      <path
         d="m 456.18,36.406 c 0,1 -0.813,1.809 -1.809,1.809 -1,0 -1.809,-0.809 -1.809,-1.809 0,-0.996 0.809,-1.808 1.809,-1.808 0.996,0 1.809,0.812 1.809,1.808 z"
         style="fill:#000000;fill-opacity:1;fill-rule:nonzero;stroke:none"
         transform="matrix(0.67030667,0,0,0.67030667,-130.71733,50.957098)"
         id="path43" />
      <path
         d="m 498.266,70.727 c 0,1 -0.809,1.808 -1.809,1.808 -1,0 -1.809,-0.808 -1.809,-1.808 0,-1 0.809,-1.809 1.809,-1.809 1,0 1.809,0.809 1.809,1.809 z"
         style="fill:#000000;fill-opacity:1;fill-rule:nonzero;stroke:none"
         transform="matrix(0.67030667,0,0,0.67030667,-130.71733,50.957098)"
         id="path44" />
      <path
         d="m 425.012,44.383 c 0,1 -0.809,1.808 -1.809,1.808 -0.996,0 -1.808,-0.808 -1.808,-1.808 0,-0.996 0.812,-1.809 1.808,-1.809 1,0 1.809,0.813 1.809,1.809 z"
         style="fill:#000000;fill-opacity:1;fill-rule:nonzero;stroke:none"
         transform="matrix(0.67030667,0,0,0.67030667,-130.71733,50.957098)"
         id="path45" />
    </g>
    <g
       id="g46"
       aria-label="x&#10;0"
       transform="matrix(1.3333333,0,0,1.3333333,188.87733,114.38667)">
      <path
         id="path46"
         d="m 1.7355547,-0.73824219 c -0.070312,0.234375 -0.2929688,0.609375 -0.65625,0.609375 -0.023437,0 -0.22265626,0 -0.37500001,-0.09375 0.28125,-0.09375 0.30468751,-0.33984375 0.30468751,-0.38671875 0,-0.15234375 -0.11718751,-0.2578125 -0.28125001,-0.2578125 -0.1875,0 -0.38671875,0.1640625 -0.38671875,0.43359375 0,0.33984375 0.38671875,0.50390625 0.72656246,0.50390625 0.3164063,0 0.609375,-0.19921875 0.7851563,-0.4921875 0.1640625,0.36328125 0.5507812,0.4921875 0.8203125,0.4921875 0.8085937,0 1.2304687,-0.8671875 1.2304687,-1.06640625 0,-0.09375 -0.09375,-0.09375 -0.1054687,-0.09375 -0.1054688,0 -0.1054688,0.035156 -0.140625,0.11718752 -0.140625,0.48046875 -0.5625,0.84375 -0.9492188,0.84375 -0.28125,0 -0.421875,-0.1875 -0.421875,-0.4453125 0,-0.1875 0.1640625,-0.82031252 0.3632813,-1.59375002 0.1289062,-0.5390625 0.4453125,-0.7148437 0.6796875,-0.7148437 0.011719,0 0.2226562,0 0.375,0.1054687 -0.2226563,0.058594 -0.3046875,0.2578125 -0.3046875,0.375 0,0.1523438 0.1171875,0.2578125 0.28125,0.2578125 0.1523437,0 0.3867187,-0.1289062 0.3867187,-0.421875 0,-0.3867187 -0.4453125,-0.5039062 -0.7265625,-0.5039062 -0.3515625,0 -0.6328125,0.2226562 -0.7851562,0.4921875 -0.1171875,-0.2929688 -0.4453125,-0.4921875 -0.8320313,-0.4921875 -0.78515621,0 -1.23046871,0.8554687 -1.23046871,1.0664062 0,0.082031 0.10546875,0.082031 0.1171875,0.082031 0.09375,0 0.10546875,-0.023437 0.140625,-0.1171875 0.17578125,-0.5390625 0.60937501,-0.84375 0.94921871,-0.84375 0.234375,0 0.421875,0.1289062 0.421875,0.46875 0,0.1289062 -0.082031,0.4804687 -0.1523437,0.7148437 z m 0,0"
         style="fill:#000000;fill-opacity:1;fill-rule:nonzero;stroke:none" />
      <path
         id="path47"
         d="m 7.5070391,-0.59761719 c 0,-0.36328125 0,-1.72265621 -1.2890625,-1.72265621 -1.3007813,0 -1.3007813,1.35937496 -1.3007813,1.72265621 0,0.36328125 0,1.69921879 1.3007813,1.69921879 1.2890625,0 1.2890625,-1.33593754 1.2890625,-1.69921879 z M 6.2179766,0.93753906 c -0.1875,0 -0.609375,-0.0585938 -0.7382813,-0.5625 -0.058594,-0.26953125 -0.070312,-0.62109375 -0.070312,-1.03125 0,-0.37499996 0,-0.71484376 0.082031,-0.99609376 0.1289062,-0.421875 0.5039062,-0.5039062 0.7265625,-0.5039062 0.3632812,0 0.6210937,0.1875 0.7265625,0.5390625 0.070312,0.2578125 0.070312,0.66796871 0.070312,0.96093746 0,0.33984375 0,0.73828125 -0.070312,1.04296875 -0.1289065,0.48046875 -0.527344,0.55078125 -0.7265627,0.55078125 z m 0,0"
         style="fill:#000000;fill-opacity:1;fill-rule:nonzero;stroke:none" />
    </g>
    <g
       id="g53">
      <path
         d="m 420.895,161.57 c 0.988,0 1.793,0.801 1.793,1.793 0,0.992 -0.805,1.793 -1.793,1.793 -0.993,0 -1.797,-0.801 -1.797,-1.793 0,-0.992 0.804,-1.793 1.797,-1.793 z"
         style="fill:#000000;fill-opacity:1;fill-rule:nonzero;stroke:none"
         transform="matrix(0.67030667,0,0,0.67030667,-130.71733,50.957098)"
         id="path48" />
      <path
         d="m -124.348,433.773 -39.015,-12.878 21.715,29.074 -30.914,7.914 72.667,26.133 z"
         style="fill:none;stroke:#000000;stroke-width:0.385917;stroke-linecap:round;stroke-linejoin:round;stroke-miterlimit:1;stroke-dasharray:none;stroke-opacity:1"
         transform="matrix(0,-0.67030667,0.67030667,0,-130.71733,50.957098)"
         id="path49" />
      <path
         d="m 433.773,122.555 c 0.993,0 1.797,0.804 1.797,1.793 0,0.992 -0.804,1.797 -1.797,1.797 -0.988,0 -1.793,-0.805 -1.793,-1.797 0,-0.989 0.805,-1.793 1.793,-1.793 z"
         style="fill:#000000;fill-opacity:1;fill-rule:nonzero;stroke:none"
         transform="matrix(0.67030667,0,0,0.67030667,-130.71733,50.957098)"
         id="path50" />
      <path
         d="m 449.969,139.852 c 0.992,0 1.797,0.804 1.797,1.796 0,0.989 -0.805,1.793 -1.797,1.793 -0.989,0 -1.793,-0.804 -1.793,-1.793 0,-0.992 0.804,-1.796 1.793,-1.796 z"
         style="fill:#000000;fill-opacity:1;fill-rule:nonzero;stroke:none"
         transform="matrix(0.67030667,0,0,0.67030667,-130.71733,50.957098)"
         id="path51" />
      <path
         d="m 484.016,98.102 c 0.992,0 1.793,0.8 1.793,1.793 0,0.992 -0.801,1.793 -1.793,1.793 -0.993,0 -1.793,-0.801 -1.793,-1.793 0,-0.993 0.8,-1.793 1.793,-1.793 z"
         style="fill:#000000;fill-opacity:1;fill-rule:nonzero;stroke:none"
         transform="matrix(0.67030667,0,0,0.67030667,-130.71733,50.957098)"
         id="path52" />
      <path
         d="m 457.883,170.77 c 0.992,0 1.793,0.804 1.793,1.792 0,0.993 -0.801,1.797 -1.793,1.797 -0.992,0 -1.793,-0.804 -1.793,-1.797 0,-0.988 0.801,-1.792 1.793,-1.792 z"
         style="fill:#000000;fill-opacity:1;fill-rule:nonzero;stroke:none"
         transform="matrix(0.67030667,0,0,0.67030667,-130.71733,50.957098)"
         id="path53" />
    </g>
    <g
       id="g54"
       aria-label="x&#10;1"
       transform="matrix(1.3333333,0,0,1.3333333,148.72933,132.644)">
      <path
         id="path54"
         d="m 1.7352266,-0.73788281 c -0.070312,0.234375 -0.2929688,0.609375 -0.65625,0.609375 -0.023437,0 -0.22265629,0 -0.37500004,-0.09375 0.28125,-0.09375 0.30468754,-0.33984375 0.30468754,-0.38671875 0,-0.15234375 -0.11718754,-0.2578125 -0.28125004,-0.2578125 -0.1875,0 -0.38671875,0.1640625 -0.38671875,0.43359375 0,0.33984375 0.38671875,0.50390625 0.72656249,0.50390625 0.3164063,0 0.609375,-0.19921875 0.7851563,-0.4921875 0.1640625,0.36328125 0.5507812,0.4921875 0.8203125,0.4921875 0.8085937,0 1.2304687,-0.8671875 1.2304687,-1.06640625 0,-0.09375 -0.09375,-0.09375 -0.1054687,-0.09375 -0.1054688,0 -0.1054688,0.035156 -0.140625,0.11718748 -0.140625,0.48046875 -0.5625,0.84375 -0.9492188,0.84375 -0.28125,0 -0.421875,-0.1875 -0.421875,-0.4453125 0,-0.1875 0.1640625,-0.82031248 0.3632813,-1.59374998 0.1289062,-0.5390625 0.4453125,-0.7148438 0.6796875,-0.7148438 0.011719,0 0.2226562,0 0.375,0.1054688 -0.2226563,0.058594 -0.3046875,0.2578125 -0.3046875,0.375 0,0.1523437 0.1171875,0.2578125 0.28125,0.2578125 0.1523437,0 0.3867187,-0.1289063 0.3867187,-0.421875 0,-0.3867188 -0.4453125,-0.5039063 -0.7265625,-0.5039063 -0.3515625,0 -0.6328125,0.2226563 -0.7851562,0.4921875 -0.1171875,-0.2929687 -0.4453125,-0.4921875 -0.8320313,-0.4921875 -0.78515624,0 -1.23046874,0.8554688 -1.23046874,1.0664063 0,0.082031 0.10546875,0.082031 0.1171875,0.082031 0.09375,0 0.10546875,-0.023437 0.140625,-0.1171875 0.17578125,-0.5390625 0.60937504,-0.84375 0.94921874,-0.84375 0.234375,0 0.421875,0.1289063 0.421875,0.46875 0,0.1289063 -0.082031,0.4804688 -0.1523437,0.7148438 z m 0,0"
         style="fill:#000000;fill-opacity:1;fill-rule:nonzero;stroke:none" />
      <path
         id="path55"
         d="m 6.4988984,-2.1675703 c 0,-0.1523438 -0.011719,-0.1523438 -0.1757812,-0.1523438 -0.3515625,0.3164063 -0.9023438,0.3164063 -1.0078125,0.3164063 h -0.082031 v 0.2226562 h 0.082031 c 0.1171875,0 0.4335937,-0.011719 0.7265625,-0.140625 v 2.48437504 c 0,0.1640625 0,0.2109375 -0.5273438,0.2109375 H 5.2684297 v 0.22265625 c 0.2695312,-0.0234375 0.7148437,-0.0234375 1.0078125,-0.0234375 0.28125,0 0.7265625,0 0.9960937,0.0234375 V 0.77383594 H 7.0262422 c -0.5273438,0 -0.5273438,-0.046875 -0.5273438,-0.2109375 z m 0,0"
         style="fill:#000000;fill-opacity:1;fill-rule:nonzero;stroke:none" />
    </g>
    <g
       id="g55"
       aria-label="x&#10;2"
       transform="matrix(1.3333333,0,0,1.3333333,145.14,167.936)">
      <path
         id="path56"
         d="m 1.7348437,-0.73715625 c -0.070312,0.234375 -0.2929687,0.609375 -0.65625,0.609375 -0.023437,0 -0.2226562,0 -0.37499995,-0.09375 0.28125,-0.09375 0.30468745,-0.33984375 0.30468745,-0.38671875 0,-0.15234375 -0.11718745,-0.2578125 -0.28124995,-0.2578125 -0.1875,0 -0.38671875,0.1640625 -0.38671875,0.43359375 0,0.33984375 0.38671875,0.50390625 0.7265625,0.50390625 0.3164062,0 0.609375,-0.19921875 0.7851562,-0.4921875 0.1640625,0.36328125 0.5507813,0.4921875 0.8203125,0.4921875 0.8085938,0 1.2304688,-0.8671875 1.2304688,-1.06640625 0,-0.09375 -0.09375,-0.09375 -0.1054688,-0.09375 -0.1054687,0 -0.1054687,0.035156 -0.140625,0.1171874 -0.140625,0.48046875 -0.5625,0.84375 -0.9492187,0.84375 -0.28125,0 -0.421875,-0.1875 -0.421875,-0.4453125 0,-0.1875 0.1640625,-0.8203124 0.3632812,-1.59375 0.1289063,-0.5390625 0.4453125,-0.7148438 0.6796875,-0.7148438 0.011719,0 0.2226563,0 0.375,0.1054688 -0.2226562,0.058594 -0.3046875,0.2578125 -0.3046875,0.375 0,0.1523437 0.1171875,0.2578125 0.28125,0.2578125 0.1523438,0 0.3867188,-0.1289063 0.3867188,-0.421875 0,-0.3867188 -0.4453125,-0.5039063 -0.7265625,-0.5039063 C 2.98875,-3.0691875 2.7075,-2.8465312 2.5551562,-2.577 2.4379687,-2.8699687 2.1098437,-3.0691875 1.723125,-3.0691875 c -0.78515625,0 -1.23046875,0.8554688 -1.23046875,1.0664063 0,0.082031 0.10546875,0.082031 0.1171875,0.082031 0.09375,0 0.10546875,-0.023437 0.140625,-0.1171875 C 0.92625,-2.577 1.3598437,-2.8816875 1.6996875,-2.8816875 c 0.234375,0 0.421875,0.1289063 0.421875,0.46875 0,0.1289063 -0.082031,0.4804688 -0.1523438,0.7148438 z m 0,0"
         style="fill:#000000;fill-opacity:1;fill-rule:nonzero;stroke:none" />
      <path
         id="path57"
         d="M 7.4477344,0.03628125 H 7.2367969 c -0.011719,0.09375 -0.058594,0.3984375 -0.140625,0.45703125 C 7.0610156,0.51675 6.6391406,0.51675 6.5688281,0.51675 H 5.5844531 C 5.9125781,0.27065625 6.2875781,0.001125 6.5805469,-0.19809375 7.0375781,-0.5145 7.4477344,-0.79575 7.4477344,-1.3230937 c 0,-0.6445313 -0.5976563,-0.9960938 -1.3125,-0.9960938 -0.6679688,0 -1.1601563,0.3867188 -1.1601563,0.8789063 0,0.2578125 0.2109375,0.3046875 0.28125,0.3046875 0.140625,0 0.2929688,-0.09375 0.2929688,-0.2929688 0,-0.1875 -0.1289063,-0.28125 -0.28125,-0.2929687 0.140625,-0.234375 0.4335937,-0.375 0.7617187,-0.375 0.4804688,0 0.890625,0.28125 0.890625,0.7734375 0,0.42187495 -0.2929687,0.7382812 -0.6796875,1.05468745 l -1.2070312,1.03125 c -0.046875,0.046875 -0.058594,0.046875 -0.058594,0.0820313 V 0.9972188 h 2.3085938 z m 0,0"
         style="fill:#000000;fill-opacity:1;fill-rule:nonzero;stroke:none" />
    </g>
    <g
       id="g57"
       aria-label="x&#10;3"
       transform="matrix(1.3333333,0,0,1.3333333,165.80533,141.644)">
      <path
         id="path58"
         d="m 1.7338906,-0.73788281 c -0.070312,0.234375 -0.2929687,0.609375 -0.65625,0.609375 -0.023437,0 -0.22265623,0 -0.37499998,-0.09375 0.28125,-0.09375 0.30468748,-0.33984375 0.30468748,-0.38671875 0,-0.15234375 -0.11718748,-0.2578125 -0.28124998,-0.2578125 -0.1875,0 -0.38671875,0.1640625 -0.38671875,0.43359375 0,0.33984375 0.38671875,0.50390625 0.72656253,0.50390625 0.3164062,0 0.609375,-0.19921875 0.7851562,-0.4921875 0.1640625,0.36328125 0.5507813,0.4921875 0.8203125,0.4921875 0.8085938,0 1.2304688,-0.8671875 1.2304688,-1.06640625 0,-0.09375 -0.09375,-0.09375 -0.1054688,-0.09375 -0.1054687,0 -0.1054687,0.035156 -0.140625,0.11718748 -0.140625,0.48046875 -0.5625,0.84375 -0.9492187,0.84375 -0.28125,0 -0.421875,-0.1875 -0.421875,-0.4453125 0,-0.1875 0.1640625,-0.82031248 0.3632812,-1.59374998 0.1289063,-0.5390625 0.4453125,-0.7148438 0.6796875,-0.7148438 0.011719,0 0.2226563,0 0.375,0.1054688 -0.2226562,0.058594 -0.3046875,0.2578125 -0.3046875,0.375 0,0.1523437 0.1171875,0.2578125 0.28125,0.2578125 0.1523438,0 0.3867188,-0.1289063 0.3867188,-0.421875 0,-0.3867188 -0.4453125,-0.5039063 -0.7265625,-0.5039063 -0.3515625,0 -0.6328125,0.2226563 -0.7851563,0.4921875 -0.1171875,-0.2929687 -0.4453125,-0.4921875 -0.8320312,-0.4921875 -0.78515628,0 -1.23046878,0.8554688 -1.23046878,1.0664063 0,0.082031 0.10546875,0.082031 0.1171875,0.082031 0.09375,0 0.10546875,-0.023437 0.140625,-0.1171875 0.17578125,-0.5390625 0.60937498,-0.84375 0.94921878,-0.84375 0.234375,0 0.421875,0.1289063 0.421875,0.46875 0,0.1289063 -0.082031,0.4804688 -0.1523438,0.7148438 z m 0,0"
         style="fill:#000000;fill-opacity:1;fill-rule:nonzero;stroke:none" />
      <path
         id="path59"
         d="m 6.1577187,-0.65585156 c 0.4570313,0 0.7617188,0.29296875 0.7617188,0.78515625 0,0.50390625 -0.3046875,0.7734375 -0.75,0.7734375 -0.058594,0 -0.65625,0 -0.9023438,-0.2578125 0.1992188,-0.0351563 0.2578125,-0.1875 0.2578125,-0.3046875 0,-0.1875 -0.140625,-0.3046875 -0.3046875,-0.3046875 -0.1523437,0 -0.3046875,0.10546875 -0.3046875,0.31640625 0,0.515625 0.5859375,0.74999996 1.265625,0.74999996 0.8203125,0 1.3242188,-0.49218746 1.3242188,-0.97265621 0,-0.41015625 -0.3632813,-0.76171875 -0.9257813,-0.890625 0.5976563,-0.1875 0.75,-0.56249999 0.75,-0.84374999 0,-0.4101563 -0.5039062,-0.7148438 -1.1367187,-0.7148438 -0.609375,0 -1.1015625,0.2578125 -1.1015625,0.703125 0,0.234375 0.1875,0.2929688 0.28125,0.2929688 0.140625,0 0.28125,-0.1054688 0.28125,-0.28125 0,-0.1171875 -0.058594,-0.2578125 -0.234375,-0.28125 0.2109375,-0.234375 0.65625,-0.2460938 0.7617187,-0.2460938 0.3632813,0 0.6210938,0.1875 0.6210938,0.5273438 0,0.28125 -0.1875,0.73828124 -0.7148438,0.77343749 -0.140625,0 -0.1523437,0 -0.28125,0.0117188 -0.058594,0 -0.1171875,0.0117188 -0.1171875,0.0820313 0,0.0820313 0.058594,0.0820313 0.140625,0.0820313 z m 0,0"
         style="fill:#000000;fill-opacity:1;fill-rule:nonzero;stroke:none" />
    </g>
    <g
       id="g59"
       aria-label="x&#10;4"
       transform="matrix(1.3333333,0,0,1.3333333,170.32133,174.64667)">
      <path
         id="path60"
         d="m 1.7336094,-0.73695312 c -0.070312,0.234375 -0.2929688,0.609375 -0.65625,0.609375 -0.023437,0 -0.22265628,0 -0.37500003,-0.09375 0.28125,-0.09375 0.30468753,-0.33984375 0.30468753,-0.38671875 0,-0.15234375 -0.11718753,-0.2578125 -0.28125003,-0.2578125 -0.1875,0 -0.38671875,0.1640625 -0.38671875,0.43359375 0,0.33984375 0.38671875,0.50390625 0.72656248,0.50390625 0.3164063,0 0.609375,-0.19921875 0.7851563,-0.4921875 0.1640625,0.36328125 0.5507812,0.4921875 0.8203125,0.4921875 0.8085937,0 1.2304687,-0.8671875 1.2304687,-1.06640625 0,-0.09375 -0.09375,-0.09375 -0.1054687,-0.09375 -0.1054688,0 -0.1054688,0.035156 -0.140625,0.11718746 -0.140625,0.48046875 -0.5625,0.84375 -0.9492188,0.84375 -0.28125,0 -0.421875,-0.1875 -0.421875,-0.4453125 0,-0.1875 0.1640625,-0.82031246 0.3632813,-1.59374996 0.1289062,-0.5390625 0.4453125,-0.7148438 0.6796875,-0.7148438 0.011719,0 0.2226562,0 0.375,0.1054688 -0.2226563,0.058594 -0.3046875,0.2578125 -0.3046875,0.375 0,0.1523437 0.1171875,0.2578125 0.28125,0.2578125 0.1523437,0 0.3867187,-0.1289063 0.3867187,-0.421875 0,-0.3867188 -0.4453125,-0.5039063 -0.7265625,-0.5039063 -0.3515625,0 -0.6328125,0.2226563 -0.7851562,0.4921875 -0.1171875,-0.2929687 -0.4453125,-0.4921875 -0.8320313,-0.4921875 -0.78515623,0 -1.23046873,0.8554688 -1.23046873,1.0664063 0,0.082031 0.10546875,0.082031 0.1171875,0.082031 0.09375,0 0.10546875,-0.023437 0.140625,-0.1171875 0.17578125,-0.5390625 0.60937503,-0.84375 0.94921873,-0.84375 0.234375,0 0.421875,0.1289063 0.421875,0.46875 0,0.1289063 -0.082031,0.4804688 -0.1523437,0.7148438 z m 0,0"
         style="fill:#000000;fill-opacity:1;fill-rule:nonzero;stroke:none" />
      <path
         id="path61"
         d="M 7.587125,0.18882813 V -0.03382812 H 6.9660312 V -2.2252344 c 0,-0.1171875 0,-0.1523437 -0.1289062,-0.1523437 -0.1054688,0 -0.1054688,0.011719 -0.1640625,0.082031 l -1.8398438,2.26171878 v 0.22265625 h 1.6523438 v 0.38671875 c 0,0.15234375 0,0.19921875 -0.4335938,0.19921875 H 5.8761875 v 0.22265625 c 0.234375,-0.0117188 0.5625,-0.0234375 0.8554687,-0.0234375 0.28125,0 0.609375,0.0117188 0.84375,0.0234375 V 0.77476563 H 7.399625 c -0.4335938,0 -0.4335938,-0.046875 -0.4335938,-0.19921875 V 0.18882813 Z M 6.5324375,-1.8385156 v 1.80468748 H 5.0675937 Z m 0,0"
         style="fill:#000000;fill-opacity:1;fill-rule:nonzero;stroke:none" />
    </g>
    <path
       id="path62"
       d="m 1.0786484,-3.8914297 c 0.3632813,0.09375 0.5625,0.09375 0.6796875,0.09375 0.9140625,0 1.4648438,-0.6328125 1.4648438,-0.7382812 0,-0.070312 -0.046875,-0.09375 -0.082031,-0.09375 -0.011719,0 -0.035156,0 -0.058594,0.023437 -0.1640625,0.058594 -0.5390625,0.1992187 -1.0546875,0.1992187 -0.1992188,0 -0.5625,-0.011719 -1.0195313,-0.1875 -0.0703125,-0.035156 -0.0820312,-0.035156 -0.0820312,-0.035156 -0.09375,0 -0.09375,0.070312 -0.09375,0.1875 v 2.0625 c 0,0.1171875 0,0.1992187 0.10546875,0.1992187 0.0703125,0 0.0703125,-0.011719 0.14062495,-0.1054687 0.3046875,-0.375 0.7265625,-0.4335938 0.9726563,-0.4335938 0.421875,0 0.609375,0.3398438 0.6445312,0.3867188 0.1171875,0.234375 0.1640625,0.5039062 0.1640625,0.9023437 0,0.2109375 0,0.62109376 -0.2109375,0.92578126 -0.1757812,0.2578125 -0.46875,0.421875 -0.8203125,0.421875 -0.4453125,0 -0.91406245,-0.2578125 -1.0898437,-0.71484375 0.2695312,0.0234375 0.3984375,-0.15234375 0.3984375,-0.33984371 0,-0.3046875 -0.2578125,-0.3515625 -0.3515625,-0.3515625 -0.0117188,0 -0.3515625,0 -0.3515625,0.375 0,0.62109371 0.5742187,1.25390621 1.4179687,1.25390621 0.890625,0 1.6640625,-0.66796875 1.6640625,-1.54687501 0,-0.7851562 -0.5976562,-1.5117187 -1.453125,-1.5117187 -0.3164062,0 -0.6796875,0.082031 -0.984375,0.3398437 z m 0,0"
       style="fill:#000000;fill-opacity:1;fill-rule:nonzero;stroke:none"
       aria-label="5"
       transform="matrix(1.3333333,0,0,1.3333333,-91.418667,79.434667)" />
    <g
       id="g64">
      <path
         d="m 133.039,86.84 h 45.117"
         style="fill:none;stroke:#000000;stroke-width:1.13386;stroke-linecap:round;stroke-linejoin:round;stroke-miterlimit:1;stroke-dasharray:none;stroke-opacity:1"
         transform="matrix(0.67030667,0,0,0.67030667,-130.71733,50.957098)"
         id="path63" />
      <path
         d="m 181.426,86.84 -4.903,2.836 v -5.672 z"
         style="fill:#000000;fill-opacity:1;fill-rule:evenodd;stroke:#000000;stroke-width:0.755906;stroke-linecap:butt;stroke-linejoin:miter;stroke-miterlimit:4;stroke-dasharray:none;stroke-opacity:1"
         transform="matrix(0.67030667,0,0,0.67030667,-130.71733,50.957098)"
         id="path64" />
    </g>
    <path
       id="path65"
       d="m 3.3288359,-3.0112187 c 0.058594,-0.2578125 0.2929688,-1.171875 0.984375,-1.171875 0.046875,0 0.2929688,0 0.5039063,0.1289062 -0.28125,0.046875 -0.4804688,0.3046875 -0.4804688,0.5390625 0,0.1640625 0.1054688,0.3515625 0.375,0.3515625 0.2226563,0 0.5390625,-0.1875 0.5390625,-0.5859375 0,-0.515625 -0.5859375,-0.65625 -0.9257812,-0.65625 -0.5742188,0 -0.9257813,0.5273438 -1.0429688,0.7617188 -0.2578125,-0.65625 -0.7851562,-0.7617188 -1.078125,-0.7617188 -1.0429687,0 -1.60546871,1.2890625 -1.60546871,1.5351563 0,0.1054687 0.10546875,0.1054687 0.1171875,0.1054687 0.0820313,0 0.1171875,-0.023437 0.12890625,-0.1171875 C 1.1843047,-3.937 1.8405547,-4.1830937 2.1803984,-4.1830937 c 0.1875,0 0.5390625,0.09375 0.5390625,0.6679687 0,0.3046875 -0.1640625,0.9726563 -0.5390625,2.3671875 -0.1523437,0.62109375 -0.5039062,1.04296875 -0.9492187,1.04296875 -0.058594,0 -0.28125001,0 -0.49218751,-0.12890625 0.24609375,-0.0585938 0.46875001,-0.26953125 0.46875001,-0.5390625 0,-0.2695312 -0.22265626,-0.3515625 -0.37500001,-0.3515625 -0.29296875,0 -0.5390625,0.2578125 -0.5390625,0.57421875 0,0.45703125 0.4921875,0.65625 0.93750001,0.65625 0.65625,0 1.0078125,-0.69140625 1.0429687,-0.75 0.1171875,0.36328125 0.4804688,0.75 1.078125,0.75 1.0195313,0 1.59375,-1.27734375 1.59375,-1.53515625 0,-0.09375 -0.09375,-0.09375 -0.1289062,-0.09375 -0.082031,0 -0.1054688,0.035156 -0.1289063,0.1054688 -0.328125,1.0664062 -0.9960937,1.31249995 -1.3242187,1.31249995 -0.3867188,0 -0.5390625,-0.328125 -0.5390625,-0.65625 0,-0.22265625 0.058594,-0.44531245 0.1640625,-0.87890625 z m 0,0"
       style="fill:#000000;fill-opacity:1;fill-rule:nonzero;stroke:none"
       aria-label="x"
       transform="matrix(1.3333333,0,0,1.3333333,-29.762667,106.24933)" />
    <g
       id="g69">
      <path
         d="M 313.746,81.98 381.113,52.41"
         style="fill:none;stroke:#000000;stroke-width:1.13386;stroke-linecap:round;stroke-linejoin:round;stroke-miterlimit:1;stroke-dasharray:none;stroke-opacity:1"
         transform="matrix(0.67030667,0,0,0.67030667,-130.71733,50.957098)"
         id="path66" />
      <path
         d="m 303.267,184.198 -4.491,2.596 10e-4,-5.191 z"
         style="fill:#000000;fill-opacity:1;fill-rule:evenodd;stroke:#000000;stroke-width:0.692175;stroke-linecap:butt;stroke-linejoin:miter;stroke-miterlimit:4;stroke-dasharray:none;stroke-opacity:1"
         transform="matrix(0.67030667,-0.29419089,0.29419089,0.67030667,-130.71733,50.957098)"
         id="path67" />
      <path
         d="m 313.805,113.469 67.308,27.867"
         style="fill:none;stroke:#000000;stroke-width:1.13386;stroke-linecap:round;stroke-linejoin:round;stroke-miterlimit:1;stroke-dasharray:none;stroke-opacity:1"
         transform="matrix(0.67030667,0,0,0.67030667,-130.71733,50.957098)"
         id="path68" />
      <path
         d="m 378.321,-14.046 -4.529,2.617 -10e-4,-5.238 z"
         style="fill:#000000;fill-opacity:1;fill-rule:evenodd;stroke:#000000;stroke-width:0.698411;stroke-linecap:butt;stroke-linejoin:miter;stroke-miterlimit:4;stroke-dasharray:none;stroke-opacity:1"
         transform="matrix(0.67030667,0.27752707,-0.27752707,0.67030667,-130.71733,50.957098)"
         id="path69" />
    </g>
    <path
       id="path70"
       d="m 5.1960937,-4.7226928 c -0.00202,-0.115401 -7.395e-4,-0.1784968 -0.1053501,-0.1719083 -0.021581,-0.00914 -0.063096,-0.00128 -0.1258218,0.086694 l -0.360994,0.5216073 C 4.3118451,-4.5882318 3.8350469,-4.9047865 3.1687931,-4.8943324 1.7084469,-4.9021324 0.48828108,-3.7645254 0.49712148,-2.3734938 0.49681854,-0.96088117 1.7108657,0.13894213 3.171212,0.14674128 4.3945372,0.14321228 5.1970002,-0.78954302 5.196597,-1.629722 5.191657,-1.70818 5.177571,-1.7650569 5.0775319,-1.7692588 c -0.052305,0.00329 -0.1261915,-0.00255 -0.1258218,0.086694 -0.049146,1.13737117 -1.0090959,1.57067116 -1.6969306,1.57198195 -0.7509305,3.34e-5 -2.0238382,-0.45017568 -2.017518,-2.26751565 -0.00319,-1.8850074 1.3477695,-2.2799186 2.0094516,-2.2795823 0.6878348,-0.00131 1.5099286,0.4615375 1.6965264,1.6733328 0.00494,0.078458 0.068037,0.079735 0.1203425,0.076441 0.1261915,0.00255 0.1336877,-0.045179 0.1300237,-0.1867326 z M 8.9853273,-2.31864 C 9.174413,-2.7348973 9.5251879,-2.7517384 9.640589,-2.7537553 l 0.00511,-0.2523831 c -0.1876402,0.02232 -0.3291939,0.025985 -0.5230529,0.032943 -0.1892874,-0.00383 -0.4416705,-0.00894 -0.6371766,-0.028136 l -0.00511,0.2523831 c 0.2370209,0.011328 0.2821998,0.1450162 0.2842166,0.2604173 0.00494,0.078458 -0.037851,0.1494196 -0.049919,0.2079437 L 7.9367334,-0.62470187 7.0705032,-2.4553537 c -0.00329,-0.052305 -0.037313,-0.092173 -0.034388,-0.1291161 -0.00531,-0.1677063 0.225491,-0.1717401 0.3516825,-0.1691853 l 0.00511,-0.2523831 c -0.1154011,0.00202 -0.6123013,0.033313 -0.8015887,0.02948 -0.2154399,-0.00218 -0.4786135,-0.011866 -0.6894818,-0.024842 l -0.00511,0.2523831 c 0.3939368,0.00145 0.4678231,0.00729 0.5826862,0.2468704 L 7.6454237,0.00279346 C 7.585992,0.14306978 7.5203414,0.26798394 7.4609096,0.40826026 7.2884634,0.75520296 7.0719476,1.2362032 6.5995529,1.239699 6.4256277,1.229648 6.3654564,1.1914275 6.2944947,1.1486353 6.3098569,1.1424165 6.5004216,1.0831529 6.5009595,0.84156024 6.50022,0.6630634 6.3765833,0.53431705 6.2088769,0.5396282 6.0303801,0.54036769 5.9016337,0.66400445 5.8978015,0.85329178 5.8976333,1.1841328 6.2217177,1.4105315 6.6002923,1.4181959 7.1988787,1.4172548 7.537922,0.79725567 7.6355743,0.59680811 Z M 12.58693,-2.7686544 c -0.129116,0.034388 -0.194767,0.1593025 -0.191103,0.3008562 7.4e-4,0.1784969 0.126024,0.3333959 0.330673,0.3310092 0.178497,-7.395e-4 0.333396,-0.1260234 0.324791,-0.346035 0.0082,-0.6201673 -0.958169,-0.622319 -1.162818,-0.6199323 -1.044829,0.00279 -1.698611,0.7948987 -1.690712,1.587344 -0.0025,0.87712213 0.736005,1.59729493 1.654642,1.59195037 1.044828,-0.0027898 1.276874,-0.82084982 1.271933,-0.89930776 0.0042,-0.10003891 -0.06968,-0.10588798 -0.106628,-0.10881252 -0.08925,3.6974e-4 -0.102963,0.0327412 -0.133318,0.13442725 -0.145923,0.43454398 -0.526683,0.64231958 -0.946773,0.64252115 -0.483185,-0.001076 -1.098612,-0.35090965 -1.093536,-1.35422329 -0.0037,-0.8924842 0.417468,-1.3758711 1.068359,-1.3801064 0.08925,-3.697e-4 0.42009,-2.016e-4 0.67449,0.1203091 z m 2.266919,-2.0686803 -1.050678,0.076676 -0.0051,0.2523831 c 0.467823,0.00729 0.527994,0.045515 0.534045,0.3917184 l -5.73e-4,3.57615575 c -0.0018,0.3046884 -0.0757,0.29883933 -0.532734,0.29611637 l -5.38e-4,0.24159262 c 0.02615,-0.00164713 0.507691,-0.02672395 0.786227,-0.02326151 0.267745,-0.0011092 0.53549,-0.0022185 0.78952,0.02904378 l 5.38e-4,-0.24159262 c -0.446242,0.001849 -0.520128,-0.004 -0.518313,-0.30868877 z m 2.294651,0.5394578 c -0.0024,-0.2046495 -0.177052,-0.3931974 -0.407854,-0.3891636 -0.21544,-0.00219 -0.410206,0.1571174 -0.406173,0.3879196 -5.38e-4,0.2415926 0.203204,0.3915502 0.403282,0.399954 0.220012,-0.00861 0.414778,-0.1679079 0.410745,-0.39871 z m -1.06873,1.2908579 0.0011,0.2677453 c 0.44167,0.00894 0.506413,0.036372 0.501673,0.3780034 l 0.0045,1.82191157 c -0.0018,0.3046884 -0.0757,0.29883933 -0.532734,0.29611637 l -5.38e-4,0.24159262 c 0.02615,-0.00164714 0.507691,-0.02672396 0.786227,-0.02326151 0.241593,5.3792e-4 0.493976,0.0056475 0.741787,0.02154757 l 5.38e-4,-0.24159262 c -0.398509,0.009345 -0.472395,0.003496 -0.475151,-0.29040207 l 0.0034,-2.53132733 z m 4.558494,0.2354004 c -0.129116,0.034388 -0.194767,0.1593025 -0.191103,0.3008562 7.4e-4,0.1784968 0.126024,0.3333958 0.330673,0.3310092 0.178497,-7.395e-4 0.333396,-0.1260234 0.32479,-0.346035 0.0082,-0.6201673 -0.958168,-0.622319 -1.162817,-0.6199324 -1.044829,0.00279 -1.698611,0.7948988 -1.690712,1.5873441 -0.0025,0.87712209 0.736005,1.5972949 1.654642,1.59195034 1.044828,-0.0027898 1.276874,-0.82084983 1.271933,-0.89930777 0.0042,-0.10003891 -0.06968,-0.10588798 -0.106628,-0.10881251 -0.08925,3.6974e-4 -0.102963,0.0327412 -0.133318,0.13442725 -0.145923,0.43454398 -0.526683,0.64231958 -0.946773,0.64252115 -0.483185,-0.001076 -1.098612,-0.35090966 -1.093536,-1.35422326 -0.0037,-0.8924843 0.417468,-1.3758711 1.068359,-1.3801064 0.08925,-3.698e-4 0.42009,-2.016e-4 0.67449,0.1203091 z m 6.153746,-0.1578302 c 0.0088,-0.1108294 0.01005,-0.1739251 -0.08999,-0.1781271 -0.04152,0.00787 -0.05231,0.00329 -0.147403,0.07755 -0.01079,-0.00457 -0.08431,0.078828 -0.113384,0.117418 -0.214532,-0.1545293 -0.479353,-0.1903632 -0.736308,-0.1846823 -1.003313,-0.00508 -1.233544,0.5082955 -1.238284,0.849927 0.004,0.2308022 0.09402,0.4089293 0.254601,0.5406001 0.267208,0.2404834 0.538247,0.2916795 0.96785,0.3591454 0.340354,0.067836 0.913157,0.1577901 0.905863,0.62561321 0.0011,0.26774527 -0.177556,0.59932581 -0.850029,0.59441779 -0.661682,-3.3634e-4 -0.920485,-0.44089756 -1.03481,-0.9220659 -0.0203,-0.072239 -0.03896,-0.1183256 -0.13278,-0.1071654 -0.11083,-0.00877 -0.107536,0.043532 -0.103872,0.18508539 l -0.0042,0.85096944 c -0.0026,0.12619155 -0.0038,0.18928733 0.08542,0.18891759 0.0631,0.0012774 0.200986,-0.14394034 0.343447,-0.29994856 0.307445,0.29571323 0.675229,0.29880593 0.838364,0.30428526 0.914065,0.0054459 1.250553,-0.48836164 1.256201,-0.98233738 -0.0011,-0.26774524 -0.114325,-0.48116834 -0.298133,-0.64813524 -0.262636,-0.2512739 -0.590553,-0.2883852 -0.835439,-0.3412284 -0.557442,-0.096173 -1.008625,-0.1727825 -1.016323,-0.5451384 0.0068,-0.2262305 0.199506,-0.500934 0.856617,-0.4898072 0.803236,-0.00333 0.848616,0.5504496 0.851003,0.755099 0.01573,0.08303 0.09419,0.078088 0.120342,0.076441 0.126192,0.00255 0.129116,-0.034388 0.130024,-0.1867325 z m 4.105831,0.8231709 c -0.0072,-0.6139485 -0.291747,-0.9636142 -1.042677,-0.9635808 -0.624739,0.00259 -0.964892,0.3548421 -1.116127,0.6216797 l -0.01536,0.00622 -0.0038,-2.3943453 -1.039887,0.081248 -0.0051,0.2523831 c 0.472395,-0.0035 0.532566,0.034725 0.538617,0.3809279 l -5.73e-4,3.57615578 c -0.0018,0.3046884 -0.0757,0.29883933 -0.537305,0.30690685 l -5.38e-4,0.24159263 c 0.01536,-0.00621881 0.50769,-0.02672396 0.801588,-0.02948032 0.256955,-0.0056809 0.746359,0.01075708 0.804883,0.02282497 l 5.38e-4,-0.24159263 c -0.446242,0.001849 -0.5247,0.00679 -0.522885,-0.29789828 l -6.04e-4,-1.2602684 c -0.0046,-0.7401401 0.572568,-1.0810655 1.034172,-1.089133 0.493976,0.00565 0.544836,0.39629 0.546315,0.7532837 l 4.36e-4,1.59110949 c -0.0018,0.3046884 -0.06491,0.303411 -0.511153,0.30525971 l -5.38e-4,0.24159263 c 0.01079,0.00457167 0.507691,-0.02672396 0.797017,-0.01868984 0.256955,-0.0056809 0.746359,0.01075709 0.794093,0.0182533 l 5.38e-4,-0.24159263 c -0.457033,-0.002723 -0.5247,0.00679 -0.522885,-0.29789828 z m 2.287945,-2.1934097 c -0.0024,-0.2046495 -0.177051,-0.3931973 -0.407854,-0.3891635 -0.21544,-0.00219 -0.410206,0.1571174 -0.406172,0.3879195 -5.38e-4,0.2415927 0.203204,0.3915502 0.403281,0.3999541 0.220012,-0.00861 0.414779,-0.1679079 0.410745,-0.3987101 z m -1.068729,1.290858 0.0011,0.2677453 c 0.44167,0.00894 0.506413,0.036372 0.501673,0.3780033 l 0.0045,1.82191165 c -0.0018,0.3046884 -0.0757,0.29883933 -0.532734,0.29611637 l -5.38e-4,0.24159262 c 0.02615,-0.00164714 0.50769,-0.02672396 0.786226,-0.02326151 0.241593,5.3791e-4 0.493976,0.0056475 0.741787,0.02154757 l 5.38e-4,-0.24159262 c -0.398508,0.009345 -0.472395,0.003496 -0.475151,-0.29040207 l 0.0034,-2.53132731 z m 3.279846,0.2568549 0.866331,-0.00205 0.0051,-0.2523831 -0.903275,-8.743e-4 -0.0017,-0.7770831 c 0.002,-0.6355295 0.377802,-0.921763 0.682491,-0.9199477 0.05231,-0.00329 0.136982,0.00713 0.201725,0.034556 -0.09675,0.048103 -0.147033,0.1667987 -0.145017,0.2821998 7.4e-4,0.1784968 0.119805,0.3180337 0.302874,0.3065037 0.200077,0.0084 0.333395,-0.1260234 0.332656,-0.3045202 0.0018,-0.3046884 -0.300688,-0.5219437 -0.668472,-0.5250364 -0.561644,0.00387 -1.198619,0.3958189 -1.194013,1.1359589 l 0.0017,0.7770832 -0.594015,-0.00985 -0.0051,0.2523831 0.594014,0.00985 0.0076,2.20505797 c -0.0018,0.3046884 -0.0757,0.29883933 -0.532734,0.29611636 l -5.38e-4,0.24159263 c 0.03694,0.002924535 0.518481,-0.02215228 0.797017,-0.01868984 0.30926,-0.0089752 0.620167,0.0082023 0.920284,0.0208080918 l 5.38e-4,-0.2415926218 -0.141554,0.003664 c -0.520128,-0.004 -0.520498,-0.0932488 -0.524532,-0.32405093 z m 2.435129,-0.00239 1.081771,1.348e-4 0.0051,-0.2523831 -1.081772,-1.348e-4 -0.0023,-1.2864211 -0.241592,-5.379e-4 c -0.002,0.6355295 -0.294571,1.3261206 -0.950034,1.3411464 l -0.0084,0.2000778 0.64632,0.00656 0.0032,1.88500735 c 0.0017,0.77708317 0.583997,0.93470513 0.977934,0.9361507 0.457032,0.002723 0.7831,-0.40640785 0.785453,-0.95268888 l -0.0031,-0.38314637 -0.230802,0.00403 -0.0031,0.36778417 c -0.0011,0.48318525 -0.221625,0.73338331 -0.48937,0.73449254 -0.483186,-0.001076 -0.488698,-0.58887166 -0.486144,-0.71506322 z m 0,0"
       style="fill:#000000;fill-opacity:1;fill-rule:nonzero;stroke:none"
       aria-label="Cyclicshift"
       transform="matrix(1.2276667,-0.52013333,0.52013333,1.2276667,72.073453,102.47712)" />
    <path
       id="path71"
       d="m 3.5017576,-2.3771323 c 0.6261573,-0.139678 1.2533429,-0.5579081 1.2510025,-1.125875 -0.00286,-0.6941819 -0.921293,-1.245317 -1.9985166,-1.2517589 l -2.35023499,0.00316 -0.003357,0.2415671 0.16319993,-0.00285 c 0.54624166,0.00645 0.56176146,0.076027 0.55840456,0.3175939 l 0.00629,3.63850613 c 0.00311,0.22630737 -0.00956,0.31993427 -0.55580413,0.31348052 l -0.16319993,0.002849 -0.003357,0.2415671 c 0,0 0.74849516,-0.02484584 1.03790996,-0.02821458 0.2938119,0.0074939 0.6768536,0.01679632 1.0337729,0.02403021 l 0.00336,-0.2415671 -0.1631999,0.002849 C 1.7761788,-0.23738932 1.756262,-0.317825 1.7596189,-0.5593921 l -0.00495,-1.7300233 0.9248863,0.00489 c 0.1262148,-5.201e-4 0.4939968,0.00232 0.7932459,0.2731031 0.2555385,0.2252672 0.2519216,0.4037268 0.2581389,0.8563416 -0.00465,0.45701179 -0.00128,0.74642659 0.3196979,1.00841879 0.3013177,0.24466396 0.6975506,0.28655433 0.8868729,0.2857742 0.5940894,-2.7188e-4 0.759346,-0.56022483 0.7497717,-0.77127246 0.00414,-0.0522448 -5.201e-4,-0.12621488 -0.1114752,-0.11922921 -0.1044896,-0.008274 -0.1086266,0.0439707 -0.1148322,0.1223379 C 5.4299471,-0.23721563 5.195626,-0.06650994 4.9801813,-0.06779832 4.5798087,-0.05744041 4.5280721,-0.46634447 4.4362419,-1.0992273 4.3599314,-1.6625372 4.3529457,-1.7734923 4.1299952,-2.0119507 4.0666277,-2.0747981 3.8765253,-2.2633403 3.5017576,-2.3771323 Z m -0.8426421,-0.1140401 -0.8987639,-0.00283 -0.00288,-1.7561457 c 0.00362,-0.1784596 0.018617,-0.2351015 0.1882821,-0.2532099 0.05871,-0.011123 0.2894148,-0.00337 0.4264924,-0.00829 0.6833192,0.00154 1.6299307,-0.00236 1.6340914,1.0073549 0.00105,0.7834117 -0.6007913,1.014388 -1.3472179,1.0131115 z m 6.8187299,0.9946955 c -0.00571,-0.8573818 -0.7552562,-1.6159476 -1.7171276,-1.6185126 -0.9574742,0.0083 -1.711643,0.7687076 -1.7059338,1.6260893 -7.565e-4,0.87264153 0.7702559,1.55930577 1.7168675,1.55540511 0.935749,4.9642e-4 1.7054375,-0.69034036 1.7061939,-1.56298181 z M 7.7685428,-0.15980246 C 7.5052504,-0.15436521 7.1392769,-0.24643185 6.8964096,-0.56532594 6.7101841,-0.86922035 6.680433,-1.2238111 6.6899954,-1.5437454 c -0.00777,-0.3002774 -7.92e-4,-0.7203042 0.2591317,-1.0151563 0.1797481,-0.2118277 0.4598486,-0.3631367 0.8123709,-0.3667654 0.4091641,0.011371 0.7037561,0.2081871 0.854805,0.4251803 0.1991566,0.2733749 0.2245107,0.617103 0.2346051,0.9543655 -0.00517,0.3307969 -0.034125,0.69651041 -0.2309408,0.99110242 -0.1947478,0.26846962 -0.5097649,0.39598472 -0.8514245,0.39521642 z m 3.3873762,-2.59433464 1.088087,0.00204 0.0034,-0.2415671 -1.088086,-0.00204 -0.0031,-1.2882712 -0.241567,-0.00336 c 0.0026,0.6310744 -0.288351,1.3177623 -0.9564106,1.3226913 l -0.00569,0.2045821 0.6571966,-5.32e-4 0.0034,1.88236057 c 0.0011,0.78341167 0.587127,0.95073679 0.981032,0.95564211 0.467874,2.4821e-4 0.78392,-0.40581904 0.775114,-0.95852626 l 0.0093,-0.38304172 -0.241567,-0.00336 0.0016,0.37864465 c -0.0067,0.4831342 -0.221118,0.73427557 -0.49967,0.73324723 -0.478737,0.004149 -0.474612,-0.57907782 -0.479529,-0.71615536 z m 4.825477,0.8881168 c -0.0016,-0.3786446 -0.007,-0.6419371 -0.31711,-0.9083263 -0.292523,-0.2229387 -0.641168,-0.3346621 -1.045935,-0.3351704 -0.66806,0.00493 -1.113169,0.2483164 -1.120143,0.6683432 0.0031,0.2263074 0.151569,0.343208 0.330029,0.346825 0.189322,-7.802e-4 0.32588,-0.1319122 0.3251,-0.3212345 -5.2e-4,-0.1262149 -0.05768,-0.2674295 -0.247265,-0.3297568 0.260444,-0.1686372 0.649951,-0.1745945 0.702196,-0.1704575 0.389507,-0.00596 0.814971,0.2643089 0.810846,0.8475356 l 0.0031,0.2263074 c -0.378645,0.00156 -0.848588,0.027434 -1.352667,0.2188371 -0.632363,0.2180452 -0.809262,0.5930729 -0.807962,0.90861006 -0.0062,0.60934908 0.725753,0.79348236 1.215353,0.78493642 0.557104,0.0020567 0.886601,-0.30831515 1.03557,-0.59618153 0.01423,0.28501773 0.202525,0.56278975 0.533322,0.56795512 0.01086,-0.0043971 0.694182,-0.0028605 0.689253,-0.67091993 l -0.0016,-0.37864464 -0.252429,0.00104 0.0016,0.37864461 c 0.0047,0.0739701 0.006,0.3895073 -0.246472,0.39054748 -0.256827,-0.009822 -0.258128,-0.32535969 -0.256319,-0.41458952 z m -0.553464,0.88144747 c -0.0059,0.67245651 -0.58838,0.85765364 -0.893055,0.85455679 -0.363385,0.008026 -0.690825,-0.23870662 -0.690056,-0.58036621 -0.0016,-0.37864465 0.324827,-0.91532385 1.580251,-0.96837245 z m 2.813544,-1.77101537 1.088086,0.00204 0.0034,-0.2415671 -1.088086,-0.00204 -0.0031,-1.2882712 -0.241567,-0.00336 c 0.0026,0.6310744 -0.288351,1.3177623 -0.95641,1.3226913 l -0.0057,0.204582 0.657197,-5.319e-4 0.0034,1.88236054 c 0.0011,0.78341167 0.587127,0.95073679 0.981031,0.95564211 0.467875,2.4821e-4 0.78392,-0.40581904 0.775114,-0.95852626 l 0.0093,-0.38304169 -0.241568,-0.00336 0.0016,0.37864462 c -0.0067,0.4831342 -0.221119,0.73427557 -0.499671,0.73324723 -0.478737,0.004149 -0.474612,-0.57907782 -0.479529,-0.71615536 z m 4.783066,1.1581348 c 0.141474,0.00595 0.189322,-7.801e-4 0.19087,-0.1531174 -0.0047,-0.604952 -0.349449,-1.3630096 -1.38529,-1.3609174 -0.909627,0.00157 -1.609482,0.7399966 -1.60817,1.5865157 0.0036,0.88350411 0.772585,1.59629074 1.708333,1.59678716 0.946612,-0.0039007 1.285151,-0.76042164 1.2867,-0.91275891 -0.0023,-0.0369851 -0.01345,-0.0956954 -0.124407,-0.0887097 -0.07837,-0.006206 -0.09776,0.0395737 -0.119229,0.11147523 -0.213104,0.56667858 -0.741498,0.6667829 -0.993927,0.66782308 -0.330797,-0.005165 -0.644786,-0.15620242 -0.846011,-0.40345497 -0.262524,-0.33622234 -0.281673,-0.75831769 -0.280645,-1.03686979 z m -2.157296,-0.1760837 c 0.07214,-0.9773911 0.700364,-1.1431915 0.963656,-1.1486288 0.861779,0.00515 0.889733,0.9799561 0.907842,1.1496216 z m 0,0"
       style="fill:#000000;fill-opacity:1;fill-rule:nonzero;stroke:none"
       aria-label="Rotate"
       transform="matrix(1.2359067,0.50028,-0.50028,1.2359067,83.803235,139.65871)" />
    <path
       id="path72"
       d="M 0,0 V 170.079"
       style="fill:none;stroke:#000000;stroke-width:0.398;stroke-linecap:butt;stroke-linejoin:miter;stroke-miterlimit:10;stroke-dasharray:none;stroke-opacity:1"
       transform="matrix(1.3333333,0,0,-1.3333333,227.03733,226.772)" />
    <path
       id="path73"
       d="M 0,0 H 170.876"
       style="fill:none;stroke:#000000;stroke-width:0.398;stroke-linecap:butt;stroke-linejoin:miter;stroke-miterlimit:10;stroke-dasharray:none;stroke-opacity:1"
       transform="matrix(1.3333333,0,0,-1.3333333,-0.53066667,227.03733)" />
  </g>
</svg>
